<svg width="112" height="59" viewBox="0 0 112 59" fill="none" xmlns="http://www.w3.org/2000/svg">
<path d="M20.4012 39.1026H19.3464C19.2974 39.0843 19.2483 39.0798 19.199 39.0798C18.6358 39.0524 18.0767 39.0059 17.5225 38.9287C16.4859 38.7912 15.4666 38.5575 14.4744 38.2327C12.7715 37.6741 11.1849 36.8726 9.71437 35.828C8.3508 34.8568 7.1445 33.7119 6.09396 32.3931C4.85546 30.8449 3.8904 29.1363 3.20626 27.2589C2.59372 25.5917 2.22732 23.8654 2.11533 22.0835C2.11533 21.9873 2.09754 21.8911 2.06641 21.7949V19.9125C2.09754 19.8295 2.11088 19.7429 2.11533 19.656C2.13757 19.2299 2.18205 18.8038 2.23631 18.3828C2.50468 16.3493 3.09427 14.4207 4.00177 12.5931C4.62747 11.3334 5.3874 10.1614 6.28094 9.07985C7.16603 8.00833 8.15831 7.05069 9.25751 6.21277C11.0499 4.84766 13.0211 3.86303 15.1752 3.2588C16.221 2.96603 17.2896 2.77365 18.3708 2.68174C18.5628 2.6635 18.7643 2.68174 18.9563 2.63159H20.762C20.9004 2.67262 21.0436 2.64983 21.1819 2.6635C21.8975 2.72733 22.608 2.81951 23.3138 2.96129C25.5353 3.41016 27.5955 4.2623 29.4999 5.52119C30.9795 6.4967 32.2846 7.67371 33.4242 9.0431C34.3407 10.1424 35.1179 11.3379 35.7528 12.629C36.5037 14.1545 37.0398 15.7526 37.3444 17.4333C37.505 18.3218 37.626 19.2195 37.6301 20.1265C37.6301 20.1866 37.6434 20.2505 37.6479 20.3095V21.3905C37.6301 21.4589 37.6301 21.5323 37.6256 21.6056C37.6256 21.7795 37.6256 21.9541 37.6123 22.1279C37.5313 23.2365 37.362 24.3309 37.0936 25.4117C36.5797 27.4409 35.7523 29.3233 34.6037 31.0589C33.7498 32.3506 32.7535 33.5141 31.609 34.5443C30.4694 35.5704 29.222 36.4361 27.8676 37.1364C26.3073 37.9423 24.6671 38.5015 22.9462 38.8079C22.2849 38.9269 21.6189 39.0046 20.9486 39.0459C20.772 39.0668 20.5847 39.0625 20.4012 39.1026Z" fill="#00DA7E"/>
<path style="mix-blend-mode:lighten" d="M15.2302 13.3006C15.2177 13.6357 15.2758 14.002 15.3721 14.3684C15.5556 15.0655 15.8597 15.7042 16.2183 16.3075C17.0352 17.6796 18.0648 18.8542 19.182 19.9448C19.2735 20.0344 19.3824 20.1101 19.499 20.1679C19.6158 20.2301 19.7325 20.2301 19.8532 20.1767C19.9698 20.1234 20.0741 20.0474 20.1617 19.9488C20.5494 19.5379 20.9327 19.1264 21.2996 18.7018C21.8164 18.0985 22.3086 17.4778 22.7546 16.8119C23.1592 16.2087 23.5216 15.574 23.7882 14.8859C24.0547 14.202 24.1842 13.4966 24.0967 12.7548C23.9508 11.5309 23.4633 10.4938 22.5919 9.68067C21.5616 8.72074 20.3615 8.3364 19.0109 8.5505C16.8142 8.89944 15.2217 10.9729 15.2302 13.3006Z" fill="#FFFDEF"/>
<path d="M26.5989 29.9834C26.3224 29.992 26.012 29.957 25.7016 29.8894C24.7834 29.6834 24.0035 29.2554 23.4041 28.4968C23.0396 28.0341 22.7331 27.5327 22.469 27.0054C22.1585 26.384 21.899 25.7367 21.6727 25.0814C21.3962 24.2887 21.1615 23.4788 20.9808 22.6601C20.8804 22.2014 20.9932 21.9141 21.4881 21.7561C22.1168 21.5548 22.7501 21.3748 23.3957 21.2288C24.4645 20.9887 25.5418 20.8347 26.6407 20.8727C26.9512 20.8854 27.2609 20.9196 27.5674 20.9753C28.4562 21.1341 29.2107 21.5541 29.8269 22.2181C30.8795 23.3494 31.2981 24.6993 31.0386 26.2381C30.6656 28.4368 28.762 30.0007 26.5989 29.9834Z" fill="#FFFDEF"/>
<path d="M12.7538 29.9834C13.0302 29.992 13.3407 29.957 13.6511 29.8894C14.5693 29.6834 15.3492 29.2554 15.9486 28.4968C16.3131 28.0341 16.6195 27.5327 16.8837 27.0054C17.1942 26.384 17.4537 25.7367 17.6799 25.0814C17.9564 24.2887 18.1912 23.4788 18.3719 22.6601C18.4723 22.2014 18.3594 21.9141 17.8646 21.7561C17.2359 21.5548 16.6026 21.3748 15.957 21.2288C14.8882 20.9887 13.8108 20.8347 12.712 20.8727C12.4015 20.8854 12.0917 20.9196 11.7853 20.9753C10.8964 21.1341 10.142 21.5541 9.52573 22.2181C8.47317 23.3494 8.05452 24.6993 8.31407 26.2381C8.68709 28.4368 10.5906 30.0007 12.7538 29.9834Z" fill="#FFFDEF"/>
<g clip-path="url(#clip0_1563_217)">
<path d="M66.7292 2.00391H91.2708C94.9917 2.00391 98 5.00756 98 8.72261V32.2776C98 35.9927 94.9917 38.9963 91.2708 38.9963H66.7292C63.0083 38.9963 60 35.9927 60 32.2776V8.72261C60 5.00756 63.0083 2.00391 66.7292 2.00391Z" fill="#00DA7E"/>
<path d="M69.0254 27.9301V11.6472C69.0254 11.5365 69.0729 11.4733 69.1837 11.4733C69.4529 11.4733 69.7062 11.4733 70.0704 11.4575C70.4504 11.4417 70.8462 11.4417 71.2737 11.4258C71.7012 11.41 72.1604 11.41 72.6512 11.3942C73.1421 11.3784 73.6171 11.3784 74.0921 11.3784C75.3904 11.3784 76.4671 11.5365 77.3537 11.8685C78.1454 12.1372 78.8737 12.5799 79.4754 13.1648C79.9821 13.6707 80.3779 14.2872 80.6312 14.967C80.8687 15.631 80.9954 16.3107 80.9954 17.0221C80.9954 18.3817 80.6787 19.5041 80.0454 20.3894C79.4121 21.2747 78.5254 21.9386 77.4962 22.3181C76.4196 22.7133 75.2321 22.8555 73.9337 22.8555C73.5537 22.8555 73.3004 22.8556 73.1421 22.8397C72.9837 22.8239 72.7621 22.8239 72.4612 22.8239V27.8985C72.4771 28.0092 72.3979 28.104 72.2871 28.1199H69.2154C69.0887 28.1199 69.0254 28.0566 69.0254 27.9143V27.9301ZM72.4771 14.5402V19.8519C72.6987 19.8677 72.9046 19.8835 73.0946 19.8835H73.9337C74.5512 19.8835 75.1687 19.7887 75.7546 19.599C76.2612 19.4567 76.7046 19.1563 77.0529 18.7611C77.3854 18.3659 77.5437 17.8284 77.5437 17.1328C77.5596 16.6427 77.4329 16.1527 77.1796 15.7258C76.9104 15.3148 76.5304 14.9986 76.0712 14.8247C75.4854 14.5876 74.8521 14.4927 74.2029 14.5085C73.7912 14.5085 73.4271 14.5085 73.1262 14.5244C72.8096 14.5085 72.5879 14.5244 72.4771 14.5402ZM83.2754 15.4729H86.0462C86.2046 15.4729 86.3312 15.5835 86.3787 15.7258C86.4262 15.8523 86.4579 15.9788 86.4737 16.121C86.5054 16.2791 86.5371 16.453 86.5529 16.6111C86.5687 16.785 86.5846 16.9747 86.5846 17.1802C87.0596 16.6269 87.6296 16.1685 88.2787 15.8207C89.0071 15.4096 89.8462 15.2041 90.6854 15.2041C90.7962 15.1883 90.8912 15.2674 90.9071 15.378V18.524C90.9071 18.6504 90.8279 18.6979 90.6537 18.6979C90.0837 18.682 89.4979 18.7295 88.9437 18.8559C88.4846 18.9508 88.0412 19.0931 87.6137 19.2828C87.3129 19.4251 87.0279 19.6148 86.8062 19.8677V27.9301C86.8062 28.0882 86.7429 28.1515 86.6004 28.1515H83.4812C83.3546 28.1673 83.2437 28.0882 83.2279 27.9618V19.1405C83.2279 18.7611 83.2279 18.3659 83.2121 17.9548C83.1962 17.5438 83.1962 17.1328 83.1804 16.7218C83.1804 16.3582 83.1487 16.0104 83.1171 15.6468C83.1012 15.5677 83.1487 15.4887 83.2279 15.4729C83.2279 15.4571 83.2596 15.4571 83.2754 15.4729Z" fill="#FFFDEF"/>
</g>
<path d="M2.00977 56V48.2979H4.13672C6.85091 48.2979 8.20801 49.5493 8.20801 52.0522C8.20801 53.241 7.83024 54.1971 7.07471 54.9204C6.32275 55.6401 5.31478 56 4.05078 56H2.00977ZM2.91211 49.1143V55.1836H4.06152C5.07129 55.1836 5.85726 54.9132 6.41943 54.3726C6.98161 53.8319 7.2627 53.0656 7.2627 52.0737C7.2627 50.1007 6.21354 49.1143 4.11523 49.1143H2.91211ZM13.5415 56H12.6606V55.1406H12.6392C12.256 55.7995 11.6921 56.1289 10.9473 56.1289C10.3994 56.1289 9.96973 55.9839 9.6582 55.6938C9.35026 55.4038 9.19629 55.0189 9.19629 54.5391C9.19629 53.5114 9.80143 52.9134 11.0117 52.7451L12.6606 52.5142C12.6606 51.5796 12.2829 51.1123 11.5273 51.1123C10.8649 51.1123 10.2669 51.3379 9.7334 51.7891V50.8867C10.2741 50.543 10.8971 50.3711 11.6025 50.3711C12.8952 50.3711 13.5415 51.055 13.5415 52.4229V56ZM12.6606 53.2178L11.334 53.4004C10.9258 53.4577 10.6178 53.5597 10.4102 53.7065C10.2025 53.8498 10.0986 54.1058 10.0986 54.4746C10.0986 54.7432 10.1935 54.9634 10.3833 55.1353C10.5767 55.3035 10.8327 55.3877 11.1514 55.3877C11.5882 55.3877 11.9481 55.2355 12.231 54.9312C12.5174 54.6232 12.6606 54.2347 12.6606 53.7656V53.2178ZM19.5249 50.5L17.3335 56H16.4688L14.3848 50.5H15.3516L16.748 54.4961C16.8519 54.7897 16.9163 55.0457 16.9414 55.2642H16.9629C16.9987 54.9884 17.056 54.7396 17.1348 54.5176L18.5957 50.5H19.5249ZM20.9268 49.1035C20.7692 49.1035 20.6349 49.0498 20.5239 48.9424C20.4129 48.835 20.3574 48.6989 20.3574 48.5342C20.3574 48.3695 20.4129 48.2334 20.5239 48.126C20.6349 48.015 20.7692 47.9595 20.9268 47.9595C21.0879 47.9595 21.224 48.015 21.335 48.126C21.4495 48.2334 21.5068 48.3695 21.5068 48.5342C21.5068 48.6917 21.4495 48.826 21.335 48.937C21.224 49.048 21.0879 49.1035 20.9268 49.1035ZM21.3564 56H20.4756V50.5H21.3564V56ZM27.7051 56H26.8242V52.8633C26.8242 51.696 26.3981 51.1123 25.5459 51.1123C25.1055 51.1123 24.7402 51.2788 24.4502 51.6118C24.1637 51.9412 24.0205 52.3584 24.0205 52.8633V56H23.1396V50.5H24.0205V51.4131H24.042C24.4574 50.7184 25.0589 50.3711 25.8467 50.3711C26.4482 50.3711 26.9084 50.5662 27.2271 50.9565C27.5457 51.3433 27.7051 51.9036 27.7051 52.6377V56ZM33.1191 55.7476C32.6966 56.0018 32.1953 56.1289 31.6152 56.1289C30.8311 56.1289 30.1973 55.8747 29.7139 55.3662C29.234 54.8542 28.9941 54.1917 28.9941 53.3789C28.9941 52.473 29.2537 51.7461 29.7729 51.1982C30.2922 50.6468 30.985 50.3711 31.8516 50.3711C32.335 50.3711 32.7611 50.4606 33.1299 50.6396V51.542C32.7217 51.2555 32.2848 51.1123 31.8193 51.1123C31.2572 51.1123 30.7952 51.3146 30.4336 51.7192C30.0755 52.1203 29.8965 52.6484 29.8965 53.3037C29.8965 53.9482 30.0648 54.4567 30.4014 54.8291C30.7415 55.2015 31.1963 55.3877 31.7656 55.3877C32.2454 55.3877 32.6966 55.2284 33.1191 54.9097V55.7476ZM34.9023 49.1035C34.7448 49.1035 34.6105 49.0498 34.4995 48.9424C34.3885 48.835 34.333 48.6989 34.333 48.5342C34.333 48.3695 34.3885 48.2334 34.4995 48.126C34.6105 48.015 34.7448 47.9595 34.9023 47.9595C35.0635 47.9595 35.1995 48.015 35.3105 48.126C35.4251 48.2334 35.4824 48.3695 35.4824 48.5342C35.4824 48.6917 35.4251 48.826 35.3105 48.937C35.1995 49.048 35.0635 49.1035 34.9023 49.1035ZM35.332 56H34.4512V50.5H35.332V56Z" fill="#0D1F30"/>
<path d="M50.9121 53.0889V56H50.0098V48.2979H52.126C52.9495 48.2979 53.5869 48.4984 54.0381 48.8994C54.4928 49.3005 54.7202 49.8662 54.7202 50.5967C54.7202 51.3271 54.4678 51.9251 53.9629 52.3906C53.4616 52.8561 52.783 53.0889 51.9272 53.0889H50.9121ZM50.9121 49.1143V52.2725H51.8574C52.4805 52.2725 52.9549 52.131 53.2808 51.8481C53.6102 51.5617 53.7749 51.1589 53.7749 50.6396C53.7749 49.6227 53.1733 49.1143 51.9702 49.1143H50.9121ZM58.9258 51.3916C58.7718 51.2734 58.5498 51.2144 58.2598 51.2144C57.8838 51.2144 57.5687 51.3916 57.3145 51.7461C57.0638 52.1006 56.9385 52.584 56.9385 53.1963V56H56.0576V50.5H56.9385V51.6333H56.96C57.0853 51.2466 57.2769 50.9458 57.5347 50.731C57.7925 50.5125 58.0807 50.4033 58.3994 50.4033C58.6286 50.4033 58.804 50.4284 58.9258 50.4785V51.3916ZM64.3022 53.4702H60.4189C60.4333 54.0825 60.598 54.5552 60.9131 54.8882C61.2282 55.2212 61.6615 55.3877 62.2129 55.3877C62.8324 55.3877 63.4017 55.1836 63.9209 54.7754V55.6025C63.4375 55.9535 62.7983 56.1289 62.0034 56.1289C61.2264 56.1289 60.6159 55.88 60.1719 55.3823C59.7279 54.881 59.5059 54.1774 59.5059 53.2715C59.5059 52.4157 59.7476 51.7192 60.231 51.1821C60.7179 50.6414 61.3213 50.3711 62.041 50.3711C62.7607 50.3711 63.3175 50.6038 63.7114 51.0693C64.1053 51.5348 64.3022 52.1812 64.3022 53.0083V53.4702ZM63.3999 52.7236C63.3963 52.2152 63.2728 51.8195 63.0293 51.5366C62.7894 51.2537 62.4546 51.1123 62.0249 51.1123C61.6095 51.1123 61.2568 51.2609 60.9668 51.5581C60.6768 51.8553 60.4977 52.2438 60.4297 52.7236H63.3999ZM73.4492 56H72.5684V52.8418C72.5684 52.2331 72.4735 51.7926 72.2837 51.5205C72.0975 51.2484 71.7824 51.1123 71.3384 51.1123C70.9624 51.1123 70.6419 51.2842 70.377 51.6279C70.1156 51.9717 69.9849 52.3835 69.9849 52.8633V56H69.104V52.7344C69.104 51.653 68.6868 51.1123 67.8525 51.1123C67.4658 51.1123 67.1471 51.2752 66.8965 51.6011C66.6458 51.9233 66.5205 52.3441 66.5205 52.8633V56H65.6396V50.5H66.5205V51.3701H66.542C66.9323 50.7041 67.5016 50.3711 68.25 50.3711C68.626 50.3711 68.9536 50.4767 69.2329 50.688C69.5122 50.8957 69.7038 51.1696 69.8076 51.5098C70.2158 50.7507 70.8245 50.3711 71.6338 50.3711C72.8441 50.3711 73.4492 51.1177 73.4492 52.6108V56ZM75.5654 49.1035C75.4079 49.1035 75.2736 49.0498 75.1626 48.9424C75.0516 48.835 74.9961 48.6989 74.9961 48.5342C74.9961 48.3695 75.0516 48.2334 75.1626 48.126C75.2736 48.015 75.4079 47.9595 75.5654 47.9595C75.7266 47.9595 75.8626 48.015 75.9736 48.126C76.0882 48.2334 76.1455 48.3695 76.1455 48.5342C76.1455 48.6917 76.0882 48.826 75.9736 48.937C75.8626 49.048 75.7266 49.1035 75.5654 49.1035ZM75.9951 56H75.1143V50.5H75.9951V56ZM82.1987 53.4702H78.3154C78.3298 54.0825 78.4945 54.5552 78.8096 54.8882C79.1247 55.2212 79.5579 55.3877 80.1094 55.3877C80.7288 55.3877 81.2982 55.1836 81.8174 54.7754V55.6025C81.334 55.9535 80.6948 56.1289 79.8999 56.1289C79.1229 56.1289 78.5124 55.88 78.0684 55.3823C77.6243 54.881 77.4023 54.1774 77.4023 53.2715C77.4023 52.4157 77.644 51.7192 78.1274 51.1821C78.6144 50.6414 79.2178 50.3711 79.9375 50.3711C80.6572 50.3711 81.214 50.6038 81.6079 51.0693C82.0018 51.5348 82.1987 52.1812 82.1987 53.0083V53.4702ZM81.2964 52.7236C81.2928 52.2152 81.1693 51.8195 80.9258 51.5366C80.6859 51.2537 80.3511 51.1123 79.9214 51.1123C79.506 51.1123 79.1533 51.2609 78.8633 51.5581C78.5732 51.8553 78.3942 52.2438 78.3262 52.7236H81.2964ZM86.4043 51.3916C86.2503 51.2734 86.0283 51.2144 85.7383 51.2144C85.3623 51.2144 85.0472 51.3916 84.793 51.7461C84.5423 52.1006 84.417 52.584 84.417 53.1963V56H83.5361V50.5H84.417V51.6333H84.4385C84.5638 51.2466 84.7554 50.9458 85.0132 50.731C85.271 50.5125 85.5592 50.4033 85.8779 50.4033C86.1071 50.4033 86.2826 50.4284 86.4043 50.4785V51.3916ZM91.7808 53.4702H87.8975C87.9118 54.0825 88.0765 54.5552 88.3916 54.8882C88.7067 55.2212 89.14 55.3877 89.6914 55.3877C90.3109 55.3877 90.8802 55.1836 91.3994 54.7754V55.6025C90.916 55.9535 90.2769 56.1289 89.4819 56.1289C88.7049 56.1289 88.0944 55.88 87.6504 55.3823C87.2064 54.881 86.9844 54.1774 86.9844 53.2715C86.9844 52.4157 87.2261 51.7192 87.7095 51.1821C88.1965 50.6414 88.7998 50.3711 89.5195 50.3711C90.2393 50.3711 90.7961 50.6038 91.1899 51.0693C91.5838 51.5348 91.7808 52.1812 91.7808 53.0083V53.4702ZM90.8784 52.7236C90.8748 52.2152 90.7513 51.8195 90.5078 51.5366C90.2679 51.2537 89.9331 51.1123 89.5034 51.1123C89.0881 51.1123 88.7354 51.2609 88.4453 51.5581C88.1553 51.8553 87.9762 52.2438 87.9082 52.7236H90.8784ZM97.0391 55.2051H97.0176V58.5298H96.1367V50.5H97.0176V51.4668H97.0391C97.4723 50.7363 98.1061 50.3711 98.9404 50.3711C99.6494 50.3711 100.203 50.6182 100.6 51.1123C100.998 51.6029 101.196 52.2617 101.196 53.0889C101.196 54.0091 100.972 54.7467 100.525 55.3018C100.077 55.8532 99.465 56.1289 98.688 56.1289C97.9754 56.1289 97.4258 55.821 97.0391 55.2051ZM97.0176 52.9868V53.7549C97.0176 54.2096 97.1644 54.5964 97.458 54.915C97.7552 55.2301 98.1312 55.3877 98.5859 55.3877C99.1195 55.3877 99.5366 55.1836 99.8374 54.7754C100.142 54.3672 100.294 53.7996 100.294 53.0728C100.294 52.4604 100.153 51.9806 99.8696 51.6333C99.5868 51.286 99.2036 51.1123 98.7202 51.1123C98.2082 51.1123 97.7964 51.2913 97.4849 51.6494C97.1733 52.0039 97.0176 52.4497 97.0176 52.9868ZM105.472 51.3916C105.318 51.2734 105.096 51.2144 104.806 51.2144C104.43 51.2144 104.115 51.3916 103.86 51.7461C103.61 52.1006 103.484 52.584 103.484 53.1963V56H102.604V50.5H103.484V51.6333H103.506C103.631 51.2466 103.823 50.9458 104.081 50.731C104.338 50.5125 104.627 50.4033 104.945 50.4033C105.174 50.4033 105.35 50.4284 105.472 50.4785V51.3916ZM108.727 56.1289C107.914 56.1289 107.264 55.8729 106.777 55.3608C106.293 54.8452 106.052 54.1631 106.052 53.3145C106.052 52.3906 106.304 51.6691 106.809 51.1499C107.314 50.6307 107.996 50.3711 108.855 50.3711C109.675 50.3711 110.315 50.6235 110.773 51.1284C111.235 51.6333 111.466 52.3333 111.466 53.2285C111.466 54.1058 111.217 54.8094 110.719 55.3394C110.225 55.8657 109.561 56.1289 108.727 56.1289ZM108.791 51.1123C108.225 51.1123 107.778 51.3057 107.448 51.6924C107.119 52.0755 106.954 52.6055 106.954 53.2822C106.954 53.9339 107.121 54.4478 107.454 54.8237C107.787 55.1997 108.232 55.3877 108.791 55.3877C109.36 55.3877 109.797 55.2033 110.102 54.8345C110.41 54.4657 110.563 53.9411 110.563 53.2607C110.563 52.5732 110.41 52.0433 110.102 51.6709C109.797 51.2985 109.36 51.1123 108.791 51.1123Z" fill="#0D1F30"/>
<defs>
<clipPath id="clip0_1563_217">
<rect width="38" height="37" fill="white" transform="translate(60 2)"/>
</clipPath>
</defs>
</svg>
