<svg width="68" height="67" viewBox="0 0 68 67" fill="none" xmlns="http://www.w3.org/2000/svg">
<circle cx="33.9439" cy="33.19" r="33.19" fill="#FF66A2"/>
<path d="M12.1692 35.2776L12.4358 29.4871L56.7539 30.5001L56.7853 34.7118C56.7996 36.6256 55.9001 38.4313 54.3639 39.5727L39.4512 50.653C36.5686 52.7948 32.612 52.7532 29.775 50.5514L13.3266 37.7855C12.556 37.1875 12.1243 36.252 12.1692 35.2776Z" fill="#FDFAF8" stroke="#FDFAF8"/>
<path d="M29.7097 45.0046L13.6938 32.1468C12.1896 30.9392 12.1995 28.6464 13.714 27.4519L32.7366 12.4481C33.8161 11.5967 35.336 11.588 36.4252 12.4269L55.2473 26.925C57.3373 28.5349 57.3238 31.6916 55.2201 33.2836L39.5455 45.1455C36.6219 47.3579 32.5686 47.2999 29.7097 45.0046Z" fill="#FDFAF8" stroke="#FDFAF8"/>
<path d="M35.838 14.6195L41.5454 18.8472C42.5999 19.6284 42.6291 21.1963 41.6043 22.0161L37.0836 25.6326C36.0046 26.4958 34.4756 26.5104 33.3804 25.6679L27.5133 21.1547C27.0056 20.7643 26.9908 20.0039 27.4828 19.5939L33.3672 14.6902C34.0759 14.0996 35.0967 14.0704 35.838 14.6195Z" fill="#FF66A2" stroke="#FF66A2"/>
<path d="M24.7175 23.6831L40.9967 36.3136C42.006 37.0967 42.0325 38.6124 41.0511 39.4302L36.7681 42.9993C35.6838 43.903 34.1161 43.9285 33.003 43.0606L16.1417 29.9145C15.6241 29.511 15.629 28.7268 16.1515 28.3297L22.2813 23.671C23.0024 23.1229 24.0019 23.1279 24.7175 23.6831Z" fill="#FF66A2" stroke="#FF66A2"/>
<path d="M47.2419 23.663L52.5921 27.5728C53.656 28.3503 53.6904 29.9262 52.6614 30.7494L48.1433 34.3638C47.0695 35.2229 45.5489 35.2418 44.454 34.4097L38.9299 30.2113C38.4181 29.8224 38.4009 29.0585 38.8948 28.647L44.7815 23.7414C45.4865 23.1539 46.5009 23.1216 47.2419 23.663Z" fill="#FF66A2" stroke="#FF66A2"/>
</svg>
