<svg width="424" height="67" viewBox="0 0 424 67" fill="none" xmlns="http://www.w3.org/2000/svg">
<path d="M8.7998 64H7.89746V60.4873H3.91211V64H3.00977V56.2979H3.91211V59.6763H7.89746V56.2979H8.7998V64ZM15.374 57.1143H13.1504V64H12.248V57.1143H10.0298V56.2979H15.374V57.1143ZM24.4404 64H23.5435V58.833C23.5435 58.4248 23.5685 57.9253 23.6187 57.3345H23.5972C23.5112 57.6818 23.4342 57.9307 23.3662 58.0811L20.7344 64H20.2939L17.6675 58.124C17.5923 57.9521 17.5153 57.689 17.4365 57.3345H17.415C17.4437 57.6424 17.458 58.1455 17.458 58.8438V64H16.5879V56.2979H17.7803L20.1436 61.6689C20.3262 62.0807 20.4443 62.3887 20.498 62.5928H20.5303C20.6842 62.1702 20.8078 61.8551 20.9009 61.6475L23.3125 56.2979H24.4404V64ZM30.4668 64H26.4707V56.2979H27.373V63.1836H30.4668V64Z" fill="#0D1F30"/>
<path d="M61.252 63.6777C60.6826 63.9785 59.9736 64.1289 59.125 64.1289C58.0293 64.1289 57.152 63.7762 56.4932 63.0708C55.8343 62.3654 55.5049 61.4398 55.5049 60.2939C55.5049 59.0622 55.8755 58.0667 56.6167 57.3076C57.3579 56.5485 58.2979 56.1689 59.4365 56.1689C60.167 56.1689 60.7721 56.2746 61.252 56.4858V57.4473C60.7005 57.1393 60.0918 56.9854 59.4258 56.9854C58.5413 56.9854 57.8234 57.2808 57.272 57.8716C56.7241 58.4624 56.4502 59.252 56.4502 60.2402C56.4502 61.1784 56.7062 61.9268 57.2183 62.4854C57.7339 63.0404 58.4089 63.3179 59.2432 63.3179C60.0166 63.3179 60.6862 63.146 61.252 62.8022V63.6777ZM62.4604 63.6885V62.625C62.5822 62.7324 62.7272 62.8291 62.8955 62.915C63.0674 63.001 63.2464 63.0744 63.4326 63.1353C63.6224 63.1925 63.8122 63.2373 64.002 63.2695C64.1917 63.3018 64.3672 63.3179 64.5283 63.3179C65.0833 63.3179 65.4969 63.2158 65.769 63.0117C66.0448 62.804 66.1826 62.5068 66.1826 62.1201C66.1826 61.9124 66.1361 61.7316 66.043 61.5776C65.9535 61.4237 65.8281 61.284 65.667 61.1587C65.5059 61.0298 65.3143 60.908 65.0923 60.7935C64.8739 60.6753 64.6375 60.5518 64.3833 60.4229C64.1147 60.2868 63.8641 60.1489 63.6313 60.0093C63.3986 59.8696 63.1963 59.7157 63.0244 59.5474C62.8525 59.3791 62.7165 59.1893 62.6162 58.978C62.5195 58.7632 62.4712 58.5125 62.4712 58.2261C62.4712 57.8752 62.5482 57.5708 62.7021 57.313C62.8561 57.0516 63.0584 56.8368 63.3091 56.6685C63.5597 56.5002 63.8444 56.3748 64.1631 56.2925C64.4854 56.2101 64.813 56.1689 65.146 56.1689C65.9051 56.1689 66.4583 56.2603 66.8057 56.4429V57.458C66.3509 57.1429 65.7673 56.9854 65.0547 56.9854C64.8577 56.9854 64.6608 57.0068 64.4639 57.0498C64.2669 57.0892 64.0915 57.1554 63.9375 57.2485C63.7835 57.3416 63.6582 57.4616 63.5615 57.6084C63.4648 57.7552 63.4165 57.9342 63.4165 58.1455C63.4165 58.3424 63.4523 58.5125 63.5239 58.6558C63.5991 58.799 63.7083 58.9297 63.8516 59.0479C63.9948 59.166 64.1685 59.2806 64.3726 59.3916C64.5802 59.5026 64.8184 59.6243 65.0869 59.7568C65.3626 59.8929 65.624 60.0361 65.8711 60.1865C66.1182 60.3369 66.3348 60.5034 66.521 60.686C66.7072 60.8687 66.854 61.071 66.9614 61.293C67.0724 61.515 67.1279 61.7692 67.1279 62.0557C67.1279 62.4352 67.0527 62.7575 66.9023 63.0225C66.7555 63.2839 66.555 63.4969 66.3008 63.6616C66.0501 63.8263 65.7601 63.9445 65.4307 64.0161C65.1012 64.0913 64.7539 64.1289 64.3887 64.1289C64.2669 64.1289 64.1165 64.1182 63.9375 64.0967C63.7585 64.0788 63.5758 64.0501 63.3896 64.0107C63.2035 63.9749 63.0262 63.9302 62.8579 63.8765C62.6932 63.8192 62.5607 63.7565 62.4604 63.6885ZM68.3042 63.6885V62.625C68.4259 62.7324 68.571 62.8291 68.7393 62.915C68.9111 63.001 69.0902 63.0744 69.2764 63.1353C69.4661 63.1925 69.6559 63.2373 69.8457 63.2695C70.0355 63.3018 70.2109 63.3179 70.3721 63.3179C70.9271 63.3179 71.3407 63.2158 71.6128 63.0117C71.8885 62.804 72.0264 62.5068 72.0264 62.1201C72.0264 61.9124 71.9798 61.7316 71.8867 61.5776C71.7972 61.4237 71.6719 61.284 71.5107 61.1587C71.3496 61.0298 71.158 60.908 70.936 60.7935C70.7176 60.6753 70.4813 60.5518 70.2271 60.4229C69.9585 60.2868 69.7078 60.1489 69.4751 60.0093C69.2424 59.8696 69.04 59.7157 68.8682 59.5474C68.6963 59.3791 68.5602 59.1893 68.46 58.978C68.3633 58.7632 68.3149 58.5125 68.3149 58.2261C68.3149 57.8752 68.3919 57.5708 68.5459 57.313C68.6999 57.0516 68.9022 56.8368 69.1528 56.6685C69.4035 56.5002 69.6882 56.3748 70.0068 56.2925C70.3291 56.2101 70.6567 56.1689 70.9897 56.1689C71.7489 56.1689 72.3021 56.2603 72.6494 56.4429V57.458C72.1947 57.1429 71.611 56.9854 70.8984 56.9854C70.7015 56.9854 70.5046 57.0068 70.3076 57.0498C70.1107 57.0892 69.9352 57.1554 69.7812 57.2485C69.6273 57.3416 69.502 57.4616 69.4053 57.6084C69.3086 57.7552 69.2603 57.9342 69.2603 58.1455C69.2603 58.3424 69.2961 58.5125 69.3677 58.6558C69.4429 58.799 69.5521 58.9297 69.6953 59.0479C69.8385 59.166 70.0122 59.2806 70.2163 59.3916C70.424 59.5026 70.6621 59.6243 70.9307 59.7568C71.2064 59.8929 71.4678 60.0361 71.7148 60.1865C71.9619 60.3369 72.1785 60.5034 72.3647 60.686C72.5509 60.8687 72.6978 61.071 72.8052 61.293C72.9162 61.515 72.9717 61.7692 72.9717 62.0557C72.9717 62.4352 72.8965 62.7575 72.7461 63.0225C72.5993 63.2839 72.3988 63.4969 72.1445 63.6616C71.8939 63.8263 71.6038 63.9445 71.2744 64.0161C70.945 64.0913 70.5977 64.1289 70.2324 64.1289C70.1107 64.1289 69.9603 64.1182 69.7812 64.0967C69.6022 64.0788 69.4196 64.0501 69.2334 64.0107C69.0472 63.9749 68.87 63.9302 68.7017 63.8765C68.5369 63.8192 68.4045 63.7565 68.3042 63.6885Z" fill="#0D1F30"/>
<path d="M93.981 61.2393C93.981 62.1523 93.7876 62.8631 93.4009 63.3716C93.0142 63.8765 92.4967 64.1289 91.8486 64.1289C91.5479 64.1289 91.3008 64.0859 91.1074 64V63.1084C91.3008 63.248 91.5514 63.3179 91.8594 63.3179C92.6722 63.3179 93.0786 62.6286 93.0786 61.25V56.2979H93.981V61.2393ZM99.7603 64H98.8794V63.1406H98.8579C98.4748 63.7995 97.9108 64.1289 97.166 64.1289C96.6182 64.1289 96.1885 63.9839 95.877 63.6938C95.569 63.4038 95.415 63.0189 95.415 62.5391C95.415 61.5114 96.0202 60.9134 97.2305 60.7451L98.8794 60.5142C98.8794 59.5796 98.5016 59.1123 97.7461 59.1123C97.0837 59.1123 96.4857 59.3379 95.9521 59.7891V58.8867C96.4928 58.543 97.1159 58.3711 97.8213 58.3711C99.1139 58.3711 99.7603 59.055 99.7603 60.4229V64ZM98.8794 61.2178L97.5527 61.4004C97.1445 61.4577 96.8366 61.5597 96.6289 61.7065C96.4212 61.8498 96.3174 62.1058 96.3174 62.4746C96.3174 62.7432 96.4123 62.9634 96.6021 63.1353C96.7954 63.3035 97.0514 63.3877 97.3701 63.3877C97.807 63.3877 98.1668 63.2355 98.4497 62.9312C98.7362 62.6232 98.8794 62.2347 98.8794 61.7656V61.2178ZM105.744 58.5L103.552 64H102.688L100.604 58.5H101.57L102.967 62.4961C103.071 62.7897 103.135 63.0457 103.16 63.2642H103.182C103.217 62.9884 103.275 62.7396 103.354 62.5176L104.814 58.5H105.744ZM110.631 64H109.75V63.1406H109.729C109.346 63.7995 108.782 64.1289 108.037 64.1289C107.489 64.1289 107.06 63.9839 106.748 63.6938C106.44 63.4038 106.286 63.0189 106.286 62.5391C106.286 61.5114 106.891 60.9134 108.102 60.7451L109.75 60.5142C109.75 59.5796 109.373 59.1123 108.617 59.1123C107.955 59.1123 107.357 59.3379 106.823 59.7891V58.8867C107.364 58.543 107.987 58.3711 108.692 58.3711C109.985 58.3711 110.631 59.055 110.631 60.4229V64ZM109.75 61.2178L108.424 61.4004C108.016 61.4577 107.708 61.5597 107.5 61.7065C107.292 61.8498 107.188 62.1058 107.188 62.4746C107.188 62.7432 107.283 62.9634 107.473 63.1353C107.667 63.3035 107.923 63.3877 108.241 63.3877C108.678 63.3877 109.038 63.2355 109.321 62.9312C109.607 62.6232 109.75 62.2347 109.75 61.7656V61.2178ZM111.958 63.8013V62.856C112.438 63.2104 112.966 63.3877 113.542 63.3877C114.316 63.3877 114.703 63.1299 114.703 62.6143C114.703 62.4674 114.669 62.3439 114.601 62.2437C114.536 62.1398 114.447 62.0485 114.332 61.9697C114.221 61.891 114.089 61.8211 113.935 61.7603C113.784 61.6958 113.621 61.6296 113.446 61.5615C113.202 61.4648 112.987 61.3682 112.801 61.2715C112.619 61.1712 112.465 61.0602 112.339 60.9385C112.218 60.8132 112.125 60.6717 112.06 60.5142C111.999 60.3566 111.969 60.1722 111.969 59.9609C111.969 59.7031 112.028 59.4757 112.146 59.2788C112.264 59.0783 112.422 58.9118 112.619 58.7793C112.816 58.6432 113.039 58.5412 113.29 58.4731C113.544 58.4051 113.806 58.3711 114.074 58.3711C114.55 58.3711 114.977 58.4535 115.353 58.6182V59.5098C114.948 59.2448 114.482 59.1123 113.956 59.1123C113.791 59.1123 113.643 59.132 113.51 59.1714C113.378 59.2072 113.263 59.2591 113.167 59.3271C113.073 59.3952 113 59.4775 112.946 59.5742C112.896 59.6673 112.871 59.7712 112.871 59.8857C112.871 60.029 112.896 60.1489 112.946 60.2456C113 60.3423 113.077 60.4282 113.177 60.5034C113.278 60.5786 113.399 60.6466 113.542 60.7075C113.686 60.7684 113.849 60.8346 114.031 60.9062C114.275 60.9993 114.493 61.096 114.687 61.1963C114.88 61.293 115.045 61.404 115.181 61.5293C115.317 61.651 115.421 61.7925 115.492 61.9536C115.567 62.1147 115.605 62.3063 115.605 62.5283C115.605 62.8005 115.544 63.0368 115.422 63.2373C115.304 63.4378 115.145 63.6043 114.944 63.7368C114.744 63.8693 114.513 63.9678 114.251 64.0322C113.99 64.0967 113.716 64.1289 113.43 64.1289C112.864 64.1289 112.373 64.0197 111.958 63.8013ZM120.713 63.7476C120.29 64.0018 119.789 64.1289 119.209 64.1289C118.425 64.1289 117.791 63.8747 117.308 63.3662C116.828 62.8542 116.588 62.1917 116.588 61.3789C116.588 60.473 116.847 59.7461 117.367 59.1982C117.886 58.6468 118.579 58.3711 119.445 58.3711C119.929 58.3711 120.355 58.4606 120.724 58.6396V59.542C120.315 59.2555 119.879 59.1123 119.413 59.1123C118.851 59.1123 118.389 59.3146 118.027 59.7192C117.669 60.1203 117.49 60.6484 117.49 61.3037C117.49 61.9482 117.659 62.4567 117.995 62.8291C118.335 63.2015 118.79 63.3877 119.359 63.3877C119.839 63.3877 120.29 63.2284 120.713 62.9097V63.7476ZM124.913 59.3916C124.759 59.2734 124.537 59.2144 124.247 59.2144C123.871 59.2144 123.556 59.3916 123.302 59.7461C123.051 60.1006 122.926 60.584 122.926 61.1963V64H122.045V58.5H122.926V59.6333H122.947C123.073 59.2466 123.264 58.9458 123.522 58.731C123.78 58.5125 124.068 58.4033 124.387 58.4033C124.616 58.4033 124.791 58.4284 124.913 58.4785V59.3916ZM126.32 57.1035C126.163 57.1035 126.028 57.0498 125.917 56.9424C125.806 56.835 125.751 56.6989 125.751 56.5342C125.751 56.3695 125.806 56.2334 125.917 56.126C126.028 56.015 126.163 55.9595 126.32 55.9595C126.481 55.9595 126.618 56.015 126.729 56.126C126.843 56.2334 126.9 56.3695 126.9 56.5342C126.9 56.6917 126.843 56.826 126.729 56.937C126.618 57.048 126.481 57.1035 126.32 57.1035ZM126.75 64H125.869V58.5H126.75V64ZM129.436 63.2051H129.414V66.5298H128.533V58.5H129.414V59.4668H129.436C129.869 58.7363 130.503 58.3711 131.337 58.3711C132.046 58.3711 132.599 58.6182 132.997 59.1123C133.394 59.6029 133.593 60.2617 133.593 61.0889C133.593 62.0091 133.369 62.7467 132.921 63.3018C132.474 63.8532 131.861 64.1289 131.084 64.1289C130.372 64.1289 129.822 63.821 129.436 63.2051ZM129.414 60.9868V61.7549C129.414 62.2096 129.561 62.5964 129.854 62.915C130.152 63.2301 130.528 63.3877 130.982 63.3877C131.516 63.3877 131.933 63.1836 132.234 62.7754C132.538 62.3672 132.69 61.7996 132.69 61.0728C132.69 60.4604 132.549 59.9806 132.266 59.6333C131.983 59.286 131.6 59.1123 131.117 59.1123C130.605 59.1123 130.193 59.2913 129.881 59.6494C129.57 60.0039 129.414 60.4497 129.414 60.9868ZM137.551 63.9463C137.344 64.0609 137.07 64.1182 136.729 64.1182C135.766 64.1182 135.285 63.5811 135.285 62.5068V59.252H134.339V58.5H135.285V57.1572L136.166 56.8726V58.5H137.551V59.252H136.166V62.3511C136.166 62.7199 136.228 62.9831 136.354 63.1406C136.479 63.2982 136.687 63.377 136.977 63.377C137.199 63.377 137.39 63.3161 137.551 63.1943V63.9463Z" fill="#0D1F30"/>
<path d="M171.912 61.0889V64H171.01V56.2979H173.126C173.95 56.2979 174.587 56.4984 175.038 56.8994C175.493 57.3005 175.72 57.8662 175.72 58.5967C175.72 59.3271 175.468 59.9251 174.963 60.3906C174.462 60.8561 173.783 61.0889 172.927 61.0889H171.912ZM171.912 57.1143V60.2725H172.857C173.48 60.2725 173.955 60.131 174.281 59.8481C174.61 59.5617 174.775 59.1589 174.775 58.6396C174.775 57.6227 174.173 57.1143 172.97 57.1143H171.912ZM182.966 64H182.063V60.4873H178.078V64H177.176V56.2979H178.078V59.6763H182.063V56.2979H182.966V64ZM185.888 61.0889V64H184.985V56.2979H187.102C187.925 56.2979 188.562 56.4984 189.014 56.8994C189.468 57.3005 189.696 57.8662 189.696 58.5967C189.696 59.3271 189.443 59.9251 188.938 60.3906C188.437 60.8561 187.759 61.0889 186.903 61.0889H185.888ZM185.888 57.1143V60.2725H186.833C187.456 60.2725 187.931 60.131 188.256 59.8481C188.586 59.5617 188.75 59.1589 188.75 58.6396C188.75 57.6227 188.149 57.1143 186.946 57.1143H185.888Z" fill="#0D1F30"/>
<path d="M226.981 61.2393C226.981 62.1523 226.788 62.8631 226.401 63.3716C226.014 63.8765 225.497 64.1289 224.849 64.1289C224.548 64.1289 224.301 64.0859 224.107 64V63.1084C224.301 63.248 224.551 63.3179 224.859 63.3179C225.672 63.3179 226.079 62.6286 226.079 61.25V56.2979H226.981V61.2393ZM233.244 61.4702H229.36C229.375 62.0825 229.539 62.5552 229.854 62.8882C230.17 63.2212 230.603 63.3877 231.154 63.3877C231.774 63.3877 232.343 63.1836 232.862 62.7754V63.6025C232.379 63.9535 231.74 64.1289 230.945 64.1289C230.168 64.1289 229.557 63.88 229.113 63.3823C228.669 62.881 228.447 62.1774 228.447 61.2715C228.447 60.4157 228.689 59.7192 229.172 59.1821C229.659 58.6414 230.263 58.3711 230.982 58.3711C231.702 58.3711 232.259 58.6038 232.653 59.0693C233.047 59.5348 233.244 60.1812 233.244 61.0083V61.4702ZM232.341 60.7236C232.338 60.2152 232.214 59.8195 231.971 59.5366C231.731 59.2537 231.396 59.1123 230.966 59.1123C230.551 59.1123 230.198 59.2609 229.908 59.5581C229.618 59.8553 229.439 60.2438 229.371 60.7236H232.341ZM237.132 63.9463C236.925 64.0609 236.651 64.1182 236.311 64.1182C235.347 64.1182 234.866 63.5811 234.866 62.5068V59.252H233.92V58.5H234.866V57.1572L235.747 56.8726V58.5H237.132V59.252H235.747V62.3511C235.747 62.7199 235.809 62.9831 235.935 63.1406C236.06 63.2982 236.268 63.377 236.558 63.377C236.78 63.377 236.971 63.3161 237.132 63.1943V63.9463ZM239.211 63.2051H239.189V64H238.309V55.8574H239.189V59.4668H239.211C239.644 58.7363 240.278 58.3711 241.112 58.3711C241.818 58.3711 242.369 58.6182 242.767 59.1123C243.168 59.6029 243.368 60.2617 243.368 61.0889C243.368 62.0091 243.144 62.7467 242.697 63.3018C242.249 63.8532 241.637 64.1289 240.86 64.1289C240.133 64.1289 239.583 63.821 239.211 63.2051ZM239.189 60.9868V61.7549C239.189 62.2096 239.336 62.5964 239.63 62.915C239.927 63.2301 240.303 63.3877 240.758 63.3877C241.291 63.3877 241.708 63.1836 242.009 62.7754C242.314 62.3672 242.466 61.7996 242.466 61.0728C242.466 60.4604 242.324 59.9806 242.042 59.6333C241.759 59.286 241.375 59.1123 240.892 59.1123C240.38 59.1123 239.968 59.2913 239.657 59.6494C239.345 60.0039 239.189 60.4497 239.189 60.9868ZM247.644 59.3916C247.49 59.2734 247.268 59.2144 246.978 59.2144C246.602 59.2144 246.286 59.3916 246.032 59.7461C245.782 60.1006 245.656 60.584 245.656 61.1963V64H244.775V58.5H245.656V59.6333H245.678C245.803 59.2466 245.995 58.9458 246.252 58.731C246.51 58.5125 246.799 58.4033 247.117 58.4033C247.346 58.4033 247.522 58.4284 247.644 58.4785V59.3916ZM252.537 64H251.656V63.1406H251.634C251.251 63.7995 250.687 64.1289 249.942 64.1289C249.395 64.1289 248.965 63.9839 248.653 63.6938C248.345 63.4038 248.191 63.0189 248.191 62.5391C248.191 61.5114 248.797 60.9134 250.007 60.7451L251.656 60.5142C251.656 59.5796 251.278 59.1123 250.522 59.1123C249.86 59.1123 249.262 59.3379 248.729 59.7891V58.8867C249.269 58.543 249.892 58.3711 250.598 58.3711C251.89 58.3711 252.537 59.055 252.537 60.4229V64ZM251.656 61.2178L250.329 61.4004C249.921 61.4577 249.613 61.5597 249.405 61.7065C249.198 61.8498 249.094 62.1058 249.094 62.4746C249.094 62.7432 249.189 62.9634 249.378 63.1353C249.572 63.3035 249.828 63.3877 250.146 63.3877C250.583 63.3877 250.943 63.2355 251.226 62.9312C251.513 62.6232 251.656 62.2347 251.656 61.7656V61.2178ZM254.647 57.1035C254.49 57.1035 254.356 57.0498 254.245 56.9424C254.134 56.835 254.078 56.6989 254.078 56.5342C254.078 56.3695 254.134 56.2334 254.245 56.126C254.356 56.015 254.49 55.9595 254.647 55.9595C254.809 55.9595 254.945 56.015 255.056 56.126C255.17 56.2334 255.228 56.3695 255.228 56.5342C255.228 56.6917 255.17 56.826 255.056 56.937C254.945 57.048 254.809 57.1035 254.647 57.1035ZM255.077 64H254.196V58.5H255.077V64ZM261.426 64H260.545V60.8633C260.545 59.696 260.119 59.1123 259.267 59.1123C258.826 59.1123 258.461 59.2788 258.171 59.6118C257.884 59.9412 257.741 60.3584 257.741 60.8633V64H256.86V58.5H257.741V59.4131H257.763C258.178 58.7184 258.78 58.3711 259.567 58.3711C260.169 58.3711 260.629 58.5662 260.948 58.9565C261.266 59.3433 261.426 59.9036 261.426 60.6377V64Z" fill="#0D1F30"/>
<path d="M278.735 56.2979L275.883 64H274.89L272.097 56.2979H273.101L275.233 62.4048C275.301 62.6017 275.353 62.8291 275.389 63.0869H275.411C275.439 62.8721 275.498 62.6411 275.588 62.394L277.763 56.2979H278.735ZM279.482 63.6885V62.625C279.604 62.7324 279.749 62.8291 279.917 62.915C280.089 63.001 280.268 63.0744 280.454 63.1353C280.644 63.1925 280.834 63.2373 281.023 63.2695C281.213 63.3018 281.389 63.3179 281.55 63.3179C282.105 63.3179 282.518 63.2158 282.791 63.0117C283.066 62.804 283.204 62.5068 283.204 62.1201C283.204 61.9124 283.158 61.7316 283.064 61.5776C282.975 61.4237 282.85 61.284 282.688 61.1587C282.527 61.0298 282.336 60.908 282.114 60.7935C281.895 60.6753 281.659 60.5518 281.405 60.4229C281.136 60.2868 280.886 60.1489 280.653 60.0093C280.42 59.8696 280.218 59.7157 280.046 59.5474C279.874 59.3791 279.738 59.1893 279.638 58.978C279.541 58.7632 279.493 58.5125 279.493 58.2261C279.493 57.8752 279.57 57.5708 279.724 57.313C279.878 57.0516 280.08 56.8368 280.331 56.6685C280.581 56.5002 280.866 56.3748 281.185 56.2925C281.507 56.2101 281.834 56.1689 282.167 56.1689C282.927 56.1689 283.48 56.2603 283.827 56.4429V57.458C283.372 57.1429 282.789 56.9854 282.076 56.9854C281.879 56.9854 281.682 57.0068 281.485 57.0498C281.288 57.0892 281.113 57.1554 280.959 57.2485C280.805 57.3416 280.68 57.4616 280.583 57.6084C280.486 57.7552 280.438 57.9342 280.438 58.1455C280.438 58.3424 280.474 58.5125 280.545 58.6558C280.621 58.799 280.73 58.9297 280.873 59.0479C281.016 59.166 281.19 59.2806 281.394 59.3916C281.602 59.5026 281.84 59.6243 282.108 59.7568C282.384 59.8929 282.646 60.0361 282.893 60.1865C283.14 60.3369 283.356 60.5034 283.542 60.686C283.729 60.8687 283.875 61.071 283.983 61.293C284.094 61.515 284.149 61.7692 284.149 62.0557C284.149 62.4352 284.074 62.7575 283.924 63.0225C283.777 63.2839 283.576 63.4969 283.322 63.6616C283.072 63.8263 282.782 63.9445 282.452 64.0161C282.123 64.0913 281.775 64.1289 281.41 64.1289C281.288 64.1289 281.138 64.1182 280.959 64.0967C280.78 64.0788 280.597 64.0501 280.411 64.0107C280.225 63.9749 280.048 63.9302 279.879 63.8765C279.715 63.8192 279.582 63.7565 279.482 63.6885ZM293.946 63.6777C293.377 63.9785 292.668 64.1289 291.819 64.1289C290.724 64.1289 289.846 63.7762 289.188 63.0708C288.529 62.3654 288.199 61.4398 288.199 60.2939C288.199 59.0622 288.57 58.0667 289.311 57.3076C290.052 56.5485 290.992 56.1689 292.131 56.1689C292.861 56.1689 293.466 56.2746 293.946 56.4858V57.4473C293.395 57.1393 292.786 56.9854 292.12 56.9854C291.236 56.9854 290.518 57.2808 289.966 57.8716C289.418 58.4624 289.145 59.252 289.145 60.2402C289.145 61.1784 289.401 61.9268 289.913 62.4854C290.428 63.0404 291.103 63.3179 291.938 63.3179C292.711 63.3179 293.381 63.146 293.946 62.8022V63.6777ZM297.695 64.1289C296.882 64.1289 296.233 63.8729 295.746 63.3608C295.262 62.8452 295.021 62.1631 295.021 61.3145C295.021 60.3906 295.273 59.6691 295.778 59.1499C296.283 58.6307 296.965 58.3711 297.824 58.3711C298.644 58.3711 299.283 58.6235 299.742 59.1284C300.204 59.6333 300.435 60.3333 300.435 61.2285C300.435 62.1058 300.186 62.8094 299.688 63.3394C299.194 63.8657 298.53 64.1289 297.695 64.1289ZM297.76 59.1123C297.194 59.1123 296.746 59.3057 296.417 59.6924C296.088 60.0755 295.923 60.6055 295.923 61.2822C295.923 61.9339 296.089 62.4478 296.422 62.8237C296.755 63.1997 297.201 63.3877 297.76 63.3877C298.329 63.3877 298.766 63.2033 299.07 62.8345C299.378 62.4657 299.532 61.9411 299.532 61.2607C299.532 60.5732 299.378 60.0433 299.07 59.6709C298.766 59.2985 298.329 59.1123 297.76 59.1123ZM306.536 64H305.655V63.0654H305.634C305.226 63.7744 304.595 64.1289 303.743 64.1289C303.052 64.1289 302.499 63.8836 302.083 63.3931C301.672 62.8989 301.466 62.2275 301.466 61.3789C301.466 60.4694 301.695 59.7407 302.153 59.1929C302.612 58.645 303.222 58.3711 303.985 58.3711C304.74 58.3711 305.29 58.6683 305.634 59.2627H305.655V55.8574H306.536V64ZM305.655 61.5132V60.7021C305.655 60.2581 305.508 59.8822 305.215 59.5742C304.921 59.2663 304.549 59.1123 304.098 59.1123C303.561 59.1123 303.138 59.3092 302.83 59.7031C302.522 60.097 302.368 60.6413 302.368 61.3359C302.368 61.9697 302.515 62.471 302.809 62.8398C303.106 63.2051 303.503 63.3877 304.001 63.3877C304.492 63.3877 304.889 63.2104 305.193 62.856C305.501 62.5015 305.655 62.0539 305.655 61.5132ZM312.74 61.4702H308.856C308.871 62.0825 309.035 62.5552 309.351 62.8882C309.666 63.2212 310.099 63.3877 310.65 63.3877C311.27 63.3877 311.839 63.1836 312.358 62.7754V63.6025C311.875 63.9535 311.236 64.1289 310.441 64.1289C309.664 64.1289 309.053 63.88 308.609 63.3823C308.165 62.881 307.943 62.1774 307.943 61.2715C307.943 60.4157 308.185 59.7192 308.668 59.1821C309.155 58.6414 309.759 58.3711 310.479 58.3711C311.198 58.3711 311.755 58.6038 312.149 59.0693C312.543 59.5348 312.74 60.1812 312.74 61.0083V61.4702ZM311.837 60.7236C311.834 60.2152 311.71 59.8195 311.467 59.5366C311.227 59.2537 310.892 59.1123 310.462 59.1123C310.047 59.1123 309.694 59.2609 309.404 59.5581C309.114 59.8553 308.935 60.2438 308.867 60.7236H311.837Z" fill="#0D1F30"/>
<path d="M335.141 56.2979L332.965 64H331.907L330.323 58.3711C330.255 58.1312 330.214 57.8698 330.199 57.5869H330.178C330.156 57.8519 330.11 58.1097 330.038 58.3604L328.443 64H327.396L325.14 56.2979H326.133L327.771 62.2061C327.84 62.4531 327.882 62.7109 327.9 62.9795H327.927C327.945 62.7897 328.001 62.5319 328.094 62.2061L329.796 56.2979H330.661L332.294 62.249C332.351 62.4531 332.394 62.693 332.423 62.9688H332.444C332.459 62.7826 332.507 62.5355 332.589 62.2275L334.163 56.2979H335.141ZM339.679 64H338.798V63.1406H338.777C338.394 63.7995 337.83 64.1289 337.085 64.1289C336.537 64.1289 336.107 63.9839 335.796 63.6938C335.488 63.4038 335.334 63.0189 335.334 62.5391C335.334 61.5114 335.939 60.9134 337.149 60.7451L338.798 60.5142C338.798 59.5796 338.421 59.1123 337.665 59.1123C337.003 59.1123 336.405 59.3379 335.871 59.7891V58.8867C336.412 58.543 337.035 58.3711 337.74 58.3711C339.033 58.3711 339.679 59.055 339.679 60.4229V64ZM338.798 61.2178L337.472 61.4004C337.063 61.4577 336.756 61.5597 336.548 61.7065C336.34 61.8498 336.236 62.1058 336.236 62.4746C336.236 62.7432 336.331 62.9634 336.521 63.1353C336.714 63.3035 336.97 63.3877 337.289 63.3877C337.726 63.3877 338.086 63.2355 338.369 62.9312C338.655 62.6232 338.798 62.2347 338.798 61.7656V61.2178ZM349.148 64H348.268V60.8418C348.268 60.2331 348.173 59.7926 347.983 59.5205C347.797 59.2484 347.482 59.1123 347.038 59.1123C346.662 59.1123 346.341 59.2842 346.076 59.6279C345.815 59.9717 345.684 60.3835 345.684 60.8633V64H344.803V60.7344C344.803 59.653 344.386 59.1123 343.552 59.1123C343.165 59.1123 342.846 59.2752 342.596 59.6011C342.345 59.9233 342.22 60.3441 342.22 60.8633V64H341.339V58.5H342.22V59.3701H342.241C342.632 58.7041 343.201 58.3711 343.949 58.3711C344.325 58.3711 344.653 58.4767 344.932 58.688C345.211 58.8957 345.403 59.1696 345.507 59.5098C345.915 58.7507 346.524 58.3711 347.333 58.3711C348.543 58.3711 349.148 59.1177 349.148 60.6108V64ZM351.716 63.2051H351.694V66.5298H350.813V58.5H351.694V59.4668H351.716C352.149 58.7363 352.783 58.3711 353.617 58.3711C354.326 58.3711 354.879 58.6182 355.277 59.1123C355.674 59.6029 355.873 60.2617 355.873 61.0889C355.873 62.0091 355.649 62.7467 355.202 63.3018C354.754 63.8532 354.142 64.1289 353.365 64.1289C352.652 64.1289 352.103 63.821 351.716 63.2051ZM351.694 60.9868V61.7549C351.694 62.2096 351.841 62.5964 352.135 62.915C352.432 63.2301 352.808 63.3877 353.263 63.3877C353.796 63.3877 354.213 63.1836 354.514 62.7754C354.819 62.3672 354.971 61.7996 354.971 61.0728C354.971 60.4604 354.829 59.9806 354.546 59.6333C354.264 59.286 353.88 59.1123 353.397 59.1123C352.885 59.1123 352.473 59.2913 352.162 59.6494C351.85 60.0039 351.694 60.4497 351.694 60.9868ZM358.183 63.2051H358.161V66.5298H357.28V58.5H358.161V59.4668H358.183C358.616 58.7363 359.25 58.3711 360.084 58.3711C360.793 58.3711 361.346 58.6182 361.744 59.1123C362.141 59.6029 362.34 60.2617 362.34 61.0889C362.34 62.0091 362.116 62.7467 361.668 63.3018C361.221 63.8532 360.609 64.1289 359.832 64.1289C359.119 64.1289 358.569 63.821 358.183 63.2051ZM358.161 60.9868V61.7549C358.161 62.2096 358.308 62.5964 358.602 62.915C358.899 63.2301 359.275 63.3877 359.729 63.3877C360.263 63.3877 360.68 63.1836 360.981 62.7754C361.285 62.3672 361.438 61.7996 361.438 61.0728C361.438 60.4604 361.296 59.9806 361.013 59.6333C360.73 59.286 360.347 59.1123 359.864 59.1123C359.352 59.1123 358.94 59.2913 358.628 59.6494C358.317 60.0039 358.161 60.4497 358.161 60.9868Z" fill="#0D1F30"/>
<path d="M382.141 56.2979L379.965 64H378.907L377.323 58.3711C377.255 58.1312 377.214 57.8698 377.199 57.5869H377.178C377.156 57.8519 377.11 58.1097 377.038 58.3604L375.443 64H374.396L372.14 56.2979H373.133L374.771 62.2061C374.84 62.4531 374.882 62.7109 374.9 62.9795H374.927C374.945 62.7897 375.001 62.5319 375.094 62.2061L376.796 56.2979H377.661L379.294 62.249C379.351 62.4531 379.394 62.693 379.423 62.9688H379.444C379.459 62.7826 379.507 62.5355 379.589 62.2275L381.163 56.2979H382.141ZM385.041 64.1289C384.228 64.1289 383.578 63.8729 383.091 63.3608C382.608 62.8452 382.366 62.1631 382.366 61.3145C382.366 60.3906 382.619 59.6691 383.124 59.1499C383.628 58.6307 384.311 58.3711 385.17 58.3711C385.99 58.3711 386.629 58.6235 387.087 59.1284C387.549 59.6333 387.78 60.3333 387.78 61.2285C387.78 62.1058 387.531 62.8094 387.034 63.3394C386.54 63.8657 385.875 64.1289 385.041 64.1289ZM385.105 59.1123C384.54 59.1123 384.092 59.3057 383.763 59.6924C383.433 60.0755 383.269 60.6055 383.269 61.2822C383.269 61.9339 383.435 62.4478 383.768 62.8237C384.101 63.1997 384.547 63.3877 385.105 63.3877C385.675 63.3877 386.112 63.2033 386.416 62.8345C386.724 62.4657 386.878 61.9411 386.878 61.2607C386.878 60.5732 386.724 60.0433 386.416 59.6709C386.112 59.2985 385.675 59.1123 385.105 59.1123ZM392.056 59.3916C391.902 59.2734 391.68 59.2144 391.39 59.2144C391.014 59.2144 390.699 59.3916 390.444 59.7461C390.194 60.1006 390.068 60.584 390.068 61.1963V64H389.188V58.5H390.068V59.6333H390.09C390.215 59.2466 390.407 58.9458 390.665 58.731C390.922 58.5125 391.211 58.4033 391.529 58.4033C391.758 58.4033 391.934 58.4284 392.056 58.4785V59.3916ZM397.706 64H396.825V63.0654H396.804C396.396 63.7744 395.765 64.1289 394.913 64.1289C394.222 64.1289 393.669 63.8836 393.253 63.3931C392.842 62.8989 392.636 62.2275 392.636 61.3789C392.636 60.4694 392.865 59.7407 393.323 59.1929C393.782 58.645 394.392 58.3711 395.155 58.3711C395.91 58.3711 396.46 58.6683 396.804 59.2627H396.825V55.8574H397.706V64ZM396.825 61.5132V60.7021C396.825 60.2581 396.678 59.8822 396.385 59.5742C396.091 59.2663 395.719 59.1123 395.268 59.1123C394.73 59.1123 394.308 59.3092 394 59.7031C393.692 60.097 393.538 60.6413 393.538 61.3359C393.538 61.9697 393.685 62.471 393.979 62.8398C394.276 63.2051 394.673 63.3877 395.171 63.3877C395.661 63.3877 396.059 63.2104 396.363 62.856C396.671 62.5015 396.825 62.0539 396.825 61.5132ZM400.392 63.2051H400.37V66.5298H399.489V58.5H400.37V59.4668H400.392C400.825 58.7363 401.459 58.3711 402.293 58.3711C403.002 58.3711 403.555 58.6182 403.953 59.1123C404.35 59.6029 404.549 60.2617 404.549 61.0889C404.549 62.0091 404.325 62.7467 403.877 63.3018C403.43 63.8532 402.818 64.1289 402.041 64.1289C401.328 64.1289 400.778 63.821 400.392 63.2051ZM400.37 60.9868V61.7549C400.37 62.2096 400.517 62.5964 400.811 62.915C401.108 63.2301 401.484 63.3877 401.938 63.3877C402.472 63.3877 402.889 63.1836 403.19 62.7754C403.494 62.3672 403.646 61.7996 403.646 61.0728C403.646 60.4604 403.505 59.9806 403.222 59.6333C402.939 59.286 402.556 59.1123 402.073 59.1123C401.561 59.1123 401.149 59.2913 400.837 59.6494C400.526 60.0039 400.37 60.4497 400.37 60.9868ZM408.824 59.3916C408.67 59.2734 408.448 59.2144 408.158 59.2144C407.782 59.2144 407.467 59.3916 407.213 59.7461C406.962 60.1006 406.837 60.584 406.837 61.1963V64H405.956V58.5H406.837V59.6333H406.858C406.984 59.2466 407.175 58.9458 407.433 58.731C407.691 58.5125 407.979 58.4033 408.298 58.4033C408.527 58.4033 408.702 58.4284 408.824 58.4785V59.3916ZM414.201 61.4702H410.317C410.332 62.0825 410.496 62.5552 410.812 62.8882C411.127 63.2212 411.56 63.3877 412.111 63.3877C412.731 63.3877 413.3 63.1836 413.819 62.7754V63.6025C413.336 63.9535 412.697 64.1289 411.902 64.1289C411.125 64.1289 410.514 63.88 410.07 63.3823C409.626 62.881 409.404 62.1774 409.404 61.2715C409.404 60.4157 409.646 59.7192 410.129 59.1821C410.616 58.6414 411.22 58.3711 411.939 58.3711C412.659 58.3711 413.216 58.6038 413.61 59.0693C414.004 59.5348 414.201 60.1812 414.201 61.0083V61.4702ZM413.298 60.7236C413.295 60.2152 413.171 59.8195 412.928 59.5366C412.688 59.2537 412.353 59.1123 411.923 59.1123C411.508 59.1123 411.155 59.2609 410.865 59.5581C410.575 59.8553 410.396 60.2438 410.328 60.7236H413.298ZM415.205 63.8013V62.856C415.685 63.2104 416.213 63.3877 416.79 63.3877C417.563 63.3877 417.95 63.1299 417.95 62.6143C417.95 62.4674 417.916 62.3439 417.848 62.2437C417.783 62.1398 417.694 62.0485 417.579 61.9697C417.468 61.891 417.336 61.8211 417.182 61.7603C417.031 61.6958 416.868 61.6296 416.693 61.5615C416.449 61.4648 416.235 61.3682 416.048 61.2715C415.866 61.1712 415.712 61.0602 415.586 60.9385C415.465 60.8132 415.372 60.6717 415.307 60.5142C415.246 60.3566 415.216 60.1722 415.216 59.9609C415.216 59.7031 415.275 59.4757 415.393 59.2788C415.511 59.0783 415.669 58.9118 415.866 58.7793C416.063 58.6432 416.286 58.5412 416.537 58.4731C416.791 58.4051 417.053 58.3711 417.321 58.3711C417.798 58.3711 418.224 58.4535 418.6 58.6182V59.5098C418.195 59.2448 417.729 59.1123 417.203 59.1123C417.038 59.1123 416.89 59.132 416.757 59.1714C416.625 59.2072 416.51 59.2591 416.414 59.3271C416.32 59.3952 416.247 59.4775 416.193 59.5742C416.143 59.6673 416.118 59.7712 416.118 59.8857C416.118 60.029 416.143 60.1489 416.193 60.2456C416.247 60.3423 416.324 60.4282 416.424 60.5034C416.525 60.5786 416.646 60.6466 416.79 60.7075C416.933 60.7684 417.096 60.8346 417.278 60.9062C417.522 60.9993 417.74 61.096 417.934 61.1963C418.127 61.293 418.292 61.404 418.428 61.5293C418.564 61.651 418.668 61.7925 418.739 61.9536C418.814 62.1147 418.852 62.3063 418.852 62.5283C418.852 62.8005 418.791 63.0368 418.669 63.2373C418.551 63.4378 418.392 63.6043 418.191 63.7368C417.991 63.8693 417.76 63.9678 417.499 64.0322C417.237 64.0967 416.963 64.1289 416.677 64.1289C416.111 64.1289 415.62 64.0197 415.205 63.8013ZM419.878 63.8013V62.856C420.358 63.2104 420.886 63.3877 421.462 63.3877C422.236 63.3877 422.623 63.1299 422.623 62.6143C422.623 62.4674 422.589 62.3439 422.521 62.2437C422.456 62.1398 422.367 62.0485 422.252 61.9697C422.141 61.891 422.008 61.8211 421.854 61.7603C421.704 61.6958 421.541 61.6296 421.366 61.5615C421.122 61.4648 420.907 61.3682 420.721 61.2715C420.539 61.1712 420.385 61.0602 420.259 60.9385C420.138 60.8132 420.044 60.6717 419.98 60.5142C419.919 60.3566 419.889 60.1722 419.889 59.9609C419.889 59.7031 419.948 59.4757 420.066 59.2788C420.184 59.0783 420.342 58.9118 420.539 58.7793C420.736 58.6432 420.959 58.5412 421.21 58.4731C421.464 58.4051 421.726 58.3711 421.994 58.3711C422.47 58.3711 422.896 58.4535 423.272 58.6182V59.5098C422.868 59.2448 422.402 59.1123 421.876 59.1123C421.711 59.1123 421.563 59.132 421.43 59.1714C421.298 59.2072 421.183 59.2591 421.086 59.3271C420.993 59.3952 420.92 59.4775 420.866 59.5742C420.816 59.6673 420.791 59.7712 420.791 59.8857C420.791 60.029 420.816 60.1489 420.866 60.2456C420.92 60.3423 420.997 60.4282 421.097 60.5034C421.197 60.5786 421.319 60.6466 421.462 60.7075C421.606 60.7684 421.769 60.8346 421.951 60.9062C422.195 60.9993 422.413 61.096 422.606 61.1963C422.8 61.293 422.965 61.404 423.101 61.5293C423.237 61.651 423.34 61.7925 423.412 61.9536C423.487 62.1147 423.525 62.3063 423.525 62.5283C423.525 62.8005 423.464 63.0368 423.342 63.2373C423.224 63.4378 423.065 63.6043 422.864 63.7368C422.664 63.8693 422.433 63.9678 422.171 64.0322C421.91 64.0967 421.636 64.1289 421.35 64.1289C420.784 64.1289 420.293 64.0197 419.878 63.8013Z" fill="#0D1F30"/>
<g clip-path="url(#clip0_1563_205)">
<path d="M301.427 13.6621L287.267 27.5496L278.981 20.9812L277.002 22.0791V36.858L278.779 38.0591L287.387 31.228L301.427 45.0404L307.678 42.3943V16.4302L301.427 13.6621ZM279.718 33.3674V25.3164L283.548 29.3513L279.718 33.3674ZM300.239 35.0846L292.34 29.3513L300.239 23.5992V35.0846Z" fill="#00DA7E"/>
</g>
<path d="M357.166 34.1124C357.166 39.0414 353.174 43.0342 348.245 43.0342H338.947C334.018 43.0342 330.025 39.0414 330.025 34.1124V30.9277H324.632V34.5845C324.632 42.21 330.817 48.3952 338.443 48.3952H348.749C356.374 48.3952 362.559 42.21 362.559 34.5845V30.9277H357.166V34.1124Z" fill="#00DA7E"/>
<path d="M330.025 24.9904C330.025 20.0614 334.018 16.0686 338.947 16.0686H348.245C353.174 16.0686 357.166 20.0614 357.166 24.9904V28.271H362.559V24.5183C362.559 16.8928 356.374 10.7075 348.749 10.7075H338.443C330.817 10.7075 324.632 16.8928 324.632 24.5183V28.271H330.025V24.9904Z" fill="#00DA7E"/>
<path d="M348.957 18.8374V33.7684C348.957 34.4805 348.381 35.0567 347.669 35.0567C346.957 35.0567 346.38 34.4805 346.38 33.7684V28.2713H340.811V33.7684C340.811 34.4805 340.235 35.0567 339.523 35.0567C338.811 35.0567 338.235 34.4805 338.235 33.7684V18.8374C335.106 19.3575 332.722 22.0701 332.722 25.3427V33.7604C332.722 37.4011 335.674 40.3537 339.315 40.3537H339.779C340.675 40.3537 341.523 40.1777 342.3 39.8496C342.756 39.6576 343.188 39.4175 343.588 39.1375C343.988 39.4175 344.42 39.6576 344.876 39.8496C345.652 40.1697 346.508 40.3537 347.397 40.3537H347.861C351.501 40.3537 354.454 37.4011 354.454 33.7604V25.3427C354.47 22.0701 352.086 19.3575 348.957 18.8374Z" fill="#00DA7E"/>
<path d="M224.354 11.0479H262.281V48.9755H224.354V11.0479ZM227.676 44.2345H241.899V41.864H227.676V44.2345ZM229.57 21.9485H230.045C231.15 21.7956 231.94 20.8438 231.94 19.578V15.7888H230.199V19.7392C230.199 20.3686 230.046 20.5298 229.57 20.5298C229.093 20.5298 228.779 20.3686 228.618 20.0545L227.513 21.0062C227.989 21.7968 228.779 22.1109 229.57 21.9497V21.9485ZM237.472 21.9485V20.5298H234.15V19.578H236.995V18.1593H234.15V17.2075H237.472V15.7888H232.417V22.1097H237.472V21.9485ZM239.528 21.9485H241.262V17.2075H243.157V15.7888H237.787V17.2075H239.682V21.9485H239.528ZM233.206 27.9553C233.206 27.1647 232.731 26.5365 231.94 26.5365C232.57 26.3753 232.884 25.746 232.884 25.1095C232.884 24.7954 232.731 24.319 232.57 24.0049C232.094 23.5296 231.465 23.3755 230.836 23.3755H227.675V29.5352H230.836C232.254 29.5352 233.206 28.9058 233.206 27.9553ZM229.256 24.7954H230.36C230.836 24.7954 231.151 24.9566 231.151 25.2707C231.151 25.746 230.837 25.9001 230.36 25.9001H229.256V24.7954ZM229.256 28.1165V27.0118H230.513C231.15 27.0118 231.465 27.1647 231.304 27.48C231.304 27.8024 230.99 28.1165 230.513 28.1165H229.256ZM240.947 23.3755L238.576 28.907L237.625 27.48C238.415 27.1659 238.89 26.3753 238.89 25.5848C238.89 25.1095 238.738 24.4802 238.415 24.1661C237.786 23.5296 236.996 23.3755 236.367 23.3755H233.36V29.5352H235.101V27.64H235.892L237.158 29.5352H239.996L240.472 28.4306H242.842L243.317 29.5352H245.213L242.689 23.2143H240.948L240.947 23.3755ZM236.206 26.3753H235.101V24.9566H236.206C236.681 24.9566 237.158 25.1095 237.158 25.7472C237.158 26.0613 236.835 26.3753 236.206 26.3753ZM242.366 27.1659H241.108L241.737 25.4319L242.366 27.1659ZM245.374 29.5364H247.108V23.3767H245.374V29.5364ZM251.695 26.6894L249.163 23.3755H247.583V29.5352H249.324V26.2213L252.009 29.6964H253.427V23.3755H251.693L251.695 26.6894ZM256.588 25.746C255.798 25.5848 255.484 25.4319 255.484 25.1095C255.484 24.9566 255.645 24.7954 256.12 24.7954C256.75 24.7954 257.378 25.1095 257.854 25.4319L258.806 24.1661C258.015 23.5296 257.226 23.3755 256.274 23.3755C254.856 23.3755 253.904 24.319 253.904 25.4319C253.904 26.6894 254.856 27.0118 256.274 27.3271C257.065 27.48 257.379 27.6412 257.379 27.9565C257.379 28.2717 257.065 28.4317 256.588 28.4317C255.798 28.4317 255.17 28.1176 254.54 27.6412L253.589 28.7458C254.379 29.3823 255.484 29.6976 256.434 29.6976C258.014 29.6976 258.958 28.907 258.958 27.6412C258.958 26.5365 258.014 26.0613 256.587 25.746H256.588Z" fill="#00DA7E"/>
<path d="M379.71 29.0866C379.71 26.819 380.197 24.7064 381.119 22.7983L388.868 43.0007C383.45 40.527 379.712 35.2182 379.712 29.0849L379.71 29.0866ZM406.961 28.3131C406.961 29.6539 406.418 31.1481 405.714 33.3118L404.088 38.4655L398.183 21.8187C399.159 21.7675 400.08 21.6636 400.08 21.6636C400.947 21.5597 400.839 20.3756 399.971 20.4267C399.971 20.4267 397.316 20.5818 395.636 20.5818C394.01 20.5818 391.355 20.4267 391.355 20.4267C390.489 20.3756 390.379 21.6125 391.246 21.6636C391.246 21.6636 392.059 21.7675 392.926 21.8187L395.473 28.4154L391.896 38.5677L385.991 21.8187C386.967 21.7675 387.834 21.6636 387.834 21.6636C388.755 21.5597 388.647 20.3756 387.725 20.4267C387.725 20.4267 385.124 20.5818 383.391 20.5818H382.361C385.287 16.4077 390.272 13.6239 395.96 13.6239C400.187 13.6239 404.033 15.1708 406.959 17.6957C406.85 17.6446 406.796 17.6446 406.743 17.6446C405.116 17.6446 403.979 18.9854 403.979 20.4284C403.979 21.6653 404.792 22.7471 405.605 24.0368C406.202 25.0675 406.959 26.4083 406.959 28.3148L406.961 28.3131ZM391.357 43.9292L396.234 30.4257L401.273 43.4642C401.273 43.5681 401.326 43.6192 401.382 43.6703C399.702 44.2376 397.861 44.546 395.964 44.546C394.393 44.546 392.821 44.3399 391.359 43.9276L391.357 43.9292ZM410.212 21.6653C411.512 23.8818 412.216 26.4067 412.216 29.0866C412.216 34.8076 408.965 39.7551 404.144 42.4862L409.128 28.7765C410.049 26.6112 410.321 24.8086 410.321 23.2617C410.321 22.6944 410.321 22.1815 410.212 21.6653ZM395.964 11.0479C406.42 11.0479 414.928 19.1387 414.928 29.0866C414.928 39.0345 406.422 47.1253 395.964 47.1253C385.506 47.1253 377 39.0345 377 29.0866C377 19.1387 385.506 11.0479 395.964 11.0479ZM395.964 46.2991C405.933 46.2991 414.061 38.5677 414.061 29.0849C414.061 19.6022 405.933 11.8708 395.964 11.8708C385.995 11.8708 377.867 19.6022 377.867 29.0849C377.867 38.5677 385.995 46.2991 395.964 46.2991Z" fill="#00DA7E"/>
<path d="M96.0293 10.1978H133.959V47.8116H96.0293V10.1978ZM130.854 38.843C130.576 37.1222 129.445 35.6835 126.106 34.3376C124.946 33.7993 123.649 33.4196 123.266 32.5498C123.124 32.0349 123.099 31.754 123.192 31.4472C123.432 30.4305 124.637 30.1307 125.587 30.4128C126.205 30.6021 126.773 31.0676 127.131 31.821C128.766 30.7619 128.766 30.7619 129.903 30.0579C129.478 29.4031 129.268 29.1152 128.977 28.8401C127.983 27.7317 126.656 27.1686 124.502 27.218L123.384 27.3591C122.316 27.6165 121.298 28.1795 120.68 28.933C118.883 30.9535 119.402 34.4798 121.581 35.9432C123.736 37.5407 126.89 37.8898 127.298 39.3967C127.675 41.2339 125.922 41.8216 124.186 41.6065C122.909 41.3244 122.199 40.6885 121.414 39.513L118.524 41.1598C118.851 41.9133 119.234 42.2377 119.802 42.8983C122.549 45.6476 129.427 45.5066 130.66 41.3244C130.703 41.1833 131.037 40.2159 130.778 38.7408L130.854 38.843ZM116.655 27.486H113.105C113.105 30.5222 113.086 33.5407 113.086 36.5839C113.086 38.5127 113.184 40.2876 112.87 40.833C112.345 41.9109 111.006 41.7757 110.394 41.5865C109.771 41.2809 109.449 40.8577 109.085 40.2453C108.98 40.0796 108.906 39.9397 108.882 39.9397L105.999 41.7029C106.48 42.689 107.184 43.5401 108.092 44.0784C109.445 44.8801 111.259 45.1375 113.161 44.7155C114.396 44.3605 115.464 43.6317 116.018 42.5057C116.827 41.0481 116.654 39.2615 116.648 37.2586C116.667 34.0379 116.648 30.8184 116.648 27.573L116.655 27.486Z" fill="#00DA7E"/>
<path d="M48.4404 10.1978L51.4312 43.8375L64.8956 48.2733L78.3601 43.8375L81.3508 10.1978H48.4404ZM75.2747 16.997L74.8633 21.0166L64.9559 25.2145H74.5123L73.4153 37.6747L64.9998 40.1142L56.5323 37.6325L55.9838 31.3514H60.1743L60.4486 34.6069L64.9559 35.7369L69.6443 34.4287L69.9611 29.1934L55.6917 29.1512L55.3831 25.2158L65.5483 21.018H55.0156L54.5179 16.9983L75.2747 16.997Z" fill="#00DA7E"/>
<path d="M0 10.1978H33.7815L30.7086 44.5951L16.8533 48.4835L3.07894 44.5951L0 10.1978ZM11.3108 25.7513L10.9404 21.4143L27.1205 21.4203L27.4909 17.2387L6.28939 17.2328L7.41383 30.013H22.0931L21.5719 35.4783L16.8907 36.7561L12.1396 35.4664L11.832 32.1008H7.63462L8.16909 38.7565L16.8907 41.068L25.5436 38.7625L26.7381 25.7513H11.3108Z" fill="#00DA7E"/>
<path d="M166.595 22.9695H164.184L162.87 29.5657H165.012C166.425 29.5657 167.48 29.3042 168.178 28.7792C168.865 28.2636 169.333 27.3875 169.572 26.1714C169.809 25.0038 169.7 24.1763 169.264 23.6906C168.815 23.2142 167.928 22.9695 166.595 22.9695ZM179.312 11.7144C162.411 11.7144 148.719 18.7589 148.719 27.4361C148.719 36.1133 162.411 43.1578 179.312 43.1578C196.213 43.1578 209.906 36.1133 209.906 27.4361C209.906 18.7589 196.213 11.7144 179.312 11.7144ZM170.997 30.2774C170.339 30.8995 169.534 31.3665 168.666 31.6467C167.809 31.9101 166.715 32.0558 165.39 32.0558H162.371L161.545 36.2403H158.029L161.167 20.4887H167.918C169.951 20.4887 171.435 21.0043 172.37 22.0448C173.297 23.0853 173.586 24.5462 173.205 26.4142C173.067 27.154 172.798 27.8639 172.431 28.527C172.062 29.1566 171.597 29.7432 170.997 30.2774ZM181.265 32.0558L182.649 25.0823C182.808 24.2921 182.748 23.7504 182.467 23.4552C182.2 23.1731 181.611 23.0274 180.716 23.0274H177.938L176.146 32.0558H172.651L175.786 16.2949H179.272L178.437 20.4887H181.544C183.508 20.4887 184.85 20.8194 185.588 21.4807C186.336 22.1532 186.554 23.231 186.267 24.7218L184.8 32.0577L181.265 32.0558ZM200.623 26.4142C200.485 27.154 200.225 27.8639 199.848 28.527C199.489 29.1566 199.013 29.7432 198.424 30.2774C197.757 30.8902 196.961 31.3665 196.083 31.6467C195.227 31.9101 194.131 32.0558 192.808 32.0558H189.8L188.965 36.2403H185.448L188.586 20.4887H195.338C197.37 20.4887 198.854 21.0043 199.789 22.056C200.716 23.0872 201.003 24.5462 200.623 26.4142ZM194.013 22.9695H191.611L190.297 29.5657H192.429C193.852 29.5657 194.907 29.3042 195.596 28.7792C196.292 28.2636 196.76 27.3875 197.001 26.1714C197.238 25.0038 197.129 24.1763 196.68 23.6906C196.244 23.2142 195.347 22.9695 194.013 22.9695Z" fill="#00DA7E"/>
<defs>
<clipPath id="clip0_1563_205">
<rect width="44.1908" height="45.0406" fill="white" transform="translate(270.244)"/>
</clipPath>
</defs>
</svg>
