<svg width="198" height="61" viewBox="0 0 198 61" fill="none" xmlns="http://www.w3.org/2000/svg">
<g clip-path="url(#clip0_1563_224)">
<path d="M179.128 16.0003C182.296 16.0003 184.864 13.4538 184.864 10.3124C184.864 7.17107 182.296 4.62451 179.128 4.62451C175.961 4.62451 173.393 7.17107 173.393 10.3124C173.393 13.4538 175.961 16.0003 179.128 16.0003Z" fill="#00DA7E"/>
<path opacity="0.1" d="M178.719 11.5312H173.524L173.55 11.6446L173.553 11.6543L173.58 11.7592C173.957 13.1786 174.873 14.3987 176.136 15.1644C177.399 15.9302 178.912 16.1826 180.358 15.8688V13.1558C180.356 12.7254 180.183 12.3129 179.876 12.0085C179.569 11.7041 179.153 11.5325 178.719 11.5312Z" fill="#0D1F30"/>
<path opacity="0.2" d="M177.49 12.75H173.945C174.41 13.7226 175.144 14.5443 176.062 15.1197C176.979 15.6951 178.043 16.0005 179.128 16.0004V14.3746C179.127 13.9441 178.954 13.5316 178.647 13.2273C178.34 12.9229 177.924 12.7513 177.49 12.75Z" fill="#0D1F30"/>
<path d="M192.033 16.4062C194.409 16.4062 196.334 14.4965 196.334 12.1406C196.334 9.78479 194.409 7.875 192.033 7.875C189.657 7.875 187.731 9.78479 187.731 12.1406C187.731 14.4965 189.657 16.4062 192.033 16.4062Z" fill="#00DA7E"/>
<path d="M195.72 17.625H186.059C185.851 17.625 185.65 17.7072 185.503 17.8535C185.355 17.9997 185.273 18.1981 185.273 18.405V28.2891C185.246 29.7196 185.716 31.1157 186.603 32.2437C187.491 33.3717 188.742 34.163 190.148 34.4852C191.043 34.6715 191.969 34.6574 192.858 34.4441C193.748 34.2307 194.578 33.8234 195.288 33.2518C195.998 32.6802 196.571 31.9587 196.965 31.1399C197.359 30.321 197.563 29.4254 197.564 28.5182V19.4531C197.564 18.9683 197.37 18.5033 197.024 18.1604C196.678 17.8176 196.209 17.625 195.72 17.625Z" fill="#00DA7E"/>
<path d="M188.96 19.4531V31.0313C188.961 33.1769 188.248 35.263 186.931 36.9657C185.615 38.6684 183.768 39.8926 181.678 40.4482C179.589 41.0039 177.372 40.8599 175.373 40.0386C173.374 39.2174 171.705 37.7648 170.623 35.9063C170.387 35.5165 170.181 35.109 170.009 34.6875C169.848 34.2901 169.712 33.883 169.603 33.4688C169.401 32.6718 169.297 31.8532 169.296 31.0313V19.4531C169.296 19.213 169.343 18.9751 169.436 18.7532C169.528 18.5312 169.664 18.3296 169.835 18.1597C170.006 17.9899 170.21 17.8553 170.434 17.7635C170.657 17.6717 170.897 17.6247 171.139 17.625H187.116C187.359 17.6247 187.598 17.6717 187.822 17.7635C188.046 17.8553 188.249 17.9899 188.421 18.1597C188.592 18.3296 188.728 18.5312 188.82 18.7532C188.913 18.9751 188.96 19.213 188.96 19.4531Z" fill="#00DA7E"/>
<path opacity="0.2" d="M177.49 12.75H173.945C174.41 13.7226 175.144 14.5443 176.062 15.1197C176.979 15.6951 178.043 16.0005 179.128 16.0004V14.3746C179.127 13.9441 178.954 13.5316 178.647 13.2273C178.34 12.9229 177.924 12.7513 177.49 12.75Z" fill="#0D1F30"/>
<path opacity="0.1" d="M180.357 17.625V33.0666C180.357 33.434 180.23 33.7903 179.998 34.0763C179.765 34.3623 179.441 34.5608 179.079 34.6388C178.963 34.6729 178.843 34.6893 178.722 34.6875H170.009C169.848 34.2901 169.712 33.883 169.603 33.4688C169.401 32.6718 169.297 31.8532 169.296 31.0313V19.4531C169.296 19.213 169.343 18.9751 169.436 18.7532C169.528 18.5312 169.664 18.3296 169.835 18.1597C170.006 17.9899 170.21 17.8553 170.434 17.7635C170.657 17.6717 170.897 17.6247 171.139 17.625H180.357Z" fill="#0D1F30"/>
<path opacity="0.2" d="M179.128 17.625V34.2853C179.13 34.4049 179.113 34.5241 179.079 34.6388C179 34.9978 178.8 35.3193 178.512 35.5499C178.223 35.7805 177.864 35.9063 177.493 35.9063H170.623C170.387 35.5165 170.181 35.109 170.009 34.6875C169.848 34.2901 169.712 33.883 169.603 33.4688C169.401 32.6718 169.297 31.8532 169.296 31.0313V19.4531C169.296 19.213 169.343 18.9751 169.436 18.7532C169.528 18.5312 169.664 18.3296 169.835 18.1597C170.006 17.9899 170.21 17.8553 170.434 17.7635C170.657 17.6717 170.897 17.6247 171.139 17.625H179.128Z" fill="#0D1F30"/>
<path opacity="0.2" d="M179.128 17.625V31.8478C179.126 32.2771 178.953 32.6883 178.647 32.9919C178.341 33.2954 177.926 33.4668 177.493 33.4688H169.603C169.401 32.6718 169.297 31.8532 169.296 31.0313V19.4531C169.296 19.213 169.343 18.9751 169.436 18.7532C169.528 18.5312 169.664 18.3296 169.835 18.1597C170.006 17.9899 170.21 17.8553 170.434 17.7635C170.657 17.6717 170.897 17.6247 171.139 17.625H179.128Z" fill="#0D1F30"/>
<path opacity="0.2" d="M171.139 17.625C170.897 17.6247 170.657 17.6717 170.434 17.7635C170.21 17.8553 170.006 17.9899 169.835 18.1597C169.664 18.3296 169.528 18.5312 169.436 18.7532C169.343 18.9751 169.296 19.213 169.296 19.4531V31.0313C169.297 31.8532 169.401 32.6718 169.603 33.4688H176.264C176.697 33.4668 177.112 33.2954 177.418 32.9919C177.724 32.6883 177.897 32.2771 177.899 31.8478V17.625H171.139Z" fill="#0D1F30"/>
<path d="M159.874 12.75H176.261C176.696 12.75 177.112 12.9212 177.42 13.2258C177.727 13.5305 177.899 13.9437 177.899 14.3746V30.6254C177.899 31.0563 177.727 31.4695 177.42 31.7742C177.112 32.0788 176.696 32.25 176.261 32.25H159.874C159.439 32.25 159.022 32.0788 158.715 31.7742C158.408 31.4695 158.235 31.0563 158.235 30.6254V14.3746C158.235 13.9437 158.408 13.5305 158.715 13.2258C159.022 12.9212 159.439 12.75 159.874 12.75Z" fill="#00DA7E"/>
<path d="M172.959 18.8133H169.284V28.5877H166.873V18.8133H163.176V16.4124H172.959V18.8133Z" fill="white"/>
</g>
<g clip-path="url(#clip1_1563_224)">
<path d="M54.1753 33.711L56.0275 36.8655C56.4124 37.5296 56.9656 38.0514 57.6151 38.4309L64.2302 27.1411H51C51 27.8764 51.1924 28.6116 51.5773 29.2757L54.1753 33.711Z" fill="#00DA7E"/>
<path d="M72 13.8591L65.3849 2.56934C64.7354 2.94882 64.1821 3.47062 63.7973 4.13472L51.5773 25.0065C51.1995 25.6563 51.0005 26.3921 51 27.1411H64.2302L72 13.8591Z" fill="#00DA7E"/>
<path d="M86.3837 38.4309C87.0331 38.0514 87.5864 37.5296 87.9713 36.8655L88.741 35.561L92.4215 29.2757C92.8063 28.6116 92.9988 27.8764 92.9988 27.1411H79.7676L82.583 32.5962L86.3837 38.4309Z" fill="#00DA7E"/>
<path d="M72.0018 13.859L78.617 2.56923C77.9675 2.18974 77.2218 2 76.452 2H67.5517C66.7819 2 66.0362 2.21346 65.3867 2.56923L72.0018 13.859Z" fill="#00DA7E"/>
<path d="M79.7679 27.1411H64.2284L57.6133 38.4309C58.2628 38.8103 59.0085 39.0001 59.7782 39.0001H84.2181C84.9879 39.0001 85.7336 38.7866 86.383 38.4309L79.7679 27.1411Z" fill="#00DA7E"/>
<path d="M86.3127 14.5706L80.2027 4.13472C79.8179 3.47062 79.2646 2.94882 78.6151 2.56934L72 13.8591L79.7698 27.1411H92.9759C92.9759 26.4059 92.7835 25.6706 92.3986 25.0065L86.3127 14.5706Z" fill="#00DA7E"/>
</g>
<path d="M140.524 4.28491H123.325C123.325 6.34397 124.143 8.3187 125.599 9.77468C127.055 11.2307 129.03 12.0486 131.089 12.0486H134.257V15.1075C134.26 19.3914 137.732 22.8635 142.016 22.8663V5.77689C142.016 4.95313 141.348 4.28491 140.524 4.28491Z" fill="#00DA7E"/>
<path d="M131.433 12.8542H114.234C114.237 17.1381 117.709 20.6103 121.993 20.6131H125.161V23.6818C125.167 27.9656 128.641 31.4354 132.925 31.4354V14.3465C132.925 13.5225 132.257 12.8542 131.433 12.8542Z" fill="#00DA7E"/>
<path d="M122.342 21.4189H105.144C105.144 25.7067 108.62 29.1826 112.907 29.1826H116.085V32.2414C116.088 36.5214 119.554 39.992 123.834 40.0001V22.9111C123.834 22.087 123.166 21.4189 122.342 21.4189Z" fill="#00DA7E"/>
<g clip-path="url(#clip2_1563_224)">
<path d="M2.16612 3.59576L22.086 2.08357C24.5329 1.86786 25.1615 2.01327 26.7001 3.16286L33.0588 7.76677C34.1075 8.55857 34.4567 8.77428 34.4567 9.63638V34.8863C34.4567 36.4688 33.8976 37.4049 31.9403 37.5477L8.80812 38.9877C7.33932 39.0592 6.63984 38.8434 5.87052 37.8359L1.188 31.5778C0.34812 30.4259 0 29.5638 0 28.556V6.11176C0 4.81787 0.55908 3.73895 2.16612 3.59576Z" fill="white"/>
<path fill-rule="evenodd" clip-rule="evenodd" d="M22.086 2.08394L2.16612 3.59613C0.55908 3.73895 0 4.81824 0 6.11176V28.556C0 29.5635 0.34812 30.4256 1.188 31.5778L5.87052 37.8356C6.63984 38.8431 7.33932 39.0592 8.80812 38.9874L31.9406 37.5481C33.8965 37.4049 34.457 36.4688 34.457 34.8867V9.63675C34.457 8.81905 34.1428 8.58336 33.2176 7.88554L26.7001 3.16286C25.1618 2.01327 24.5329 1.86786 22.086 2.08357V2.08394ZM9.3312 9.22346C7.44228 9.35407 7.01388 9.38367 5.94108 8.48716L3.21372 6.25754C2.93652 5.96894 3.07584 5.60893 3.77424 5.53715L22.9237 4.09896C24.5318 3.95466 25.3692 4.53075 25.9981 5.03395L29.2824 7.47965C29.4228 7.55254 29.772 7.98285 29.3519 7.98285L9.576 9.20644L9.3312 9.22346ZM7.12908 34.671V13.2357C7.12908 12.2996 7.4088 11.8679 8.24616 11.7953L30.96 10.4286C31.7304 10.3571 32.0785 10.8603 32.0785 11.795V33.0874C32.0785 34.0235 31.9381 34.8153 30.6806 34.8867L8.94492 36.1817C7.68744 36.2531 7.12944 35.8228 7.12944 34.671H7.12908ZM28.5851 14.385C28.7244 15.0325 28.5851 15.68 27.9551 15.754L26.9075 15.9675V31.7935C25.9978 32.2967 25.1604 32.5842 24.4606 32.5842C23.342 32.5842 23.0627 32.2241 22.225 31.146L15.3742 20.0682V30.786L17.5414 31.2903C17.5414 31.2903 17.5414 32.5853 15.7928 32.5853L10.9724 32.8728C10.832 32.5842 10.9724 31.8652 11.461 31.7221L12.7199 31.3632V17.1922L10.9728 17.0467C10.8324 16.3992 11.1816 15.4643 12.1608 15.3917L17.3329 15.0339L24.4609 26.2549V16.3278L22.644 16.1132C22.5036 15.3203 23.0627 14.7442 23.7611 14.6739L28.5851 14.385Z" fill="#00DA7E"/>
</g>
<path d="M7.21875 58H6.1123L2.14844 51.8608C2.04818 51.7069 1.96582 51.5457 1.90137 51.3774H1.86914C1.89779 51.5422 1.91211 51.8949 1.91211 52.4355V58H1.00977V50.2979H2.18066L6.03711 56.3403C6.19824 56.591 6.30208 56.7629 6.34863 56.856H6.37012C6.33431 56.634 6.31641 56.2562 6.31641 55.7227V50.2979H7.21875V58ZM11.4189 58.1289C10.6061 58.1289 9.95622 57.8729 9.46924 57.3608C8.98584 56.8452 8.74414 56.1631 8.74414 55.3145C8.74414 54.3906 8.99658 53.6691 9.50146 53.1499C10.0063 52.6307 10.6885 52.3711 11.5479 52.3711C12.3678 52.3711 13.007 52.6235 13.4653 53.1284C13.9272 53.6333 14.1582 54.3333 14.1582 55.2285C14.1582 56.1058 13.9093 56.8094 13.4116 57.3394C12.9175 57.8657 12.2533 58.1289 11.4189 58.1289ZM11.4834 53.1123C10.9176 53.1123 10.4701 53.3057 10.1406 53.6924C9.8112 54.0755 9.64648 54.6055 9.64648 55.2822C9.64648 55.9339 9.81299 56.4478 10.146 56.8237C10.479 57.1997 10.9248 57.3877 11.4834 57.3877C12.0527 57.3877 12.4896 57.2033 12.7939 56.8345C13.1019 56.4657 13.2559 55.9411 13.2559 55.2607C13.2559 54.5732 13.1019 54.0433 12.7939 53.6709C12.4896 53.2985 12.0527 53.1123 11.4834 53.1123ZM18.1167 57.9463C17.909 58.0609 17.6351 58.1182 17.2949 58.1182C16.3317 58.1182 15.8501 57.5811 15.8501 56.5068V53.252H14.9048V52.5H15.8501V51.1572L16.731 50.8726V52.5H18.1167V53.252H16.731V56.3511C16.731 56.7199 16.7936 56.9831 16.9189 57.1406C17.0443 57.2982 17.252 57.377 17.542 57.377C17.764 57.377 17.9556 57.3161 18.1167 57.1943V57.9463ZM19.7441 51.1035C19.5866 51.1035 19.4523 51.0498 19.3413 50.9424C19.2303 50.835 19.1748 50.6989 19.1748 50.5342C19.1748 50.3695 19.2303 50.2334 19.3413 50.126C19.4523 50.015 19.5866 49.9595 19.7441 49.9595C19.9053 49.9595 20.0413 50.015 20.1523 50.126C20.2669 50.2334 20.3242 50.3695 20.3242 50.5342C20.3242 50.6917 20.2669 50.826 20.1523 50.937C20.0413 51.048 19.9053 51.1035 19.7441 51.1035ZM20.1738 58H19.293V52.5H20.1738V58ZM24.2559 58.1289C23.443 58.1289 22.7931 57.8729 22.3062 57.3608C21.8228 56.8452 21.5811 56.1631 21.5811 55.3145C21.5811 54.3906 21.8335 53.6691 22.3384 53.1499C22.8433 52.6307 23.5254 52.3711 24.3848 52.3711C25.2048 52.3711 25.8439 52.6235 26.3022 53.1284C26.7642 53.6333 26.9951 54.3333 26.9951 55.2285C26.9951 56.1058 26.7463 56.8094 26.2485 57.3394C25.7544 57.8657 25.0902 58.1289 24.2559 58.1289ZM24.3203 53.1123C23.7546 53.1123 23.307 53.3057 22.9775 53.6924C22.6481 54.0755 22.4834 54.6055 22.4834 55.2822C22.4834 55.9339 22.6499 56.4478 22.9829 56.8237C23.3159 57.1997 23.7617 57.3877 24.3203 57.3877C24.8896 57.3877 25.3265 57.2033 25.6309 56.8345C25.9388 56.4657 26.0928 55.9411 26.0928 55.2607C26.0928 54.5732 25.9388 54.0433 25.6309 53.6709C25.3265 53.2985 24.8896 53.1123 24.3203 53.1123ZM32.9678 58H32.0869V54.8633C32.0869 53.696 31.6608 53.1123 30.8086 53.1123C30.3682 53.1123 30.0029 53.2788 29.7129 53.6118C29.4264 53.9412 29.2832 54.3584 29.2832 54.8633V58H28.4023V52.5H29.2832V53.4131H29.3047C29.7201 52.7184 30.3216 52.3711 31.1094 52.3711C31.7109 52.3711 32.1711 52.5662 32.4897 52.9565C32.8084 53.3433 32.9678 53.9036 32.9678 54.6377V58Z" fill="#0D1F30"/>
<path d="M60.0098 58V50.2979H62.1367C64.8509 50.2979 66.208 51.5493 66.208 54.0522C66.208 55.241 65.8302 56.1971 65.0747 56.9204C64.3228 57.6401 63.3148 58 62.0508 58H60.0098ZM60.9121 51.1143V57.1836H62.0615C63.0713 57.1836 63.8573 56.9132 64.4194 56.3726C64.9816 55.8319 65.2627 55.0656 65.2627 54.0737C65.2627 52.1007 64.2135 51.1143 62.1152 51.1143H60.9121ZM70.4727 53.3916C70.3187 53.2734 70.0967 53.2144 69.8066 53.2144C69.4307 53.2144 69.1156 53.3916 68.8613 53.7461C68.6107 54.1006 68.4854 54.584 68.4854 55.1963V58H67.6045V52.5H68.4854V53.6333H68.5068C68.6322 53.2466 68.8237 52.9458 69.0815 52.731C69.3394 52.5125 69.6276 52.4033 69.9463 52.4033C70.1755 52.4033 70.3509 52.4284 70.4727 52.4785V53.3916ZM71.8799 51.1035C71.7223 51.1035 71.5881 51.0498 71.4771 50.9424C71.366 50.835 71.3105 50.6989 71.3105 50.5342C71.3105 50.3695 71.366 50.2334 71.4771 50.126C71.5881 50.015 71.7223 49.9595 71.8799 49.9595C72.041 49.9595 72.1771 50.015 72.2881 50.126C72.4027 50.2334 72.46 50.3695 72.46 50.5342C72.46 50.6917 72.4027 50.826 72.2881 50.937C72.1771 51.048 72.041 51.1035 71.8799 51.1035ZM72.3096 58H71.4287V52.5H72.3096V58ZM78.4165 52.5L76.2251 58H75.3604L73.2764 52.5H74.2432L75.6396 56.4961C75.7435 56.7897 75.8079 57.0457 75.833 57.2642H75.8545C75.8903 56.9884 75.9476 56.7396 76.0264 56.5176L77.4873 52.5H78.4165ZM83.7876 55.4702H79.9043C79.9186 56.0825 80.0833 56.5552 80.3984 56.8882C80.7135 57.2212 81.1468 57.3877 81.6982 57.3877C82.3177 57.3877 82.887 57.1836 83.4062 56.7754V57.6025C82.9229 57.9535 82.2837 58.1289 81.4888 58.1289C80.7118 58.1289 80.1012 57.88 79.6572 57.3823C79.2132 56.881 78.9912 56.1774 78.9912 55.2715C78.9912 54.4157 79.2329 53.7192 79.7163 53.1821C80.2033 52.6414 80.8066 52.3711 81.5264 52.3711C82.2461 52.3711 82.8029 52.6038 83.1968 53.0693C83.5907 53.5348 83.7876 54.1812 83.7876 55.0083V55.4702ZM82.8853 54.7236C82.8817 54.2152 82.7581 53.8195 82.5146 53.5366C82.2747 53.2537 81.9399 53.1123 81.5103 53.1123C81.0949 53.1123 80.7422 53.2609 80.4521 53.5581C80.1621 53.8553 79.9831 54.2438 79.915 54.7236H82.8853Z" fill="#0D1F30"/>
<path d="M117.981 55.2393C117.981 56.1523 117.788 56.8631 117.401 57.3716C117.014 57.8765 116.497 58.1289 115.849 58.1289C115.548 58.1289 115.301 58.0859 115.107 58V57.1084C115.301 57.248 115.551 57.3179 115.859 57.3179C116.672 57.3179 117.079 56.6286 117.079 55.25V50.2979H117.981V55.2393ZM120.274 51.1035C120.117 51.1035 119.983 51.0498 119.872 50.9424C119.761 50.835 119.705 50.6989 119.705 50.5342C119.705 50.3695 119.761 50.2334 119.872 50.126C119.983 50.015 120.117 49.9595 120.274 49.9595C120.436 49.9595 120.572 50.015 120.683 50.126C120.797 50.2334 120.854 50.3695 120.854 50.5342C120.854 50.6917 120.797 50.826 120.683 50.937C120.572 51.048 120.436 51.1035 120.274 51.1035ZM120.704 58H119.823V52.5H120.704V58ZM125.355 53.3916C125.201 53.2734 124.979 53.2144 124.689 53.2144C124.313 53.2144 123.998 53.3916 123.744 53.7461C123.493 54.1006 123.368 54.584 123.368 55.1963V58H122.487V52.5H123.368V53.6333H123.39C123.515 53.2466 123.707 52.9458 123.964 52.731C124.222 52.5125 124.51 52.4033 124.829 52.4033C125.058 52.4033 125.234 52.4284 125.355 52.4785V53.3916ZM130.249 58H129.368V57.1406H129.346C128.963 57.7995 128.399 58.1289 127.654 58.1289C127.106 58.1289 126.677 57.9839 126.365 57.6938C126.057 57.4038 125.903 57.0189 125.903 56.5391C125.903 55.5114 126.508 54.9134 127.719 54.7451L129.368 54.5142C129.368 53.5796 128.99 53.1123 128.234 53.1123C127.572 53.1123 126.974 53.3379 126.44 53.7891V52.8867C126.981 52.543 127.604 52.3711 128.31 52.3711C129.602 52.3711 130.249 53.055 130.249 54.4229V58ZM129.368 55.2178L128.041 55.4004C127.633 55.4577 127.325 55.5597 127.117 55.7065C126.91 55.8498 126.806 56.1058 126.806 56.4746C126.806 56.7432 126.901 56.9634 127.09 57.1353C127.284 57.3035 127.54 57.3877 127.858 57.3877C128.295 57.3877 128.655 57.2355 128.938 56.9312C129.224 56.6232 129.368 56.2347 129.368 55.7656V55.2178Z" fill="#0D1F30"/>
<path d="M168.564 51.1143H166.341V58H165.438V51.1143H163.22V50.2979H168.564V51.1143ZM173.006 55.4702H169.123C169.137 56.0825 169.302 56.5552 169.617 56.8882C169.932 57.2212 170.366 57.3877 170.917 57.3877C171.536 57.3877 172.106 57.1836 172.625 56.7754V57.6025C172.142 57.9535 171.502 58.1289 170.708 58.1289C169.931 58.1289 169.32 57.88 168.876 57.3823C168.432 56.881 168.21 56.1774 168.21 55.2715C168.21 54.4157 168.452 53.7192 168.935 53.1821C169.422 52.6414 170.025 52.3711 170.745 52.3711C171.465 52.3711 172.022 52.6038 172.416 53.0693C172.809 53.5348 173.006 54.1812 173.006 55.0083V55.4702ZM172.104 54.7236C172.1 54.2152 171.977 53.8195 171.733 53.5366C171.493 53.2537 171.159 53.1123 170.729 53.1123C170.314 53.1123 169.961 53.2609 169.671 53.5581C169.381 53.8553 169.202 54.2438 169.134 54.7236H172.104ZM178.281 58H177.4V57.1406H177.378C176.995 57.7995 176.431 58.1289 175.687 58.1289C175.139 58.1289 174.709 57.9839 174.397 57.6938C174.09 57.4038 173.936 57.0189 173.936 56.5391C173.936 55.5114 174.541 54.9134 175.751 54.7451L177.4 54.5142C177.4 53.5796 177.022 53.1123 176.267 53.1123C175.604 53.1123 175.006 53.3379 174.473 53.7891V52.8867C175.013 52.543 175.636 52.3711 176.342 52.3711C177.634 52.3711 178.281 53.055 178.281 54.4229V58ZM177.4 55.2178L176.073 55.4004C175.665 55.4577 175.357 55.5597 175.149 55.7065C174.942 55.8498 174.838 56.1058 174.838 56.4746C174.838 56.7432 174.933 56.9634 175.123 57.1353C175.316 57.3035 175.572 57.3877 175.891 57.3877C176.327 57.3877 176.687 57.2355 176.97 56.9312C177.257 56.6232 177.4 56.2347 177.4 55.7656V55.2178ZM187.75 58H186.869V54.8418C186.869 54.2331 186.774 53.7926 186.584 53.5205C186.398 53.2484 186.083 53.1123 185.639 53.1123C185.263 53.1123 184.943 53.2842 184.678 53.6279C184.416 53.9717 184.286 54.3835 184.286 54.8633V58H183.405V54.7344C183.405 53.653 182.988 53.1123 182.153 53.1123C181.767 53.1123 181.448 53.2752 181.197 53.6011C180.947 53.9233 180.821 54.3441 180.821 54.8633V58H179.94V52.5H180.821V53.3701H180.843C181.233 52.7041 181.802 52.3711 182.551 52.3711C182.927 52.3711 183.254 52.4767 183.534 52.688C183.813 52.8957 184.005 53.1696 184.108 53.5098C184.517 52.7507 185.125 52.3711 185.935 52.3711C187.145 52.3711 187.75 53.1177 187.75 54.6108V58ZM189.082 57.8013V56.856C189.562 57.2104 190.09 57.3877 190.667 57.3877C191.44 57.3877 191.827 57.1299 191.827 56.6143C191.827 56.4674 191.793 56.3439 191.725 56.2437C191.66 56.1398 191.571 56.0485 191.456 55.9697C191.345 55.891 191.213 55.8211 191.059 55.7603C190.908 55.6958 190.745 55.6296 190.57 55.5615C190.326 55.4648 190.111 55.3682 189.925 55.2715C189.743 55.1712 189.589 55.0602 189.463 54.9385C189.342 54.8132 189.249 54.6717 189.184 54.5142C189.123 54.3566 189.093 54.1722 189.093 53.9609C189.093 53.7031 189.152 53.4757 189.27 53.2788C189.388 53.0783 189.546 52.9118 189.743 52.7793C189.94 52.6432 190.163 52.5412 190.414 52.4731C190.668 52.4051 190.93 52.3711 191.198 52.3711C191.674 52.3711 192.101 52.4535 192.477 52.6182V53.5098C192.072 53.2448 191.606 53.1123 191.08 53.1123C190.915 53.1123 190.767 53.132 190.634 53.1714C190.502 53.2072 190.387 53.2591 190.291 53.3271C190.197 53.3952 190.124 53.4775 190.07 53.5742C190.02 53.6673 189.995 53.7712 189.995 53.8857C189.995 54.029 190.02 54.1489 190.07 54.2456C190.124 54.3423 190.201 54.4282 190.301 54.5034C190.402 54.5786 190.523 54.6466 190.667 54.7075C190.81 54.7684 190.973 54.8346 191.155 54.9062C191.399 54.9993 191.617 55.096 191.811 55.1963C192.004 55.293 192.169 55.404 192.305 55.5293C192.441 55.651 192.545 55.7925 192.616 55.9536C192.691 56.1147 192.729 56.3063 192.729 56.5283C192.729 56.8005 192.668 57.0368 192.546 57.2373C192.428 57.4378 192.269 57.6043 192.068 57.7368C191.868 57.8693 191.637 57.9678 191.375 58.0322C191.114 58.0967 190.84 58.1289 190.554 58.1289C189.988 58.1289 189.497 58.0197 189.082 57.8013Z" fill="#0D1F30"/>
<defs>
<clipPath id="clip0_1563_224">
<rect width="40" height="39" fill="white" transform="translate(158 3)"/>
</clipPath>
<clipPath id="clip1_1563_224">
<rect width="42" height="37" fill="white" transform="translate(51 2)"/>
</clipPath>
<clipPath id="clip2_1563_224">
<rect width="36" height="37" fill="white" transform="translate(0 2)"/>
</clipPath>
</defs>
</svg>
