<svg width="38" height="37" viewBox="0 0 38 37" fill="none" xmlns="http://www.w3.org/2000/svg">
<path d="M18.9999 0C14.4884 0.000186768 10.1241 1.603 6.68794 4.52166C3.25182 7.44032 0.968097 11.4843 0.245403 15.9302C-0.477291 20.376 0.408203 24.9335 2.74344 28.7871C5.07868 32.6408 8.71127 35.5392 12.9912 36.9637C13.9412 37.1297 14.2975 36.5607 14.2975 36.0627C14.2975 35.6122 14.2737 34.1185 14.2737 32.53C9.49999 33.4072 8.26499 31.3682 7.885 30.3013C7.46334 29.2636 6.79493 28.344 5.93751 27.622C5.27251 27.2664 4.32252 26.3891 5.91374 26.3654C6.52133 26.4312 7.10408 26.6423 7.6126 26.9807C8.12112 27.3192 8.54042 27.775 8.83499 28.3096C9.09485 28.7756 9.44428 29.1859 9.86324 29.5169C10.2822 29.8479 10.7625 30.0931 11.2765 30.2384C11.7906 30.3838 12.3283 30.4265 12.8589 30.364C13.3895 30.3016 13.9026 30.1352 14.3687 29.8744C14.4509 28.9101 14.8814 28.0086 15.5799 27.3375C11.3525 26.8634 6.935 25.2273 6.935 17.9721C6.9083 16.087 7.6051 14.2631 8.88249 12.8745C8.30163 11.2361 8.36959 9.43808 9.07249 7.84803C9.07249 7.84803 10.6637 7.3501 14.2975 9.79224C17.4064 8.93863 20.6885 8.93863 23.7974 9.79224C27.4311 7.32641 29.0223 7.84803 29.0223 7.84803C29.7253 9.43806 29.7933 11.2361 29.2123 12.8745C30.4936 14.2607 31.191 16.0862 31.1598 17.9721C31.1598 25.251 26.7186 26.8634 22.4911 27.3375C22.9446 27.7964 23.2938 28.3472 23.5151 28.9527C23.7364 29.5582 23.8246 30.2041 23.7736 30.8466C23.7736 33.3836 23.7499 35.4226 23.7499 36.0628C23.7499 36.5607 24.1061 37.1534 25.0561 36.9638C29.3285 35.5276 32.9507 32.6225 35.276 28.7668C37.6013 24.9112 38.4784 20.356 37.7507 15.9145C37.023 11.473 34.7378 7.43423 31.3032 4.51912C27.8686 1.60402 23.508 0.00234236 18.9999 0Z" fill="#00DA7E"/>
</svg>
