<svg width="67" height="67" viewBox="0 0 67 67" fill="none" xmlns="http://www.w3.org/2000/svg">
<circle cx="33.19" cy="33.19" r="33.19" fill="#FF66A2"/>
<g clip-path="url(#clip0_2142_383)">
<ellipse cx="34.0084" cy="32.2022" rx="24.024" ry="24.024" fill="#FDFAF8"/>
</g>
<path d="M25.1668 46.1731C25.1668 46.3865 24.9317 46.5573 24.6351 46.5573C24.2977 46.5893 24.0625 46.4185 24.0625 46.1731C24.0625 45.9597 24.2977 45.7889 24.5942 45.7889C24.901 45.7569 25.1668 45.9276 25.1668 46.1731ZM21.9868 45.6929C21.9152 45.9063 22.1197 46.1517 22.4265 46.2158C22.6923 46.3225 22.9991 46.2158 23.0604 46.0023C23.1218 45.7889 22.9275 45.5435 22.6207 45.4474C22.3549 45.3727 22.0584 45.4795 21.9868 45.6929ZM26.5063 45.5115C26.2098 45.5862 26.0053 45.7889 26.036 46.0344C26.0667 46.2478 26.3325 46.3865 26.6393 46.3118C26.9358 46.2371 27.1403 46.0344 27.1096 45.8209C27.079 45.6182 26.8029 45.4795 26.5063 45.5115ZM33.2346 4.61914C19.0521 4.61914 8.20312 15.856 8.20312 30.6571C8.20312 42.4915 15.3404 52.6185 25.5349 56.1827C26.8438 56.4282 27.3039 55.5851 27.3039 54.8915C27.3039 54.2299 27.2732 50.5803 27.2732 48.3394C27.2732 48.3394 20.1156 49.94 18.6124 45.1593C18.6124 45.1593 17.4468 42.054 15.7698 41.2536C15.7698 41.2536 13.4282 39.5782 15.9334 39.6103C15.9334 39.6103 18.4795 39.8237 19.8804 42.3634C22.1197 46.4826 25.8724 45.298 27.3346 44.5937C27.5698 42.8863 28.2344 41.7018 28.9706 40.9975C23.2547 40.3359 17.4877 39.4715 17.4877 29.2058C17.4877 26.2712 18.2648 24.7985 19.9008 22.9204C19.635 22.2267 18.7658 19.3668 20.1667 15.6746C22.3038 14.9809 27.2221 18.5558 27.2221 18.5558C29.2672 17.9582 31.4656 17.6488 33.6436 17.6488C35.8216 17.6488 38.02 17.9582 40.065 18.5558C40.065 18.5558 44.9834 14.9703 47.1205 15.6746C48.5213 19.3775 47.6522 22.2267 47.3863 22.9204C49.0224 24.8092 50.0244 26.2818 50.0244 29.2058C50.0244 39.5035 44.0018 40.3252 38.2858 40.9975C39.2266 41.8405 40.0241 43.4412 40.0241 45.949C40.0241 49.5452 39.9935 53.9951 39.9935 54.8702C39.9935 55.5638 40.4638 56.4068 41.7624 56.1614C51.9877 52.6185 58.9204 42.4915 58.9204 30.6571C58.9204 15.856 47.417 4.61914 33.2346 4.61914ZM18.1421 41.4244C18.0092 41.5311 18.0398 41.7765 18.2137 41.9793C18.3773 42.15 18.6124 42.2247 18.7454 42.086C18.8783 41.9793 18.8476 41.7338 18.6738 41.5311C18.5102 41.3603 18.275 41.2856 18.1421 41.4244ZM17.0378 40.56C16.9662 40.6987 17.0684 40.8695 17.2729 40.9762C17.4365 41.0829 17.641 41.0509 17.7126 40.9015C17.7842 40.7627 17.6819 40.592 17.4774 40.4853C17.2729 40.4213 17.1093 40.4533 17.0378 40.56ZM20.3507 44.359C20.1871 44.4977 20.2485 44.8178 20.4837 45.0206C20.7188 45.266 21.0154 45.298 21.1483 45.1273C21.2812 44.9886 21.2199 44.6684 21.0154 44.4657C20.7904 44.2202 20.4837 44.1882 20.3507 44.359ZM19.1851 42.7903C19.0215 42.897 19.0215 43.1745 19.1851 43.4199C19.3487 43.6653 19.6247 43.772 19.7577 43.6653C19.9213 43.5266 19.9213 43.2492 19.7577 43.0037C19.6145 42.7583 19.3487 42.6516 19.1851 42.7903Z" fill="#FF66A2"/>
<defs>
<clipPath id="clip0_2142_383">
<rect width="50.7173" height="52.4969" fill="white" transform="translate(8.20312 3.72925)"/>
</clipPath>
</defs>
</svg>
