<svg width="270" height="54" viewBox="0 0 270 54" fill="none" xmlns="http://www.w3.org/2000/svg">
<path d="M39.0173 0.050293H15.4173C11.9082 0.050293 9.06348 2.89501 9.06348 6.40414V28.7939C9.06348 32.303 11.9082 35.1478 15.4173 35.1478H39.0173C42.5265 35.1478 45.3712 32.303 45.3712 28.7939V6.40414C45.3712 2.89501 42.5265 0.050293 39.0173 0.050293Z" fill="#00DA7E"/>
<path d="M16.6321 25.9014V9.42976C16.6291 9.40681 16.6315 9.38348 16.6389 9.36157C16.6464 9.33966 16.6588 9.31975 16.6752 9.30339C16.6915 9.28702 16.7114 9.27463 16.7333 9.26716C16.7553 9.2597 16.7786 9.25736 16.8015 9.26033C18.0284 9.22856 19.4762 9.1272 21.3642 9.1272C23.5911 9.1272 25.2249 9.59163 26.2658 10.5916C26.7714 11.0647 27.1717 11.639 27.4407 12.2771C27.7097 12.9151 27.8413 13.6027 27.827 14.295C27.827 16.1195 27.1815 17.4749 25.8906 18.3615C24.5996 19.248 22.9759 19.6917 21.0193 19.6927L19.6578 19.7169V25.8772C19.6616 25.9035 19.6592 25.9303 19.6508 25.9555C19.6424 25.9808 19.6282 26.0037 19.6094 26.0225C19.5906 26.0413 19.5677 26.0554 19.5425 26.0638C19.5173 26.0722 19.4904 26.0746 19.4641 26.0708H16.8257C16.6972 26.0708 16.6321 26.0148 16.6321 25.9014ZM19.6578 11.4902V17.4477C19.6578 17.4477 20.3476 17.4205 21.1706 17.4205C22.2527 17.4205 23.1282 17.1825 23.7968 16.7064C24.4655 16.2304 24.8003 15.4508 24.8013 14.3676C24.8013 13.4155 24.5069 12.6813 23.9179 12.1649C23.3289 11.6486 22.4777 11.3924 21.3642 11.3964C21.0904 11.3964 20.8196 11.3964 20.5533 11.4085C20.2871 11.4206 20.0692 11.4206 19.8998 11.4206C19.7304 11.4206 19.6396 11.4146 19.6578 11.4902ZM37.8116 22.1375C37.8116 23.9907 36.6014 24.8605 36.6014 24.8605V24.8515C36.5287 24.9226 36.4501 24.9891 36.3729 25.0542C35.5399 25.7319 34.4138 26.0708 32.9948 26.0708C31.5758 26.0708 30.4159 25.8096 29.5153 25.2872C29.4655 25.2698 29.4232 25.2358 29.3956 25.1909C29.3681 25.1459 29.3569 25.0928 29.364 25.0406V22.7607C29.3618 22.735 29.3661 22.7091 29.3767 22.6855C29.3873 22.662 29.4038 22.6415 29.4245 22.6261C29.441 22.6143 29.4612 22.6089 29.4813 22.6112C29.5014 22.6134 29.52 22.623 29.5335 22.6382C30.4935 23.3926 31.677 23.8066 32.898 23.8152C33.4617 23.8152 33.8934 23.7143 34.1929 23.5126C34.331 23.4303 34.4454 23.3135 34.525 23.1738C34.6045 23.0341 34.6465 22.8761 34.6468 22.7154C34.65 22.5531 34.6194 22.3919 34.5569 22.2422C34.4944 22.0924 34.4013 21.9573 34.2837 21.8455C34.0417 21.6075 33.5656 21.3498 32.8556 21.0724C31.5637 20.5682 30.664 20.0246 30.1567 19.4416C29.6198 18.8575 29.3274 18.0897 29.3398 17.2964C29.3401 16.8029 29.4461 16.3152 29.6507 15.8661C29.8553 15.417 30.1537 15.017 30.5259 14.6929C31.2833 14.006 32.3644 13.6626 33.7694 13.6626C35.0805 13.6626 36.089 13.8427 36.795 14.2027C36.8752 14.2511 36.916 14.354 36.916 14.5204V16.5552C36.916 16.7518 36.8434 16.8002 36.6982 16.7064C35.8566 16.1535 34.8731 15.8557 33.8662 15.8487C33.3004 15.8487 32.8859 15.9561 32.6196 16.1679C32.4984 16.2539 32.3992 16.3671 32.3298 16.4985C32.2604 16.6299 32.2229 16.7757 32.2202 16.9243C32.2198 17.0696 32.2497 17.2135 32.308 17.3466C32.3664 17.4797 32.4519 17.5992 32.5591 17.6973C32.785 17.9182 33.261 18.1754 33.9872 18.4689C35.2539 18.9641 36.1616 19.4845 36.7103 20.0301L36.7239 20.0437C37.2882 20.5626 37.8116 21.2767 37.8116 22.1375Z" fill="#FFFDEF"/>
<path d="M100.954 0H77.3539C73.8447 0 71 2.84472 71 6.35385V28.7436C71 32.2527 73.8447 35.0975 77.3539 35.0975H100.954C104.463 35.0975 107.308 32.2527 107.308 28.7436V6.35385C107.308 2.84472 104.463 0 100.954 0Z" fill="#00DA7E"/>
<path d="M88.8014 21.7101H83.387L81.9891 25.7463C81.973 25.8794 81.8888 25.946 81.7365 25.946H79.195C79.0255 25.946 78.9665 25.8628 79.018 25.6964L83.9225 11.1294C84.061 10.6859 84.1294 10.2234 84.1253 9.75878C84.1225 9.73826 84.1245 9.71739 84.1312 9.69779C84.1378 9.67819 84.1489 9.66038 84.1635 9.64574C84.1781 9.63111 84.1959 9.62005 84.2156 9.61341C84.2352 9.60678 84.256 9.60475 84.2765 9.60749H87.8347C87.9376 9.60749 87.9966 9.64985 88.0132 9.73155L93.5017 25.7221C93.5532 25.8734 93.5108 25.946 93.3746 25.946H90.529C90.4764 25.9491 90.424 25.9364 90.3787 25.9094C90.3334 25.8824 90.2972 25.8425 90.2749 25.7947L88.8014 21.7101ZM83.9921 18.987H88.2099C88.1085 18.7646 86.2114 12.6437 86.0753 12.1279H86.0511L83.9921 18.987ZM96.5349 12.6331C96.2964 12.6433 96.0582 12.6056 95.8345 12.5222C95.6108 12.4388 95.406 12.3114 95.2324 12.1475C95.0625 11.9748 94.9303 11.7685 94.8444 11.5419C94.7584 11.3154 94.7206 11.0734 94.7332 10.8314C94.7219 10.5863 94.7617 10.3415 94.85 10.1126C94.9382 9.88373 95.0731 9.67565 95.246 9.5016C95.4211 9.33495 95.6277 9.20495 95.8537 9.11922C96.0797 9.03349 96.3206 8.99376 96.5622 9.00237C96.8042 8.98976 97.0462 9.02763 97.2727 9.11358C97.4993 9.19953 97.7055 9.33166 97.8783 9.5016C98.0437 9.67976 98.1718 9.88916 98.2552 10.1175C98.3386 10.3459 98.3756 10.5885 98.3639 10.8314C98.3765 11.0734 98.3387 11.3154 98.2527 11.5419C98.1668 11.7685 98.0346 11.9748 97.8647 12.1475C97.6865 12.3129 97.4771 12.4411 97.2488 12.5244C97.0204 12.6078 96.7777 12.6448 96.5349 12.6331ZM95.0357 25.719V14.0461C95.0316 14.0185 95.0341 13.9904 95.0428 13.964C95.0516 13.9375 95.0664 13.9135 95.0861 13.8938C95.1058 13.8741 95.1298 13.8592 95.1563 13.8505C95.1827 13.8417 95.2109 13.8393 95.2384 13.8434H97.8586C97.8862 13.8396 97.9141 13.8423 97.9405 13.8512C97.9668 13.86 97.9907 13.8748 98.0103 13.8945C98.0299 13.9141 98.0447 13.938 98.0536 13.9643C98.0625 13.9906 98.0651 14.0186 98.0614 14.0461V25.7432C98.0654 25.7708 98.063 25.7989 98.0543 25.8254C98.0455 25.8519 98.0307 25.8759 98.011 25.8956C97.9913 25.9153 97.9673 25.9301 97.9408 25.9389C97.9143 25.9476 97.8862 25.95 97.8586 25.946H95.2626C95.2318 25.9502 95.2005 25.9473 95.171 25.9374C95.1415 25.9275 95.1147 25.9109 95.0927 25.8889C95.0708 25.867 95.0542 25.8402 95.0443 25.8107C95.0344 25.7812 95.0315 25.7498 95.0357 25.719Z" fill="#FFFDEF"/>
<path d="M223.889 28.475L208.522 1.27508C208.446 1.1441 208.336 1.03567 208.204 0.960959C208.072 0.886251 207.922 0.847975 207.77 0.85008H205.568L204.97 0.255082C204.89 0.173744 204.794 0.109257 204.689 0.0654524C204.583 0.0216474 204.47 -0.000582825 204.355 8.23606e-05H199.233C199.081 -0.00202254 198.931 0.0362533 198.799 0.110962C198.667 0.18567 198.558 0.294105 198.482 0.425081L195.459 5.81407C195.412 5.92131 195.388 6.03706 195.388 6.15406C195.388 6.27107 195.412 6.38682 195.459 6.49406L195.818 7.56506L190.064 18.088L187.929 19.363C187.802 19.4363 187.696 19.5419 187.622 19.669L183.114 27.625C183.039 27.7542 183 27.9008 183 28.05C183 28.1992 183.039 28.3458 183.114 28.475L185.676 32.725C185.752 32.856 185.861 32.9644 185.993 33.0391C186.125 33.1138 186.275 33.1521 186.427 33.15H187.281C187.281 33.3754 187.371 33.5916 187.531 33.751C187.691 33.9104 187.908 34 188.134 34H220.576C220.724 34.0008 220.869 33.9637 220.998 33.8922C221.126 33.8207 221.234 33.7173 221.311 33.592L223.872 29.342C223.953 29.2123 223.997 29.0634 224 28.9108C224.003 28.7583 223.965 28.6077 223.889 28.475ZM200.189 26.775L200.428 27.251H193.837L202.648 11.1181L210.588 25.5H200.94C200.795 25.4997 200.653 25.5362 200.526 25.6061C200.399 25.676 200.292 25.777 200.215 25.8995C200.138 26.022 200.094 26.162 200.086 26.3062C200.079 26.4505 200.108 26.5943 200.172 26.724L200.189 26.775Z" fill="#00DA7E"/>
<path d="M131 7.16366V16.3741V27.6312C131 33.3622 135.776 34.7949 138.164 34.7949H157.608C164.157 34.7949 165.795 30.0191 165.795 27.6312V7.16366C165.795 1.43273 161.019 0 158.631 0H138.164C132.433 0 131 4.77577 131 7.16366Z" fill="#00DA7E"/>
<g clip-path="url(#clip0_1563_214)">
<path d="M137.175 30.7014C137.175 30.7014 136.018 18.6444 146.908 15.2773C155.748 12.5428 159.158 9.29587 159.229 4.09351C159.229 4.09351 161.339 9.2645 156.128 16.6419C156.128 16.6419 153.522 19.8365 148.084 21.9018C148.084 21.9018 145.599 22.6861 142.574 23.439C141.461 23.7161 138.087 25.3265 137.18 30.7014H137.175Z" fill="#FFFDEF"/>
</g>
<g clip-path="url(#clip1_1563_214)">
<path d="M252.116 34C261.781 34 269.616 26.3888 269.616 17C269.616 7.61116 261.781 0 252.116 0C242.451 0 234.616 7.61116 234.616 17C234.616 26.3888 242.451 34 252.116 34Z" fill="#00DA7E"/>
<path d="M252.524 17.2866C253.036 16.8499 253.451 16.4385 253.999 16.2143C254.32 16.0836 254.676 15.8984 254.981 16.185C255.286 16.4716 255.093 16.7855 255.001 17.0936C254.816 17.7117 254.629 18.3317 254.461 18.9537C254.411 19.135 254.326 19.3436 254.517 19.5055C254.708 19.6673 254.947 19.5601 255.135 19.4665C255.834 19.1194 256.402 18.708 256.313 17.7955C256.261 17.2496 256.313 16.6686 256.833 16.2786C257.034 16.1246 257.277 15.9452 257.532 16.1168C257.787 16.2884 257.604 16.5067 257.532 16.7017C257.285 17.437 257.216 18.2176 257.331 18.9829C257.357 19.1545 257.331 19.4021 257.494 19.4645C257.716 19.5464 257.817 19.2695 257.959 19.1565C258.102 19.0434 258.198 18.8835 258.322 18.7509C258.652 18.4019 258.832 18.1231 258.395 17.6454C257.887 17.0936 258.039 16.0134 258.539 15.5006C258.676 15.3403 258.862 15.2258 259.07 15.1733C259.278 15.1209 259.497 15.1331 259.697 15.2082C260.133 15.3622 260.275 15.7268 260.287 16.1538C260.299 16.6335 260.087 17.0546 259.92 17.5187C260.406 17.6376 260.707 17.3724 260.98 17.0858C261.638 16.3917 262.401 15.951 263.412 16.0544C264.145 16.1285 264.565 16.5126 264.526 17.0722C264.512 17.1961 264.467 17.3148 264.396 17.4185C264.324 17.5221 264.228 17.6076 264.116 17.6677C264.004 17.7279 263.878 17.761 263.749 17.7642C263.621 17.7675 263.494 17.7407 263.378 17.6863C263.15 17.5674 263.178 17.4582 263.378 17.3451C263.455 17.3127 263.517 17.2536 263.552 17.1793C263.586 17.1051 263.591 17.021 263.565 16.9435C263.533 16.8507 263.474 16.7693 263.394 16.7099C263.314 16.6504 263.218 16.6157 263.117 16.6101C262.841 16.5701 262.559 16.6313 262.327 16.7816C261.592 17.2379 261.181 18.5052 261.524 19.2773C261.725 19.7414 262.098 19.8291 262.485 19.4996C262.699 19.3007 262.86 19.0545 262.955 18.7821C263.012 18.6124 263.092 18.451 263.194 18.3025C263.376 18.0665 263.629 17.8579 263.946 17.9846C264.264 18.1114 264.101 18.4311 264.049 18.6476C263.862 19.3982 263.704 20.1294 264.358 20.7611C264.375 20.7765 264.389 20.7951 264.398 20.8159C264.408 20.8368 264.413 20.8593 264.413 20.882C264.413 20.9047 264.408 20.9272 264.398 20.9481C264.389 20.9689 264.375 20.9875 264.358 21.0029C264.318 21.0406 264.267 21.0651 264.213 21.0728C264.158 21.0805 264.102 21.071 264.053 21.0458C263.826 20.9684 263.617 20.8484 263.438 20.6925C263.259 20.5366 263.113 20.3479 263.009 20.1372C262.943 19.9968 262.915 19.7921 262.68 19.9929C262.477 20.1946 262.207 20.3185 261.917 20.3418C261.628 20.365 261.34 20.2862 261.106 20.1196C260.536 19.7648 260.332 19.2325 260.384 18.5949C260.394 18.4701 260.41 18.3493 260.426 18.205C259.77 18.2576 259.236 18.3999 258.86 18.9849C258.535 19.4682 258.092 19.866 257.57 20.143C256.885 20.533 256.618 20.4121 256.434 19.6809C256.408 19.5796 256.386 19.486 256.345 19.291C255.901 19.6777 255.392 19.9883 254.84 20.2093C253.802 20.5681 253.2 20.106 253.353 19.0395C253.447 18.4917 253.602 17.9556 253.817 17.4407C253.865 17.3139 253.981 17.1579 253.817 17.0507C253.696 16.9766 253.57 17.1014 253.475 17.1794C252.835 17.7078 252.271 18.2927 252.086 19.1292C252.043 19.3758 251.971 19.6166 251.87 19.8467C251.809 20.0005 251.697 20.1301 251.551 20.2148C251.406 20.2996 251.235 20.3348 251.067 20.3146C250.705 20.2522 250.938 19.8935 250.838 19.6731C250.453 19.8681 250.083 20.0631 249.702 20.2327C249.427 20.3556 249.068 20.453 248.867 20.223C248.532 19.833 248.305 19.9676 247.952 20.1859C247.436 20.5057 246.844 20.3692 246.376 19.8408C246.139 19.5737 246.017 19.5913 245.788 19.8291C245.325 20.2934 244.774 20.6674 244.166 20.9307C241.78 22.0324 239.434 20.7962 239.301 18.242C239.145 15.3583 240.407 13.0634 242.888 11.4627C243.208 11.2465 243.574 11.102 243.959 11.0396C244.344 10.9772 244.738 10.9985 245.114 11.102C245.554 11.2138 245.941 11.4703 246.209 11.8279C246.477 12.1854 246.609 12.622 246.583 13.0634C246.554 13.487 246.386 13.8904 246.105 14.2154C245.824 14.5404 245.444 14.7699 245.019 14.8709C244.877 14.9021 244.692 14.9567 244.618 14.826C244.506 14.6505 244.684 14.5316 244.807 14.4361C245.477 13.8862 245.591 13.1707 245.465 12.3849C245.344 11.6518 244.807 11.3554 244.09 11.6226C243.576 11.8299 243.122 12.1574 242.769 12.576C241.584 13.8483 240.843 15.452 240.652 17.1579C240.555 17.8945 240.69 18.6421 241.039 19.3027C241.549 20.2483 242.414 20.6675 243.482 20.4219C244.327 20.2167 245.102 19.8014 245.732 19.2169C245.82 19.1273 245.889 19.0214 245.934 18.9056C245.98 18.7897 246.001 18.6662 245.997 18.5423C246.143 17.0605 247.462 15.9491 248.935 16.0583C249.291 16.069 249.629 16.208 249.885 16.4482C250.006 16.5586 250.089 16.7028 250.123 16.861C250.156 17.0192 250.138 17.1836 250.071 17.3315C249.929 17.6668 249.612 17.776 249.252 17.7585C249.177 17.7664 249.101 17.7561 249.031 17.7286C248.961 17.701 248.899 17.657 248.851 17.6005C248.718 17.4056 248.971 17.3919 249.052 17.2944C249.276 17.0215 249.15 16.6959 248.765 16.6198C248.574 16.5782 248.375 16.5866 248.189 16.6442C248.003 16.7018 247.836 16.8064 247.705 16.9474C247.432 17.2166 247.229 17.5447 247.111 17.905C246.994 18.2652 246.966 18.6473 247.03 19.02C247.071 19.3085 247.197 19.5913 247.524 19.677C247.851 19.7628 248.064 19.525 248.265 19.3027C248.413 19.1183 248.521 18.9058 248.58 18.6788C248.628 18.4654 248.747 18.2735 248.919 18.1328C249.12 17.9827 249.341 17.8599 249.577 17.9944C249.814 18.1289 249.67 18.3551 249.67 18.5423C249.67 18.8854 249.288 19.2851 249.76 19.5484C250.013 19.6887 251.033 18.942 251.113 18.591C251.239 18.0314 251.342 17.466 251.456 16.9045C251.47 16.7065 251.547 16.5178 251.677 16.3644C251.774 16.2564 251.904 16.1799 252.047 16.145C252.19 16.1102 252.341 16.1187 252.48 16.1694C252.783 16.2923 252.632 16.5594 252.602 16.7855C252.586 16.9201 252.562 17.0566 252.524 17.2866ZM259.304 15.9881C259.252 15.8516 259.167 15.719 258.995 15.7366C258.822 15.7541 258.772 15.9081 258.758 16.0524C258.736 16.2661 258.766 16.4818 258.846 16.682C258.926 16.8822 259.053 17.0613 259.218 17.2047C259.407 16.8253 259.438 16.3892 259.304 15.9881Z" fill="#FFFDEF"/>
</g>
<path d="M1.91211 48.0889V51H1.00977V43.2979H3.12598C3.94954 43.2979 4.58691 43.4984 5.03809 43.8994C5.49284 44.3005 5.72021 44.8662 5.72021 45.5967C5.72021 46.3271 5.46777 46.9251 4.96289 47.3906C4.46159 47.8561 3.78304 48.0889 2.92725 48.0889H1.91211ZM1.91211 44.1143V47.2725H2.85742C3.48047 47.2725 3.95492 47.131 4.28076 46.8481C4.61019 46.5617 4.7749 46.1589 4.7749 45.6396C4.7749 44.6227 4.17334 44.1143 2.97021 44.1143H1.91211ZM11.623 51H10.7422V47.8311C10.7422 46.6852 10.3161 46.1123 9.46387 46.1123C9.03418 46.1123 8.67253 46.2788 8.37891 46.6118C8.08529 46.9412 7.93848 47.3656 7.93848 47.8848V51H7.05762V42.8574H7.93848V46.4131H7.95996C8.38249 45.7184 8.98405 45.3711 9.76465 45.3711C11.0036 45.3711 11.623 46.1177 11.623 47.6108V51ZM15.5869 51.1289C14.7741 51.1289 14.1242 50.8729 13.6372 50.3608C13.1538 49.8452 12.9121 49.1631 12.9121 48.3145C12.9121 47.3906 13.1646 46.6691 13.6694 46.1499C14.1743 45.6307 14.8564 45.3711 15.7158 45.3711C16.5358 45.3711 17.175 45.6235 17.6333 46.1284C18.0952 46.6333 18.3262 47.3333 18.3262 48.2285C18.3262 49.1058 18.0773 49.8094 17.5796 50.3394C17.0854 50.8657 16.4212 51.1289 15.5869 51.1289ZM15.6514 46.1123C15.0856 46.1123 14.638 46.3057 14.3086 46.6924C13.9792 47.0755 13.8145 47.6055 13.8145 48.2822C13.8145 48.9339 13.981 49.4478 14.314 49.8237C14.647 50.1997 15.0928 50.3877 15.6514 50.3877C16.2207 50.3877 16.6576 50.2033 16.9619 49.8345C17.2699 49.4657 17.4238 48.9411 17.4238 48.2607C17.4238 47.5732 17.2699 47.0433 16.9619 46.6709C16.6576 46.2985 16.2207 46.1123 15.6514 46.1123ZM22.2847 50.9463C22.077 51.0609 21.8031 51.1182 21.4629 51.1182C20.4997 51.1182 20.0181 50.5811 20.0181 49.5068V46.252H19.0728V45.5H20.0181V44.1572L20.8989 43.8726V45.5H22.2847V46.252H20.8989V49.3511C20.8989 49.7199 20.9616 49.9831 21.0869 50.1406C21.2122 50.2982 21.4199 50.377 21.71 50.377C21.932 50.377 22.1235 50.3161 22.2847 50.1943V50.9463ZM25.7598 51.1289C24.9469 51.1289 24.297 50.8729 23.8101 50.3608C23.3267 49.8452 23.085 49.1631 23.085 48.3145C23.085 47.3906 23.3374 46.6691 23.8423 46.1499C24.3472 45.6307 25.0293 45.3711 25.8887 45.3711C26.7087 45.3711 27.3478 45.6235 27.8062 46.1284C28.2681 46.6333 28.499 47.3333 28.499 48.2285C28.499 49.1058 28.2502 49.8094 27.7524 50.3394C27.2583 50.8657 26.5941 51.1289 25.7598 51.1289ZM25.8242 46.1123C25.2585 46.1123 24.8109 46.3057 24.4814 46.6924C24.152 47.0755 23.9873 47.6055 23.9873 48.2822C23.9873 48.9339 24.1538 49.4478 24.4868 49.8237C24.8198 50.1997 25.2656 50.3877 25.8242 50.3877C26.3936 50.3877 26.8304 50.2033 27.1348 49.8345C27.4427 49.4657 27.5967 48.9411 27.5967 48.2607C27.5967 47.5732 27.4427 47.0433 27.1348 46.6709C26.8304 46.2985 26.3936 46.1123 25.8242 46.1123ZM29.5732 50.8013V49.856C30.0531 50.2104 30.5812 50.3877 31.1577 50.3877C31.9312 50.3877 32.3179 50.1299 32.3179 49.6143C32.3179 49.4674 32.2839 49.3439 32.2158 49.2437C32.1514 49.1398 32.0618 49.0485 31.9473 48.9697C31.8363 48.891 31.7038 48.8211 31.5498 48.7603C31.3994 48.6958 31.2365 48.6296 31.061 48.5615C30.8175 48.4648 30.6027 48.3682 30.4165 48.2715C30.2339 48.1712 30.0799 48.0602 29.9546 47.9385C29.8328 47.8132 29.7397 47.6717 29.6753 47.5142C29.6144 47.3566 29.584 47.1722 29.584 46.9609C29.584 46.7031 29.6431 46.4757 29.7612 46.2788C29.8794 46.0783 30.0369 45.9118 30.2339 45.7793C30.4308 45.6432 30.6546 45.5412 30.9053 45.4731C31.1595 45.4051 31.4209 45.3711 31.6895 45.3711C32.1657 45.3711 32.5918 45.4535 32.9678 45.6182V46.5098C32.5632 46.2448 32.0977 46.1123 31.5713 46.1123C31.4066 46.1123 31.258 46.132 31.1255 46.1714C30.993 46.2072 30.8784 46.2591 30.7817 46.3271C30.6886 46.3952 30.6152 46.4775 30.5615 46.5742C30.5114 46.6673 30.4863 46.7712 30.4863 46.8857C30.4863 47.029 30.5114 47.1489 30.5615 47.2456C30.6152 47.3423 30.6922 47.4282 30.7925 47.5034C30.8927 47.5786 31.0145 47.6466 31.1577 47.7075C31.3009 47.7684 31.4639 47.8346 31.6465 47.9062C31.89 47.9993 32.1084 48.096 32.3018 48.1963C32.4951 48.293 32.6598 48.404 32.7959 48.5293C32.932 48.651 33.0358 48.7925 33.1074 48.9536C33.1826 49.1147 33.2202 49.3063 33.2202 49.5283C33.2202 49.8005 33.1593 50.0368 33.0376 50.2373C32.9194 50.4378 32.7601 50.6043 32.5596 50.7368C32.359 50.8693 32.1281 50.9678 31.8667 51.0322C31.6053 51.0967 31.3314 51.1289 31.0449 51.1289C30.4792 51.1289 29.9886 51.0197 29.5732 50.8013ZM39.1445 51H38.2637V47.8311C38.2637 46.6852 37.8376 46.1123 36.9854 46.1123C36.5557 46.1123 36.194 46.2788 35.9004 46.6118C35.6068 46.9412 35.46 47.3656 35.46 47.8848V51H34.5791V42.8574H35.46V46.4131H35.4814C35.904 45.7184 36.5055 45.3711 37.2861 45.3711C38.5251 45.3711 39.1445 46.1177 39.1445 47.6108V51ZM43.1084 51.1289C42.2956 51.1289 41.6457 50.8729 41.1587 50.3608C40.6753 49.8452 40.4336 49.1631 40.4336 48.3145C40.4336 47.3906 40.686 46.6691 41.1909 46.1499C41.6958 45.6307 42.3779 45.3711 43.2373 45.3711C44.0573 45.3711 44.6965 45.6235 45.1548 46.1284C45.6167 46.6333 45.8477 47.3333 45.8477 48.2285C45.8477 49.1058 45.5988 49.8094 45.1011 50.3394C44.6069 50.8657 43.9427 51.1289 43.1084 51.1289ZM43.1729 46.1123C42.6071 46.1123 42.1595 46.3057 41.8301 46.6924C41.5007 47.0755 41.3359 47.6055 41.3359 48.2822C41.3359 48.9339 41.5024 49.4478 41.8354 49.8237C42.1685 50.1997 42.6143 50.3877 43.1729 50.3877C43.7422 50.3877 44.179 50.2033 44.4834 49.8345C44.7913 49.4657 44.9453 48.9411 44.9453 48.2607C44.9453 47.5732 44.7913 47.0433 44.4834 46.6709C44.179 46.2985 43.7422 46.1123 43.1729 46.1123ZM48.1572 50.2051H48.1357V53.5298H47.2549V45.5H48.1357V46.4668H48.1572C48.5905 45.7363 49.2243 45.3711 50.0586 45.3711C50.7676 45.3711 51.3208 45.6182 51.7183 46.1123C52.1157 46.6029 52.3145 47.2617 52.3145 48.0889C52.3145 49.0091 52.0907 49.7467 51.6431 50.3018C51.1955 50.8532 50.5832 51.1289 49.8062 51.1289C49.0936 51.1289 48.5439 50.821 48.1572 50.2051ZM48.1357 47.9868V48.7549C48.1357 49.2096 48.2826 49.5964 48.5762 49.915C48.8734 50.2301 49.2493 50.3877 49.7041 50.3877C50.2376 50.3877 50.6548 50.1836 50.9556 49.7754C51.2599 49.3672 51.4121 48.7996 51.4121 48.0728C51.4121 47.4604 51.2707 46.9806 50.9878 46.6333C50.7049 46.286 50.3218 46.1123 49.8384 46.1123C49.3263 46.1123 48.9146 46.2913 48.603 46.6494C48.2915 47.0039 48.1357 47.4497 48.1357 47.9868Z" fill="#0D1F30"/>
<path d="M66.9121 51H66.0098V43.2979H66.9121V51ZM69.7051 51H68.8242V42.8574H69.7051V51ZM72.3691 51H71.4883V42.8574H72.3691V51ZM78.5996 51H77.7188V50.1299H77.6973C77.332 50.7959 76.7663 51.1289 76 51.1289C74.6895 51.1289 74.0342 50.3483 74.0342 48.7871V45.5H74.9097V48.6475C74.9097 49.8076 75.3537 50.3877 76.2417 50.3877C76.6714 50.3877 77.0241 50.2301 77.2998 49.915C77.5791 49.5964 77.7188 49.181 77.7188 48.6689V45.5H78.5996V51ZM80.0498 50.8013V49.856C80.5296 50.2104 81.0578 50.3877 81.6343 50.3877C82.4077 50.3877 82.7944 50.1299 82.7944 49.6143C82.7944 49.4674 82.7604 49.3439 82.6924 49.2437C82.6279 49.1398 82.5384 49.0485 82.4238 48.9697C82.3128 48.891 82.1803 48.8211 82.0264 48.7603C81.876 48.6958 81.7131 48.6296 81.5376 48.5615C81.2941 48.4648 81.0793 48.3682 80.8931 48.2715C80.7104 48.1712 80.5565 48.0602 80.4312 47.9385C80.3094 47.8132 80.2163 47.6717 80.1519 47.5142C80.091 47.3566 80.0605 47.1722 80.0605 46.9609C80.0605 46.7031 80.1196 46.4757 80.2378 46.2788C80.356 46.0783 80.5135 45.9118 80.7104 45.7793C80.9074 45.6432 81.1312 45.5412 81.3818 45.4731C81.6361 45.4051 81.8975 45.3711 82.166 45.3711C82.6423 45.3711 83.0684 45.4535 83.4443 45.6182V46.5098C83.0397 46.2448 82.5742 46.1123 82.0479 46.1123C81.8831 46.1123 81.7345 46.132 81.6021 46.1714C81.4696 46.2072 81.355 46.2591 81.2583 46.3271C81.1652 46.3952 81.0918 46.4775 81.0381 46.5742C80.988 46.6673 80.9629 46.7712 80.9629 46.8857C80.9629 47.029 80.988 47.1489 81.0381 47.2456C81.0918 47.3423 81.1688 47.4282 81.269 47.5034C81.3693 47.5786 81.491 47.6466 81.6343 47.7075C81.7775 47.7684 81.9404 47.8346 82.123 47.9062C82.3665 47.9993 82.585 48.096 82.7783 48.1963C82.9717 48.293 83.1364 48.404 83.2725 48.5293C83.4085 48.651 83.5124 48.7925 83.584 48.9536C83.6592 49.1147 83.6968 49.3063 83.6968 49.5283C83.6968 49.8005 83.6359 50.0368 83.5142 50.2373C83.396 50.4378 83.2367 50.6043 83.0361 50.7368C82.8356 50.8693 82.6047 50.9678 82.3433 51.0322C82.0819 51.0967 81.8079 51.1289 81.5215 51.1289C80.9557 51.1289 80.4652 51.0197 80.0498 50.8013ZM87.6069 50.9463C87.3993 51.0609 87.1253 51.1182 86.7852 51.1182C85.8219 51.1182 85.3403 50.5811 85.3403 49.5068V46.252H84.395V45.5H85.3403V44.1572L86.2212 43.8726V45.5H87.6069V46.252H86.2212V49.3511C86.2212 49.7199 86.2839 49.9831 86.4092 50.1406C86.5345 50.2982 86.7422 50.377 87.0322 50.377C87.2542 50.377 87.4458 50.3161 87.6069 50.1943V50.9463ZM91.6514 46.3916C91.4974 46.2734 91.2754 46.2144 90.9854 46.2144C90.6094 46.2144 90.2943 46.3916 90.04 46.7461C89.7894 47.1006 89.6641 47.584 89.6641 48.1963V51H88.7832V45.5H89.6641V46.6333H89.6855C89.8109 46.2466 90.0024 45.9458 90.2603 45.731C90.5181 45.5125 90.8063 45.4033 91.125 45.4033C91.3542 45.4033 91.5296 45.4284 91.6514 45.4785V46.3916ZM96.5444 51H95.6636V50.1406H95.6421C95.259 50.7995 94.695 51.1289 93.9502 51.1289C93.4023 51.1289 92.9727 50.9839 92.6611 50.6938C92.3532 50.4038 92.1992 50.0189 92.1992 49.5391C92.1992 48.5114 92.8044 47.9134 94.0146 47.7451L95.6636 47.5142C95.6636 46.5796 95.2858 46.1123 94.5303 46.1123C93.8678 46.1123 93.2699 46.3379 92.7363 46.7891V45.8867C93.277 45.543 93.9001 45.3711 94.6055 45.3711C95.8981 45.3711 96.5444 46.055 96.5444 47.4229V51ZM95.6636 48.2178L94.3369 48.4004C93.9287 48.4577 93.6208 48.5597 93.4131 48.7065C93.2054 48.8498 93.1016 49.1058 93.1016 49.4746C93.1016 49.7432 93.1965 49.9634 93.3862 50.1353C93.5796 50.3035 93.8356 50.3877 94.1543 50.3877C94.5911 50.3877 94.951 50.2355 95.2339 49.9312C95.5203 49.6232 95.6636 49.2347 95.6636 48.7656V48.2178ZM100.755 50.9463C100.548 51.0609 100.274 51.1182 99.9336 51.1182C98.9704 51.1182 98.4888 50.5811 98.4888 49.5068V46.252H97.5435V45.5H98.4888V44.1572L99.3696 43.8726V45.5H100.755V46.252H99.3696V49.3511C99.3696 49.7199 99.4323 49.9831 99.5576 50.1406C99.6829 50.2982 99.8906 50.377 100.181 50.377C100.403 50.377 100.594 50.3161 100.755 50.1943V50.9463ZM104.23 51.1289C103.418 51.1289 102.768 50.8729 102.281 50.3608C101.797 49.8452 101.556 49.1631 101.556 48.3145C101.556 47.3906 101.808 46.6691 102.313 46.1499C102.818 45.6307 103.5 45.3711 104.359 45.3711C105.179 45.3711 105.819 45.6235 106.277 46.1284C106.739 46.6333 106.97 47.3333 106.97 48.2285C106.97 49.1058 106.721 49.8094 106.223 50.3394C105.729 50.8657 105.065 51.1289 104.23 51.1289ZM104.295 46.1123C103.729 46.1123 103.282 46.3057 102.952 46.6924C102.623 47.0755 102.458 47.6055 102.458 48.2822C102.458 48.9339 102.625 49.4478 102.958 49.8237C103.291 50.1997 103.736 50.3877 104.295 50.3877C104.864 50.3877 105.301 50.2033 105.605 49.8345C105.913 49.4657 106.067 48.9411 106.067 48.2607C106.067 47.5732 105.913 47.0433 105.605 46.6709C105.301 46.2985 104.864 46.1123 104.295 46.1123ZM111.245 46.3916C111.091 46.2734 110.869 46.2144 110.579 46.2144C110.203 46.2144 109.888 46.3916 109.634 46.7461C109.383 47.1006 109.258 47.584 109.258 48.1963V51H108.377V45.5H109.258V46.6333H109.279C109.405 46.2466 109.596 45.9458 109.854 45.731C110.112 45.5125 110.4 45.4033 110.719 45.4033C110.948 45.4033 111.123 45.4284 111.245 45.4785V46.3916Z" fill="#0D1F30"/>
<path d="M125.912 48.0889V51H125.01V43.2979H127.126C127.95 43.2979 128.587 43.4984 129.038 43.8994C129.493 44.3005 129.72 44.8662 129.72 45.5967C129.72 46.3271 129.468 46.9251 128.963 47.3906C128.462 47.8561 127.783 48.0889 126.927 48.0889H125.912ZM125.912 44.1143V47.2725H126.857C127.48 47.2725 127.955 47.131 128.281 46.8481C128.61 46.5617 128.775 46.1589 128.775 45.6396C128.775 44.6227 128.173 44.1143 126.97 44.1143H125.912ZM133.926 46.3916C133.772 46.2734 133.55 46.2144 133.26 46.2144C132.884 46.2144 132.569 46.3916 132.314 46.7461C132.064 47.1006 131.938 47.584 131.938 48.1963V51H131.058V45.5H131.938V46.6333H131.96C132.085 46.2466 132.277 45.9458 132.535 45.731C132.792 45.5125 133.081 45.4033 133.399 45.4033C133.629 45.4033 133.804 45.4284 133.926 45.4785V46.3916ZM137.181 51.1289C136.368 51.1289 135.718 50.8729 135.231 50.3608C134.748 49.8452 134.506 49.1631 134.506 48.3145C134.506 47.3906 134.758 46.6691 135.263 46.1499C135.768 45.6307 136.45 45.3711 137.31 45.3711C138.13 45.3711 138.769 45.6235 139.227 46.1284C139.689 46.6333 139.92 47.3333 139.92 48.2285C139.92 49.1058 139.671 49.8094 139.173 50.3394C138.679 50.8657 138.015 51.1289 137.181 51.1289ZM137.245 46.1123C136.679 46.1123 136.232 46.3057 135.902 46.6924C135.573 47.0755 135.408 47.6055 135.408 48.2822C135.408 48.9339 135.575 49.4478 135.908 49.8237C136.241 50.1997 136.687 50.3877 137.245 50.3877C137.814 50.3877 138.251 50.2033 138.556 49.8345C138.864 49.4657 139.018 48.9411 139.018 48.2607C139.018 47.5732 138.864 47.0433 138.556 46.6709C138.251 46.2985 137.814 46.1123 137.245 46.1123ZM145.076 50.7476C144.654 51.0018 144.152 51.1289 143.572 51.1289C142.788 51.1289 142.154 50.8747 141.671 50.3662C141.191 49.8542 140.951 49.1917 140.951 48.3789C140.951 47.473 141.211 46.7461 141.73 46.1982C142.249 45.6468 142.942 45.3711 143.809 45.3711C144.292 45.3711 144.718 45.4606 145.087 45.6396V46.542C144.679 46.2555 144.242 46.1123 143.776 46.1123C143.214 46.1123 142.752 46.3146 142.391 46.7192C142.033 47.1203 141.854 47.6484 141.854 48.3037C141.854 48.9482 142.022 49.4567 142.358 49.8291C142.699 50.2015 143.153 50.3877 143.723 50.3877C144.202 50.3877 144.654 50.2284 145.076 49.9097V50.7476ZM149.276 46.3916C149.122 46.2734 148.9 46.2144 148.61 46.2144C148.234 46.2144 147.919 46.3916 147.665 46.7461C147.414 47.1006 147.289 47.584 147.289 48.1963V51H146.408V45.5H147.289V46.6333H147.311C147.436 46.2466 147.627 45.9458 147.885 45.731C148.143 45.5125 148.431 45.4033 148.75 45.4033C148.979 45.4033 149.155 45.4284 149.276 45.4785V46.3916ZM154.653 48.4702H150.77C150.784 49.0825 150.949 49.5552 151.264 49.8882C151.579 50.2212 152.012 50.3877 152.563 50.3877C153.183 50.3877 153.752 50.1836 154.271 49.7754V50.6025C153.788 50.9535 153.149 51.1289 152.354 51.1289C151.577 51.1289 150.966 50.88 150.522 50.3823C150.078 49.881 149.856 49.1774 149.856 48.2715C149.856 47.4157 150.098 46.7192 150.582 46.1821C151.069 45.6414 151.672 45.3711 152.392 45.3711C153.111 45.3711 153.668 45.6038 154.062 46.0693C154.456 46.5348 154.653 47.1812 154.653 48.0083V48.4702ZM153.75 47.7236C153.747 47.2152 153.623 46.8195 153.38 46.5366C153.14 46.2537 152.805 46.1123 152.375 46.1123C151.96 46.1123 151.607 46.2609 151.317 46.5581C151.027 46.8553 150.848 47.2438 150.78 47.7236H153.75ZM159.927 51H159.046V50.1406H159.025C158.642 50.7995 158.078 51.1289 157.333 51.1289C156.785 51.1289 156.355 50.9839 156.044 50.6938C155.736 50.4038 155.582 50.0189 155.582 49.5391C155.582 48.5114 156.187 47.9134 157.397 47.7451L159.046 47.5142C159.046 46.5796 158.669 46.1123 157.913 46.1123C157.251 46.1123 156.653 46.3379 156.119 46.7891V45.8867C156.66 45.543 157.283 45.3711 157.988 45.3711C159.281 45.3711 159.927 46.055 159.927 47.4229V51ZM159.046 48.2178L157.72 48.4004C157.312 48.4577 157.004 48.5597 156.796 48.7065C156.588 48.8498 156.484 49.1058 156.484 49.4746C156.484 49.7432 156.579 49.9634 156.769 50.1353C156.962 50.3035 157.218 50.3877 157.537 50.3877C157.974 50.3877 158.334 50.2355 158.617 49.9312C158.903 49.6232 159.046 49.2347 159.046 48.7656V48.2178ZM164.138 50.9463C163.931 51.0609 163.657 51.1182 163.316 51.1182C162.353 51.1182 161.872 50.5811 161.872 49.5068V46.252H160.926V45.5H161.872V44.1572L162.752 43.8726V45.5H164.138V46.252H162.752V49.3511C162.752 49.7199 162.815 49.9831 162.94 50.1406C163.066 50.2982 163.273 50.377 163.563 50.377C163.785 50.377 163.977 50.3161 164.138 50.1943V50.9463ZM169.735 48.4702H165.852C165.866 49.0825 166.031 49.5552 166.346 49.8882C166.661 50.2212 167.094 50.3877 167.646 50.3877C168.265 50.3877 168.834 50.1836 169.354 49.7754V50.6025C168.87 50.9535 168.231 51.1289 167.436 51.1289C166.659 51.1289 166.049 50.88 165.604 50.3823C165.16 49.881 164.938 49.1774 164.938 48.2715C164.938 47.4157 165.18 46.7192 165.664 46.1821C166.151 45.6414 166.754 45.3711 167.474 45.3711C168.193 45.3711 168.75 45.6038 169.144 46.0693C169.538 46.5348 169.735 47.1812 169.735 48.0083V48.4702ZM168.833 47.7236C168.829 47.2152 168.705 46.8195 168.462 46.5366C168.222 46.2537 167.887 46.1123 167.458 46.1123C167.042 46.1123 166.689 46.2609 166.399 46.5581C166.109 46.8553 165.93 47.2438 165.862 47.7236H168.833Z" fill="#0D1F30"/>
<path d="M192.972 51H191.973L191.156 48.8408H187.891L187.123 51H186.118L189.072 43.2979H190.007L192.972 51ZM190.861 48.0298L189.652 44.748C189.613 44.6406 189.574 44.4688 189.534 44.2324H189.513C189.477 44.4508 189.436 44.6227 189.389 44.748L188.191 48.0298H190.861ZM196.71 43.6309C196.538 43.5342 196.343 43.4858 196.125 43.4858C195.509 43.4858 195.201 43.8743 195.201 44.6514V45.5H196.49V46.252H195.201V51H194.325V46.252H193.385V45.5H194.325V44.6084C194.325 44.0319 194.492 43.5771 194.825 43.2441C195.158 42.9076 195.573 42.7393 196.071 42.7393C196.339 42.7393 196.552 42.7715 196.71 42.8359V43.6309ZM200.158 43.6309C199.986 43.5342 199.791 43.4858 199.573 43.4858C198.957 43.4858 198.649 43.8743 198.649 44.6514V45.5H199.938V46.252H198.649V51H197.773V46.252H196.833V45.5H197.773V44.6084C197.773 44.0319 197.94 43.5771 198.273 43.2441C198.606 42.9076 199.021 42.7393 199.519 42.7393C199.788 42.7393 200.001 42.7715 200.158 42.8359V43.6309ZM201.34 44.1035C201.182 44.1035 201.048 44.0498 200.937 43.9424C200.826 43.835 200.771 43.6989 200.771 43.5342C200.771 43.3695 200.826 43.2334 200.937 43.126C201.048 43.015 201.182 42.9595 201.34 42.9595C201.501 42.9595 201.637 43.015 201.748 43.126C201.863 43.2334 201.92 43.3695 201.92 43.5342C201.92 43.6917 201.863 43.826 201.748 43.937C201.637 44.048 201.501 44.1035 201.34 44.1035ZM201.77 51H200.889V45.5H201.77V51ZM208.118 51H207.237V47.8633C207.237 46.696 206.811 46.1123 205.959 46.1123C205.519 46.1123 205.153 46.2788 204.863 46.6118C204.577 46.9412 204.434 47.3584 204.434 47.8633V51H203.553V45.5H204.434V46.4131H204.455C204.87 45.7184 205.472 45.3711 206.26 45.3711C206.861 45.3711 207.321 45.5662 207.64 45.9565C207.959 46.3433 208.118 46.9036 208.118 47.6377V51ZM210.234 44.1035C210.077 44.1035 209.943 44.0498 209.832 43.9424C209.721 43.835 209.665 43.6989 209.665 43.5342C209.665 43.3695 209.721 43.2334 209.832 43.126C209.943 43.015 210.077 42.9595 210.234 42.9595C210.396 42.9595 210.532 43.015 210.643 43.126C210.757 43.2334 210.814 43.3695 210.814 43.5342C210.814 43.6917 210.757 43.826 210.643 43.937C210.532 44.048 210.396 44.1035 210.234 44.1035ZM210.664 51H209.783V45.5H210.664V51ZM214.999 50.9463C214.791 51.0609 214.517 51.1182 214.177 51.1182C213.214 51.1182 212.732 50.5811 212.732 49.5068V46.252H211.787V45.5H212.732V44.1572L213.613 43.8726V45.5H214.999V46.252H213.613V49.3511C213.613 49.7199 213.675 49.9831 213.801 50.1406C213.926 50.2982 214.134 50.377 214.424 50.377C214.646 50.377 214.837 50.3161 214.999 50.1943V50.9463ZM220.552 45.5L218.022 51.8809C217.571 53.0195 216.938 53.5889 216.121 53.5889C215.892 53.5889 215.7 53.5656 215.546 53.519V52.7295C215.736 52.7939 215.91 52.8262 216.067 52.8262C216.511 52.8262 216.844 52.5612 217.066 52.0312L217.507 50.9893L215.358 45.5H216.336L217.824 49.7324C217.842 49.7861 217.879 49.9258 217.937 50.1514H217.969C217.987 50.0654 218.022 49.9294 218.076 49.7432L219.639 45.5H220.552Z" fill="#0D1F30"/>
<path d="M243.252 50.6777C242.683 50.9785 241.974 51.1289 241.125 51.1289C240.029 51.1289 239.152 50.7762 238.493 50.0708C237.834 49.3654 237.505 48.4398 237.505 47.2939C237.505 46.0622 237.875 45.0667 238.617 44.3076C239.358 43.5485 240.298 43.1689 241.437 43.1689C242.167 43.1689 242.772 43.2746 243.252 43.4858V44.4473C242.701 44.1393 242.092 43.9854 241.426 43.9854C240.541 43.9854 239.823 44.2808 239.272 44.8716C238.724 45.4624 238.45 46.252 238.45 47.2402C238.45 48.1784 238.706 48.9268 239.218 49.4854C239.734 50.0404 240.409 50.3179 241.243 50.3179C242.017 50.3179 242.686 50.146 243.252 49.8022V50.6777ZM248.639 51H247.758V50.1406H247.737C247.354 50.7995 246.79 51.1289 246.045 51.1289C245.497 51.1289 245.067 50.9839 244.756 50.6938C244.448 50.4038 244.294 50.0189 244.294 49.5391C244.294 48.5114 244.899 47.9134 246.109 47.7451L247.758 47.5142C247.758 46.5796 247.381 46.1123 246.625 46.1123C245.963 46.1123 245.365 46.3379 244.831 46.7891V45.8867C245.372 45.543 245.995 45.3711 246.7 45.3711C247.993 45.3711 248.639 46.055 248.639 47.4229V51ZM247.758 48.2178L246.432 48.4004C246.023 48.4577 245.715 48.5597 245.508 48.7065C245.3 48.8498 245.196 49.1058 245.196 49.4746C245.196 49.7432 245.291 49.9634 245.481 50.1353C245.674 50.3035 245.93 50.3877 246.249 50.3877C246.686 50.3877 247.046 50.2355 247.329 49.9312C247.615 49.6232 247.758 49.2347 247.758 48.7656V48.2178ZM254.864 51H253.983V47.8633C253.983 46.696 253.557 46.1123 252.705 46.1123C252.265 46.1123 251.899 46.2788 251.609 46.6118C251.323 46.9412 251.18 47.3584 251.18 47.8633V51H250.299V45.5H251.18V46.4131H251.201C251.617 45.7184 252.218 45.3711 253.006 45.3711C253.607 45.3711 254.068 45.5662 254.386 45.9565C254.705 46.3433 254.864 46.9036 254.864 47.6377V51ZM260.853 45.5L258.662 51H257.797L255.713 45.5H256.68L258.076 49.4961C258.18 49.7897 258.244 50.0457 258.27 50.2642H258.291C258.327 49.9884 258.384 49.7396 258.463 49.5176L259.924 45.5H260.853ZM265.741 51H264.86V50.1406H264.838C264.455 50.7995 263.891 51.1289 263.146 51.1289C262.599 51.1289 262.169 50.9839 261.857 50.6938C261.549 50.4038 261.396 50.0189 261.396 49.5391C261.396 48.5114 262.001 47.9134 263.211 47.7451L264.86 47.5142C264.86 46.5796 264.482 46.1123 263.727 46.1123C263.064 46.1123 262.466 46.3379 261.933 46.7891V45.8867C262.473 45.543 263.096 45.3711 263.802 45.3711C265.094 45.3711 265.741 46.055 265.741 47.4229V51ZM264.86 48.2178L263.533 48.4004C263.125 48.4577 262.817 48.5597 262.609 48.7065C262.402 48.8498 262.298 49.1058 262.298 49.4746C262.298 49.7432 262.393 49.9634 262.583 50.1353C262.776 50.3035 263.032 50.3877 263.351 50.3877C263.787 50.3877 264.147 50.2355 264.43 49.9312C264.717 49.6232 264.86 49.2347 264.86 48.7656V48.2178Z" fill="#0D1F30"/>
<defs>
<clipPath id="clip0_1563_214">
<rect width="22.5143" height="26.6079" fill="white" transform="translate(137.14 4.09351)"/>
</clipPath>
<clipPath id="clip1_1563_214">
<rect width="35" height="34" fill="white" transform="translate(234.616)"/>
</clipPath>
</defs>
</svg>
