<svg width="56" height="48" viewBox="0 0 56 48" fill="none" xmlns="http://www.w3.org/2000/svg">
<path d="M48.0072 27.6477V45.6056C48.0072 46.2541 47.7872 46.8153 47.3472 47.2892C46.9072 47.7631 46.3862 48 45.7841 48H32.446V33.6337H23.554V48H10.2159C9.61378 48 9.09276 47.7631 8.65279 47.2892C8.21282 46.8153 7.99283 46.2541 7.99283 45.6056V27.6477C7.99283 27.6228 7.99862 27.5853 8.0102 27.5355C8.02178 27.4856 8.02757 27.4482 8.02757 27.4232L28 9.68979L47.9724 27.4232C47.9956 27.4731 48.0072 27.5479 48.0072 27.6477ZM55.753 25.0663L53.5994 27.8348C53.4142 28.0592 53.1711 28.1964 52.87 28.2463H52.7658C52.4648 28.2463 52.2216 28.159 52.0364 27.9844L28 6.39751L3.96361 27.9844C3.68573 28.1839 3.40786 28.2712 3.12998 28.2463C2.82895 28.1964 2.5858 28.0592 2.40055 27.8348L0.247002 25.0663C0.0617505 24.8168 -0.019297 24.5238 0.00385941 24.1871C0.0270159 23.8504 0.154376 23.5822 0.385941 23.3827L25.3602 0.97272C26.1012 0.32424 26.9811 0 28 0C29.0189 0 29.8988 0.32424 30.6398 0.97272L39.1151 8.60483V1.30943C39.1151 0.960249 39.2193 0.673422 39.4277 0.448948C39.6361 0.224474 39.9024 0.112237 40.2266 0.112237H46.8957C47.2198 0.112237 47.4861 0.224474 47.6946 0.448948C47.903 0.673422 48.0072 0.960249 48.0072 1.30943V16.5737L55.6141 23.3827C55.8456 23.5822 55.973 23.8504 55.9961 24.1871C56.0193 24.5238 55.9382 24.8168 55.753 25.0663Z" fill="#0D1F30"/>
</svg>
