<svg width="927" height="1219" viewBox="0 0 927 1219" fill="none" xmlns="http://www.w3.org/2000/svg">
<path d="M111.5 1062.5C160.809 1013.19 256.265 1049.68 284.681 949.147C307.414 868.721 321.5 849.82 350.038 837.822C396 818.5 455.519 811.922 477.342 771.936C499.166 731.95 529.249 614.794 541.562 561.215C546.488 550.802 558.612 542.699 567.705 593.59C576.798 644.481 560.885 673.107 551.792 681.059C531.522 689.768 484.048 700.257 456.314 672.539C421.647 637.892 397.777 629.373 442.106 585.07C477.569 549.628 519.019 538.874 535.311 537.927C534.932 528.461 528.491 515.208 505.758 537.927C477.342 566.327 385.274 581.662 341.513 537.927C297.753 494.193 238.647 422.059 275.588 385.14C305.141 355.605 403.46 401.233 448.926 427.739C489.656 452.541 574.752 510.437 589.301 543.607C607.488 585.07 622.264 610.629 617.717 620.285C613.171 629.941 577.5 552.5 573.388 543.607C568.058 532.079 563.159 436.827 555.77 433.987C548.382 431.147 526.218 425.467 535.311 454.434C542.585 477.608 626.621 561.025 667.73 599.838C680.422 609.493 710.467 624.147 729.108 605.517C752.409 582.23 772.869 545.311 772.869 508.96C772.869 479.88 734.981 476.775 716.037 478.857C687.5 478.857 628.857 499.873 625.674 499.873C621.696 499.873 617.149 495.897 635.904 489.649C654.658 483.401 735 444.586 762.071 417.515C790.123 389.464 810.947 371.509 759.229 276.087C717.856 199.751 676.823 236.707 661.478 264.728C634.257 322.094 580.462 446.937 583.05 487.377C586.285 537.927 570.547 312.438 620.559 232.921C660.569 169.307 700.124 145.451 714.9 141.476C825.723 99.4449 899.377 125.118 923.474 9.70358C947.571 -105.711 137.865 -120.554 -270 -113.549C-270 -113.549 -154.5 1216 -55 1216C44.5 1216 62.1911 1111.81 111.5 1062.5Z" stroke="#FF66A2" stroke-opacity="0.5" stroke-width="5"/>
</svg>
