<svg width="89" height="89" viewBox="0 0 89 89" fill="none" xmlns="http://www.w3.org/2000/svg">
<circle cx="44.5" cy="44.5002" r="44.5" fill="white"/>
<g clip-path="url(#clip0_2120_81)">
<path d="M32.59 66.6252H21.8551V32.1586H32.59V66.6252ZM27.2168 27.4571C23.7848 27.4571 21 24.6223 21 21.1999C21 19.5556 21.655 17.9787 22.8208 16.8161C23.9867 15.6534 25.568 15.0002 27.2168 15.0002C28.8655 15.0002 30.4468 15.6534 31.6127 16.8161C32.7785 17.9787 33.4335 19.5556 33.4335 21.1999C33.4335 24.6223 30.6487 27.4571 27.2168 27.4571ZM72.7562 66.6252H62.0444V49.8471C62.0444 45.8485 61.9635 40.7206 56.4632 40.7206C50.882 40.7206 50.0269 45.0649 50.0269 49.559V66.6252H39.3036V32.1586H49.5994V36.8602H49.7496C51.1824 34.1522 54.6837 31.2944 59.9067 31.2944C70.7687 31.2944 72.7677 38.4274 72.7677 47.6922V66.6252H72.7562Z" fill="#00DA7E"/>
</g>
<defs>
<clipPath id="clip0_2120_81">
<rect width="51.7677" height="59" fill="white" transform="translate(21 15.0002)"/>
</clipPath>
</defs>
</svg>
