<svg width="37" height="37" viewBox="0 0 37 37" fill="none" xmlns="http://www.w3.org/2000/svg">
<path d="M31.01 37H5.99094C2.68747 37 0 34.3119 0 31.0074V5.9926C0 2.68805 2.68747 0 5.99094 0H31.01C34.3125 0 37 2.68805 37 5.9926V31.0084C37 34.3129 34.3125 37 31.01 37ZM12.5024 30.5881H12.51V14.6283H7.55624V30.5881H12.5014H12.5024ZM10.0298 12.4485C10.4064 12.449 10.7795 12.375 11.1275 12.2308C11.4756 12.0866 11.7919 11.8749 12.0582 11.6079C12.3245 11.341 12.5357 11.024 12.6796 10.6751C12.8235 10.3262 12.8973 9.95229 12.8968 9.57476C12.8953 8.81305 12.5927 8.08298 12.0554 7.54437C11.5181 7.00577 10.7897 6.70251 10.0298 6.70099C9.26948 6.70124 8.54039 7.0041 8.00278 7.54298C7.46516 8.08186 7.16302 8.81267 7.16277 9.57476C7.16302 10.3369 7.46516 11.0677 8.00278 11.6065C8.54039 12.1454 9.26948 12.4483 10.0298 12.4485ZM31.0387 30.5891V21.8395C31.0387 17.5403 30.1075 14.2329 25.1031 14.2329C22.6974 14.2329 21.0824 15.554 20.4187 16.808H20.3518V14.6283H15.6082V30.5881H20.5533V22.6905C20.5533 20.6075 20.9478 18.5924 23.5235 18.5924C26.0562 18.5924 26.0935 20.9741 26.0935 22.8245V30.5881H31.0387V30.5891Z" fill="#00DA7E"/>
</svg>
