<svg width="128" height="128" viewBox="0 0 128 128" fill="none" xmlns="http://www.w3.org/2000/svg">
<g clip-path="url(#clip0_2433_75)">
<path d="M124.775 1.5885C126.8 3.0885 128 5.4885 128 8.0135V26.0135V92.0135C128 103.064 117.25 112.014 104 112.014C90.75 112.014 80 103.064 80 92.0135C80 80.9635 90.75 72.0135 104 72.0135C106.8 72.0135 109.5 72.4135 112 73.1635V36.7635L48 55.9635V108.014C48 119.064 37.25 128.014 24 128.014C10.75 128.014 0 119.064 0 108.014C0 96.9635 10.75 88.0135 24 88.0135C26.8 88.0135 29.5 88.4135 32 89.1635V50.0135V32.0135C32 28.4885 34.325 25.3635 37.7 24.3385L117.7 0.338501C120.125 -0.386499 122.75 0.0635011 124.775 1.5885Z" fill="#FF66A2"/>
</g>
<defs>
<clipPath id="clip0_2433_75">
<rect width="128" height="128" fill="white"/>
</clipPath>
</defs>
</svg>
