<svg width="419" height="420" viewBox="0 0 419 420" fill="none" xmlns="http://www.w3.org/2000/svg">
<g clip-path="url(#clip0_2317_259)">
<path d="M80.4149 96.5118C75.4707 102.091 68.3905 102.271 62.3918 96.9555C56.4454 91.6864 55.8092 84.4354 60.7765 78.8296C64.7922 74.2978 70.4323 73.263 75.1253 76.2523L71.9917 79.7887C69.1848 78.4706 66.1805 79.2223 63.9289 81.7632C60.7953 85.2996 61.3895 89.801 65.476 93.4221C69.5363 97.0199 74.1521 97.0883 77.2625 93.5781C79.5604 90.9848 79.9624 87.7869 78.3976 85.278L81.4848 81.794C84.869 86.1022 84.4305 91.98 80.4149 96.5118Z" fill="#00DA7E"/>
<path d="M87.753 64.5651L90.3682 67.5321L89.1867 68.5735C86.8762 70.6102 86.5198 73.1171 88.7416 75.6377L94.2961 81.9391L91.0928 84.7626L79.6831 71.8184L82.7025 69.1569L84.5526 70.8853C83.97 69.1128 84.4403 67.1586 86.1731 65.6311C86.6195 65.2377 87.1121 64.8967 87.753 64.5651Z" fill="#00DA7E"/>
<path d="M97.0069 48.5112L97.2982 54.717L94.7562 56.5774L93.8153 50.8469L97.0069 48.5112ZM107.755 71.6127C103.603 74.6513 98.4821 73.7582 95.3196 69.4368C92.1157 65.059 92.7566 59.9492 96.852 56.952C101.032 53.8927 105.733 54.7459 108.917 59.0955L109.681 60.1405L99.1953 67.8582C101.248 70.1294 103.457 70.4213 105.744 68.747C107.637 67.3621 108.342 65.7182 107.766 64.1013L110.958 61.7656C112.597 65.25 111.398 68.9463 107.755 71.6127ZM98.9473 59.7557C96.9137 61.244 96.4771 63.255 97.6678 65.5931L104.672 60.4668C103.267 58.5462 101.009 58.2468 98.9473 59.7557Z" fill="#00DA7E"/>
<path d="M122.136 62.1182C118.946 63.9424 115.942 63.2009 114.326 60.3751C112.745 57.6102 113.76 54.7317 117.159 52.4256L121.464 49.5202L121.273 49.186C120.109 47.1503 118.425 47.0248 116.541 48.1019C114.353 49.3528 113.659 50.9592 114.563 52.5392L111.403 54.346C109.544 51.0949 111.001 47.4392 115.073 45.1112C119.114 42.8006 122.856 43.5637 125.236 47.7263L130.448 56.8415L127.197 58.7004L125.655 56.6387C125.903 58.5531 124.476 60.7805 122.136 62.1182ZM121.753 58.628C124.032 57.325 124.709 55.1239 123.388 52.8147L122.937 52.0247L119.946 54.0572C117.759 55.5902 117.312 56.8536 118.007 58.069C118.788 59.4363 120.082 59.5835 121.753 58.628Z" fill="#00DA7E"/>
<path d="M139.851 52.5224L135.964 54.2884L130.289 41.7969L127.262 43.1721L125.786 39.9217L128.813 38.5465L126.584 33.6392L130.471 31.8731L132.7 36.7805L135.76 35.3908L137.236 38.6412L134.177 40.0309L139.851 52.5224Z" fill="#00DA7E"/>
<path d="M140.353 29.8946C138.98 30.4189 137.489 29.7518 136.977 28.4112C136.465 27.0706 137.144 25.6123 138.518 25.088C139.826 24.5886 141.304 25.223 141.816 26.5636C142.328 27.9042 141.661 29.3952 140.353 29.8946ZM145.761 50.0459L139.594 33.8932L143.583 32.3701L149.75 48.5228L145.761 50.0459Z" fill="#00DA7E"/>
<path d="M158.778 45.4726L147.377 30.7748L151.747 29.5085L156.849 36.302C158.13 38.0809 159.198 39.6298 159.663 40.479C159.596 39.3687 159.695 37.4452 159.875 35.4254L160.689 26.9176L164.925 25.6903L162.812 44.3038L158.778 45.4726Z" fill="#00DA7E"/>
<path d="M179.49 40.9983C174.421 41.8802 170.227 38.8085 169.31 33.5327C168.38 28.188 171.221 23.8925 176.221 23.0227C181.324 22.1349 185.159 24.9847 186.083 30.2949L186.305 31.5708L173.484 33.8368C174.316 36.7828 176.166 38.024 178.959 37.5381C181.269 37.1362 182.63 35.9757 182.831 34.2711L186.728 33.5932C186.651 37.4433 183.938 40.2245 179.49 40.9983ZM176.855 26.4649C174.372 26.8968 173.089 28.5056 173.119 31.1292L181.671 29.6415C181.263 27.2967 179.372 26.027 176.855 26.4649Z" fill="#00DA7E"/>
<path d="M204.845 32.0043C202.781 32.0526 201.027 30.4131 200.979 28.3837C200.931 26.3193 202.606 24.5996 204.671 24.5513C206.7 24.5039 208.455 26.1783 208.502 28.2077C208.549 30.2022 206.875 31.9568 204.845 32.0043Z" fill="#00DA7E"/>
<path d="M230.586 13.5146L228.119 38.9803L223.659 38.5482L226.127 13.0825L230.586 13.5146Z" fill="#00DA7E"/>
<path d="M237.594 40.0172L233.427 39.0851L237.201 22.2121L241.026 23.0678L240.925 25.1252C242.092 23.9158 244.044 23.2048 246.469 23.7473C249.031 24.3203 250.524 25.9814 250.977 28.1269C252.266 26.371 254.53 25.5504 257.092 26.1234C261.191 27.0402 262.895 30.0036 262.024 33.8974L259.556 44.9298L255.423 44.0053L257.646 34.066C258.189 31.6409 257.174 30.0868 255.193 29.6437C253.177 29.1929 251.35 30.147 250.731 32.9137L248.592 42.4773L244.425 41.5452L246.656 31.5717C247.183 29.2149 246.202 27.6685 244.221 27.2254C242.24 26.7822 240.344 27.7211 239.733 30.4536L237.594 40.0172Z" fill="#00DA7E"/>
<path d="M261.432 54.1571L270.838 30.6652L274.509 32.1353L273.794 34.6763C275.51 33.2146 278.051 32.988 280.488 33.9637C285.005 35.7721 286.68 40.2507 284.663 45.287C282.66 50.2908 278.473 52.8371 273.697 50.9246C271.293 49.9619 269.59 48.187 269.234 46.1591L265.396 55.7443L261.432 54.1571ZM271.621 40.291C270.463 43.1828 271.456 45.8804 274.186 46.9732C276.98 48.0921 279.444 46.7411 280.589 43.8817C281.734 41.0224 280.896 38.3119 278.102 37.1931C275.372 36.1002 272.779 37.3992 271.621 40.291Z" fill="#00DA7E"/>
<path d="M288.777 57.3775L285 55.4632L296.77 32.2354L300.548 34.1497L288.777 57.3775Z" fill="#00DA7E"/>
<path d="M305.105 42.6701C303.83 41.9385 303.403 40.3619 304.117 39.1172C304.832 37.8726 306.391 37.476 307.666 38.2076C308.88 38.9043 309.325 40.4506 308.61 41.6952C307.896 42.9399 306.32 43.3669 305.105 42.6701ZM292.924 59.6096L301.529 44.613L305.233 46.7381L296.628 61.7347L292.924 59.6096Z" fill="#00DA7E"/>
<path d="M304.949 56.1499C308.05 51.6988 312.713 50.6393 316.704 53.4206C318.858 54.9213 320.064 57.1695 319.785 59.4066L321.516 57.413L324.732 59.654L310.265 80.4159L306.791 77.9948L312.693 69.5235C310.803 70.339 308.356 69.8712 306.26 68.4105C302.038 65.4692 301.867 60.5722 304.949 56.1499ZM308.332 58.7633C306.571 61.2903 306.824 64.1112 309.265 65.812C311.706 67.5128 314.506 66.8616 316.286 64.3058C318.067 61.7501 317.728 58.8691 315.288 57.1683C312.847 55.4676 310.093 56.2362 308.332 58.7633Z" fill="#00DA7E"/>
<path d="M339.049 72.0418L342.216 74.9069L330.615 87.7272L327.682 85.0735L328.998 83.1493C327.116 83.6645 324.704 82.992 322.991 81.4421C320.032 78.7649 320.102 75.1932 322.943 72.053L330.2 64.0338L333.366 66.8989L327.119 73.8021C324.912 76.2416 324.98 78.0967 326.744 79.6936C328.743 81.5018 330.76 81.2029 332.967 78.7634L339.049 72.0418Z" fill="#00DA7E"/>
<path d="M360.722 84.466L354.564 85.2929L352.491 82.9214L358.119 81.4884L360.722 84.466ZM338.636 97.1718C335.25 93.2982 335.697 88.1193 339.728 84.5948C343.813 81.0243 348.959 81.2208 352.299 85.0417C355.708 88.9416 355.265 93.6991 351.207 97.2466L350.232 98.0989L341.636 88.3195C339.551 90.5608 339.451 92.7865 341.317 94.9209C342.861 96.6864 344.559 97.2469 346.12 96.5331L348.723 99.5107C345.394 101.445 341.608 100.571 338.636 97.1718ZM349.687 87.3716C348.029 85.4744 345.987 85.2133 343.761 86.6018L349.474 93.1367C351.266 91.5703 351.369 89.2952 349.687 87.3716Z" fill="#00DA7E"/>
<path d="M350.923 112.959C348.008 108.721 349.05 103.628 353.462 100.593C357.931 97.5182 363.02 98.3081 365.896 102.489C368.832 106.757 367.842 111.431 363.401 114.486L362.335 115.22L354.926 104.513C352.596 106.498 352.24 108.698 353.847 111.033C355.176 112.965 356.798 113.718 358.431 113.19L360.673 116.448C357.142 117.985 353.482 116.679 350.923 112.959ZM363.033 104.502C361.605 102.426 359.607 101.93 357.235 103.052L362.155 110.204C364.116 108.855 364.481 106.607 363.033 104.502Z" fill="#00DA7E"/>
<path d="M369.657 132.208C368.752 130.352 369.511 128.074 371.336 127.185C373.192 126.28 375.454 127.086 376.358 128.942C377.248 130.767 376.457 133.06 374.632 133.949C372.839 134.823 370.546 134.033 369.657 132.208Z" fill="#00DA7E"/>
<path d="M390.617 170.83C383.147 172.969 376.491 169.56 374.467 162.494C372.454 155.462 376.281 149.123 383.785 146.974C391.254 144.835 397.901 148.21 399.915 155.243C401.928 162.275 398.12 168.681 390.617 170.83ZM389.316 166.288C394.565 164.784 397.067 160.937 395.776 156.428C394.485 151.919 390.325 149.98 385.076 151.483C379.827 152.986 377.324 156.834 378.616 161.342C379.907 165.851 384.134 167.772 389.316 166.288Z" fill="#00DA7E"/>
<path d="M397.631 186.828L393.721 187.421L393.485 185.864C393.022 182.819 391.107 181.163 387.785 181.667L379.48 182.927L378.84 178.706L395.899 176.116L396.503 180.096L394.049 180.716C395.854 181.186 397.243 182.639 397.59 184.922C397.679 185.511 397.699 186.11 397.631 186.828Z" fill="#00DA7E"/>
<path d="M389.873 190.739C394.905 190.457 398.862 193.531 399.138 198.459C399.283 201.045 398.313 203.132 396.517 204.249L398.907 204.361L399.128 208.31L382.739 209.226C376.973 209.548 373.18 206.29 372.867 200.699C372.59 195.737 375.231 192.189 379.814 191.407L380.053 195.67C377.832 196.075 376.599 197.861 376.746 200.482C376.91 203.417 378.868 205.201 381.733 205.041L384.599 204.88C382.931 203.887 381.798 201.812 381.659 199.331C381.386 194.439 384.875 191.018 389.873 190.739ZM390.218 195.031C387.317 195.194 385.254 197.167 385.411 199.962C385.575 202.898 387.738 204.6 390.743 204.432C393.679 204.267 395.606 202.372 395.44 199.402C395.282 196.571 393.048 194.873 390.218 195.031Z" fill="#00DA7E"/>
<path d="M380.971 219.403C381.21 215.736 383.486 213.639 386.734 213.851C389.912 214.058 391.753 216.492 391.801 220.599L391.849 225.793L392.233 225.818C394.573 225.97 395.607 224.635 395.748 222.469C395.912 219.954 394.955 218.489 393.139 218.371L393.375 214.739C397.112 214.982 399.357 218.214 399.053 222.895C398.75 227.54 396.049 230.24 391.264 229.929L380.787 229.247L381.03 225.51L383.6 225.362C381.866 224.512 380.796 222.093 380.971 219.403ZM384.093 221.009C383.923 223.629 385.386 225.408 388.04 225.58L388.948 225.639L388.903 222.024C388.831 219.354 388.024 218.284 386.627 218.193C385.055 218.091 384.218 219.089 384.093 221.009Z" fill="#00DA7E"/>
<path d="M379.468 238.171L380.258 233.975L397.25 237.172L396.518 241.059L394.252 240.988C395.771 242.378 396.38 244.63 395.947 246.934C395.144 251.199 392.082 252.902 387.679 252.074L377.222 250.106L378.012 245.91L387.471 247.69C390.326 248.227 391.967 247.076 392.375 244.909C392.86 242.329 391.369 240.41 388.618 239.892L379.468 238.171Z" fill="#00DA7E"/>
<path d="M395.3 262.383C395.696 260.968 397.12 260.167 398.502 260.554C399.884 260.941 400.651 262.355 400.254 263.771C399.877 265.119 398.487 265.929 397.105 265.542C395.723 265.155 394.922 263.731 395.3 262.383ZM375.89 254.73L392.539 259.393L391.387 263.505L374.738 258.842L375.89 254.73Z" fill="#00DA7E"/>
<path d="M378.861 263.809L377.478 267.627C376.051 267.147 374.781 267.879 374.114 269.722C373.435 271.597 373.822 272.892 375.007 273.321C375.83 273.619 376.577 273.405 377.431 272.076L379.182 269.398C380.901 266.707 382.795 265.792 385.395 266.734C388.587 267.89 389.519 271.279 388.161 275.031C386.838 278.684 383.838 280.389 380.667 279.278L382.049 275.461C383.443 275.928 384.665 275.329 385.226 273.782C385.797 272.202 385.407 271.019 384.189 270.578C383.268 270.244 382.414 270.754 381.584 272.017L379.832 274.695C378.218 277.201 376.467 278.13 373.966 277.224C370.675 276.033 369.648 272.497 371.101 268.482C372.567 264.434 375.668 262.653 378.861 263.809Z" fill="#00DA7E"/>
<path d="M384.096 301.126L380.952 295.768L382.337 292.939L385.835 297.574L384.096 301.126ZM363.838 285.672C366.1 281.052 371.049 279.461 375.859 281.816C380.731 284.202 382.54 289.024 380.308 293.582C378.03 298.234 373.471 299.665 368.63 297.294L367.467 296.725L373.161 285.016C370.288 283.96 368.197 284.728 366.95 287.275C365.919 289.381 366.059 291.164 367.321 292.327L365.582 295.879C362.51 293.557 361.852 289.727 363.838 285.672ZM377.149 292.074C378.257 289.81 377.708 287.827 375.567 286.311L371.75 294.106C373.887 295.153 376.025 294.368 377.149 292.074Z" fill="#00DA7E"/>
<path d="M354.034 303.09C356.818 298.764 361.918 297.759 366.421 300.656C370.984 303.592 372.22 308.591 369.474 312.859C366.671 317.215 361.976 318.107 357.444 315.19L356.355 314.489L363.371 303.521C360.64 302.138 358.474 302.659 356.939 305.043C355.67 307.015 355.602 308.803 356.721 310.105L354.58 313.431C351.799 310.767 351.591 306.887 354.034 303.09ZM366.511 310.994C367.875 308.875 367.561 306.842 365.61 305.087L360.913 312.386C362.914 313.674 365.129 313.143 366.511 310.994Z" fill="#00DA7E"/>
<path d="M343.511 327.814C344.873 326.262 347.267 326.081 348.793 327.42C350.345 328.782 350.477 331.179 349.115 332.731C347.776 334.257 345.356 334.415 343.83 333.076C342.33 331.76 342.172 329.34 343.511 327.814Z" fill="#00DA7E"/>
<path d="M322.672 340.26L326.138 337.421L342.351 357.213L334.797 363.401C330.302 367.083 325.813 366.96 322.619 363.061C320.445 360.408 320.138 357.492 321.69 354.637L311.273 349.597L315.064 346.492L324.476 351.134L328.727 347.652L322.672 340.26ZM336.357 356.965L331.233 350.711L327.145 354.06C324.952 355.857 324.606 358.086 326.247 360.089C327.866 362.066 330.075 362.111 332.268 360.315L336.357 356.965Z" fill="#00DA7E"/>
<path d="M317.506 370.3C318.723 369.476 320.327 369.784 321.132 370.972C321.937 372.16 321.609 373.735 320.392 374.56C319.233 375.345 317.649 375.066 316.844 373.878C316.039 372.69 316.347 371.086 317.506 370.3ZM307.633 351.92L317.331 366.234L313.795 368.629L304.098 354.315L307.633 351.92Z" fill="#00DA7E"/>
<path d="M305.579 364.373C308.033 368.775 306.999 373.679 302.688 376.081C300.426 377.342 298.125 377.382 296.335 376.256L297.28 378.454L293.825 380.38L285.834 366.041C283.022 360.997 284.294 356.161 289.185 353.435C293.527 351.015 297.872 351.839 300.58 355.619L296.85 357.698C295.515 355.877 293.37 355.55 291.077 356.828C288.509 358.26 287.761 360.8 289.158 363.307L290.555 365.814C290.719 363.879 292.09 361.953 294.261 360.744C298.541 358.358 303.143 360.001 305.579 364.373ZM301.87 366.56C300.456 364.023 297.779 363.03 295.333 364.393C292.765 365.824 292.18 368.514 293.646 371.144C295.077 373.712 297.625 374.616 300.223 373.168C302.7 371.787 303.25 369.036 301.87 366.56Z" fill="#00DA7E"/>
<path d="M284.987 375.133C286.979 380.141 284.74 385.025 279.764 387.004C274.788 388.983 269.807 386.971 267.815 381.963C265.823 376.954 268.062 372.071 273.038 370.092C278.013 368.113 282.995 370.125 284.987 375.133ZM281.019 376.711C279.855 373.784 277.179 372.551 274.448 373.637C271.716 374.724 270.618 377.458 271.783 380.385C272.947 383.312 275.622 384.545 278.354 383.459C281.086 382.372 282.183 379.638 281.019 376.711Z" fill="#00DA7E"/>
<path d="M254.316 394.672L250.187 395.761L245.777 379.043L249.601 378.034L250.495 380.188C251.091 378.329 252.971 376.675 255.205 376.086C259.063 375.068 262.018 377.076 263.098 381.171L265.856 391.628L261.727 392.717L259.353 383.715C258.514 380.534 256.922 379.578 254.621 380.185C252.015 380.873 251.165 382.726 252.004 385.907L254.316 394.672Z" fill="#00DA7E"/>
<path d="M232.719 398.735L232.127 394.825L233.684 394.589C236.73 394.128 238.387 392.214 237.884 388.891L236.627 380.586L240.849 379.947L243.431 397.008L239.451 397.61L238.832 395.155C238.362 396.961 236.908 398.349 234.624 398.695C234.036 398.784 233.437 398.804 232.719 398.735Z" fill="#00DA7E"/>
<path d="M219.696 381.978C224.832 381.674 228.651 385.2 228.967 390.546C229.287 395.961 225.98 399.908 220.913 400.208C215.742 400.513 212.254 397.249 211.936 391.868L211.859 390.575L224.855 389.772C224.36 386.751 222.662 385.309 219.832 385.476C217.491 385.614 216.008 386.614 215.616 388.285L211.668 388.518C212.178 384.701 215.189 382.244 219.696 381.978ZM220.672 396.716C223.188 396.567 224.644 395.114 224.911 392.504L216.246 393.016C216.386 395.392 218.121 396.867 220.672 396.716Z" fill="#00DA7E"/>
<path d="M194.744 399.518L190.481 399.273L191.474 382.011L195.422 382.238L195.604 384.563C196.747 382.981 199.048 381.991 201.354 382.124C205.337 382.353 207.524 385.178 207.28 389.406L206.659 400.203L202.397 399.958L202.931 390.663C203.12 387.379 201.903 385.977 199.527 385.84C196.837 385.685 195.454 387.183 195.265 390.468L194.744 399.518Z" fill="#00DA7E"/>
<path d="M187.263 386.8L183.258 386.134C183.47 384.643 182.52 383.527 180.587 383.206C178.619 382.879 177.417 383.495 177.21 384.738C177.067 385.601 177.412 386.297 178.874 386.895L181.826 388.131C184.784 389.332 186.027 391.029 185.574 393.757C185.017 397.106 181.853 398.638 177.917 397.983C174.085 397.346 171.863 394.706 172.379 391.385L176.384 392.051C176.178 393.507 176.989 394.6 178.612 394.87C180.269 395.146 181.362 394.547 181.575 393.269C181.735 392.303 181.079 391.555 179.687 390.968L176.734 389.732C173.978 388.6 172.746 387.047 173.182 384.423C173.756 380.97 177.047 379.318 181.259 380.018C185.506 380.724 187.82 383.451 187.263 386.8Z" fill="#00DA7E"/>
<path d="M163.125 376.02C168.08 377.404 170.545 381.98 169.105 387.138C167.646 392.363 163.234 395.019 158.346 393.654C153.357 392.261 151.12 388.039 152.57 382.847L152.918 381.6L165.468 385.068C165.983 382.051 164.847 380.134 162.116 379.372C159.858 378.741 158.13 379.204 157.215 380.656L153.406 379.592C155.13 376.149 158.776 374.805 163.125 376.02ZM159.254 390.274C161.681 390.952 163.531 390.051 164.632 387.669L156.272 385.335C155.632 387.627 156.793 389.587 159.254 390.274Z" fill="#00DA7E"/>
<path d="M136.398 373.232C138.281 374.079 139.156 376.315 138.324 378.166C137.477 380.05 135.224 380.878 133.341 380.032C131.489 379.199 130.628 376.932 131.461 375.08C132.279 373.261 134.546 372.4 136.398 373.232Z" fill="#00DA7E"/>
<path d="M112.38 378.56L110.132 382.024L93.807 371.433L96.0549 367.968L102.338 372.045L114.016 354.046L117.774 356.485L106.096 374.483L112.38 378.56Z" fill="#00DA7E"/>
<path d="M87.5157 355.955L89.9714 352.854L91.206 353.832C93.6204 355.745 96.1508 355.65 98.237 353.017L103.453 346.432L106.8 349.083L96.0861 362.609L92.9309 360.11L94.3036 357.983C92.6625 358.87 90.6559 358.754 88.8451 357.32C88.3787 356.951 87.9558 356.526 87.5157 355.955Z" fill="#00DA7E"/>
<path d="M92.875 336.882C95.5461 339.407 95.7078 342.497 93.4722 344.863C91.2846 347.178 88.2355 347.041 85.0428 344.457L81.0134 341.179L80.749 341.459C79.1384 343.164 79.5069 344.812 81.0841 346.303C82.9157 348.033 84.6544 348.232 85.9044 346.909L88.5501 349.409C85.9779 352.131 82.0566 351.796 78.6478 348.575C75.2644 345.378 74.9092 341.575 78.2025 338.09L85.4141 330.458L88.1361 333.03L86.6102 335.104C88.3704 334.311 90.9162 335.031 92.875 336.882ZM89.6459 338.261C87.7379 336.458 85.4351 336.449 83.6082 338.383L82.9832 339.044L85.7957 341.316C87.8973 342.965 89.236 343.027 90.1976 342.009C91.2793 340.864 91.045 339.583 89.6459 338.261Z" fill="#00DA7E"/>
<path d="M79.4725 323.794L70.7308 340.213L67.7863 336.744L71.8953 329.308C72.9939 327.411 73.9696 325.802 74.5542 325.03C73.5685 325.546 71.7733 326.243 69.8567 326.906L61.7613 329.646L58.9073 326.284L76.7545 320.592L79.4725 323.794Z" fill="#00DA7E"/>
<path d="M68.3505 308.868C70.4197 311.905 69.9165 314.959 67.2265 316.791C64.5943 318.585 61.645 317.799 59.079 314.592L55.8442 310.528L55.526 310.745C53.5881 312.065 53.5954 313.754 54.8172 315.547C56.2361 317.63 57.8921 318.196 59.3962 317.171L61.4457 320.179C58.3507 322.288 54.5918 321.122 51.9511 317.246C49.3301 313.399 49.7967 309.608 53.7595 306.908L62.4369 300.996L64.5455 304.091L62.6114 305.79C64.5004 305.393 66.8331 306.641 68.3505 308.868ZM64.9012 309.524C63.4232 307.355 61.1756 306.853 58.9773 308.351L58.2253 308.863L60.4865 311.685C62.1866 313.745 63.4813 314.091 64.6382 313.303C65.9399 312.416 65.985 311.115 64.9012 309.524Z" fill="#00DA7E"/>
<path d="M40.957 305.123C41.679 306.404 41.2401 307.977 39.9901 308.682C38.74 309.387 37.1972 308.93 36.4752 307.65C35.7877 306.43 36.1961 304.874 37.4461 304.169C38.6961 303.465 40.2695 303.904 40.957 305.123ZM60.0851 296.79L45.0239 305.281L42.9268 301.562L57.9881 293.07L60.0851 296.79Z" fill="#00DA7E"/>
<path d="M53.8926 285.119L55.7767 288.912L32.4558 300.497L30.5716 296.704L53.8926 285.119Z" fill="#00DA7E"/>
<path d="M46.2163 265.061C47.7723 269.818 45.2479 273.921 40.1582 275.586C35.0353 277.262 30.3968 275.465 28.7755 270.508C28.0247 268.213 28.3257 265.868 29.6184 264.304L19.2062 267.71L17.8896 263.684L42.6393 255.589L43.858 259.315L41.3835 260.419C43.6061 260.796 45.4003 262.566 46.2163 265.061ZM42.1968 265.382C41.2719 262.554 38.6443 261.388 35.6836 262.357C32.723 263.325 31.259 265.829 32.1839 268.657C33.1087 271.485 35.7703 272.529 38.6977 271.571C41.625 270.614 43.1217 268.209 42.1968 265.382Z" fill="#00DA7E"/>
<path d="M18.2121 251.485L25.8177 250.845L26.3187 253.064L19.1754 255.753C17.3329 256.492 16.2548 255.372 15.9773 254.143C15.7461 253.118 16.2385 251.644 18.2121 251.485Z" fill="#00DA7E"/>
<path d="M13.6572 233.699L19.2714 236.36L19.7183 239.478L14.2183 237.614L13.6572 233.699ZM39.0995 235.074C39.8294 240.167 36.6338 244.267 31.3329 245.026C25.9628 245.796 21.7542 242.828 21.0342 237.804C20.2993 232.677 23.2624 228.928 28.5979 228.164L29.8798 227.98L31.7617 240.863C34.7312 240.119 36.0272 238.307 35.625 235.501C35.2923 233.18 34.173 231.784 32.4751 231.533L31.914 227.618C35.7601 227.809 38.4589 230.604 39.0995 235.074ZM24.4938 237.273C24.8513 239.768 26.421 241.098 29.0444 241.147L27.8129 232.554C25.457 232.892 24.1313 234.744 24.4938 237.273Z" fill="#00DA7E"/>
<path d="M28.2892 224.121C22.8657 224.248 19.2563 221.112 19.1426 216.248C19.0812 213.624 20.1827 211.323 22.1526 210.226L19.5218 210.008L19.4301 206.089L44.7282 205.497L44.8272 209.731L34.505 209.972C36.2799 211.016 37.3478 213.267 37.4076 215.821C37.5279 220.965 33.6777 223.995 28.2892 224.121ZM28.3993 219.848C31.4784 219.776 33.6053 217.905 33.5357 214.931C33.4662 211.957 31.2867 210.083 28.1726 210.155C25.0584 210.228 22.934 212.203 23.0036 215.178C23.0732 218.152 25.3201 219.92 28.3993 219.848Z" fill="#00DA7E"/>
<path d="M20.9595 187.142L21.3998 182.895L38.5976 184.678L38.1898 188.612L35.8596 188.687C37.3875 189.901 38.2705 192.244 38.0323 194.542C37.6208 198.511 34.6984 200.565 30.4859 200.128L19.7286 199.013L20.169 194.766L29.4293 195.726C32.7018 196.065 34.1583 194.914 34.4037 192.547C34.6816 189.866 33.2486 188.416 29.9761 188.077L20.9595 187.142Z" fill="#00DA7E"/>
<path d="M19.6012 173.715C19.3226 175.159 17.9696 176.074 16.5607 175.802C15.1517 175.53 14.2709 174.183 14.5495 172.74C14.8149 171.365 16.1335 170.444 17.5425 170.716C18.9515 170.988 19.8666 172.341 19.6012 173.715ZM39.5754 179.745L22.5988 176.468L23.4081 172.276L40.3847 175.553L39.5754 179.745Z" fill="#00DA7E"/>
<path d="M48.8178 173.229L24.5344 166.111L25.6469 162.316L28.2447 162.785C26.6256 161.217 26.1571 158.709 26.8955 156.19C28.2639 151.521 32.5619 149.425 37.7679 150.951C42.9402 152.467 45.875 156.391 44.4278 161.329C43.6993 163.814 42.0952 165.678 40.1107 166.227L50.0188 169.131L48.8178 173.229ZM34.0413 164.412C37.0306 165.288 39.6208 164.041 40.4478 161.22C41.2944 158.331 39.7141 156.008 36.7585 155.142C33.8028 154.275 31.1848 155.368 30.3381 158.256C29.5112 161.078 31.0521 163.535 34.0413 164.412Z" fill="#00DA7E"/>
<path d="M51.1458 142.756C49.115 147.483 44.2512 149.317 39.331 147.203C34.3465 145.062 32.3009 140.336 34.3041 135.673C36.3487 130.913 40.831 129.258 45.7833 131.386L46.9732 131.897L41.8661 143.874C44.7882 144.786 46.8386 143.915 47.9577 141.31C48.8833 139.155 48.655 137.381 47.337 136.282L48.8981 132.648C52.0811 134.815 52.928 138.607 51.1458 142.756ZM37.5337 137.022C36.539 139.338 37.1853 141.291 39.3992 142.7L42.8254 134.724C40.6386 133.785 38.5422 134.675 37.5337 137.022Z" fill="#00DA7E"/>
<path d="M57.4541 116.645C56.3656 118.399 54.0339 118.971 52.3088 117.901C50.5541 116.813 50.0305 114.47 51.119 112.715C52.1891 110.99 54.5505 110.436 56.2756 111.507C57.9709 112.558 58.5242 114.92 57.4541 116.645Z" fill="#00DA7E"/>
</g>
<defs>
<clipPath id="clip0_2317_259">
<rect width="419" height="420" fill="white"/>
</clipPath>
</defs>
</svg>
