<svg width="572" height="572" viewBox="0 0 572 572" fill="none" xmlns="http://www.w3.org/2000/svg">
<path d="M115.114 268.062C114.313 275.467 108.64 279.71 100.664 278.85C92.7585 277.999 88.037 272.46 88.8414 265.02C89.4917 259.005 93.4942 254.899 99.0561 254.619L98.5486 259.312C95.4943 259.863 93.4785 262.213 93.1139 265.586C92.6065 270.279 95.7001 273.602 101.133 274.188C106.531 274.769 110.337 272.155 110.841 267.496C111.213 264.054 109.688 261.216 106.957 260.078L107.457 255.454C112.715 257.005 115.764 262.047 115.114 268.062Z" fill="#00DA7E"/>
<path d="M102.583 237.88L106.437 238.784L106.076 240.316C105.371 243.311 106.533 245.559 109.807 246.327L117.992 248.246L117.014 252.399L100.201 248.457L101.122 244.542L103.634 244.88C102.131 243.773 101.382 241.909 101.911 239.663C102.048 239.084 102.252 238.521 102.583 237.88Z" fill="#00DA7E"/>
<path d="M100.82 219.495L104.655 224.381L103.659 227.367L99.5697 223.244L100.82 219.495ZM122.982 232.093C121.355 236.97 116.658 239.205 111.573 237.515C106.42 235.803 103.982 231.27 105.587 226.46C107.225 221.55 111.556 219.525 116.675 221.226L117.905 221.635L113.821 233.987C116.812 234.649 118.784 233.609 119.68 230.922C120.422 228.7 120.045 226.953 118.638 225.969L119.888 222.221C123.246 224.11 124.41 227.814 122.982 232.093ZM108.922 227.531C108.125 229.92 108.934 231.81 111.261 233.026L114.006 224.799C111.746 224.047 109.73 225.11 108.922 227.531Z" fill="#00DA7E"/>
<path d="M129.201 216.099C127.655 219.43 124.773 220.563 121.817 219.197C118.924 217.859 118.083 214.927 119.52 211.083L121.35 206.227L121 206.065C118.87 205.08 117.422 205.952 116.509 207.919C115.449 210.203 115.814 211.913 117.467 212.677L115.936 215.977C112.534 214.404 111.604 210.583 113.578 206.332C115.536 202.113 119.032 200.57 123.388 202.584L132.925 206.993L131.35 210.388L128.897 209.6C130.209 211.016 130.335 213.656 129.201 216.099ZM126.865 213.478C127.97 211.098 127.246 208.914 124.83 207.797L124.003 207.415L122.741 210.8C121.844 213.314 122.212 214.601 123.484 215.189C124.914 215.851 126.055 215.222 126.865 213.478Z" fill="#00DA7E"/>
<path d="M138.078 198.088L135.929 201.775L124.056 194.882L122.383 197.753L119.293 195.959L120.967 193.088L116.302 190.381L118.451 186.694L123.115 189.402L124.806 186.5L127.896 188.294L126.205 191.195L138.078 198.088Z" fill="#00DA7E"/>
<path d="M125.348 179.398C124.531 180.619 122.928 180.938 121.733 180.142C120.538 179.346 120.247 177.765 121.064 176.544C121.841 175.381 123.416 175.043 124.611 175.839C125.806 176.634 126.126 178.235 125.348 179.398ZM141.445 192.684L127.047 183.094L129.42 179.546L143.817 189.137L141.445 192.684Z" fill="#00DA7E"/>
<path d="M149.401 181.455L131.577 176.075L134.409 172.516L142.511 175.1C144.587 175.808 146.357 176.452 147.228 176.875C146.53 176.009 145.495 174.385 144.471 172.636L140.203 165.234L142.947 161.785L152.015 178.17L149.401 181.455Z" fill="#00DA7E"/>
<path d="M163.676 165.875C160.051 169.525 154.849 169.447 151.041 165.68C147.183 161.864 147.011 156.721 150.586 153.121C154.235 149.447 159.016 149.551 162.849 153.343L163.77 154.254L154.623 163.514C157.01 165.433 159.239 165.374 161.236 163.363C162.888 161.7 163.326 159.967 162.501 158.462L165.288 155.657C167.458 158.837 166.856 162.672 163.676 165.875ZM153.099 155.559C151.324 157.346 151.21 159.399 152.756 161.519L158.87 155.362C157.178 153.687 154.899 153.746 153.099 155.559Z" fill="#00DA7E"/>
<path d="M179.089 143.941C177.433 145.174 175.051 144.853 173.836 143.226C172.6 141.572 172.969 139.202 174.626 137.969C176.254 136.757 178.656 137.106 179.871 138.732C181.066 140.33 180.717 142.728 179.089 143.941Z" fill="#00DA7E"/>
<path d="M189.326 114.016L202.075 136.193L198.187 138.42L185.438 116.243L189.326 114.016Z" fill="#00DA7E"/>
<path d="M210.374 131.572L206.434 133.223L199.733 117.291L203.349 115.776L204.459 117.511C204.71 115.85 205.891 114.142 208.183 113.181C210.605 112.166 212.786 112.656 214.399 114.142C214.433 111.966 215.804 109.987 218.226 108.972C222.101 107.349 225.209 108.777 226.756 112.454L231.138 122.871L227.23 124.508L223.282 115.123C222.319 112.834 220.59 112.155 218.717 112.939C216.812 113.738 215.875 115.572 216.973 118.185L220.772 127.215L216.832 128.866L212.871 119.449C211.935 117.223 210.238 116.531 208.365 117.316C206.492 118.1 205.49 119.962 206.575 122.542L210.374 131.572Z" fill="#00DA7E"/>
<path d="M237.928 129.335L231.987 104.753L235.834 103.826L236.723 106.311C237.276 104.127 239.218 102.472 241.771 101.857C246.504 100.718 250.466 103.398 251.74 108.668C253.005 113.904 251.066 118.401 246.061 119.606C243.541 120.212 241.124 119.751 239.658 118.305L242.082 128.335L237.928 129.335ZM238.204 112.143C238.936 115.169 241.31 116.792 244.17 116.103C247.098 115.398 248.325 112.872 247.601 109.88C246.878 106.888 244.624 105.164 241.696 105.869C238.836 106.558 237.473 109.117 238.204 112.143Z" fill="#00DA7E"/>
<path d="M262.042 116.15L257.85 116.776L253.993 91.0411L258.185 90.415L262.042 116.15Z" fill="#00DA7E"/>
<path d="M266.818 94.7203C265.354 94.862 264.092 93.8246 263.953 92.3973C263.814 90.9701 264.857 89.7448 266.321 89.6031C267.715 89.4682 268.974 90.4708 269.113 91.898C269.251 93.3253 268.212 94.5854 266.818 94.7203ZM266.696 115.569L265.026 98.3724L269.279 97.9608L270.949 115.157L266.696 115.569Z" fill="#00DA7E"/>
<path d="M274.477 105.788C274.427 100.368 277.617 96.8072 282.486 96.7641C285.113 96.7409 287.4 97.8747 288.469 99.8588L288.725 97.2335L292.648 97.1987L292.879 122.483L288.641 122.52L288.547 112.204C287.477 113.962 285.21 114.996 282.653 115.019C277.504 115.065 274.526 111.174 274.477 105.788ZM278.752 105.96C278.78 109.038 280.621 111.19 283.598 111.163C286.575 111.137 288.482 108.987 288.454 105.874C288.425 102.762 286.479 100.611 283.502 100.637C280.525 100.664 278.723 102.883 278.752 105.96Z" fill="#00DA7E"/>
<path d="M311.436 99.0029L315.68 99.5049L313.643 116.66L309.712 116.195L309.671 113.866C308.434 115.375 306.076 116.223 303.78 115.951C299.814 115.482 297.801 112.532 298.3 108.33L299.573 97.5998L303.817 98.1018L302.721 107.339C302.333 110.603 303.464 112.075 305.829 112.355C308.508 112.672 309.98 111.262 310.368 107.997L311.436 99.0029Z" fill="#00DA7E"/>
<path d="M336.263 96.5712L331.717 100.807L328.651 100.075L332.413 95.6519L336.263 96.5712ZM325.603 119.697C320.595 118.501 317.958 114.024 319.205 108.821C320.469 103.55 324.783 100.733 329.723 101.913C334.766 103.117 337.161 107.248 335.906 112.485L335.604 113.744L322.921 110.751C322.518 113.783 323.727 115.654 326.487 116.313C328.77 116.858 330.481 116.331 331.341 114.847L335.191 115.766C333.595 119.268 329.998 120.747 325.603 119.697ZM328.942 105.322C326.489 104.736 324.672 105.704 323.659 108.123L332.109 110.141C332.663 107.828 331.429 105.916 328.942 105.322Z" fill="#00DA7E"/>
<path d="M344.721 125.427C339.884 123.662 337.783 118.911 339.624 113.887C341.49 108.797 346.101 106.497 350.872 108.239C355.742 110.016 357.643 114.396 355.79 119.453L355.344 120.668L343.092 116.233C342.341 119.198 343.325 121.195 345.991 122.168C348.195 122.973 349.956 122.647 350.982 121.272L354.7 122.629C352.709 125.923 348.966 126.977 344.721 125.427ZM349.701 111.534C347.332 110.67 345.415 111.422 344.13 113.707L352.29 116.686C353.108 114.453 352.103 112.411 349.701 111.534Z" fill="#00DA7E"/>
<path d="M371.081 130.228C369.267 129.239 368.566 126.945 369.539 125.165C370.53 123.355 372.843 122.703 374.657 123.692C376.441 124.664 377.125 126.989 376.151 128.768C375.194 130.517 372.865 131.2 371.081 130.228Z" fill="#00DA7E"/>
<path d="M410.508 149.525C405.653 155.588 398.245 156.659 392.497 152.074C386.776 147.51 386.224 140.132 391.101 134.043C395.956 127.981 403.336 126.887 409.057 131.451C414.778 136.015 415.384 143.436 410.508 149.525ZM406.812 146.577C410.224 142.317 410.035 137.736 406.367 134.81C402.699 131.884 398.18 132.709 394.769 136.969C391.357 141.229 391.546 145.81 395.214 148.737C398.882 151.663 403.445 150.783 406.812 146.577Z" fill="#00DA7E"/>
<path d="M425.434 158.44L422.588 161.185L421.492 160.053C419.349 157.839 416.826 157.598 414.408 159.929L408.363 165.759L405.393 162.69L417.81 150.715L420.61 153.608L418.967 155.533C420.713 154.871 422.688 155.252 424.295 156.912C424.709 157.34 425.073 157.816 425.434 158.44Z" fill="#00DA7E"/>
<path d="M421.332 166.079C425.274 162.939 430.285 163.155 433.367 167.01C434.984 169.033 435.403 171.295 434.586 173.243L436.6 171.952L439.07 175.042L426.23 185.267C421.713 188.864 416.73 188.403 413.233 184.028C410.13 180.146 410.227 175.728 413.513 172.44L416.179 175.775C414.602 177.389 414.633 179.558 416.272 181.608C418.108 183.905 420.739 184.226 422.984 182.438L425.229 180.65C423.292 180.806 421.165 179.77 419.613 177.829C416.553 174.001 417.417 169.196 421.332 166.079ZM424.102 169.376C421.83 171.186 421.291 173.987 423.039 176.174C424.875 178.471 427.627 178.606 429.981 176.731C432.281 174.9 432.754 172.241 430.896 169.917C429.126 167.702 426.32 167.61 424.102 169.376Z" fill="#00DA7E"/>
<path d="M430.647 194.518C428.716 191.392 429.357 188.367 432.129 186.661C434.842 184.991 437.755 185.91 440.176 189.228L443.226 193.433L443.554 193.231C445.551 192.001 445.62 190.315 444.48 188.469C443.155 186.326 441.525 185.685 439.975 186.639L438.062 183.543C441.252 181.58 444.957 182.915 447.422 186.905C449.868 190.864 449.23 194.627 445.146 197.141L436.204 202.645L434.235 199.46L436.246 197.852C434.339 198.163 432.064 196.81 430.647 194.518ZM434.126 194.021C435.505 196.254 437.729 196.857 439.995 195.462L440.77 194.985L438.637 192.066C437.03 189.931 435.752 189.527 434.559 190.261C433.218 191.086 433.114 192.383 434.126 194.021Z" fill="#00DA7E"/>
<path d="M440.259 210.621L438.471 206.745L454.185 199.522L455.842 203.112L453.952 204.365C455.997 204.619 457.799 206.101 458.782 208.23C460.599 212.17 459.088 215.329 455.016 217.201L445.346 221.646L443.557 217.77L452.305 213.749C454.946 212.535 455.617 210.647 454.694 208.646C453.594 206.263 451.266 205.562 448.721 206.732L440.259 210.621Z" fill="#00DA7E"/>
<path d="M467.183 221.128C466.686 219.745 467.383 218.269 468.735 217.785C470.086 217.301 471.531 218.01 472.028 219.392C472.502 220.709 471.837 222.174 470.486 222.658C469.134 223.142 467.656 222.445 467.183 221.128ZM446.913 226.121L463.197 220.289L464.641 224.305L448.356 230.138L446.913 226.121Z" fill="#00DA7E"/>
<path d="M454.587 231.768L455.672 235.678C454.23 236.113 453.618 237.443 454.141 239.331C454.674 241.252 455.741 242.083 456.956 241.747C457.8 241.513 458.286 240.907 458.212 239.331L458.088 236.135C457.931 232.948 458.946 231.107 461.613 230.37C464.887 229.465 467.611 231.688 468.677 235.53C469.716 239.272 468.257 242.397 465.026 243.327L463.941 239.417C465.349 238.991 465.999 237.795 465.559 236.211C465.11 234.593 464.106 233.854 462.857 234.2C461.912 234.461 461.51 235.37 461.565 236.879L461.689 240.075C461.824 243.05 460.934 244.821 458.369 245.53C454.993 246.463 452.106 244.176 450.965 240.064C449.815 235.918 451.313 232.673 454.587 231.768Z" fill="#00DA7E"/>
<path d="M480.462 259.088L474.792 256.541L474.283 253.435L479.823 255.188L480.462 259.088ZM454.979 258.218C454.147 253.144 457.263 248.985 462.551 248.121C467.909 247.246 472.179 250.128 472.999 255.133C473.837 260.241 470.947 264.045 465.624 264.914L464.345 265.123L462.205 252.289C459.249 253.09 457.988 254.927 458.447 257.722C458.826 260.035 459.974 261.407 461.678 261.625L462.317 265.525C458.465 265.41 455.709 262.67 454.979 258.218ZM469.549 255.732C469.141 253.247 467.544 251.948 464.918 251.952L466.322 260.512C468.672 260.128 469.962 258.252 469.549 255.732Z" fill="#00DA7E"/>
<path d="M457.06 278.012C456.823 272.877 460.402 269.107 465.755 268.863C471.179 268.615 475.085 271.973 475.318 277.039C475.556 282.21 472.243 285.652 466.854 285.898L465.56 285.957L464.927 272.962C461.897 273.415 460.432 275.093 460.562 277.923C460.669 280.263 461.65 281.759 463.317 282.173L463.498 286.121C459.686 285.56 457.267 282.519 457.06 278.012ZM471.821 277.234C471.705 274.718 470.27 273.243 467.661 272.942L468.06 281.606C470.439 281.498 471.938 279.784 471.821 277.234Z" fill="#00DA7E"/>
<path d="M462.793 304.157C463.005 302.105 464.854 300.572 466.875 300.78C468.931 300.992 470.427 302.868 470.215 304.92C470.007 306.938 468.124 308.467 466.103 308.259C464.117 308.055 462.585 306.175 462.793 304.157Z" fill="#00DA7E"/>
<path d="M453.007 326.275L454.19 321.958L478.893 328.699L476.315 338.109C474.781 343.708 471.046 346.205 466.18 344.877C462.868 343.973 460.927 341.776 460.539 338.553L449.117 340.475L450.411 335.753L460.782 334.088L462.233 328.793L453.007 326.275ZM473.858 331.965L466.052 329.835L464.656 334.928C463.908 337.66 464.917 339.675 467.418 340.358C469.885 341.031 471.714 339.79 472.462 337.058L473.858 331.965Z" fill="#00DA7E"/>
<path d="M466.218 353.663C466.734 352.288 468.221 351.611 469.567 352.113C470.912 352.615 471.558 354.087 471.042 355.463C470.552 356.773 469.096 357.462 467.751 356.96C466.405 356.458 465.727 354.973 466.218 353.663ZM447.506 344.405L463.718 350.453L462.221 354.449L446.009 348.4L447.506 344.405Z" fill="#00DA7E"/>
<path d="M453.057 355.708C457.611 357.875 459.611 362.466 457.485 366.916C456.37 369.252 454.515 370.616 452.402 370.734L454.447 371.978L452.744 375.544L437.91 368.488C432.691 366.005 430.926 361.331 433.337 356.281C435.478 351.8 439.502 349.957 443.903 351.469L442.064 355.32C439.919 354.609 437.979 355.584 436.848 357.951C435.582 360.602 436.444 363.104 439.038 364.338L441.632 365.572C440.644 363.901 440.646 361.539 441.716 359.299C443.826 354.88 448.534 353.556 453.057 355.708ZM451.298 359.635C448.673 358.386 445.913 359.126 444.707 361.651C443.441 364.302 444.523 366.831 447.243 368.125C449.9 369.389 452.503 368.652 453.785 365.969C455.005 363.413 453.86 360.854 451.298 359.635Z" fill="#00DA7E"/>
<path d="M442.516 376.323C447.045 379.251 448.049 384.523 445.136 389.013C442.223 393.503 436.992 394.745 432.463 391.817C427.933 388.89 426.929 383.617 429.842 379.128C432.755 374.638 437.986 373.396 442.516 376.323ZM440.193 379.903C437.546 378.192 434.647 378.735 433.048 381.2C431.449 383.665 432.139 386.526 434.786 388.237C437.433 389.948 440.331 389.406 441.93 386.941C443.53 384.476 442.84 381.614 440.193 379.903Z" fill="#00DA7E"/>
<path d="M428.848 409.927L426.111 413.202L412.819 402.133L415.354 399.1L417.332 400.337C416.741 398.478 417.316 396.044 418.797 394.272C421.354 391.212 424.93 391.139 428.185 393.85L436.499 400.773L433.762 404.048L426.605 398.088C424.076 395.982 422.223 396.124 420.697 397.949C418.97 400.016 419.35 402.017 421.879 404.124L428.848 409.927Z" fill="#00DA7E"/>
<path d="M413.616 425.683L410.866 422.84L411.999 421.747C414.217 419.611 414.459 417.092 412.122 414.677L406.281 408.637L409.355 405.675L421.354 418.081L418.456 420.873L416.527 419.231C417.191 420.974 416.81 422.946 415.147 424.548C414.718 424.961 414.241 425.323 413.616 425.683Z" fill="#00DA7E"/>
<path d="M393.301 419.537C397.315 416.319 402.475 416.983 405.832 421.155C409.233 425.383 408.823 430.512 404.864 433.685C400.822 436.925 396.083 436.282 392.704 432.082L391.892 431.073L402.029 422.904C399.874 420.728 397.652 420.535 395.44 422.308C393.611 423.774 392.98 425.446 393.629 427.035L390.543 429.508C388.747 426.103 389.778 422.36 393.301 419.537ZM402.642 430.98C404.608 429.404 404.954 427.377 403.658 425.096L396.886 430.525C398.378 432.379 400.649 432.578 402.642 430.98Z" fill="#00DA7E"/>
<path d="M383.158 448.225L379.538 450.491L370.341 435.852L373.693 433.753L375.189 435.542C375.204 433.592 376.507 431.455 378.466 430.229C381.848 428.112 385.27 429.15 387.522 432.735L393.275 441.892L389.656 444.158L384.703 436.275C382.953 433.49 381.148 433.051 379.13 434.314C376.846 435.744 376.586 437.764 378.336 440.55L383.158 448.225Z" fill="#00DA7E"/>
<path d="M369.735 442.157L366.081 443.931C365.391 442.594 363.969 442.234 362.205 443.09C360.41 443.962 359.787 445.159 360.339 446.292C360.722 447.078 361.407 447.445 362.946 447.087L366.071 446.386C369.18 445.654 371.179 446.318 372.39 448.803C373.877 451.854 372.183 454.932 368.593 456.675C365.098 458.373 361.754 457.507 360.251 454.503L363.904 452.729C364.58 454.034 365.875 454.455 367.356 453.737C368.867 453.003 369.412 451.882 368.845 450.719C368.415 449.838 367.447 449.608 365.971 449.936L362.846 450.636C359.941 451.308 358.035 450.755 356.87 448.365C355.337 445.219 357.064 441.969 360.906 440.104C364.779 438.223 368.248 439.106 369.735 442.157Z" fill="#00DA7E"/>
<path d="M343.833 447.321C348.677 445.582 353.341 447.885 355.155 452.92C356.993 458.022 354.934 462.739 350.155 464.454C345.278 466.205 341.006 464.059 339.179 458.99L338.741 457.773L350.988 453.338C349.66 450.581 347.622 449.677 344.953 450.636C342.745 451.429 341.603 452.805 341.699 454.517L337.975 455.854C337.386 452.051 339.581 448.847 343.833 447.321ZM348.936 461.175C351.309 460.323 352.297 458.519 351.815 455.941L343.642 458.875C344.448 461.113 346.531 462.038 348.936 461.175Z" fill="#00DA7E"/>
<path d="M320.493 460.492C322.52 460.092 324.53 461.407 324.924 463.397C325.324 465.422 323.966 467.401 321.939 467.801C319.946 468.193 317.93 466.844 317.536 464.854C317.149 462.898 318.5 460.885 320.493 460.492Z" fill="#00DA7E"/>
<path d="M304.054 478.722L304.228 482.846L284.77 483.66L284.596 479.537L292.085 479.224L291.181 457.804L295.66 457.617L296.564 479.036L304.054 478.722Z" fill="#00DA7E"/>
<path d="M270.731 474.69L270.938 470.744L272.512 470.826C275.59 470.987 277.6 469.446 277.776 466.094L278.215 457.712L282.483 457.935L281.58 475.153L277.557 474.942L277.444 472.415C276.62 474.088 274.916 475.154 272.607 475.033C272.012 475.002 271.421 474.901 270.731 474.69Z" fill="#00DA7E"/>
<path d="M264.087 456.062C267.73 456.573 269.653 458.997 269.2 462.217C268.756 465.368 266.189 467.021 262.086 466.764L256.898 466.425L256.845 466.806C256.518 469.126 257.774 470.256 259.925 470.557C262.423 470.908 263.957 470.063 264.21 468.262L267.818 468.768C267.296 472.474 263.902 474.47 259.254 473.818C254.64 473.171 252.146 470.279 252.814 465.535L254.276 455.146L257.988 455.666L257.944 458.238C258.921 456.574 261.416 455.688 264.087 456.062ZM262.251 459.054C259.65 458.689 257.765 460.014 257.395 462.646L257.268 463.546L260.88 463.77C263.551 463.897 264.679 463.173 264.874 461.787C265.093 460.229 264.159 459.321 262.251 459.054Z" fill="#00DA7E"/>
<path d="M245.618 453.17L248 471.601L243.587 470.479L242.63 462.045C242.428 459.865 242.292 457.99 242.321 457.023C241.816 458.013 240.755 459.62 239.575 461.268L234.556 468.184L230.279 467.097L241.544 452.135L245.618 453.17Z" fill="#00DA7E"/>
<path d="M227.949 447.466C231.398 448.743 232.757 451.521 231.624 454.57C230.515 457.553 227.653 458.619 223.7 457.491L218.704 456.052L218.57 456.413C217.754 458.609 218.739 459.981 220.776 460.735C223.141 461.61 224.82 461.113 225.454 459.408L228.87 460.673C227.566 464.18 223.823 465.405 219.421 463.776C215.052 462.159 213.236 458.801 214.905 454.31L218.56 444.476L222.075 445.777L221.481 448.279C222.792 446.863 225.419 446.53 227.949 447.466ZM225.514 449.996C223.05 449.084 220.925 449.975 219.999 452.467L219.683 453.319L223.163 454.309C225.745 455.004 227.003 454.537 227.49 453.226C228.038 451.751 227.321 450.665 225.514 449.996Z" fill="#00DA7E"/>
<path d="M203.481 460.285C204.813 460.91 205.366 462.446 204.755 463.743C204.143 465.04 202.62 465.561 201.288 464.935C200.02 464.34 199.451 462.836 200.063 461.539C200.674 460.242 202.213 459.689 203.481 460.285ZM214.261 442.434L206.892 458.061L203.024 456.245L210.393 440.618L214.261 442.434Z" fill="#00DA7E"/>
<path d="M202.467 436.524L206.204 438.524L193.888 461.447L190.152 459.448L202.467 436.524Z" fill="#00DA7E"/>
<path d="M184.637 424.66C188.665 427.636 188.984 432.438 185.796 436.737C182.587 441.065 177.76 442.283 173.563 439.183C171.62 437.748 170.506 435.664 170.654 433.642L164.132 442.438L160.724 439.92L176.226 419.013L179.38 421.343L178.001 423.673C180.034 422.696 182.524 423.1 184.637 424.66ZM181.543 427.246C179.149 425.477 176.328 426.047 174.474 428.548C172.62 431.049 172.877 433.936 175.271 435.704C177.665 437.473 180.443 436.784 182.276 434.311C184.11 431.839 183.937 429.014 181.543 427.246Z" fill="#00DA7E"/>
<path d="M153.968 429.844L159.802 424.924L161.497 426.442L157.228 432.763C156.153 434.43 154.624 434.141 153.685 433.301C152.902 432.6 152.449 431.114 153.968 429.844Z" fill="#00DA7E"/>
<path d="M139.957 418.013L146.08 416.934L148.253 419.216L142.685 420.878L139.957 418.013ZM161.512 404.419C165.061 408.147 164.83 413.335 160.946 417.019C157.011 420.752 151.856 420.768 148.356 417.091C144.784 413.339 145.028 408.571 148.937 404.863L149.877 403.972L158.882 413.38C160.874 411.056 160.88 408.831 158.925 406.777C157.308 405.078 155.585 404.589 154.054 405.365L151.326 402.5C154.575 400.432 158.398 401.149 161.512 404.419ZM150.871 414.658C152.609 416.483 154.661 416.66 156.83 415.182L150.843 408.894C149.116 410.531 149.109 412.807 150.871 414.658Z" fill="#00DA7E"/>
<path d="M146.396 401.798C142.045 405.038 137.282 404.57 134.369 400.673C132.798 398.57 132.362 396.058 133.333 394.026L131.06 395.369L128.713 392.229L149.009 377.116L151.544 380.509L143.263 386.675C145.316 386.499 147.493 387.715 149.022 389.762C152.103 393.883 150.719 398.579 146.396 401.798ZM144.008 398.252C146.478 396.413 147.129 393.659 145.348 391.276C143.567 388.893 140.702 388.626 138.203 390.486C135.705 392.347 135.117 395.185 136.898 397.568C138.679 399.951 141.538 400.092 144.008 398.252Z" fill="#00DA7E"/>
<path d="M119.026 375.969L116.923 372.253L131.986 363.759L133.934 367.2L132.076 368.609C134.027 368.715 136.106 370.114 137.243 372.124C139.208 375.595 138.015 378.96 134.326 381.04L124.904 386.354L122.801 382.638L130.912 378.064C133.778 376.448 134.299 374.668 133.127 372.597C131.799 370.252 129.789 369.899 126.923 371.515L119.026 375.969Z" fill="#00DA7E"/>
<path d="M110.165 365.879C110.775 367.216 110.201 368.744 108.894 369.338C107.587 369.931 106.088 369.344 105.479 368.006C104.899 366.733 105.44 365.219 106.747 364.625C108.054 364.032 109.585 364.605 110.165 365.879ZM129.954 359.238L114.206 366.388L112.436 362.504L128.185 355.353L129.954 359.238Z" fill="#00DA7E"/>
<path d="M133.738 348.611L109.803 356.859L108.511 353.123L110.902 352.003C108.672 351.661 106.837 349.889 105.979 347.409C104.389 342.814 106.681 338.62 111.812 336.851C116.91 335.094 121.579 336.594 123.26 341.454C124.106 343.901 123.878 346.348 122.577 347.943L132.343 344.577L133.738 348.611ZM116.574 349.975C119.52 348.959 120.911 346.445 119.95 343.668C118.966 340.824 116.331 339.846 113.417 340.85C110.504 341.854 109.002 344.258 109.985 347.102C110.946 349.879 113.627 350.99 116.574 349.975Z" fill="#00DA7E"/>
<path d="M118.003 322.506C119.086 327.533 116.181 331.841 110.942 332.966C105.635 334.105 101.227 331.437 100.159 326.479C99.0684 321.419 101.766 317.477 107.039 316.345L108.306 316.073L111.081 328.786C113.993 327.839 115.161 325.943 114.564 323.173C114.071 320.882 112.856 319.568 111.144 319.435L110.311 315.571C114.164 315.496 117.053 318.095 118.003 322.506ZM103.575 325.71C104.106 328.172 105.765 329.39 108.388 329.257L106.561 320.777C104.232 321.276 103.038 323.214 103.575 325.71Z" fill="#00DA7E"/>
<path d="M108.038 297.683C108.166 299.742 106.595 301.557 104.568 301.683C102.505 301.812 100.72 300.206 100.591 298.147C100.465 296.122 102.071 294.305 104.098 294.179C106.091 294.055 107.911 295.658 108.038 297.683Z" fill="#00DA7E"/>
</svg>
