<svg width="419" height="420" viewBox="0 0 419 420" fill="none" xmlns="http://www.w3.org/2000/svg">
<path d="M47.0032 269.87C49.4053 276.551 46.3191 282.549 39.1359 285.132C32.0154 287.692 25.6662 284.909 23.2529 278.196C21.3019 272.77 23.0153 267.584 27.6581 265.029L29.1805 269.264C26.7962 271.007 26.0511 273.861 27.145 276.903C28.6674 281.138 32.7 282.699 37.5934 280.94C42.4554 279.192 44.6223 275.366 43.1112 271.163C41.9947 268.058 39.5065 266.26 36.6951 266.421L35.1952 262.249C40.3416 261.391 45.0523 264.444 47.0032 269.87Z" fill="#00DA7E"/>
<path d="M23.0989 247.281L26.7771 246.469L27.1004 247.934C27.7326 250.798 29.6576 252.251 32.7824 251.561L40.5944 249.837L41.4709 253.808L25.4237 257.35L24.5975 253.607L26.8908 252.862C25.145 252.53 23.7332 251.237 23.259 249.089C23.1369 248.536 23.0799 247.968 23.0989 247.281Z" fill="#00DA7E"/>
<path d="M13.6652 230.317L18.9573 232.963L19.32 235.941L14.1206 234.056L13.6652 230.317ZM37.8629 232.138C38.4553 237.002 35.3299 240.842 30.2673 241.458C25.1385 242.083 21.191 239.172 20.6066 234.374C20.0102 229.477 22.9072 225.968 28.0029 225.347L29.2272 225.198L30.7594 237.503C33.6019 236.855 34.8724 235.155 34.546 232.475C34.276 230.258 33.2383 228.907 31.6267 228.633L31.1714 224.894C34.8296 225.154 37.3431 227.87 37.8629 232.138ZM23.9115 233.938C24.2016 236.321 25.6694 237.619 28.1664 237.718L27.1669 229.512C24.9169 229.786 23.6173 231.523 23.9115 233.938Z" fill="#00DA7E"/>
<path d="M36.5066 214.169C36.5316 217.669 34.5135 219.817 31.4135 219.839C28.3803 219.861 26.4646 217.674 26.1369 213.776L25.7351 208.846L25.3684 208.848C23.1352 208.864 22.2447 210.204 22.2594 212.271C22.2765 214.671 23.2859 215.997 25.0192 215.984L25.0439 219.451C21.4773 219.476 19.1232 216.56 19.0914 212.093C19.0598 207.66 21.4403 204.91 26.0069 204.877L36.0066 204.806L36.032 208.373L33.6009 208.69C35.3058 209.378 36.4884 211.603 36.5066 214.169ZM33.4305 212.858C33.4128 210.358 31.9014 208.769 29.3681 208.787L28.5015 208.793L28.7926 212.224C29.0439 214.756 29.8841 215.716 31.2174 215.707C32.7174 215.696 33.4436 214.691 33.4305 212.858Z" fill="#00DA7E"/>
<path d="M36.8386 193.406L36.4808 197.457L23.4648 196.307L23.1862 199.462L19.7994 199.162L20.078 196.008L14.9645 195.556L15.3224 191.505L20.4358 191.957L20.7173 188.77L24.1042 189.069L23.8226 192.256L36.8386 193.406Z" fill="#00DA7E"/>
<path d="M18.4751 180.857C18.2611 182.24 17.0059 183.159 15.6553 182.95C14.3047 182.741 13.4187 181.491 13.6326 180.108C13.8364 178.79 15.0586 177.866 16.4092 178.075C17.7599 178.284 18.6788 179.539 18.4751 180.857ZM37.6988 185.887L21.4256 183.37L22.0471 179.351L38.3203 181.868L37.6988 185.887Z" fill="#00DA7E"/>
<path d="M40.2683 171.671L22.719 174.092L23.7517 169.884L31.7835 168.903C33.8603 168.692 35.6464 168.547 36.5681 168.567C35.6202 168.094 34.0798 167.098 32.4984 165.989L25.8647 161.273L26.8656 157.194L41.2215 167.787L40.2683 171.671Z" fill="#00DA7E"/>
<path d="M46.9252 150.59C45.2267 155.186 40.6911 157.17 35.9073 155.402C31.0609 153.612 28.8823 149.217 30.5577 144.684C32.2677 140.056 36.4493 138.261 41.2644 140.04L42.4212 140.468L38.1543 152.111C40.9785 152.834 42.8857 151.905 43.8216 149.372C44.5958 147.277 44.2912 145.601 42.9835 144.62L44.2891 141.087C47.4233 142.991 48.4157 146.556 46.9252 150.59ZM33.6959 145.808C32.864 148.059 33.5751 149.885 35.7502 151.116L38.6156 143.361C36.4895 142.576 34.5394 143.525 33.6959 145.808Z" fill="#00DA7E"/>
<path d="M52.3491 123.698C51.3947 125.418 49.203 126.069 47.5126 125.131C45.7931 124.177 45.1869 121.972 46.1413 120.253C47.0796 118.562 49.3004 117.927 50.9908 118.865C52.652 119.787 53.2874 122.008 52.3491 123.698Z" fill="#00DA7E"/>
<path d="M53.0173 99.8104C49.6501 97.1899 49.479 92.5795 52.6317 88.5284C55.6616 84.6351 59.7431 83.841 63.2973 86.4382L60.6769 89.8053C58.9582 88.5945 57.0636 89.0208 55.5896 90.9148C53.9723 92.993 53.9279 95.1125 55.5325 96.3613C56.9004 97.4259 58.2365 97.283 59.8536 95.965L62.8656 93.4516C66.1349 90.7161 69.0673 90.4217 71.9346 92.6531C75.5122 95.4374 75.6571 100.027 72.3611 104.263C69.1674 108.366 64.8958 109.35 61.3883 106.747L64.0088 103.38C65.6602 104.623 67.6572 104.065 69.3359 101.908C71.076 99.6723 71.2082 97.4943 69.6035 96.2455C68.3145 95.2424 67.0399 95.3063 65.4696 96.6185L62.4108 99.1377C59.162 101.847 55.9636 102.103 53.0173 99.8104Z" fill="#00DA7E"/>
<path d="M73.0818 67.7805L74.2712 73.5766L72.1539 75.7019L70.4234 70.449L73.0818 67.7805ZM86.602 87.9313C83.1437 91.4026 78.1938 91.3176 74.5807 87.7182C70.9205 84.0717 70.7698 79.1693 74.181 75.7452C77.6629 72.2502 82.2122 72.3595 85.8488 75.9825L86.7226 76.853L77.9945 85.6611C80.2607 87.4954 82.382 87.4442 84.2876 85.5314C85.8638 83.9493 86.285 82.2985 85.5044 80.8622L88.1629 78.1938C90.2192 81.2305 89.6368 84.885 86.602 87.9313ZM76.566 78.0742C74.8722 79.7744 74.758 81.731 76.2232 83.7553L82.0576 77.8989C80.4518 76.2991 78.2834 76.3503 76.566 78.0742Z" fill="#00DA7E"/>
<path d="M93.522 59.098L95.8937 62.0243L94.7283 62.9687C92.4495 64.8157 92.0116 67.1871 94.0265 69.6732L99.0636 75.8883L95.9042 78.4488L85.5571 65.682L88.5352 63.2683L90.2276 64.986C89.743 63.2763 90.2675 61.4353 91.9767 60.0501C92.4169 59.6933 92.8991 59.3883 93.522 59.098Z" fill="#00DA7E"/>
<path d="M98.1388 51.7053C96.9943 52.5116 95.4615 52.2459 94.6744 51.1287C93.8873 50.0114 94.1722 48.5059 95.3167 47.6996C96.4067 46.9316 97.9202 47.1701 98.7074 48.2873C99.4945 49.4046 99.2288 50.9374 98.1388 51.7053ZM107.861 69.0354L98.3772 55.5741L101.702 53.2319L111.186 66.6933L107.861 69.0354Z" fill="#00DA7E"/>
<path d="M122.394 60.05C118.157 62.5104 113.396 61.15 110.836 56.7396C108.241 52.2715 109.362 47.4965 113.542 45.0695C117.808 42.5923 122.175 43.8728 124.752 48.3121L125.372 49.3786L114.665 55.6339C116.38 57.9912 118.443 58.4896 120.778 57.1339C122.709 56.0124 123.542 54.5265 123.159 52.9373L126.417 51.0459C127.619 54.5107 126.113 57.8908 122.394 60.05ZM115.244 47.9354C113.169 49.1406 112.553 51.0013 113.446 53.3353L120.595 49.1843C119.457 47.2241 117.348 46.7136 115.244 47.9354Z" fill="#00DA7E"/>
<path d="M137.627 33.6482L141.366 32.0485L147.843 47.1877L144.38 48.6694L143.239 46.7648C142.936 48.5985 141.394 50.4183 139.372 51.2837C135.878 52.7785 132.815 51.2973 131.228 47.5891L127.177 38.1194L130.916 36.5198L134.403 44.6716C135.636 47.5524 137.268 48.2318 139.352 47.3402C141.712 46.3305 142.256 44.4663 141.023 41.5855L137.627 33.6482Z" fill="#00DA7E"/>
<path d="M150.895 40.7073L154.597 39.5915C155.042 40.9542 156.323 41.5081 158.111 40.9695C159.93 40.4212 160.698 39.3889 160.352 38.24C160.111 37.4421 159.523 36.9927 158.023 37.0967L154.98 37.2826C151.947 37.5004 150.171 36.5736 149.411 34.0523C148.478 30.9565 150.537 28.3167 154.175 27.2201C157.718 26.1523 160.727 27.4735 161.683 30.5277L157.981 31.6436C157.545 30.3127 156.391 29.7204 154.891 30.1725C153.359 30.6342 152.677 31.6057 153.033 32.7865C153.303 33.6802 154.178 34.043 155.614 33.9582L158.657 33.7723C161.489 33.5803 163.195 34.389 163.926 36.8146C164.888 40.0061 162.771 42.8025 158.878 43.9761C154.952 45.1592 151.828 43.8031 150.895 40.7073Z" fill="#00DA7E"/>
<path d="M177.471 39.3631C172.652 40.2523 168.628 37.3678 167.703 32.3525C166.765 27.2716 169.429 23.1532 174.182 22.2762C179.034 21.381 182.714 24.0576 183.645 29.1058L183.869 30.3186L171.681 32.6015C172.502 35.3989 174.276 36.563 176.931 36.073C179.128 35.6678 180.413 34.5494 180.587 32.924L184.291 32.2405C184.256 35.9078 181.699 38.5829 177.471 39.3631ZM174.82 25.5481C172.46 25.9836 171.253 27.5282 171.307 30.0265L179.437 28.5264C179.026 26.2974 177.213 25.1066 174.82 25.5481Z" fill="#00DA7E"/>
<path d="M203.315 30.2879C201.349 30.3473 199.668 28.7973 199.61 26.8648C199.55 24.8991 201.135 23.2505 203.1 23.1911C205.033 23.1328 206.715 24.7161 206.773 26.6485C206.83 28.5477 205.247 30.2296 203.315 30.2879Z" fill="#00DA7E"/>
<path d="M247.227 27.1728C246.163 34.496 240.6 38.9424 233.672 37.9361C226.778 36.9346 222.77 31.1316 223.839 23.7754C224.903 16.4523 230.433 12.0011 237.328 13.0026C244.222 14.004 248.296 19.8167 247.227 27.1728ZM242.774 26.5259C243.521 21.3799 241.159 17.7021 236.738 17.06C232.318 16.4179 229.007 19.2715 228.259 24.4175C227.512 29.5635 229.874 33.2414 234.295 33.8835C238.715 34.5256 242.036 31.606 242.774 26.5259Z" fill="#00DA7E"/>
<path d="M265.595 27.6592L264.57 31.2837L263.126 30.8755C260.304 30.0772 258.113 31.0858 257.242 34.165L255.065 41.8631L251.152 40.7563L255.624 24.9432L259.313 25.9864L258.884 28.3594C260.002 26.9782 261.809 26.3461 263.926 26.9448C264.471 27.099 264.999 27.3174 265.595 27.6592Z" fill="#00DA7E"/>
<path d="M267.542 36.39C269.304 31.9251 273.54 29.7266 277.912 31.4519C280.206 32.3574 281.625 34.0282 281.876 36.0264L282.925 34.0037L286.429 35.3863L280.69 49.9283C278.671 55.0444 274.341 57.0266 269.38 55.0689C264.977 53.3313 262.961 49.6329 264.111 45.3565L267.893 46.8493C267.358 48.9316 268.413 50.7094 270.738 51.6272C273.343 52.655 275.666 51.6724 276.669 49.1299L277.672 46.5874C276.148 47.6343 273.902 47.7871 271.701 46.9183C267.36 45.2053 265.792 40.8239 267.542 36.39ZM271.392 37.802C270.377 40.3755 271.261 42.9465 273.742 43.9253C276.346 44.9532 278.681 43.7601 279.733 41.0935C280.761 38.489 279.889 36.0666 277.254 35.0265C274.742 34.0354 272.383 35.2905 271.392 37.802Z" fill="#00DA7E"/>
<path d="M290.402 56.2099C287.334 54.5263 286.442 51.7174 287.933 48.9997C289.392 46.3403 292.235 45.7329 295.798 47.346L300.3 49.3977L300.476 49.0762C301.551 47.1182 300.815 45.6878 299.003 44.6937C296.899 43.5392 295.249 43.7745 294.415 45.2941L291.376 43.6265C293.091 40.4996 296.785 39.865 300.701 42.0137C304.588 44.1463 305.83 47.5652 303.633 51.5688L298.823 60.3358L295.696 58.6201L296.603 56.3425C295.172 57.4961 292.653 57.4446 290.402 56.2099ZM293.047 54.1628C295.238 55.3654 297.363 54.82 298.581 52.599L298.998 51.8392L295.86 50.4214C293.527 49.4074 292.278 49.6729 291.637 50.8419C290.915 52.1569 291.439 53.2809 293.047 54.1628Z" fill="#00DA7E"/>
<path d="M307.307 65.8238L304.009 63.4444L313.643 50.0905L316.698 52.2944L315.72 54.2195C317.533 53.4725 319.721 53.8588 321.532 55.1655C324.884 57.5839 325.112 60.9136 322.616 64.3737L316.687 72.5915L313.389 70.2121L318.752 62.7782C320.371 60.5346 320.043 58.6536 318.34 57.4249C316.312 55.9622 314.055 56.4707 312.495 58.6333L307.307 65.8238Z" fill="#00DA7E"/>
<path d="M335.886 62.9551C334.828 62.038 334.718 60.4863 335.613 59.4537C336.508 58.4211 338.038 58.3357 339.096 59.2529C340.103 60.1263 340.236 61.6528 339.341 62.6854C338.445 63.718 336.894 63.8286 335.886 62.9551ZM321.401 76.558L332.188 64.1165L335.261 66.7805L324.474 79.222L321.401 76.558Z" fill="#00DA7E"/>
<path d="M331.431 78.5534L334.148 81.3048C333.152 82.3356 333.261 83.727 334.572 85.0553C335.907 86.4073 337.179 86.6039 338.033 85.7608C338.626 85.1753 338.748 84.4454 337.955 83.1675L336.369 80.5647C334.758 77.9852 334.748 75.9817 336.621 74.1315C338.922 71.8597 342.218 72.4463 344.888 75.1504C347.488 77.7832 347.726 81.0611 345.473 83.3331L342.756 80.5817C343.729 79.5743 343.714 78.2778 342.613 77.163C341.489 76.0245 340.311 75.8756 339.433 76.7421C338.769 77.3979 338.858 78.3413 339.604 79.5717L341.19 82.1745C342.683 84.5882 342.766 86.4744 340.963 88.2544C338.591 90.5964 335.13 90.0323 332.273 87.1385C329.392 84.221 329.131 80.8251 331.431 78.5534Z" fill="#00DA7E"/>
<path d="M366.6 90.2805L360.705 90.7896L358.84 88.44L364.258 87.3305L366.6 90.2805ZM345.017 101.372C341.971 97.5345 342.629 92.6279 346.623 89.4567C350.67 86.2441 355.557 86.6631 358.562 90.4485C361.629 94.3122 360.993 98.8181 356.973 102.01L356.007 102.777L348.271 93.0861C346.186 95.1242 345.991 97.2371 347.67 99.3517C349.058 101.101 350.649 101.711 352.166 101.102L354.508 104.052C351.253 105.742 347.691 104.74 345.017 101.372ZM355.972 92.5472C354.48 90.6676 352.55 90.3272 350.369 91.5477L355.509 98.022C357.284 96.6126 357.485 94.453 355.972 92.5472Z" fill="#00DA7E"/>
<path d="M356.976 118.246C354.405 114.075 355.64 109.281 359.982 106.605C364.38 103.894 369.183 104.889 371.719 109.003C374.307 113.203 373.142 117.602 368.772 120.295L367.722 120.942L361.188 110.404C358.876 112.181 358.432 114.256 359.849 116.554C361.021 118.455 362.528 119.249 364.107 118.824L366.083 122.031C362.651 123.324 359.232 121.907 356.976 118.246ZM368.899 110.781C367.64 108.738 365.763 108.171 363.454 109.125L367.791 116.162C369.721 114.973 370.176 112.852 368.899 110.781Z" fill="#00DA7E"/>
<path d="M374.795 139.074C374.029 137.263 374.867 135.135 376.648 134.382C378.459 133.617 380.569 134.498 381.334 136.31C382.087 138.09 381.219 140.231 379.438 140.984C377.688 141.723 375.548 140.855 374.795 139.074Z" fill="#00DA7E"/>
<path d="M374.826 154.967L373.622 150.874L396.998 143.998L399.622 152.921C401.184 158.229 399.41 162.121 394.805 163.476C391.671 164.397 389 163.585 387.072 161.164L378.786 168.431L377.469 163.954L385.033 157.42L383.556 152.4L374.826 154.967ZM394.557 149.164L387.169 151.337L388.59 156.166C389.352 158.756 391.178 159.886 393.545 159.19C395.879 158.504 396.739 156.583 395.977 153.993L394.557 149.164Z" fill="#00DA7E"/>
<path d="M399.711 172.402C399.445 171.027 400.316 169.739 401.658 169.479C402.999 169.22 404.256 170.097 404.521 171.472C404.775 172.781 403.936 174.063 402.594 174.323C401.253 174.582 399.964 173.711 399.711 172.402ZM379.917 174.159L396.085 171.032L396.857 175.025L380.69 178.152L379.917 174.159Z" fill="#00DA7E"/>
<path d="M390.308 181.921C395.083 181.44 398.979 184.197 399.45 188.874C399.697 191.328 398.862 193.355 397.201 194.494L399.48 194.499L399.857 198.247L384.303 199.812C378.83 200.363 375.084 197.424 374.55 192.117C374.075 187.408 376.438 183.92 380.766 182.982L381.173 187.028C379.077 187.507 377.981 189.259 378.231 191.747C378.511 194.533 380.449 196.147 383.169 195.873L385.889 195.599C384.259 194.725 383.094 192.798 382.857 190.443C382.39 185.8 385.565 182.398 390.308 181.921ZM390.818 185.99C388.065 186.268 386.186 188.232 386.453 190.886C386.733 193.671 388.864 195.199 391.716 194.912C394.502 194.632 396.255 192.747 395.971 189.927C395.701 187.241 393.504 185.72 390.818 185.99Z" fill="#00DA7E"/>
<path d="M392.082 205.745C397.213 205.897 400.635 209.7 400.484 214.798C400.332 219.896 396.691 223.489 391.56 223.337C386.429 223.185 383.007 219.382 383.158 214.284C383.309 209.186 386.951 205.593 392.082 205.745ZM391.961 209.81C388.962 209.721 386.873 211.593 386.79 214.392C386.707 217.191 388.682 219.183 391.68 219.272C394.679 219.361 396.769 217.489 396.852 214.69C396.935 211.892 394.96 209.899 391.961 209.81Z" fill="#00DA7E"/>
<path d="M397.501 241.561L396.889 245.582L380.609 243.104L381.176 239.38L383.396 239.414C381.998 238.19 381.265 235.92 381.596 233.745C382.168 229.989 385.041 228.167 389.028 228.774L399.211 230.324L398.599 234.344L389.833 233.01C386.736 232.538 385.298 233.567 384.957 235.808C384.571 238.345 385.868 239.79 388.966 240.262L397.501 241.561Z" fill="#00DA7E"/>
<path d="M392.551 263.674L388.913 262.698L389.302 261.249C390.062 258.416 389.023 256.24 385.933 255.411L378.206 253.339L379.259 249.411L395.131 253.667L394.139 257.37L391.76 256.974C393.156 258.073 393.813 259.871 393.243 261.996C393.096 262.543 392.885 263.073 392.551 263.674Z" fill="#00DA7E"/>
<path d="M372.454 270.319C374.174 265.731 378.719 263.768 383.494 265.558C388.332 267.371 390.491 271.775 388.794 276.301C387.063 280.921 382.873 282.697 378.066 280.895L376.911 280.462L381.232 268.839C378.411 268.102 376.5 269.023 375.552 271.552C374.768 273.643 375.065 275.32 376.368 276.307L375.046 279.834C371.921 277.915 370.945 274.346 372.454 270.319ZM385.661 275.162C386.504 272.915 385.801 271.085 383.632 269.845L380.73 277.586C382.853 278.382 384.807 277.441 385.661 275.162Z" fill="#00DA7E"/>
<path d="M377.383 300.421L375.504 304.028L360.9 296.42L362.641 293.08L364.73 293.83C363.803 292.219 363.842 289.835 364.859 287.884C366.614 284.513 369.923 283.718 373.5 285.582L382.635 290.34L380.756 293.947L372.892 289.851C370.113 288.403 368.42 288.912 367.373 290.922C366.187 293.198 366.948 294.985 369.726 296.433L377.383 300.421Z" fill="#00DA7E"/>
<path d="M362.678 303.328L360.526 306.54C359.316 305.77 357.975 306.156 356.936 307.706C355.878 309.285 355.94 310.57 356.937 311.238C357.63 311.702 358.369 311.676 359.462 310.643L361.695 308.568C363.9 306.474 365.861 306.062 368.049 307.528C370.735 309.328 370.82 312.675 368.705 315.832C366.646 318.906 363.482 319.795 360.805 318.042L362.957 314.829C364.139 315.581 365.406 315.307 366.278 314.005C367.168 312.676 367.078 311.492 366.054 310.806C365.278 310.286 364.372 310.561 363.316 311.539L361.083 313.614C359.017 315.56 357.185 316.018 355.081 314.608C352.311 312.753 352.171 309.249 354.435 305.87C356.717 302.464 359.992 301.528 362.678 303.328Z" fill="#00DA7E"/>
<path d="M342.977 321.281C346.13 317.53 351.07 317.196 354.974 320.478C358.929 323.803 359.493 328.675 356.383 332.375C353.208 336.151 348.666 336.426 344.736 333.123L343.792 332.33L351.746 322.816C349.333 321.18 347.223 321.41 345.486 323.476C344.049 325.186 343.769 326.866 344.668 328.232L342.244 331.115C339.939 328.263 340.21 324.572 342.977 321.281ZM353.809 330.255C355.354 328.418 355.302 326.459 353.672 324.565L348.352 330.894C350.087 332.352 352.244 332.118 353.809 330.255Z" fill="#00DA7E"/>
<path d="M328.816 344.743C330.294 343.446 332.577 343.57 333.853 345.023C335.15 346.501 334.979 348.781 333.501 350.078C332.048 351.354 329.743 351.205 328.468 349.752C327.214 348.324 327.363 346.019 328.816 344.743Z" fill="#00DA7E"/>
<path d="M322.218 369.118L324.32 372.442L308.655 382.346L306.553 379.022L312.582 375.21L301.663 357.939L305.269 355.659L316.189 372.93L322.218 369.118Z" fill="#00DA7E"/>
<path d="M290.977 382.645L289.291 379.277L290.632 378.606C293.255 377.292 294.193 375.071 292.76 372.209L289.178 365.056L292.814 363.235L300.172 377.929L296.745 379.646L295.461 377.604C295.567 379.378 294.659 381.063 292.691 382.048C292.185 382.302 291.648 382.496 290.977 382.645Z" fill="#00DA7E"/>
<path d="M275.14 371.073C278.401 369.803 281.127 370.924 282.252 373.813C283.352 376.639 281.991 379.208 278.466 380.903L274.002 383.034L274.135 383.376C274.945 385.457 276.514 385.812 278.44 385.062C280.676 384.191 281.556 382.776 280.927 381.161L284.158 379.903C285.452 383.227 283.565 386.465 279.402 388.086C275.271 389.694 271.853 388.449 270.196 384.194L266.568 374.875L269.892 373.581L271.054 375.74C271.09 373.901 272.748 372.004 275.14 371.073ZM275.01 374.414C272.68 375.321 271.733 377.3 272.652 379.66L272.967 380.468L276.069 378.974C278.346 377.837 278.944 376.71 278.46 375.468C277.916 374.07 276.718 373.749 275.01 374.414Z" fill="#00DA7E"/>
<path d="M257.017 377.779L267.503 392.057L263.311 393.153L258.623 386.558C257.448 384.832 256.47 383.331 256.049 382.511C256.085 383.57 255.943 385.398 255.721 387.317L254.732 395.396L250.669 396.459L253.147 378.791L257.017 377.779Z" fill="#00DA7E"/>
<path d="M237.668 381.61C241.132 381.107 243.536 382.812 243.981 385.88C244.417 388.882 242.513 391.078 238.697 391.936L233.868 393.008L233.92 393.371C234.241 395.581 235.69 396.28 237.735 395.983C240.11 395.638 241.286 394.457 241.037 392.741L244.468 392.243C244.98 395.773 242.413 398.503 237.993 399.145C233.605 399.783 230.555 397.801 229.899 393.281L228.461 383.385L231.991 382.872L232.638 385.237C233.086 383.454 235.128 381.979 237.668 381.61ZM236.79 384.836C234.316 385.196 232.948 386.91 233.312 389.417L233.437 390.275L236.796 389.517C239.27 388.922 240.106 387.959 239.915 386.639C239.699 385.155 238.604 384.573 236.79 384.836Z" fill="#00DA7E"/>
<path d="M221.574 403.666C222.972 403.587 224.133 404.623 224.21 405.987C224.288 407.352 223.25 408.479 221.852 408.559C220.521 408.634 219.362 407.632 219.285 406.267C219.207 404.903 220.243 403.742 221.574 403.666ZM222.482 383.816L223.417 400.256L219.357 400.487L218.422 384.047L222.482 383.816Z" fill="#00DA7E"/>
<path d="M208.674 384.254L212.708 384.249L212.737 409.049L208.704 409.054L208.674 384.254Z" fill="#00DA7E"/>
<path d="M186.873 382.321C191.59 383.006 194.023 386.897 193.29 391.944C192.552 397.024 189.056 400.221 184.141 399.507C181.864 399.176 179.991 397.927 179.203 396.163L177.704 406.488L173.712 405.908L177.277 381.365L180.972 381.902L180.867 384.48C182.129 382.744 184.399 381.962 186.873 382.321ZM185.445 385.886C182.642 385.479 180.535 387.228 180.108 390.164C179.682 393.099 181.199 395.408 184.003 395.816C186.807 396.223 188.824 394.394 189.246 391.491C189.668 388.588 188.249 386.294 185.445 385.886Z" fill="#00DA7E"/>
<path d="M161.625 400.149L164.332 393.403L166.435 393.925L165.668 401.154C165.509 403.038 164.095 403.476 162.93 403.187C161.96 402.946 160.916 401.896 161.625 400.149Z" fill="#00DA7E"/>
<path d="M142.48 395.815L147.167 392.204L150.006 393.175L146.044 397.034L142.48 395.815ZM154.661 374.827C159.297 376.413 161.391 380.899 159.741 385.725C158.069 390.613 153.729 392.898 149.156 391.334C144.488 389.737 142.591 385.601 144.253 380.744L144.652 379.577L156.395 383.559C157.05 380.718 156.074 378.834 153.519 377.96C151.406 377.237 149.738 377.582 148.789 378.914L145.225 377.695C147.053 374.515 150.592 373.436 154.661 374.827ZM150.203 388.169C152.474 388.946 154.282 388.191 155.459 385.986L147.637 383.311C146.904 385.456 147.901 387.382 150.203 388.169Z" fill="#00DA7E"/>
<path d="M139.131 378.701C136.867 383.345 132.636 385.028 128.471 382.998C126.224 381.902 124.758 379.964 124.692 377.818L123.356 379.948L120.001 378.312L130.561 356.649L134.187 358.417L129.878 367.256C131.537 366.21 133.908 366.291 136.095 367.357C140.5 369.504 141.381 374.087 139.131 378.701ZM135.564 376.739C136.849 374.103 136.196 371.486 133.65 370.244C131.103 369.002 128.564 370.027 127.264 372.693C125.964 375.36 126.706 378.021 129.253 379.263C131.8 380.504 134.278 379.376 135.564 376.739Z" fill="#00DA7E"/>
<path d="M103.025 367.845L99.6333 365.601L108.719 351.868L111.86 353.946L110.897 355.947C112.595 355.192 114.963 355.479 116.798 356.693C119.967 358.79 120.413 362.163 118.188 365.527L112.505 374.117L109.113 371.873L114.005 364.478C115.734 361.865 115.405 360.128 113.514 358.878C111.374 357.461 109.517 358.032 107.788 360.645L103.025 367.845Z" fill="#00DA7E"/>
<path d="M89.7066 362.112C90.7998 362.987 90.9716 364.533 90.1178 365.6C89.2641 366.667 87.7388 366.813 86.6455 365.938C85.6044 365.105 85.4118 363.585 86.2655 362.518C87.1193 361.451 88.6654 361.279 89.7066 362.112ZM103.643 347.947L93.3558 360.805L90.1803 358.265L100.467 345.407L103.643 347.947Z" fill="#00DA7E"/>
<path d="M101.258 336.475L84.4588 353.755L81.758 351.13L83.3094 349.151C81.268 349.817 78.9477 349.095 77.1551 347.352C73.8329 344.123 73.9808 339.571 77.5822 335.866C81.1604 332.186 85.7704 331.461 89.2839 334.876C91.0525 336.596 91.9084 338.776 91.4875 340.691L98.3419 333.64L101.258 336.475ZM87.2581 344.994C89.326 342.867 89.4288 340.131 87.4211 338.179C85.3657 336.181 82.7061 336.478 80.6614 338.581C78.6168 340.684 78.3719 343.375 80.4274 345.373C82.435 347.325 85.1901 347.121 87.2581 344.994Z" fill="#00DA7E"/>
<path d="M75.3325 319.645C78.4036 323.463 77.7762 328.374 73.8021 331.57C69.7761 334.809 64.8868 334.421 61.8576 330.654C58.7656 326.81 59.3732 322.3 63.3732 319.083L64.3343 318.31L72.1319 327.952C74.2037 325.9 74.3855 323.786 72.6933 321.682C71.2936 319.942 69.699 319.342 68.1857 319.961L65.825 317.026C69.0689 315.315 72.6375 316.294 75.3325 319.645ZM64.4341 328.539C65.9383 330.409 67.8705 330.738 70.0433 329.503L64.8622 323.062C63.0959 324.482 62.909 326.643 64.4341 328.539Z" fill="#00DA7E"/>
<path d="M55.0283 301.19C56.015 302.891 55.4505 305.107 53.7781 306.077C52.0769 307.064 49.8733 306.454 48.8866 304.752C47.9166 303.08 48.5099 300.848 50.1823 299.878C51.8259 298.924 54.0583 299.518 55.0283 301.19Z" fill="#00DA7E"/>
</svg>
