<svg width="152" height="36" viewBox="0 0 152 36" fill="none" xmlns="http://www.w3.org/2000/svg">
<rect width="152" height="36" rx="18" fill="#FF66A2"/>
<path d="M34.879 25L30.17 12.42H33.111L35.491 18.778C35.6383 19.1633 35.7743 19.5657 35.899 19.985C36.0237 20.4043 36.154 20.886 36.29 21.43C36.4487 20.8293 36.5903 20.3307 36.715 19.934C36.851 19.5373 36.987 19.152 37.123 18.778L39.469 12.42H42.342L37.718 25H34.879ZM54.7739 18.693C54.7739 19.9737 54.5132 21.107 53.9919 22.093C53.4706 23.0677 52.7452 23.8327 51.8159 24.388C50.8866 24.932 49.8099 25.204 48.5859 25.204C47.3732 25.204 46.3022 24.932 45.3729 24.388C44.4549 23.8327 43.7352 23.0677 43.2139 22.093C42.7039 21.1183 42.4489 19.9907 42.4489 18.71C42.4489 17.4293 42.7096 16.3017 43.2309 15.327C43.7522 14.341 44.4719 13.576 45.3899 13.032C46.3192 12.4767 47.3902 12.199 48.6029 12.199C49.8269 12.199 50.8979 12.4767 51.8159 13.032C52.7452 13.576 53.4706 14.3353 53.9919 15.31C54.5132 16.2847 54.7739 17.4123 54.7739 18.693ZM51.8669 18.693C51.8669 17.8883 51.7366 17.2027 51.4759 16.636C51.2152 16.058 50.8412 15.616 50.3539 15.31C49.8779 15.004 49.2999 14.851 48.6199 14.851C47.9399 14.851 47.3562 15.004 46.8689 15.31C46.3816 15.616 46.0076 16.058 45.7469 16.636C45.4862 17.2027 45.3559 17.8883 45.3559 18.693C45.3559 19.4977 45.4862 20.189 45.7469 20.767C46.0076 21.345 46.3816 21.787 46.8689 22.093C47.3562 22.399 47.9399 22.552 48.6199 22.552C49.2999 22.552 49.8779 22.399 50.3539 22.093C50.8412 21.7757 51.2152 21.328 51.4759 20.75C51.7366 20.172 51.8669 19.4863 51.8669 18.693ZM59.4468 12.42V25H56.6928V12.42H59.4468ZM64.8257 25H62.0717V12.42H66.9337C68.4637 12.42 69.6424 12.777 70.4697 13.491C71.3084 14.1937 71.7277 15.1967 71.7277 16.5C71.7277 17.316 71.552 18.013 71.2007 18.591C70.8607 19.169 70.3394 19.6393 69.6367 20.002L71.8467 25H68.8377L66.9507 20.597H64.8257V25ZM64.8257 14.868V18.183H66.9167C67.5174 18.183 67.982 18.0357 68.3107 17.741C68.6507 17.4463 68.8207 17.0327 68.8207 16.5C68.8207 15.9673 68.6564 15.565 68.3277 15.293C68.0104 15.0097 67.5457 14.868 66.9337 14.868H64.8257ZM81.0288 12.42V25H78.2748V12.42H81.0288ZM83.3748 20.818H80.3488V18.37H82.7628C83.4315 18.37 83.9302 18.2283 84.2588 17.945C84.5875 17.6503 84.7518 17.2083 84.7518 16.619C84.7518 16.0297 84.5875 15.5933 84.2588 15.31C83.9302 15.0153 83.4315 14.868 82.7628 14.868H80.3488V12.42H83.3748C84.2362 12.42 84.9842 12.5957 85.6188 12.947C86.2648 13.2983 86.7635 13.7913 87.1148 14.426C87.4775 15.0493 87.6588 15.7803 87.6588 16.619C87.6588 17.4577 87.4775 18.1943 87.1148 18.829C86.7635 19.4523 86.2648 19.9397 85.6188 20.291C84.9842 20.6423 84.2362 20.818 83.3748 20.818ZM92.1519 12.42V25H89.3979V12.42H92.1519ZM89.8909 25V22.45H97.1159V25H89.8909ZM98.2445 20.274V12.42H100.999V20.087C100.999 20.8803 101.208 21.4867 101.628 21.906C102.047 22.3253 102.642 22.535 103.413 22.535C104.195 22.535 104.795 22.3197 105.215 21.889C105.645 21.4583 105.861 20.8577 105.861 20.087V12.42H108.615V20.274C108.615 21.2713 108.399 22.1383 107.969 22.875C107.549 23.6117 106.949 24.184 106.167 24.592C105.385 25 104.467 25.204 103.413 25.204C102.37 25.204 101.458 25.0057 100.676 24.609C99.9048 24.201 99.3042 23.6287 98.8735 22.892C98.4542 22.144 98.2445 21.2713 98.2445 20.274ZM110.449 16.075C110.449 15.3157 110.647 14.647 111.044 14.069C111.441 13.4797 111.985 13.0207 112.676 12.692C113.379 12.352 114.178 12.182 115.073 12.182C115.98 12.182 116.762 12.3407 117.419 12.658C118.076 12.9753 118.581 13.423 118.932 14.001C119.295 14.579 119.476 15.2647 119.476 16.058H116.739C116.739 15.616 116.586 15.2703 116.28 15.021C115.974 14.7603 115.56 14.63 115.039 14.63C114.484 14.63 114.036 14.749 113.696 14.987C113.367 15.225 113.203 15.5537 113.203 15.973C113.203 16.3583 113.305 16.653 113.509 16.857C113.713 17.061 114.036 17.2083 114.478 17.299L116.365 17.69C117.487 17.9167 118.32 18.3133 118.864 18.88C119.408 19.4353 119.68 20.2117 119.68 21.209C119.68 22.0137 119.482 22.722 119.085 23.334C118.688 23.9347 118.127 24.3993 117.402 24.728C116.688 25.0567 115.849 25.221 114.886 25.221C113.957 25.221 113.141 25.0623 112.438 24.745C111.747 24.4277 111.208 23.98 110.823 23.402C110.449 22.8127 110.262 22.127 110.262 21.345H112.999C112.999 21.7983 113.163 22.1497 113.492 22.399C113.821 22.6483 114.291 22.773 114.903 22.773C115.526 22.773 116.019 22.6597 116.382 22.433C116.745 22.195 116.926 21.8777 116.926 21.481C116.926 21.1297 116.835 20.8577 116.654 20.665C116.484 20.4723 116.189 20.3363 115.77 20.257L113.849 19.866C112.727 19.6393 111.877 19.2087 111.299 18.574C110.732 17.9393 110.449 17.1063 110.449 16.075Z" fill="white"/>
</svg>
