<svg width="128" height="128" viewBox="0 0 128 128" fill="none" xmlns="http://www.w3.org/2000/svg">
<path d="M1 39.4589V108.664C1 113.441 4.87352 117.318 9.66138 117.318H20.4777V30.8052H9.66138C4.87352 30.8052 1 34.675 1 39.4589Z" fill="#FF66A2"/>
<path d="M119.281 30.8052H108.465V117.318H119.281C124.061 117.318 127.935 113.441 127.935 108.665V39.4589C127.935 34.675 124.061 30.8052 119.281 30.8052Z" fill="#FF66A2"/>
<path d="M45.4875 47.516C44.6396 48.3639 44.6396 49.7388 45.4875 50.585C46.3356 51.4331 47.7086 51.4331 48.5565 50.585C49.4046 49.7388 49.4046 48.3641 48.5565 47.516C47.7086 46.6698 46.3354 46.6698 45.4875 47.516Z" fill="#FF66A2"/>
<path d="M88.8779 17.0653C88.8779 13.1672 85.7013 10 81.8127 10H47.1258C43.2294 10 40.0602 13.1672 40.0602 17.0653V30.8051H29.1289V117.318H99.8095V30.8053H88.8779V17.0653ZM71.784 63.103L61.0696 73.8171C59.9383 74.9467 58.1064 74.9467 56.9749 73.8171L40.3721 57.2141C39.8299 56.6702 39.524 55.9334 39.524 55.1668V44.4504C39.524 42.8528 40.8216 41.5569 42.4195 41.5569H53.1336C53.9024 41.5569 54.6388 41.8611 55.1829 42.405L71.7842 59.0081C72.913 60.1376 72.913 61.9715 71.784 63.103ZM80.2222 30.8053H48.7159V18.6574H80.2222V30.8053Z" fill="#FF66A2"/>
</svg>
