<svg width="97" height="57" viewBox="0 0 97 57" fill="none" xmlns="http://www.w3.org/2000/svg">
<path d="M33.885 36.5927H9.64599C5.97095 36.5927 3 33.6218 3 29.9467V6.64599C3 2.97095 5.97095 0 9.64599 0H33.885C37.5601 0 40.531 2.97095 40.531 6.64599V29.9467C40.531 33.6218 37.5601 36.5927 33.885 36.5927Z" fill="#00DA7E"/>
<path d="M33.2868 35.0284H10.2367C7.10965 35.0284 4.56055 32.4792 4.56055 29.3522V7.2404C4.56055 4.11331 7.10965 1.56421 10.2367 1.56421H33.2718C36.4154 1.56421 38.948 4.11331 38.948 7.2404V29.3372C38.963 32.4792 36.4139 35.0284 33.2868 35.0284Z" fill="#00DA7E"/>
<path d="M17.8366 17.123L22.2157 25.5359C22.2937 25.6605 22.2472 25.7866 22.1211 25.7866H19.3993C19.2267 25.7866 19.1486 25.7401 19.0706 25.5839C18.0692 23.5197 17.0529 21.4555 16.005 19.2352H15.9735C15.0352 21.3309 14.0024 23.5363 13.0026 25.6005C12.9245 25.7251 12.8464 25.7731 12.7203 25.7731H10.1427C9.98657 25.7731 9.97006 25.6485 10.0496 25.5539L14.3342 17.3902L10.1907 9.13336C10.0962 9.00876 10.1907 8.91418 10.2838 8.91418H12.974C13.1302 8.91418 13.1932 8.94571 13.2548 9.08682C14.2396 11.151 15.2409 13.2783 16.1792 15.3575H16.2107C17.1175 13.2933 18.1188 11.151 19.0886 9.10184C19.1667 8.97723 19.2132 8.89917 19.3708 8.89917H21.8884C22.013 8.89917 22.061 8.99375 21.983 9.11835L17.8366 17.123ZM22.9828 19.6721C22.9828 16.0286 25.4073 13.1822 29.2535 13.1822C29.5823 13.1822 29.7534 13.1822 30.0672 13.2137V9.07031C30.0672 8.97573 30.1452 8.91418 30.2233 8.91418H32.6943C32.8189 8.91418 32.8505 8.96072 32.8505 9.03879V23.3951C32.8505 23.817 32.8505 24.3484 32.9285 24.9279C32.9285 25.0225 32.897 25.0525 32.8039 25.1005C31.4903 25.7266 30.1137 26.0073 28.8001 26.0073C25.4058 26.0208 22.9813 23.9266 22.9828 19.6721ZM30.0657 15.6698C29.8465 15.5752 29.5342 15.5136 29.1589 15.5136C27.1878 15.5136 25.8126 17.0299 25.8126 19.549C25.8126 22.4268 27.2208 23.5843 28.9878 23.5843C29.3631 23.5843 29.7699 23.5378 30.0672 23.4117V15.6698H30.0657Z" fill="#FFFDEF"/>
<path d="M83.9681 18.5833C83.9681 10.327 96.935 10.327 96.935 18.5833C96.935 26.8395 83.9681 26.8395 83.9681 18.5833ZM71.0012 30.9717C71.0012 27.548 73.9004 24.7781 77.4841 24.7781H83.9669V30.9717C83.9669 39.228 71 39.228 71 30.9717H71.0012ZM83.9681 0.00116138V12.3896H90.451C99.0928 12.3896 99.0928 0.00116138 90.451 0.00116138H83.9681ZM71.0012 6.19481C71.0012 9.61856 73.9004 12.3885 77.4841 12.3885H83.9669V0H77.4841C73.9004 0 71.0012 2.76989 71.0012 6.19364V6.19481ZM71.0012 18.5833C71.0012 22.007 73.9004 24.7781 77.4841 24.7781H83.9669V12.3885H77.4841C73.9004 12.3885 71.0012 15.1595 71.0012 18.5833Z" fill="#00DA7E"/>
<path d="M6.97168 54H5.97266L5.15625 51.8408H1.89062L1.12256 54H0.118164L3.07227 46.2979H4.00684L6.97168 54ZM4.86084 51.0298L3.65234 47.748C3.61296 47.6406 3.57357 47.4688 3.53418 47.2324H3.5127C3.47689 47.4508 3.43571 47.6227 3.38916 47.748L2.19141 51.0298H4.86084ZM12.6865 54H11.8057V53.0654H11.7842C11.376 53.7744 10.7458 54.1289 9.89355 54.1289C9.20247 54.1289 8.64925 53.8836 8.23389 53.3931C7.8221 52.8989 7.61621 52.2275 7.61621 51.3789C7.61621 50.4694 7.84538 49.7407 8.30371 49.1929C8.76204 48.645 9.37256 48.3711 10.1353 48.3711C10.8908 48.3711 11.4404 48.6683 11.7842 49.2627H11.8057V45.8574H12.6865V54ZM11.8057 51.5132V50.7021C11.8057 50.2581 11.6589 49.8822 11.3652 49.5742C11.0716 49.2663 10.6992 49.1123 10.248 49.1123C9.71094 49.1123 9.28841 49.3092 8.98047 49.7031C8.67253 50.097 8.51855 50.6413 8.51855 51.3359C8.51855 51.9697 8.66536 52.471 8.95898 52.8398C9.25618 53.2051 9.65365 53.3877 10.1514 53.3877C10.6419 53.3877 11.0394 53.2104 11.3438 52.856C11.6517 52.5015 11.8057 52.0539 11.8057 51.5132ZM16.7686 54.1289C15.9557 54.1289 15.3058 53.8729 14.8188 53.3608C14.3354 52.8452 14.0938 52.1631 14.0938 51.3145C14.0938 50.3906 14.3462 49.6691 14.8511 49.1499C15.356 48.6307 16.0381 48.3711 16.8975 48.3711C17.7174 48.3711 18.3566 48.6235 18.8149 49.1284C19.2769 49.6333 19.5078 50.3333 19.5078 51.2285C19.5078 52.1058 19.259 52.8094 18.7612 53.3394C18.2671 53.8657 17.6029 54.1289 16.7686 54.1289ZM16.833 49.1123C16.2673 49.1123 15.8197 49.3057 15.4902 49.6924C15.1608 50.0755 14.9961 50.6055 14.9961 51.2822C14.9961 51.9339 15.1626 52.4478 15.4956 52.8237C15.8286 53.1997 16.2744 53.3877 16.833 53.3877C17.4023 53.3877 17.8392 53.2033 18.1436 52.8345C18.4515 52.4657 18.6055 51.9411 18.6055 51.2607C18.6055 50.5732 18.4515 50.0433 18.1436 49.6709C17.8392 49.2985 17.4023 49.1123 16.833 49.1123ZM21.8174 53.2051H21.7959V54H20.915V45.8574H21.7959V49.4668H21.8174C22.2507 48.7363 22.8844 48.3711 23.7188 48.3711C24.4242 48.3711 24.9756 48.6182 25.373 49.1123C25.7741 49.6029 25.9746 50.2617 25.9746 51.0889C25.9746 52.0091 25.7508 52.7467 25.3032 53.3018C24.8556 53.8532 24.2433 54.1289 23.4663 54.1289C22.7394 54.1289 22.1898 53.821 21.8174 53.2051ZM21.7959 50.9868V51.7549C21.7959 52.2096 21.9427 52.5964 22.2363 52.915C22.5335 53.2301 22.9095 53.3877 23.3643 53.3877C23.8978 53.3877 24.3149 53.1836 24.6157 52.7754C24.9201 52.3672 25.0723 51.7996 25.0723 51.0728C25.0723 50.4604 24.9308 49.9806 24.6479 49.6333C24.3651 49.286 23.9819 49.1123 23.4985 49.1123C22.9865 49.1123 22.5747 49.2913 22.2632 49.6494C21.9517 50.0039 21.7959 50.4497 21.7959 50.9868ZM31.8022 51.4702H27.9189C27.9333 52.0825 28.098 52.5552 28.4131 52.8882C28.7282 53.2212 29.1615 53.3877 29.7129 53.3877C30.3324 53.3877 30.9017 53.1836 31.4209 52.7754V53.6025C30.9375 53.9535 30.2983 54.1289 29.5034 54.1289C28.7264 54.1289 28.1159 53.88 27.6719 53.3823C27.2279 52.881 27.0059 52.1774 27.0059 51.2715C27.0059 50.4157 27.2476 49.7192 27.731 49.1821C28.2179 48.6414 28.8213 48.3711 29.541 48.3711C30.2607 48.3711 30.8175 48.6038 31.2114 49.0693C31.6053 49.5348 31.8022 50.1812 31.8022 51.0083V51.4702ZM30.8999 50.7236C30.8963 50.2152 30.7728 49.8195 30.5293 49.5366C30.2894 49.2537 29.9546 49.1123 29.5249 49.1123C29.1095 49.1123 28.7568 49.2609 28.4668 49.5581C28.1768 49.8553 27.9977 50.2438 27.9297 50.7236H30.8999ZM41.5938 54H40.4927L38.7202 51.0513C38.6665 50.9618 38.6074 50.8346 38.543 50.6699H38.5215C38.4857 50.7523 38.4248 50.8794 38.3389 51.0513L36.5127 54H35.4062L37.9844 50.1274L35.6104 46.2979H36.7168L38.2905 49.0049C38.3944 49.1839 38.4857 49.363 38.5645 49.542H38.5859C38.7005 49.3057 38.8008 49.1195 38.8867 48.9834L40.5249 46.2979H41.5615L39.1392 50.1167L41.5938 54ZM42.7646 54V46.2979H44.8916C47.6058 46.2979 48.9629 47.5493 48.9629 50.0522C48.9629 51.241 48.5851 52.1971 47.8296 52.9204C47.0776 53.6401 46.0697 54 44.8057 54H42.7646ZM43.667 47.1143V53.1836H44.8164C45.8262 53.1836 46.6121 52.9132 47.1743 52.3726C47.7365 51.8319 48.0176 51.0656 48.0176 50.0737C48.0176 48.1007 46.9684 47.1143 44.8701 47.1143H43.667Z" fill="#0D1F30"/>
<path d="M71.9199 47.1143H68.9121V49.7783H71.6943V50.5894H68.9121V54H68.0098V46.2979H71.9199V47.1143ZM73.7139 47.1035C73.5563 47.1035 73.422 47.0498 73.311 46.9424C73.2 46.835 73.1445 46.6989 73.1445 46.5342C73.1445 46.3695 73.2 46.2334 73.311 46.126C73.422 46.015 73.5563 45.9595 73.7139 45.9595C73.875 45.9595 74.0111 46.015 74.1221 46.126C74.2367 46.2334 74.2939 46.3695 74.2939 46.5342C74.2939 46.6917 74.2367 46.826 74.1221 46.937C74.0111 47.048 73.875 47.1035 73.7139 47.1035ZM74.1436 54H73.2627V48.5H74.1436V54ZM80.6211 53.5596C80.6211 55.5791 79.6543 56.5889 77.7207 56.5889C77.0404 56.5889 76.446 56.46 75.9375 56.2021V55.3213C76.557 55.665 77.1478 55.8369 77.71 55.8369C79.0635 55.8369 79.7402 55.1172 79.7402 53.6777V53.0762H79.7188C79.2998 53.778 78.6696 54.1289 77.8281 54.1289C77.1442 54.1289 76.5928 53.8854 76.1738 53.3984C75.7585 52.9079 75.5508 52.2508 75.5508 51.4272C75.5508 50.4927 75.7746 49.7497 76.2222 49.1982C76.6733 48.6468 77.2892 48.3711 78.0698 48.3711C78.811 48.3711 79.3607 48.6683 79.7188 49.2627H79.7402V48.5H80.6211V53.5596ZM79.7402 51.5132V50.7021C79.7402 50.2653 79.5916 49.8911 79.2944 49.5796C79.0008 49.2681 78.6338 49.1123 78.1934 49.1123C77.6491 49.1123 77.223 49.311 76.915 49.7085C76.6071 50.1024 76.4531 50.6556 76.4531 51.3682C76.4531 51.9805 76.5999 52.471 76.8936 52.8398C77.1908 53.2051 77.5828 53.3877 78.0698 53.3877C78.564 53.3877 78.965 53.2122 79.2729 52.8613C79.5845 52.5104 79.7402 52.061 79.7402 51.5132ZM90.2139 54H89.333V50.8418C89.333 50.2331 89.2381 49.7926 89.0483 49.5205C88.8621 49.2484 88.547 49.1123 88.103 49.1123C87.7271 49.1123 87.4066 49.2842 87.1416 49.6279C86.8802 49.9717 86.7495 50.3835 86.7495 50.8633V54H85.8687V50.7344C85.8687 49.653 85.4515 49.1123 84.6172 49.1123C84.2305 49.1123 83.9118 49.2752 83.6611 49.6011C83.4105 49.9233 83.2852 50.3441 83.2852 50.8633V54H82.4043V48.5H83.2852V49.3701H83.3066C83.6969 48.7041 84.2663 48.3711 85.0146 48.3711C85.3906 48.3711 85.7183 48.4767 85.9976 48.688C86.2769 48.8957 86.4684 49.1696 86.5723 49.5098C86.9805 48.7507 87.5892 48.3711 88.3984 48.3711C89.6087 48.3711 90.2139 49.1177 90.2139 50.6108V54ZM95.8159 54H94.9351V53.1406H94.9136C94.5304 53.7995 93.9665 54.1289 93.2217 54.1289C92.6738 54.1289 92.2441 53.9839 91.9326 53.6938C91.6247 53.4038 91.4707 53.0189 91.4707 52.5391C91.4707 51.5114 92.0758 50.9134 93.2861 50.7451L94.9351 50.5142C94.9351 49.5796 94.5573 49.1123 93.8018 49.1123C93.1393 49.1123 92.5413 49.3379 92.0078 49.7891V48.8867C92.5485 48.543 93.1715 48.3711 93.877 48.3711C95.1696 48.3711 95.8159 49.055 95.8159 50.4229V54ZM94.9351 51.2178L93.6084 51.4004C93.2002 51.4577 92.8923 51.5597 92.6846 51.7065C92.4769 51.8498 92.373 52.1058 92.373 52.4746C92.373 52.7432 92.4679 52.9634 92.6577 53.1353C92.8511 53.3035 93.1071 53.3877 93.4258 53.3877C93.8626 53.3877 94.2225 53.2355 94.5054 52.9312C94.7918 52.6232 94.9351 52.2347 94.9351 51.7656V51.2178Z" fill="#0D1F30"/>
</svg>
