<svg width="53" height="50" viewBox="0 0 53 50" fill="none" xmlns="http://www.w3.org/2000/svg">
<path d="M43.2584 0H9.63766C4.63853 0 0.585938 4.0526 0.585938 9.05172V40.9483C0.585938 45.9474 4.63853 50 9.63766 50H43.2584C48.2575 50 52.3101 45.9474 52.3101 40.9483V9.05172C52.3101 4.0526 48.2575 0 43.2584 0Z" fill="#00DA7E"/>
<path d="M25.9436 30.9281H18.2302L16.2388 36.6781C16.2158 36.8678 16.0959 36.9626 15.8789 36.9626H12.2582C12.0168 36.9626 11.9328 36.8441 12.0061 36.607L18.9931 15.8548C19.1905 15.223 19.2879 14.5642 19.2819 13.9022C19.278 13.873 19.2809 13.8433 19.2904 13.8154C19.2998 13.7874 19.3156 13.7621 19.3364 13.7412C19.3573 13.7204 19.3826 13.7046 19.4106 13.6952C19.4385 13.6857 19.4682 13.6828 19.4974 13.6867H24.5664C24.713 13.6867 24.797 13.7471 24.8207 13.8635L32.6397 36.6436C32.713 36.8591 32.6526 36.9626 32.4587 36.9626H28.4048C28.3298 36.9671 28.2552 36.9489 28.1906 36.9105C28.1261 36.8721 28.0745 36.8151 28.0427 36.7471L25.9436 30.9281ZM19.0923 27.0488H25.1009C24.9565 26.732 22.2539 18.0122 22.0599 17.2772H22.0255L19.0923 27.0488ZM36.9608 17.9971C36.621 18.0116 36.2817 17.9579 35.963 17.839C35.6443 17.7202 35.3526 17.5387 35.1052 17.3053C34.8631 17.0591 34.6749 16.7653 34.5524 16.4426C34.43 16.1198 34.376 15.775 34.394 15.4303C34.378 15.0811 34.4346 14.7324 34.5604 14.4063C34.6862 14.0802 34.8783 13.7838 35.1246 13.5359C35.374 13.2985 35.6684 13.1133 35.9904 12.9911C36.3123 12.869 36.6555 12.8124 36.9996 12.8247C37.3444 12.8067 37.6891 12.8607 38.0119 12.9831C38.3347 13.1055 38.6285 13.2938 38.8746 13.5359C39.1102 13.7897 39.2928 14.088 39.4116 14.4133C39.5304 14.7386 39.583 15.0843 39.5664 15.4303C39.5844 15.775 39.5304 16.1198 39.408 16.4426C39.2855 16.7653 39.0973 17.0591 38.8552 17.3053C38.6014 17.5409 38.3031 17.7234 37.9778 17.8422C37.6525 17.961 37.3067 18.0137 36.9608 17.9971ZM34.825 36.6393V20.01C34.8192 19.9707 34.8227 19.9307 34.8351 19.893C34.8476 19.8553 34.8687 19.821 34.8968 19.793C34.9248 19.7649 34.9591 19.7438 34.9968 19.7313C35.0345 19.7189 35.0746 19.7154 35.1138 19.7212H38.8466C38.8858 19.7159 38.9257 19.7196 38.9631 19.7323C39.0006 19.7449 39.0347 19.766 39.0626 19.794C39.0906 19.8219 39.1117 19.856 39.1243 19.8935C39.1369 19.9309 39.1407 19.9708 39.1354 20.01V36.6738C39.1412 36.7131 39.1377 36.7532 39.1253 36.7908C39.1128 36.8285 39.0917 36.8628 39.0636 36.8908C39.0356 36.9189 39.0013 36.94 38.9636 36.9525C38.9259 36.9649 38.8859 36.9684 38.8466 36.9626H35.1483C35.1044 36.9687 35.0597 36.9645 35.0177 36.9504C34.9758 36.9363 34.9376 36.9127 34.9063 36.8814C34.875 36.85 34.8513 36.8119 34.8372 36.7699C34.8231 36.7279 34.819 36.6832 34.825 36.6393Z" fill="#FFFDEF"/>
</svg>
