<svg width="128" height="128" viewBox="0 0 128 128" fill="none" xmlns="http://www.w3.org/2000/svg">
<path d="M117.571 3L108.487 18.0197C100.677 15.4887 89.0505 15.9841 81.7363 18.0197L72.9859 3.21231C58.6155 30.0547 62.6827 47.0185 73.6478 55.4525C71.9701 56.5016 70.2425 57.6547 68.4566 58.9202C22.7522 22.4574 -18.3939 63.5244 8.5983 100.216H8.80645C13.6479 107.239 19.2262 111.585 25.2499 113.858C33.7838 117.076 42.5634 116.152 51.2097 114.928C59.8561 113.704 68.3151 112.168 76.3786 112.742C84.4422 113.317 92.5057 115.386 99.8865 123.437C104.919 128.924 112.067 123.016 106.073 117.163C96.9767 108.28 87.2355 104.845 77.6608 104.167C68.0861 103.488 58.9069 105.387 50.5936 106.565C42.2803 107.743 34.937 108.267 28.6302 105.886C25.6704 104.77 22.7896 103.014 20.013 100.225H113.72C118.149 84.5887 118.62 68.0453 113.582 57.6089C128.715 49.7119 134.801 31.0663 117.571 3.00833V3ZM89.471 43.3884C79.8297 48.0384 75.4545 44.271 73.5812 36.4947C83.0434 30.625 88.6758 35.3374 89.471 43.3884ZM101.506 43.3884C102.301 35.3374 107.933 30.6208 117.396 36.4947C115.522 44.271 111.143 48.0426 101.506 43.3884Z" fill="#FF66A2"/>
</svg>
