<svg width="39" height="39" viewBox="0 0 39 39" fill="none" xmlns="http://www.w3.org/2000/svg">
<path d="M38.7071 31.7071C39.0976 31.3166 39.0976 30.6834 38.7071 30.2929L32.3431 23.9289C31.9526 23.5384 31.3195 23.5384 30.9289 23.9289C30.5384 24.3195 30.5384 24.9526 30.9289 25.3431L36.5858 31L30.9289 36.6569C30.5384 37.0474 30.5384 37.6805 30.9289 38.0711C31.3195 38.4616 31.9526 38.4616 32.3431 38.0711L38.7071 31.7071ZM4.50411 0.909464C4.42277 1.80422 4.29723 2.78507 4.16206 3.83744C4.02774 4.88315 3.88464 5.99414 3.77358 7.12063C3.55236 9.36442 3.44986 11.7408 3.81372 13.9151C4.17918 16.0989 5.02943 18.1602 6.77934 19.6645C8.53011 21.1697 11.0446 22 14.5 22V20C11.3554 20 9.36155 19.247 8.08316 18.148C6.8039 17.0482 6.10415 15.4844 5.78628 13.5849C5.46681 11.6759 5.54764 9.51058 5.76393 7.31687C5.87161 6.22461 6.0108 5.14289 6.14576 4.09224C6.27985 3.04827 6.41057 2.02911 6.49589 1.09054L4.50411 0.909464ZM14.5 22C16.6035 22 18.171 21.7294 19.1814 21.1418C19.7091 20.8349 20.1355 20.4114 20.357 19.8523C20.5795 19.2911 20.5469 18.7157 20.383 18.1981C20.0719 17.2156 19.2425 16.2818 18.2743 15.4827C17.2754 14.6582 16.002 13.8737 14.6133 13.2202C11.8706 11.9295 8.47149 11.0555 5.66783 11.5795C4.23877 11.8466 2.91552 12.4884 1.95798 13.6717C1.00254 14.8525 0.5 16.4627 0.5 18.5H2.5C2.5 16.7873 2.91933 15.6631 3.51273 14.9298C4.10401 14.1991 4.95655 13.7471 6.0353 13.5455C8.24726 13.132 11.1919 13.8205 13.7617 15.0298C15.0292 15.6263 16.1543 16.3261 17.0011 17.0251C17.8786 17.7494 18.3422 18.3782 18.4763 18.8019C18.5351 18.9874 18.5133 19.0761 18.4977 19.1154C18.4812 19.157 18.4208 19.2705 18.176 19.4129C17.6415 19.7237 16.5215 20 14.5 20V22ZM0.5 18.5C0.5 22.6742 2.68941 25.6176 5.89869 27.6286C9.06401 29.6121 13.2715 30.7317 17.541 31.3642C26.0756 32.6286 35.3482 32 38 32V30C35.1518 30 26.1744 30.6214 17.834 29.3858C13.666 28.7683 9.77974 27.7004 6.96068 25.9339C4.18559 24.1949 2.5 21.8258 2.5 18.5H0.5Z" fill="white"/>
</svg>
