<svg width="1920" height="1080" viewBox="0 0 1920 1080" fill="none" xmlns="http://www.w3.org/2000/svg">
<path d="M595.332 -108.4C496.374 -348.11 288.813 -396.378 197.402 -390.548L-85 1314H1977C1962.61 1287.57 1282.66 1179.92 1295.5 946.74C1308.28 714.539 945.417 668.09 820.553 543.339C683.913 406.821 719.028 191.237 595.332 -108.4Z" stroke="#FF66A2" stroke-opacity="0.5" stroke-width="3"/>
<path d="M1880.42 754.808C1880.34 753.776 1865.17 725.446 1867.48 722.129M1867.48 722.129C1869.8 718.812 1872.61 724.289 1875.64 729.229C1878.66 734.168 1898.2 770.961 1917.96 749.521C1933.77 732.369 1932.64 715.347 1930.1 708.981C1928.82 706.145 1923.87 701.872 1914.36 707.467C1904.85 713.062 1893.01 711.285 1888.28 709.697C1898.27 707.89 1919.03 703.066 1922.16 698.225C1926.06 692.173 1930.38 687.906 1928.95 683.35C1927.52 678.795 1927.3 651.786 1928.88 645.933C1930.46 640.081 1929.23 628.751 1921.59 630.703C1913.95 632.655 1896.2 638.071 1882.92 668.313C1872.29 692.507 1870.86 708.846 1871.47 713.992C1870.08 715.93 1866.62 718.772 1863.98 714.632C1860.68 709.457 1869 706.406 1869.53 709.48C1870.05 712.554 1870.06 718.79 1860.37 714.941C1850.67 711.091 1830.55 682.665 1823.76 679.346C1816.97 676.028 1797.38 662.89 1788.71 664.93C1780.04 666.971 1776.57 665.968 1775.61 673.066C1774.66 680.165 1803.31 720.077 1806 721.147C1808.69 722.216 1808.42 734.194 1841.02 729.069C1867.1 724.968 1851.95 728.048 1841.11 730.101C1831.91 730.021 1813.56 731.624 1813.74 738.677C1813.98 747.493 1821.87 766.829 1833.49 771.814C1845.1 776.799 1857.63 780.405 1862.15 769.364C1866.67 758.322 1872.68 749.492 1867.48 722.129Z" stroke="#FEB0CD" stroke-width="3" stroke-linecap="round"/>
<path d="M386.31 358.14C408.144 342.14 455.91 309.24 472.31 305.64C492.81 301.14 492.31 304.14 482.31 314.64C472.31 325.14 449.311 336.14 446.811 347.14C444.311 358.14 449.811 365.64 426.811 372.14C403.811 378.64 393.811 393.14 366.811 382.64C339.811 372.14 378.31 355.64 374.31 366.64M374.31 366.64C370.31 377.64 348.81 377.64 337.31 372.14C325.81 366.64 302.31 339.64 304.31 331.64C306.31 323.64 305.311 312.14 308.811 314.64C312.311 317.14 321.811 328.14 325.811 325.64C329.811 323.14 307.809 312.64 304.31 294.14C300.811 275.64 300.811 265.14 294.811 259.14C288.811 253.14 298.811 246.64 308.811 259.14C318.811 271.64 363.31 327.64 366.811 347.14C369.611 362.74 372.977 366.64 374.31 366.64Z" stroke="#FEB0CD" stroke-width="3" stroke-linecap="round"/>
<path d="M1568.26 250.683C1581.09 240.849 1613.86 225.083 1642.26 240.683C1677.76 260.183 1653.76 265.183 1644.26 266.683C1634.76 268.183 1635.26 261.683 1606.26 272.683C1577.26 283.683 1563.26 275.683 1565.76 266.683C1567.35 260.961 1583.08 252.209 1596.9 240.683M1596.9 240.683C1604.82 234.078 1612.12 226.561 1615.76 218.183C1625.76 195.183 1629.26 157.183 1621.26 155.183C1613.26 153.183 1609.76 168.183 1602.76 171.683C1595.76 175.183 1583.26 176.183 1583.26 197.183C1583.26 213.983 1584.59 213.516 1585.26 211.183C1583.09 201.516 1574.56 185.783 1557.76 200.183C1536.76 218.183 1545.26 241.183 1557.76 238.683C1567.76 236.683 1588.02 239.183 1596.9 240.683Z" stroke="#FEB0CD" stroke-width="3" stroke-linecap="round"/>
<path d="M345.908 840.809C347.385 824.638 348.084 792.053 339.059 791.083C327.778 789.87 328.986 801.998 326.166 823.425C323.346 844.851 327.375 865.873 318.108 872.746C308.842 879.619 306.827 903.066 315.691 903.875C324.555 904.684 342.282 890.534 345.908 880.023C349.534 869.512 348.728 840.809 354.772 850.107C359.607 857.545 355.712 887.974 353.16 902.258C352.086 911.287 355.255 927.808 376.528 921.663C403.119 913.982 408.76 906.301 407.551 899.428C406.342 892.555 396.673 876.384 375.722 873.15C354.772 869.916 416.012 890.13 421.652 881.64C427.293 873.15 451.467 850.915 452.675 844.043C453.884 837.17 452.273 827.468 438.171 829.085C424.07 830.702 387.003 833.936 366.456 851.32M366.456 851.32C350.018 865.227 360.547 855.901 366.456 851.32Z" stroke="#FEB0CD" stroke-width="3" stroke-linecap="round"/>
<path d="M1077.83 1083.82C1081.67 1081.49 1090.03 1078.22 1092.83 1083.82C1096.33 1090.82 1086.83 1094.82 1077.83 1089.32C1068.83 1083.82 1015.33 1052.82 1013.83 1050.32C1012.33 1047.82 999.833 1024.32 1016.83 1018.82C1033.83 1013.32 1062.33 1009.32 1068.33 1025.32C1073.13 1038.12 1072.33 1039.32 1071.33 1038.32C1075.33 1029.99 1090.33 1014.02 1118.33 1016.82C1153.33 1020.32 1144.83 1038.32 1141.33 1044.82C1137.83 1051.32 1112.83 1069.32 1106.33 1065.82C1099.83 1062.32 1138.83 1034.32 1150.33 1029.82C1161.83 1025.32 1179.33 1001.32 1176.33 992.819C1173.33 984.319 1167.33 972.819 1149.33 976.819C1131.33 980.819 1139.83 987.319 1111.83 986.819C1083.83 986.319 1079.33 1010.32 1085.33 1010.32C1091.33 1010.32 1096.33 998.819 1081.33 992.819C1066.33 986.819 1042.83 998.819 1036.33 1006.32" stroke="#FEB0CD" stroke-width="3" stroke-linecap="round"/>
</svg>
