<svg width="31" height="31" viewBox="0 0 31 31" fill="none" xmlns="http://www.w3.org/2000/svg">
<path d="M28.4167 6.2641V21.622C28.4167 22.8749 27.3962 24.0245 26.1433 24.1795L25.7429 24.2312C23.6246 24.5154 20.6408 25.3937 18.2383 26.4012C17.3987 26.7499 16.4688 26.117 16.4688 25.1999V7.23285C16.4688 6.75493 16.74 6.31577 17.1662 6.08327C19.53 4.80452 23.1079 3.66785 25.5363 3.46118H25.6137C27.1637 3.46118 28.4167 4.7141 28.4167 6.2641Z" fill="#FDFAF8"/>
<path d="M13.8298 6.08327C11.466 4.80452 7.88807 3.66785 5.45974 3.46118H5.36932C3.81932 3.46118 2.56641 4.7141 2.56641 6.2641V21.622C2.56641 22.8749 3.58682 24.0245 4.83974 24.1795L5.24016 24.2312C7.35849 24.5154 10.3422 25.3937 12.7447 26.4012C13.5843 26.7499 14.5143 26.117 14.5143 25.1999V7.23285C14.5143 6.74201 14.256 6.31577 13.8298 6.08327ZM6.45432 9.99701H9.36057C9.89016 9.99701 10.3293 10.4362 10.3293 10.9658C10.3293 11.5083 9.89016 11.9345 9.36057 11.9345H6.45432C5.92474 11.9345 5.48557 11.5083 5.48557 10.9658C5.48557 10.4362 5.92474 9.99701 6.45432 9.99701ZM10.3293 15.8095H6.45432C5.92474 15.8095 5.48557 15.3833 5.48557 14.8408C5.48557 14.3112 5.92474 13.872 6.45432 13.872H10.3293C10.8589 13.872 11.2981 14.3112 11.2981 14.8408C11.2981 15.3833 10.8589 15.8095 10.3293 15.8095Z" fill="#FDFAF8"/>
</svg>
