<svg width="89" height="89" viewBox="0 0 89 89" fill="none" xmlns="http://www.w3.org/2000/svg">
<circle cx="44.5" cy="44.5" r="43.5" fill="#FDFAF8" stroke="#FF66A2" stroke-width="2"/>
<path d="M15.931 31.54V53H11.233V31.54H15.931ZM19.904 44.271H14.423V40.327H19.672C20.5227 40.327 21.1703 40.124 21.615 39.718C22.0597 39.312 22.282 38.7223 22.282 37.949C22.282 37.195 22.0597 36.6247 21.615 36.238C21.1703 35.8513 20.5227 35.658 19.672 35.658H14.742V31.54H20.165C22.3303 31.54 24.022 32.0717 25.24 33.135C26.4773 34.1983 27.096 35.6483 27.096 37.485C27.096 38.7417 26.7867 39.805 26.168 40.675C25.5493 41.545 24.6503 42.1637 23.471 42.531V42.125C24.7277 42.3957 25.6847 42.9563 26.342 43.807C27.0187 44.6577 27.357 45.75 27.357 47.084C27.357 48.3407 27.0767 49.4137 26.516 50.303C25.9747 51.1923 25.1627 51.869 24.08 52.333C23.0167 52.7777 21.7117 53 20.165 53H14.742V48.882H19.904C20.774 48.882 21.4313 48.6887 21.876 48.302C22.3207 47.896 22.543 47.2967 22.543 46.504C22.543 45.7693 22.311 45.2183 21.847 44.851C21.4023 44.4643 20.7547 44.271 19.904 44.271ZM29.1851 45.721C29.1851 44.1937 29.5235 42.8597 30.2001 41.719C30.8961 40.559 31.8435 39.66 33.0421 39.022C34.2601 38.384 35.6425 38.065 37.1891 38.065C38.7358 38.065 40.1085 38.384 41.3071 39.022C42.5058 39.66 43.4435 40.559 44.1201 41.719C44.8161 42.8597 45.1641 44.1937 45.1641 45.721C45.1641 47.2483 44.8161 48.5823 44.1201 49.723C43.4435 50.8637 42.5058 51.753 41.3071 52.391C40.1085 53.029 38.7358 53.348 37.1891 53.348C35.6425 53.348 34.2601 53.029 33.0421 52.391C31.8435 51.753 30.8961 50.8637 30.2001 49.723C29.5235 48.5823 29.1851 47.2483 29.1851 45.721ZM33.6801 45.692C33.6801 46.4267 33.8251 47.0743 34.1151 47.635C34.4245 48.1763 34.8401 48.6017 35.3621 48.911C35.8841 49.201 36.4931 49.346 37.1891 49.346C37.8851 49.346 38.4941 49.201 39.0161 48.911C39.5381 48.6017 39.9441 48.1763 40.2341 47.635C40.5241 47.0743 40.6691 46.4267 40.6691 45.692C40.6691 44.9573 40.5241 44.3193 40.2341 43.778C39.9441 43.2367 39.5381 42.821 39.0161 42.531C38.4941 42.2217 37.8851 42.067 37.1891 42.067C36.4931 42.067 35.8841 42.2217 35.3621 42.531C34.8401 42.821 34.4245 43.2367 34.1151 43.778C33.8251 44.3193 33.6801 44.9573 33.6801 45.692ZM46.9703 45.721C46.9703 44.1937 47.3086 42.8597 47.9853 41.719C48.6813 40.559 49.6286 39.66 50.8273 39.022C52.0453 38.384 53.4276 38.065 54.9743 38.065C56.521 38.065 57.8936 38.384 59.0923 39.022C60.291 39.66 61.2286 40.559 61.9053 41.719C62.6013 42.8597 62.9493 44.1937 62.9493 45.721C62.9493 47.2483 62.6013 48.5823 61.9053 49.723C61.2286 50.8637 60.291 51.753 59.0923 52.391C57.8936 53.029 56.521 53.348 54.9743 53.348C53.4276 53.348 52.0453 53.029 50.8273 52.391C49.6286 51.753 48.6813 50.8637 47.9853 49.723C47.3086 48.5823 46.9703 47.2483 46.9703 45.721ZM51.4653 45.692C51.4653 46.4267 51.6103 47.0743 51.9003 47.635C52.2096 48.1763 52.6253 48.6017 53.1473 48.911C53.6693 49.201 54.2783 49.346 54.9743 49.346C55.6703 49.346 56.2793 49.201 56.8013 48.911C57.3233 48.6017 57.7293 48.1763 58.0193 47.635C58.3093 47.0743 58.4543 46.4267 58.4543 45.692C58.4543 44.9573 58.3093 44.3193 58.0193 43.778C57.7293 43.2367 57.3233 42.821 56.8013 42.531C56.2793 42.2217 55.6703 42.067 54.9743 42.067C54.2783 42.067 53.6693 42.2217 53.1473 42.531C52.6253 42.821 52.2096 43.2367 51.9003 43.778C51.6103 44.3193 51.4653 44.9573 51.4653 45.692ZM70.0044 53H65.5384V31.134H70.0044V43.72L74.7024 38.5H80.2994L74.8474 44.242L80.1254 53H74.9634L71.7154 47.577L70.0044 49.375V53Z" fill="#FF66A2"/>
</svg>
