<svg width="73" height="73" viewBox="0 0 73 73" fill="none" xmlns="http://www.w3.org/2000/svg">
<circle cx="36.7598" cy="36.045" r="34.83" fill="#FDFAF8" fill-opacity="0.5" stroke="#FF66A2" stroke-width="2.43"/>
<path d="M13.6219 25.4377V42.8203H9.81654V25.4377H13.6219ZM16.8401 35.7498H12.4004V32.5552H16.6521C17.3412 32.5552 17.8658 32.3908 18.226 32.0619C18.5861 31.733 18.7662 31.2554 18.7662 30.629C18.7662 30.0183 18.5861 29.5563 18.226 29.2431C17.8658 28.9299 17.3412 28.7733 16.6521 28.7733H12.6588V25.4377H17.0515C18.8054 25.4377 20.1756 25.8684 21.1622 26.7297C22.1645 27.591 22.6656 28.7655 22.6656 30.2532C22.6656 31.2711 22.415 32.1324 21.9139 32.8371C21.4128 33.5418 20.6846 34.0429 19.7293 34.3404V34.0116C20.7472 34.2308 21.5224 34.6849 22.0548 35.374C22.6029 36.063 22.877 36.9478 22.877 38.0284C22.877 39.0463 22.6499 39.9154 22.1958 40.6357C21.7573 41.3561 21.0996 41.9042 20.2226 42.28C19.3613 42.6402 18.3043 42.8203 17.0515 42.8203H12.6588V39.4847H16.8401C17.5448 39.4847 18.0772 39.3281 18.4374 39.0149C18.7976 38.6861 18.9776 38.2006 18.9776 37.5586C18.9776 36.9635 18.7897 36.5172 18.4139 36.2196C18.0537 35.9064 17.5291 35.7498 16.8401 35.7498ZM24.3578 36.9243C24.3578 35.6872 24.6318 34.6066 25.1799 33.6827C25.7437 32.7431 26.511 32.0149 27.4819 31.4981C28.4685 30.9814 29.5882 30.723 30.841 30.723C32.0938 30.723 33.2057 30.9814 34.1766 31.4981C35.1475 32.0149 35.907 32.7431 36.4551 33.6827C37.0189 34.6066 37.3008 35.6872 37.3008 36.9243C37.3008 38.1615 37.0189 39.242 36.4551 40.1659C35.907 41.0899 35.1475 41.8102 34.1766 42.327C33.2057 42.8438 32.0938 43.1022 30.841 43.1022C29.5882 43.1022 28.4685 42.8438 27.4819 42.327C26.511 41.8102 25.7437 41.0899 25.1799 40.1659C24.6318 39.242 24.3578 38.1615 24.3578 36.9243ZM27.9987 36.9008C27.9987 37.4959 28.1162 38.0205 28.3511 38.4747C28.6016 38.9131 28.9383 39.2577 29.3611 39.5082C29.784 39.7431 30.2772 39.8606 30.841 39.8606C31.4048 39.8606 31.8981 39.7431 32.3209 39.5082C32.7437 39.2577 33.0726 38.9131 33.3075 38.4747C33.5424 38.0205 33.6598 37.4959 33.6598 36.9008C33.6598 36.3058 33.5424 35.789 33.3075 35.3505C33.0726 34.912 32.7437 34.5753 32.3209 34.3404C31.8981 34.0899 31.4048 33.9646 30.841 33.9646C30.2772 33.9646 29.784 34.0899 29.3611 34.3404C28.9383 34.5753 28.6016 34.912 28.3511 35.3505C28.1162 35.789 27.9987 36.3058 27.9987 36.9008ZM38.7637 36.9243C38.7637 35.6872 39.0378 34.6066 39.5859 33.6827C40.1497 32.7431 40.917 32.0149 41.8879 31.4981C42.8745 30.9814 43.9942 30.723 45.247 30.723C46.4998 30.723 47.6116 30.9814 48.5826 31.4981C49.5535 32.0149 50.313 32.7431 50.8611 33.6827C51.4249 34.6066 51.7067 35.6872 51.7067 36.9243C51.7067 38.1615 51.4249 39.242 50.8611 40.1659C50.313 41.0899 49.5535 41.8102 48.5826 42.327C47.6116 42.8438 46.4998 43.1022 45.247 43.1022C43.9942 43.1022 42.8745 42.8438 41.8879 42.327C40.917 41.8102 40.1497 41.0899 39.5859 40.1659C39.0378 39.242 38.7637 38.1615 38.7637 36.9243ZM42.4047 36.9008C42.4047 37.4959 42.5221 38.0205 42.757 38.4747C43.0076 38.9131 43.3443 39.2577 43.7671 39.5082C44.1899 39.7431 44.6832 39.8606 45.247 39.8606C45.8107 39.8606 46.304 39.7431 46.7269 39.5082C47.1497 39.2577 47.4785 38.9131 47.7134 38.4747C47.9483 38.0205 48.0658 37.4959 48.0658 36.9008C48.0658 36.3058 47.9483 35.789 47.7134 35.3505C47.4785 34.912 47.1497 34.5753 46.7269 34.3404C46.304 34.0899 45.8107 33.9646 45.247 33.9646C44.6832 33.9646 44.1899 34.0899 43.7671 34.3404C43.3443 34.5753 43.0076 34.912 42.757 35.3505C42.5221 35.789 42.4047 36.3058 42.4047 36.9008ZM57.4214 42.8203H53.8039V25.1089H57.4214V35.3035L61.2268 31.0753H65.7604L61.3442 35.7263L65.6194 42.8203H61.4382L58.8073 38.4277L57.4214 39.8841V42.8203Z" fill="#FF66A2"/>
</svg>
