<svg width="73" height="73" viewBox="0 0 73 73" fill="none" xmlns="http://www.w3.org/2000/svg">
<circle cx="36.7598" cy="36.045" r="34.83" stroke="#FDFAF8" stroke-width="2.43"/>
<path d="M13.6219 25.4375V42.8201H9.81654V25.4375H13.6219ZM16.8401 35.7496H12.4004V32.5549H16.6521C17.3412 32.5549 17.8658 32.3905 18.226 32.0616C18.5861 31.7328 18.7662 31.2552 18.7662 30.6288C18.7662 30.018 18.5861 29.556 18.226 29.2428C17.8658 28.9296 17.3412 28.773 16.6521 28.773H12.6588V25.4375H17.0515C18.8054 25.4375 20.1756 25.8681 21.1622 26.7294C22.1645 27.5907 22.6656 28.7652 22.6656 30.2529C22.6656 31.2708 22.415 32.1321 21.9139 32.8368C21.4128 33.5415 20.6846 34.0426 19.7293 34.3402V34.0113C20.7472 34.2306 21.5224 34.6847 22.0548 35.3737C22.6029 36.0628 22.877 36.9476 22.877 38.0281C22.877 39.046 22.6499 39.9151 22.1958 40.6355C21.7573 41.3559 21.0996 41.904 20.2226 42.2798C19.3613 42.64 18.3043 42.8201 17.0515 42.8201H12.6588V39.4845H16.8401C17.5448 39.4845 18.0772 39.3279 18.4374 39.0147C18.7976 38.6858 18.9776 38.2004 18.9776 37.5583C18.9776 36.9632 18.7897 36.5169 18.4139 36.2194C18.0537 35.9062 17.5291 35.7496 16.8401 35.7496ZM24.3578 36.9241C24.3578 35.6869 24.6318 34.6064 25.1799 33.6825C25.7437 32.7429 26.511 32.0147 27.4819 31.4979C28.4685 30.9811 29.5882 30.7227 30.841 30.7227C32.0938 30.7227 33.2057 30.9811 34.1766 31.4979C35.1475 32.0147 35.907 32.7429 36.4551 33.6825C37.0189 34.6064 37.3008 35.6869 37.3008 36.9241C37.3008 38.1612 37.0189 39.2418 36.4551 40.1657C35.907 41.0896 35.1475 41.81 34.1766 42.3268C33.2057 42.8436 32.0938 43.1019 30.841 43.1019C29.5882 43.1019 28.4685 42.8436 27.4819 42.3268C26.511 41.81 25.7437 41.0896 25.1799 40.1657C24.6318 39.2418 24.3578 38.1612 24.3578 36.9241ZM27.9987 36.9006C27.9987 37.4957 28.1162 38.0203 28.3511 38.4744C28.6016 38.9129 28.9383 39.2574 29.3611 39.508C29.784 39.7429 30.2772 39.8603 30.841 39.8603C31.4048 39.8603 31.8981 39.7429 32.3209 39.508C32.7437 39.2574 33.0726 38.9129 33.3075 38.4744C33.5424 38.0203 33.6598 37.4957 33.6598 36.9006C33.6598 36.3055 33.5424 35.7887 33.3075 35.3502C33.0726 34.9118 32.7437 34.5751 32.3209 34.3402C31.8981 34.0896 31.4048 33.9643 30.841 33.9643C30.2772 33.9643 29.784 34.0896 29.3611 34.3402C28.9383 34.5751 28.6016 34.9118 28.3511 35.3502C28.1162 35.7887 27.9987 36.3055 27.9987 36.9006ZM38.7637 36.9241C38.7637 35.6869 39.0378 34.6064 39.5859 33.6825C40.1497 32.7429 40.917 32.0147 41.8879 31.4979C42.8745 30.9811 43.9942 30.7227 45.247 30.7227C46.4998 30.7227 47.6116 30.9811 48.5826 31.4979C49.5535 32.0147 50.313 32.7429 50.8611 33.6825C51.4249 34.6064 51.7067 35.6869 51.7067 36.9241C51.7067 38.1612 51.4249 39.2418 50.8611 40.1657C50.313 41.0896 49.5535 41.81 48.5826 42.3268C47.6116 42.8436 46.4998 43.1019 45.247 43.1019C43.9942 43.1019 42.8745 42.8436 41.8879 42.3268C40.917 41.81 40.1497 41.0896 39.5859 40.1657C39.0378 39.2418 38.7637 38.1612 38.7637 36.9241ZM42.4047 36.9006C42.4047 37.4957 42.5221 38.0203 42.757 38.4744C43.0076 38.9129 43.3443 39.2574 43.7671 39.508C44.1899 39.7429 44.6832 39.8603 45.247 39.8603C45.8107 39.8603 46.304 39.7429 46.7269 39.508C47.1497 39.2574 47.4785 38.9129 47.7134 38.4744C47.9483 38.0203 48.0658 37.4957 48.0658 36.9006C48.0658 36.3055 47.9483 35.7887 47.7134 35.3502C47.4785 34.9118 47.1497 34.5751 46.7269 34.3402C46.304 34.0896 45.8107 33.9643 45.247 33.9643C44.6832 33.9643 44.1899 34.0896 43.7671 34.3402C43.3443 34.5751 43.0076 34.9118 42.757 35.3502C42.5221 35.7887 42.4047 36.3055 42.4047 36.9006ZM57.4214 42.8201H53.8039V25.1086H57.4214V35.3033L61.2268 31.0751H65.7604L61.3442 35.7261L65.6194 42.8201H61.4382L58.8073 38.4274L57.4214 39.8838V42.8201Z" fill="#FDFAF8"/>
</svg>
