<svg width="78" height="73" viewBox="0 0 78 73" fill="none" xmlns="http://www.w3.org/2000/svg">
<path d="M42.671 71C34.2984 71 28.3192 61.6231 26.3761 56.9346C26.5072 57.0035 26.6397 57.0734 26.7736 57.1442C26.1691 56.0079 25.5016 54.6852 24.8031 53.2192C19.9392 43.0116 13.5673 25.8516 16.4402 16.1981C20.5471 2.39808 17.765 2 23.4616 2C28.0189 2 29.9531 8.28077 30.3505 11.4212C30.3505 12.7481 30.7479 15.0038 32.3377 13.4115C34.2096 11.5366 40.7838 14.2538 41.5401 20.8976C43.6092 18.6226 45.8063 16.7599 48.1027 15.5346C59.4429 9.48385 64.9275 14.075 66.2523 17.1269C66.5614 19.3827 66.7292 24.6904 64.9275 27.875C62.6754 31.8558 71.5515 32.2538 71.5515 35.7038C71.5515 37.5912 69.7277 41.4243 66.2103 45.2916C67.1145 45.1835 67.9727 45.125 68.7694 45.125C76.0822 45.125 76.409 47.8231 75.7908 50.3C75.6142 53.2192 73.5347 57.4693 71.2865 59.7212C70.4916 60.5173 70.7566 62.2423 70.7566 64.2327C70.5358 66.0462 66.6232 70.9735 60.6882 68.7442C54.7531 66.515 35.6055 60.0821 26.7736 57.1442C35.7538 61.8965 50.9207 71 42.671 71Z" fill="#FF66A2" fill-opacity="0.5"/>
<path d="M2 45.6558C2.79487 42.6038 5.68292 37.8004 10.8761 43.0019C16.0693 48.2035 23.3733 54.4577 26.3761 56.9346M26.3761 56.9346C28.3192 61.6231 34.2984 71 42.671 71C50.9207 71 35.7538 61.8966 26.7736 57.1442M26.3761 56.9346C26.5072 57.0035 26.6397 57.0734 26.7736 57.1442M26.3761 56.9346C21.8277 53.9712 12.0684 48.0973 9.41882 48.3096C6.10685 48.575 3.98718 50.1673 4.38462 52.9539M26.7736 57.1442C26.1691 56.0079 25.5016 54.6852 24.8031 53.2192M26.7736 57.1442C35.6055 60.0821 54.7531 66.515 60.6882 68.7442C66.6232 70.9735 70.5358 66.0462 70.7566 64.2327C70.7566 62.2423 70.4916 60.5173 71.2865 59.7212C73.5347 57.4693 75.6141 53.2192 75.7908 50.3C76.409 47.8231 76.0822 45.125 68.7694 45.125C59.6284 45.125 42.4061 52.8212 40.2864 54.9442C38.1668 57.0673 42.671 58.6596 54.0642 53.8827C65.4574 49.1058 71.5515 39.1538 71.5515 35.7038C71.5515 32.2538 62.6754 31.8558 64.9275 27.875C66.7292 24.6904 66.5614 19.3827 66.2523 17.1269C64.9275 14.075 59.4429 9.48385 48.1027 15.5346C36.7625 21.5854 27.8445 43.1788 24.8031 53.2192M24.8031 53.2192C19.9392 43.0116 13.5673 25.8516 16.4402 16.1981C20.5471 2.39808 17.765 2 23.4616 2C28.0189 2 29.9531 8.28077 30.3505 11.4212C30.3505 12.7481 30.7479 15.0038 32.3377 13.4115C34.3249 11.4212 41.6112 14.6058 41.6112 22.1692C41.6112 28.22 30.4058 45.3904 24.8031 53.2192Z" stroke="#FF66A2" stroke-width="3" stroke-linecap="round"/>
</svg>
