<svg width="105" height="98" viewBox="0 0 105 98" fill="none" xmlns="http://www.w3.org/2000/svg">
<path d="M57.5105 96C46.0829 96 37.9221 83.2256 35.2701 76.8385C35.449 76.9323 35.6298 77.0275 35.8126 77.124C34.9875 75.5759 34.0766 73.7741 33.1231 71.7769C26.4846 57.8709 17.7878 34.4935 21.7089 21.3423C27.3142 2.54231 23.5171 2 31.2922 2C37.5122 2 40.1522 10.5564 40.6946 14.8346C40.6946 16.6423 41.237 19.7154 43.4068 17.5462C45.9618 14.9919 54.9347 18.6935 55.9669 27.7445C58.7909 24.6452 61.7896 22.1077 64.9239 20.4385C80.4018 12.1954 87.8876 18.45 89.6957 22.6077C90.1176 25.6808 90.3466 32.9115 87.8876 37.25C84.8137 42.6731 96.9283 43.2154 96.9283 47.9154C96.9283 50.4865 94.4392 55.7085 89.6384 60.977C90.8725 60.8297 92.0438 60.75 93.1312 60.75C103.112 60.75 103.558 64.4256 102.714 67.8C102.473 71.7769 99.6353 77.5669 96.5667 80.6346C95.4818 81.7192 95.8434 84.0692 95.8434 86.7808C95.5421 89.2513 90.202 95.9639 82.1014 92.9269C74.0009 89.89 47.867 81.1263 35.8126 77.124C48.0694 83.5982 68.7702 96 57.5105 96Z" fill="#F8D1E0" fill-opacity="0.8"/>
<path d="M2 61.4731C3.0849 57.3154 7.02668 50.7715 14.1147 57.8577C21.2026 64.9438 31.1716 73.4641 35.2701 76.8385M35.2701 76.8385C37.9221 83.2256 46.0829 96 57.5105 96C68.7702 96 48.0694 83.5982 35.8126 77.124M35.2701 76.8385C35.449 76.9323 35.6298 77.0275 35.8126 77.124M35.2701 76.8385C29.0621 72.8013 15.742 64.7992 12.1257 65.0885C7.60529 65.45 4.71224 67.6192 5.25469 71.4154M35.8126 77.124C34.9875 75.5759 34.0766 73.7741 33.1231 71.7769M35.8126 77.124C47.867 81.1263 74.0009 89.89 82.1014 92.9269C90.202 95.9638 95.5421 89.2513 95.8434 86.7808C95.8434 84.0692 95.4818 81.7192 96.5667 80.6346C99.6353 77.5669 102.473 71.7769 102.714 67.8C103.558 64.4256 103.112 60.75 93.1312 60.75C80.6549 60.75 57.1488 71.2346 54.2558 74.1269C51.3627 77.0192 57.5105 79.1885 73.0606 72.6808C88.6108 66.1731 96.9283 52.6154 96.9283 47.9154C96.9283 43.2154 84.8137 42.6731 87.8876 37.25C90.3466 32.9115 90.1176 25.6808 89.6957 22.6077C87.8876 18.45 80.4018 12.1954 64.9239 20.4385C49.4461 28.6815 37.2743 58.0987 33.1231 71.7769M33.1231 71.7769C26.4846 57.8709 17.7878 34.4935 21.7089 21.3423C27.3142 2.54231 23.5171 2 31.2922 2C37.5122 2 40.1522 10.5564 40.6946 14.8346C40.6946 16.6423 41.237 19.7154 43.4068 17.5462C46.1191 14.8346 56.0639 19.1731 56.0639 29.4769C56.0639 37.72 40.7701 61.1115 33.1231 71.7769Z" stroke="#FC9BC1" stroke-width="3"/>
</svg>
