<svg width="80" height="75" viewBox="0 0 80 75" fill="none" xmlns="http://www.w3.org/2000/svg">
<path d="M43.7703 73C35.1713 73 29.0305 63.3513 27.0349 58.5269C27.1695 58.5978 27.3056 58.6697 27.4431 58.7426C26.8223 57.5733 26.1368 56.2124 25.4194 54.7038C20.4241 44.2004 13.88 26.543 16.8305 16.6096C21.0483 2.40961 18.1911 2 24.0416 2C28.7221 2 30.7085 8.46282 31.1167 11.6942C31.1167 13.0596 31.5249 15.3808 33.1576 13.7423C35.0801 11.813 41.832 14.6089 42.6088 21.4453C44.7338 19.1044 46.9902 17.1877 49.3487 15.9269C60.9954 9.70077 66.6283 14.425 67.9889 17.5654C68.3063 19.8865 68.4787 25.3481 66.6283 28.625C64.3152 32.7212 73.4312 33.1308 73.4312 36.6808C73.4312 38.6228 71.5582 42.5671 67.9458 46.5464C68.8744 46.4352 69.7557 46.375 70.574 46.375C78.0845 46.375 78.4201 49.1513 77.7851 51.7C77.6037 54.7038 75.4681 59.0771 73.1591 61.3942C72.3428 62.2135 72.6149 63.9885 72.6149 66.0365C72.3881 67.9026 68.3698 72.9727 62.2744 70.6788C56.1789 68.385 36.5138 61.7656 27.4431 58.7426C36.6661 63.6327 52.2429 73 43.7703 73Z" fill="#FF66A2" fill-opacity="0.25"/>
<path d="M2 46.9212C2.81636 43.7808 5.78245 38.8381 11.116 44.1904C16.4495 49.5427 23.9509 55.9782 27.0349 58.5269M27.0349 58.5269C29.0305 63.3513 35.1713 73 43.7703 73C52.2429 73 36.6661 63.6327 27.4431 58.7426M27.0349 58.5269C27.1695 58.5978 27.3056 58.6697 27.4431 58.7426M27.0349 58.5269C22.3636 55.4776 12.3405 49.4335 9.61933 49.6519C6.21784 49.925 4.04089 51.5635 4.44907 54.4308M27.4431 58.7426C26.8223 57.5733 26.1368 56.2124 25.4194 54.7038M27.4431 58.7426C36.5138 61.7656 56.1789 68.385 62.2744 70.6789C68.3698 72.9727 72.3881 67.9026 72.6149 66.0365C72.6149 63.9885 72.3428 62.2135 73.1591 61.3942C75.4681 59.0771 77.6037 54.7039 77.7851 51.7C78.4201 49.1513 78.0845 46.375 70.574 46.375C61.1859 46.375 43.4981 54.2942 41.3212 56.4788C39.1442 58.6635 43.7703 60.3019 55.4714 55.3865C67.1725 50.4712 73.4312 40.2308 73.4312 36.6808C73.4312 33.1308 64.3152 32.7212 66.6283 28.625C68.4787 25.3481 68.3063 19.8865 67.9889 17.5654C66.6283 14.425 60.9954 9.70077 49.3487 15.9269C37.702 22.1531 28.543 44.3724 25.4194 54.7038M25.4194 54.7038C20.4241 44.2004 13.88 26.543 16.8305 16.6096C21.0483 2.40961 18.1911 2 24.0416 2C28.7221 2 30.7086 8.46282 31.1167 11.6942C31.1167 13.0596 31.5249 15.3808 33.1576 13.7423C35.1985 11.6942 42.6818 14.9712 42.6818 22.7538C42.6818 28.98 31.1735 46.6481 25.4194 54.7038Z" stroke="#FF66A2" stroke-opacity="0.5" stroke-width="3"/>
</svg>
