<svg width="53" height="52" viewBox="0 0 53 52" fill="none" xmlns="http://www.w3.org/2000/svg">
<path d="M26 50C39.8071 50 51 38.8071 51 25C51 11.1929 39.8071 0 26 0C12.1929 0 1 11.1929 1 25C1 38.8071 12.1929 50 26 50Z" fill="#00DA7E"/>
<path d="M26.5821 25.4213C27.3133 24.7791 27.9068 24.1741 28.6896 23.8443C29.1483 23.6522 29.6558 23.3798 30.0917 23.8013C30.5275 24.2228 30.2522 24.6844 30.1203 25.1375C29.8566 26.0464 29.5899 26.9582 29.349 27.8729C29.2774 28.1395 29.1569 28.4463 29.4293 28.6843C29.7017 28.9223 30.0429 28.7646 30.3125 28.627C31.3103 28.1166 32.1217 27.5116 31.9956 26.1697C31.921 25.3668 31.9956 24.5124 32.7382 23.9389C33.0249 23.7124 33.3719 23.4486 33.736 23.7009C34.1002 23.9533 33.8392 24.2744 33.736 24.5611C33.3837 25.6425 33.2856 26.7905 33.4493 27.9159C33.4866 28.1682 33.4493 28.5324 33.6815 28.6241C33.9998 28.7445 34.1432 28.3374 34.3468 28.1711C34.5503 28.0048 34.688 27.7696 34.8657 27.5747C35.336 27.0614 35.594 26.6514 34.969 25.9489C34.2435 25.1375 34.4614 23.549 35.1754 22.7949C35.3715 22.5591 35.6366 22.3907 35.9334 22.3136C36.2302 22.2364 36.5437 22.2543 36.8298 22.3648C37.452 22.5913 37.6556 23.1275 37.6728 23.7554C37.69 24.4608 37.3861 25.0801 37.1481 25.7625C37.842 25.9374 38.2721 25.5475 38.662 25.126C39.6025 24.1052 40.6921 23.4572 42.1372 23.6092C43.1838 23.7182 43.783 24.283 43.7286 25.1059C43.708 25.2882 43.644 25.4628 43.5419 25.6152C43.4399 25.7676 43.3028 25.8933 43.1422 25.9818C42.9815 26.0703 42.802 26.1189 42.6186 26.1237C42.4353 26.1284 42.2535 26.0891 42.0885 26.0091C41.7616 25.8342 41.8017 25.6737 42.0885 25.5073C42.1984 25.4597 42.2867 25.3728 42.336 25.2636C42.3853 25.1543 42.3921 25.0307 42.3551 24.9167C42.31 24.7803 42.2248 24.6606 42.1108 24.5732C41.9968 24.4858 41.8592 24.4346 41.7157 24.4264C41.3209 24.3677 40.9183 24.4576 40.586 24.6787C39.5366 25.3496 38.9488 27.2134 39.4391 28.3488C39.7258 29.0313 40.2591 29.1603 40.8125 28.6757C41.1179 28.3831 41.348 28.0212 41.4835 27.6205C41.5644 27.3709 41.6792 27.1336 41.8247 26.9152C42.0856 26.5682 42.4469 26.2614 42.8999 26.4478C43.3529 26.6342 43.1207 27.1044 43.0461 27.4227C42.7795 28.5266 42.553 29.6019 43.4877 30.5309C43.5124 30.5534 43.5321 30.5809 43.5456 30.6115C43.5591 30.6421 43.5661 30.6752 43.5661 30.7086C43.5661 30.7421 43.5591 30.7752 43.5456 30.8058C43.5321 30.8364 43.5124 30.8638 43.4877 30.8864C43.4312 30.9418 43.3585 30.9778 43.2801 30.9892C43.2017 31.0005 43.1218 30.9866 43.0519 30.9495C42.7277 30.8358 42.4291 30.6592 42.1733 30.4299C41.9174 30.2006 41.7093 29.9231 41.5609 29.6133C41.4663 29.4069 41.4261 29.1058 41.0906 29.4011C40.8012 29.6977 40.4145 29.8799 40.0015 29.9142C39.5885 29.9484 39.177 29.8324 38.8427 29.5875C38.0284 29.0657 37.7359 28.2829 37.8105 27.3453C37.8248 27.1618 37.8477 26.984 37.8707 26.7718C36.9331 26.8492 36.1704 27.0586 35.6342 27.9187C35.1691 28.6295 34.5358 29.2146 33.7905 29.6219C32.8127 30.1954 32.4314 30.0176 32.1676 28.9424C32.1303 28.7933 32.0988 28.6556 32.0414 28.3689C31.4063 28.9377 30.6791 29.3943 29.891 29.7194C28.4086 30.247 27.5484 29.5674 27.7663 27.999C27.9007 27.1935 28.1228 26.4051 28.4286 25.6478C28.4975 25.4615 28.6638 25.2321 28.4286 25.0744C28.2566 24.9654 28.076 25.1489 27.9412 25.2636C27.0265 26.0407 26.2208 26.9009 25.957 28.1309C25.8958 28.4936 25.7918 28.8478 25.6474 29.1861C25.5603 29.4123 25.4001 29.6028 25.1923 29.7275C24.9845 29.8522 24.741 29.9039 24.5004 29.8742C23.9843 29.7825 24.3169 29.2549 24.1736 28.9309C23.623 29.2176 23.0955 29.5044 22.5507 29.7538C22.1579 29.9345 21.6446 30.0778 21.3579 29.7395C20.879 29.166 20.555 29.3639 20.0504 29.685C19.3135 30.1552 18.4676 29.9545 17.7996 29.1775C17.4612 28.7847 17.2863 28.8105 16.9594 29.1603C16.2976 29.8431 15.5112 30.393 14.6427 30.7803C11.2334 32.4003 7.88156 30.5825 7.69232 26.8263C7.46867 22.5856 9.2722 19.2108 12.8162 16.8567C13.274 16.5387 13.7967 16.3262 14.3466 16.2345C14.8964 16.1428 15.4597 16.1741 15.996 16.3262C16.6251 16.4907 17.1779 16.8679 17.5605 17.3937C17.9431 17.9195 18.1319 18.5615 18.0949 19.2108C18.0531 19.8336 17.8141 20.4269 17.4125 20.9048C17.0109 21.3827 16.4676 21.7203 15.8613 21.8687C15.6577 21.9146 15.3939 21.9949 15.2878 21.8028C15.1272 21.5447 15.3824 21.3698 15.5573 21.2293C16.515 20.4208 16.6784 19.3685 16.4978 18.2129C16.3258 17.1348 15.5573 16.699 14.5337 17.0918C13.799 17.3967 13.1509 17.8784 12.647 18.4939C10.9537 20.365 9.89492 22.7233 9.62201 25.2321C9.48401 26.3152 9.67693 27.4147 10.1754 28.3861C10.9037 29.7768 12.1395 30.3932 13.6649 30.0319C14.8719 29.7302 15.9797 29.1196 16.8792 28.26C17.0052 28.1282 17.1036 27.9725 17.1686 27.8021C17.2336 27.6318 17.2639 27.4501 17.2576 27.2679C17.467 25.0887 19.3508 23.4544 21.4554 23.6149C21.963 23.6307 22.4466 23.8352 22.8116 24.1884C22.9851 24.3506 23.1039 24.5627 23.1517 24.7954C23.1994 25.0281 23.1738 25.2698 23.0783 25.4873C22.8747 25.9805 22.4216 26.141 21.9084 26.1152C21.8011 26.1269 21.6925 26.1118 21.5925 26.0712C21.4924 26.0307 21.4039 25.966 21.3349 25.883C21.1457 25.5962 21.507 25.5762 21.6217 25.4328C21.9428 25.0314 21.7622 24.5525 21.2116 24.4407C20.9392 24.3795 20.6555 24.3919 20.3895 24.4766C20.1234 24.5612 19.8847 24.7151 19.6977 24.9224C19.3079 25.3183 19.0173 25.8009 18.8499 26.3307C18.6824 26.8604 18.6428 27.4223 18.7343 27.9704C18.7916 28.3947 18.9723 28.8105 19.4397 28.9366C19.907 29.0628 20.211 28.713 20.4977 28.3861C20.71 28.1149 20.8633 27.8024 20.9479 27.4686C21.0165 27.1549 21.1868 26.8726 21.4324 26.6657C21.7192 26.445 22.0346 26.2643 22.3729 26.4622C22.7112 26.66 22.5048 26.9926 22.5048 27.2679C22.5048 27.7725 21.96 28.3603 22.6338 28.7474C22.9951 28.9538 24.4517 27.8557 24.5664 27.3396C24.747 26.5166 24.8933 25.6851 25.0567 24.8593C25.0768 24.5683 25.187 24.2907 25.3721 24.0651C25.5114 23.9063 25.6958 23.7937 25.9007 23.7425C26.1057 23.6913 26.3214 23.7038 26.519 23.7784C26.952 23.959 26.7369 24.3518 26.6939 24.6844C26.671 24.8823 26.6366 25.083 26.5821 25.4213ZM36.2678 23.5117C36.1933 23.311 36.0729 23.116 35.8263 23.1418C35.5797 23.1676 35.508 23.3941 35.4879 23.6063C35.4564 23.9205 35.4994 24.2377 35.6135 24.5322C35.7276 24.8266 35.9095 25.09 36.1445 25.3009C36.4153 24.7428 36.4595 24.1016 36.2678 23.5117Z" fill="#FFFDEF"/>
</svg>
