<svg width="128" height="128" viewBox="0 0 128 128" fill="none" xmlns="http://www.w3.org/2000/svg">
<path fill-rule="evenodd" clip-rule="evenodd" d="M0.223049 75.8948V117.01C0.223049 119.65 2.36585 121.793 5.00608 121.793H15.2992C16.4319 121.793 17.5279 121.391 18.3921 120.659C19.2564 119.927 19.8327 118.912 20.0184 117.794L22.5439 102.661H105.45L107.969 117.794C108.155 118.912 108.731 119.927 109.595 120.659C110.459 121.391 111.555 121.793 112.688 121.793H122.988C124.256 121.793 125.473 121.289 126.37 120.392C127.267 119.495 127.771 118.278 127.771 117.01V75.8948C127.771 68.3977 125.552 61.0683 121.393 54.8303L116.419 47.3688C115.975 46.7045 115.595 45.9999 115.284 45.2643H121.623C122.512 45.2642 123.383 45.0166 124.139 44.5491C124.894 44.0816 125.505 43.4128 125.902 42.6176L127.496 39.429C127.86 38.7002 128.032 37.8907 127.995 37.077C127.958 36.2633 127.715 35.4725 127.287 34.7795C126.859 34.0865 126.261 33.5142 125.55 33.117C124.839 32.7197 124.038 32.5106 123.223 32.5095H112.465L110.488 22.6501C109.886 19.6473 108.433 16.8813 106.301 14.6828C104.169 12.4842 101.449 10.9462 98.4665 10.2525C89.1428 8.08416 77.6508 7 63.9968 7C50.3365 7 38.8508 8.08416 29.5271 10.2525C26.5431 10.9451 23.8219 12.4827 21.6888 14.6813C19.5558 16.8799 18.1013 19.6465 17.4994 22.6501L15.5224 32.5095H4.7765C3.962 32.5106 3.16128 32.7197 2.45022 33.117C1.73917 33.5142 1.14134 34.0865 0.713392 34.7795C0.285447 35.4725 0.0415646 36.2633 0.00485984 37.077C-0.0318449 37.8907 0.139843 38.7002 0.503653 39.429L2.098 42.6176C2.49448 43.4118 3.10415 44.08 3.85877 44.5474C4.61339 45.0148 5.48319 45.263 6.37084 45.2643H12.7163C12.4047 45.9998 12.0246 46.7044 11.5812 47.3688L6.60042 54.8303C2.44238 61.0674 0.223049 68.395 0.223049 75.8948ZM102.012 45.2898C102.452 47.4955 103.181 49.6334 104.181 51.648H23.813C24.8142 49.6391 25.5412 47.5027 25.9813 45.2898L30.0118 25.1564C30.1307 24.5544 30.4209 23.9996 30.8473 23.5584C31.2738 23.1173 31.8185 22.8085 32.416 22.6692C40.6939 20.756 51.2421 19.7548 63.9968 19.7548C76.7516 19.7548 87.2997 20.7496 95.5776 22.6756C96.1755 22.8133 96.7209 23.1207 97.1485 23.5607C97.5761 24.0007 97.8677 24.5548 97.9882 25.1564L102.012 45.2898ZM22.5439 83.5285C25.0809 83.5285 27.5141 82.5207 29.3081 80.7267C31.1021 78.9327 32.1099 76.4995 32.1099 73.9624C32.1099 71.4254 31.1021 68.9922 29.3081 67.1982C27.5141 65.4042 25.0809 64.3964 22.5439 64.3964C20.0068 64.3964 17.5736 65.4042 15.7796 67.1982C13.9856 68.9922 12.9778 71.4254 12.9778 73.9624C12.9778 76.4995 13.9856 78.9327 15.7796 80.7267C17.5736 82.5207 20.0068 83.5285 22.5439 83.5285ZM115.016 73.9624C115.016 76.4995 114.008 78.9327 112.214 80.7267C110.42 82.5207 107.987 83.5285 105.45 83.5285C102.913 83.5285 100.48 82.5207 98.6855 80.7267C96.8915 78.9327 95.8837 76.4995 95.8837 73.9624C95.8837 71.4254 96.8915 68.9922 98.6855 67.1982C100.48 65.4042 102.913 64.3964 105.45 64.3964C107.987 64.3964 110.42 65.4042 112.214 67.1982C114.008 68.9922 115.016 71.4254 115.016 73.9624Z" fill="#FF66A2"/>
</svg>
