<svg width="34" height="34" viewBox="0 0 34 34" fill="none" xmlns="http://www.w3.org/2000/svg">
<path fill-rule="evenodd" clip-rule="evenodd" d="M29.7489 11.3332C29.7489 8.98596 27.8461 7.08316 25.4989 7.08316H14.1655C11.8183 7.08316 9.91553 8.98596 9.91553 11.3332V28.3332C9.91553 30.6804 11.8183 32.5832 14.1655 32.5832H25.4989C27.8461 32.5832 29.7489 30.6804 29.7489 28.3332V11.3332ZM26.9155 11.3332C26.9155 10.5508 26.2813 9.91649 25.4989 9.91649H14.1655C13.3831 9.91649 12.7489 10.5508 12.7489 11.3332V28.3332C12.7489 29.1156 13.3831 29.7498 14.1655 29.7498H25.4989C26.2813 29.7498 26.9155 29.1156 26.9155 28.3332V11.3332Z" fill="#FFFFFF"/>
<path d="M8.5 4.24999H22.6667C23.4491 4.24999 24.0833 3.61572 24.0833 2.83332C24.0833 2.05093 23.4491 1.41666 22.6667 1.41666H8.5C6.1528 1.41666 4.25 3.31945 4.25 5.66666V25.5C4.25 26.2824 4.88427 26.9167 5.66667 26.9167C6.44906 26.9167 7.08333 26.2824 7.08333 25.5V5.66666C7.08333 4.88426 7.7176 4.24999 8.5 4.24999Z" fill="#FFFFFF"/>
</svg>