<svg width="35" height="35" viewBox="0 0 35 35" fill="none" xmlns="http://www.w3.org/2000/svg">
<path fill-rule="evenodd" clip-rule="evenodd" d="M30.6237 11.666C30.6237 9.24978 28.665 7.29102 26.2487 7.29102H14.582C12.1658 7.29102 10.207 9.24978 10.207 11.666V29.166C10.207 31.5823 12.1658 33.541 14.582 33.541H26.2487C28.665 33.541 30.6237 31.5823 30.6237 29.166V11.666ZM27.707 11.666C27.707 10.8606 27.0541 10.2077 26.2487 10.2077H14.582C13.7766 10.2077 13.1237 10.8606 13.1237 11.666V29.166C13.1237 29.9715 13.7766 30.6243 14.582 30.6243H26.2487C27.0541 30.6243 27.707 29.9715 27.707 29.166V11.666Z" fill="#FF66A2"/>
<path d="M8.75 4.37565H23.3333C24.1388 4.37565 24.7917 3.72273 24.7917 2.91732C24.7917 2.11191 24.1388 1.45898 23.3333 1.45898H8.75C6.33376 1.45898 4.375 3.41774 4.375 5.83398V26.2507C4.375 27.0561 5.02792 27.709 5.83333 27.709C6.63874 27.709 7.29167 27.0561 7.29167 26.2507V5.83398C7.29167 5.02858 7.94459 4.37565 8.75 4.37565Z" fill="#FF66A2"/>
</svg>
