<svg width="279" height="80" viewBox="0 0 279 80" fill="none" xmlns="http://www.w3.org/2000/svg">
<path d="M25.1264 56.5455V74H23.081L13.5696 60.2955H13.3991V74H11.2855V56.5455H13.331L22.8764 70.2841H23.0469V56.5455H25.1264ZM32.9354 74.3068C32.1058 74.3068 31.353 74.1506 30.6768 73.8381C30.0007 73.5199 29.4638 73.0625 29.0661 72.4659C28.6683 71.8636 28.4695 71.1364 28.4695 70.2841C28.4695 69.5341 28.6172 68.9261 28.9126 68.4602C29.2081 67.9886 29.603 67.6193 30.0973 67.3523C30.5916 67.0852 31.1371 66.8864 31.7337 66.7557C32.3359 66.6193 32.9411 66.5114 33.549 66.4318C34.3445 66.3295 34.9893 66.2528 35.4837 66.2017C35.9837 66.1449 36.3473 66.0511 36.5746 65.9205C36.8075 65.7898 36.924 65.5625 36.924 65.2386V65.1705C36.924 64.3295 36.6939 63.6761 36.2337 63.2102C35.7791 62.7443 35.0888 62.5114 34.1626 62.5114C33.2024 62.5114 32.4496 62.7216 31.9041 63.142C31.3587 63.5625 30.9751 64.0114 30.7536 64.4886L28.8445 63.8068C29.1854 63.0114 29.6399 62.392 30.2081 61.9489C30.782 61.5 31.407 61.1875 32.0831 61.0114C32.7649 60.8295 33.4354 60.7386 34.0945 60.7386C34.5149 60.7386 34.9979 60.7898 35.5433 60.892C36.0945 60.9886 36.6257 61.1903 37.1371 61.4972C37.6541 61.804 38.0831 62.267 38.424 62.8864C38.7649 63.5057 38.9354 64.3352 38.9354 65.375V74H36.924V72.2273H36.8217C36.6854 72.5114 36.4581 72.8153 36.1399 73.1392C35.8217 73.4631 35.3984 73.7386 34.87 73.9659C34.3416 74.1932 33.6967 74.3068 32.9354 74.3068ZM33.2422 72.5C34.0376 72.5 34.7081 72.3438 35.2536 72.0312C35.8047 71.7188 36.2195 71.3153 36.4979 70.821C36.782 70.3267 36.924 69.8068 36.924 69.2614V67.4205C36.8388 67.5227 36.6513 67.6165 36.3615 67.7017C36.0774 67.7812 35.7479 67.8523 35.3729 67.9148C35.0036 67.9716 34.6428 68.0227 34.2905 68.0682C33.9439 68.108 33.6626 68.142 33.4467 68.1705C32.924 68.2386 32.4354 68.3494 31.9808 68.5028C31.532 68.6506 31.1683 68.875 30.8899 69.1761C30.6172 69.4716 30.4808 69.875 30.4808 70.3864C30.4808 71.0852 30.7393 71.6136 31.2564 71.9716C31.7791 72.3239 32.4411 72.5 33.2422 72.5ZM48.2997 60.9091V62.6136H41.5156V60.9091H48.2997ZM43.4929 57.7727H45.5043V70.25C45.5043 70.8182 45.5866 71.2443 45.7514 71.5284C45.9219 71.8068 46.1378 71.9943 46.3991 72.0909C46.6662 72.1818 46.9474 72.2273 47.2429 72.2273C47.4645 72.2273 47.6463 72.2159 47.7884 72.1932C47.9304 72.1648 48.044 72.142 48.1293 72.125L48.5384 73.9318C48.402 73.983 48.2116 74.0341 47.9673 74.0852C47.723 74.142 47.4134 74.1705 47.0384 74.1705C46.4702 74.1705 45.9134 74.0483 45.3679 73.804C44.8281 73.5597 44.3793 73.1875 44.0213 72.6875C43.669 72.1875 43.4929 71.5568 43.4929 70.7955V57.7727ZM51.3253 74V60.9091H53.3366V74H51.3253ZM52.348 58.7273C51.956 58.7273 51.6179 58.5938 51.3338 58.3267C51.0554 58.0597 50.9162 57.7386 50.9162 57.3636C50.9162 56.9886 51.0554 56.6676 51.3338 56.4006C51.6179 56.1335 51.956 56 52.348 56C52.7401 56 53.0753 56.1335 53.3537 56.4006C53.6378 56.6676 53.7798 56.9886 53.7798 57.3636C53.7798 57.7386 53.6378 58.0597 53.3537 58.3267C53.0753 58.5938 52.7401 58.7273 52.348 58.7273ZM62.8501 60.9091V62.6136H55.7933V60.9091H62.8501ZM57.907 74V59.1023C57.907 58.3523 58.0831 57.7273 58.4354 57.2273C58.7876 56.7273 59.245 56.3523 59.8075 56.1023C60.37 55.8523 60.9638 55.7273 61.5888 55.7273C62.0831 55.7273 62.4865 55.767 62.799 55.8466C63.1115 55.9261 63.3445 56 63.4979 56.0682L62.9183 57.8068C62.8161 57.7727 62.674 57.7301 62.4922 57.679C62.3161 57.6278 62.0831 57.6023 61.7933 57.6023C61.1286 57.6023 60.6484 57.7699 60.353 58.1051C60.0632 58.4403 59.9183 58.9318 59.9183 59.5795V74H57.907Z" fill="#494949"/>
<path d="M125.133 74V56.5455H131.235C132.451 56.5455 133.454 56.7557 134.244 57.1761C135.034 57.5909 135.622 58.1506 136.008 58.8551C136.395 59.554 136.588 60.3295 136.588 61.1818C136.588 61.9318 136.454 62.5511 136.187 63.0398C135.926 63.5284 135.579 63.9148 135.147 64.1989C134.721 64.483 134.258 64.6932 133.758 64.8295V65C134.292 65.0341 134.829 65.2216 135.369 65.5625C135.909 65.9034 136.36 66.392 136.724 67.0284C137.088 67.6648 137.27 68.4432 137.27 69.3636C137.27 70.2386 137.071 71.0256 136.673 71.7244C136.275 72.4233 135.647 72.9773 134.789 73.3864C133.931 73.7955 132.815 74 131.44 74H125.133ZM127.247 72.125H131.44C132.821 72.125 133.801 71.858 134.38 71.3239C134.966 70.7841 135.258 70.1307 135.258 69.3636C135.258 68.7727 135.108 68.2273 134.806 67.7273C134.505 67.2216 134.076 66.8182 133.52 66.517C132.963 66.2102 132.304 66.0568 131.542 66.0568H127.247V72.125ZM127.247 64.2159H131.167C131.804 64.2159 132.377 64.0909 132.889 63.8409C133.406 63.5909 133.815 63.2386 134.116 62.7841C134.423 62.3295 134.576 61.7955 134.576 61.1818C134.576 60.4148 134.309 59.7642 133.775 59.2301C133.241 58.6903 132.395 58.4205 131.235 58.4205H127.247V64.2159ZM140.436 74V72.4659L146.197 66.1591C146.873 65.4205 147.43 64.7784 147.868 64.233C148.305 63.6818 148.629 63.1648 148.839 62.6818C149.055 62.1932 149.163 61.6818 149.163 61.1477C149.163 60.5341 149.015 60.0028 148.72 59.554C148.43 59.1051 148.032 58.7585 147.527 58.5142C147.021 58.2699 146.453 58.1477 145.822 58.1477C145.152 58.1477 144.566 58.2869 144.066 58.5653C143.572 58.8381 143.189 59.2216 142.916 59.7159C142.649 60.2102 142.515 60.7898 142.515 61.4545H140.504C140.504 60.4318 140.74 59.5341 141.211 58.7614C141.683 57.9886 142.325 57.3864 143.137 56.9545C143.956 56.5227 144.873 56.3068 145.89 56.3068C146.913 56.3068 147.819 56.5227 148.609 56.9545C149.399 57.3864 150.018 57.9687 150.467 58.7017C150.916 59.4347 151.14 60.25 151.14 61.1477C151.14 61.7898 151.024 62.4176 150.791 63.0312C150.564 63.6392 150.166 64.3182 149.598 65.0682C149.035 65.8125 148.254 66.7216 147.254 67.7955L143.333 71.9886V72.125H151.447V74H140.436ZM160.115 70.9318V59.6818H162.024V70.9318H160.115ZM155.444 66.2614V64.3523H166.694V66.2614H155.444Z" fill="#494949"/>
<path d="M230.955 74H228.739L235.148 56.5455H237.33L243.739 74H241.523L236.307 59.3068H236.17L230.955 74ZM231.773 67.1818H240.705V69.0568H231.773V67.1818ZM246.151 74V72.4659L251.912 66.1591C252.588 65.4205 253.145 64.7784 253.582 64.233C254.02 63.6818 254.344 63.1648 254.554 62.6818C254.77 62.1932 254.878 61.6818 254.878 61.1477C254.878 60.5341 254.73 60.0028 254.435 59.554C254.145 59.1051 253.747 58.7585 253.241 58.5142C252.736 58.2699 252.168 58.1477 251.537 58.1477C250.866 58.1477 250.281 58.2869 249.781 58.5653C249.287 58.8381 248.903 59.2216 248.631 59.7159C248.364 60.2102 248.23 60.7898 248.23 61.4545H246.219C246.219 60.4318 246.455 59.5341 246.926 58.7614C247.398 57.9886 248.04 57.3864 248.852 56.9545C249.67 56.5227 250.588 56.3068 251.605 56.3068C252.628 56.3068 253.534 56.5227 254.324 56.9545C255.114 57.3864 255.733 57.9687 256.182 58.7017C256.631 59.4347 256.855 60.25 256.855 61.1477C256.855 61.7898 256.739 62.4176 256.506 63.0312C256.278 63.6392 255.881 64.3182 255.312 65.0682C254.75 65.8125 253.969 66.7216 252.969 67.7955L249.048 71.9886V72.125H257.162V74H246.151Z" fill="#494949"/>
<rect x="1" y="1" width="73" height="44" rx="22" fill="#FDFAF8" stroke="#FF66A2" stroke-width="2"/>
<path d="M28.225 14.725V33H25.025V14.725H28.225ZM36.325 17.675H25.275V14.725H36.325V17.675ZM35.025 25.525H25.225V22.65H35.025V25.525ZM42.4096 33H39.2096V14.725H46.1846C48.2512 14.725 49.8596 15.225 51.0096 16.225C52.1762 17.225 52.7596 18.625 52.7596 20.425C52.7596 21.6417 52.4762 22.6833 51.9096 23.55C51.3596 24.4 50.5429 25.05 49.4596 25.5L52.9346 33H49.4346L46.3346 26.175H42.4096V33ZM42.4096 17.575V23.35H46.1846C47.2012 23.35 47.9929 23.0917 48.5596 22.575C49.1262 22.0583 49.4096 21.3417 49.4096 20.425C49.4096 19.5083 49.1262 18.8083 48.5596 18.325C47.9929 17.825 47.2012 17.575 46.1846 17.575H42.4096Z" fill="#FF66A2"/>
<rect x="103" y="1" width="73" height="44" rx="22" fill="#FDFAF8" stroke="#FF66A2" stroke-width="2"/>
<path d="M135.375 33H124.025V14.725H135.375V17.675H126.1L127.225 16.65V22.375H134.525V25.2H127.225V31.075L126.1 30.05H135.375V33ZM141.97 33H138.82V14.725H141.995L151.495 29.1H150.57V14.725H153.72V33H150.57L141.045 18.65H141.97V33Z" fill="#FF66A2"/>
<rect x="205" y="1" width="73" height="44" rx="22" fill="#FDFAF8" stroke="#FF66A2" stroke-width="2"/>
<path d="M240.375 33H229.025V14.725H240.375V17.675H231.1L232.225 16.65V22.375H239.525V25.2H232.225V31.075L231.1 30.05H240.375V33ZM242.77 19.825C242.77 18.7583 243.045 17.8167 243.595 17C244.145 16.1833 244.903 15.55 245.87 15.1C246.853 14.6333 247.987 14.4 249.27 14.4C250.503 14.4 251.57 14.6167 252.47 15.05C253.387 15.4833 254.095 16.1 254.595 16.9C255.112 17.7 255.387 18.65 255.42 19.75H252.22C252.187 18.9667 251.903 18.3583 251.37 17.925C250.837 17.475 250.12 17.25 249.22 17.25C248.237 17.25 247.445 17.475 246.845 17.925C246.262 18.3583 245.97 18.9583 245.97 19.725C245.97 20.375 246.145 20.8917 246.495 21.275C246.862 21.6417 247.428 21.9167 248.195 22.1L251.07 22.75C252.637 23.0833 253.803 23.6583 254.57 24.475C255.337 25.275 255.72 26.3583 255.72 27.725C255.72 28.8417 255.445 29.825 254.895 30.675C254.345 31.525 253.562 32.1833 252.545 32.65C251.545 33.1 250.37 33.325 249.02 33.325C247.737 33.325 246.612 33.1083 245.645 32.675C244.678 32.225 243.92 31.6 243.37 30.8C242.837 30 242.553 29.0583 242.52 27.975H245.72C245.737 28.7417 246.037 29.35 246.62 29.8C247.22 30.2333 248.028 30.45 249.045 30.45C250.112 30.45 250.953 30.2333 251.57 29.8C252.203 29.35 252.52 28.7583 252.52 28.025C252.52 27.3917 252.353 26.8917 252.02 26.525C251.687 26.1417 251.145 25.875 250.395 25.725L247.495 25.075C245.945 24.7417 244.77 24.1417 243.97 23.275C243.17 22.3917 242.77 21.2417 242.77 19.825Z" fill="#FF66A2"/>
</svg>
