<svg width="346" height="104" viewBox="0 0 346 104" fill="none" xmlns="http://www.w3.org/2000/svg">
<g clip-path="url(#clip0_2138_59)">
<path d="M327 56.2503C327 58.4605 326.122 60.5801 324.559 62.1429C322.996 63.7057 320.877 64.5837 318.667 64.5837H260.333C258.123 64.5837 256.004 63.7057 254.441 62.1429C252.878 60.5801 252 58.4605 252 56.2503V18.7503C252 16.5402 252.878 14.4206 254.441 12.8578C256.004 11.295 258.123 10.417 260.333 10.417H318.667C320.877 10.417 322.996 11.295 324.559 12.8578C326.122 14.4206 327 16.5402 327 18.7503V56.2503Z" fill="#C60A1D"/>
<path d="M252 25.0002H327V50.0002H252V25.0002Z" fill="#FFC400"/>
<path d="M270.75 35.417V41.667C270.75 43.3246 271.408 44.9143 272.581 46.0864C273.753 47.2585 275.342 47.917 277 47.917C278.658 47.917 280.247 47.2585 281.419 46.0864C282.592 44.9143 283.25 43.3246 283.25 41.667V35.417H270.75Z" fill="#EA596E"/>
<path d="M277 33.3335H283.25V39.5835H277V33.3335Z" fill="#F4A2B2"/>
<path d="M270.75 33.3335H277V39.5835H270.75V33.3335Z" fill="#DD2E44"/>
<path d="M277 33.3335C280.452 33.3335 283.25 31.9344 283.25 30.2085C283.25 28.4826 280.452 27.0835 277 27.0835C273.548 27.0835 270.75 28.4826 270.75 30.2085C270.75 31.9344 273.548 33.3335 277 33.3335Z" fill="#EA596E"/>
<path d="M277 30.2085C280.452 30.2085 283.25 29.5089 283.25 28.646C283.25 27.7831 280.452 27.0835 277 27.0835C273.548 27.0835 270.75 27.7831 270.75 28.646C270.75 29.5089 273.548 30.2085 277 30.2085Z" fill="#FFAC33"/>
<path d="M266.582 33.3335H268.665V47.9168H266.582V33.3335ZM285.332 33.3335H287.415V47.9168H285.332V33.3335Z" fill="#99AAB5"/>
<path d="M264.5 45.8336H270.75V47.9169H264.5V45.8336ZM283.25 45.8336H289.5V47.9169H283.25V45.8336ZM266.583 31.2502H268.667V33.3336H266.583V31.2502ZM285.333 31.2502H287.417V33.3336H285.333V31.2502Z" fill="#66757F"/>
<rect x="252" y="10.0002" width="75" height="15" fill="#C60A1D"/>
<rect x="252" y="50.0002" width="75" height="15" fill="#C60A1D"/>
</g>
<path d="M16 10.0002H96V65.4669H16V10.0002Z" fill="#ED2939"/>
<path d="M16 10.0002H69.3333V65.4669H16V10.0002Z" fill="white"/>
<path d="M16 10.0002H42.6667V65.4669H16V10.0002Z" fill="#002395"/>
<path d="M133 10.0002H213.343V64.994H133V10.0002Z" fill="white"/>
<path d="M169.154 42.9797V64.994H177.189V42.9797H213.343V31.9856H177.189V10.0002H169.154V31.9856H133V42.9797H169.154Z" fill="#CF142B"/>
<path d="M179.868 27.8015V10.0002H205.88L179.868 27.8015ZM179.868 47.1923V64.994H205.88L179.868 47.1923ZM166.474 47.1923V64.994H140.462L166.474 47.1923ZM166.474 27.8015V10.0002H140.462L166.474 27.8015ZM133 15.1123V28.331H152.316L133 15.1123ZM213.342 15.1123V28.331H194.027L213.342 15.1123ZM213.342 59.8819V46.6632H194.027L213.342 59.8819ZM133 59.8819V46.6632H152.316L133 59.8819Z" fill="#00247D"/>
<path d="M213.343 10.0002H208.88L182.142 28.331H186.604L213.385 10.0002M164.201 46.6621H159.738L133 64.9929H137.462L164.243 46.6621M155.312 28.3453H159.774L133 10.0002V13.0747L155.312 28.3453ZM191.017 46.6552H186.555L213.328 65.0002V61.9257L191.017 46.6552Z" fill="#CF142B"/>
<path d="M44.6264 80.5457V98.0002H42.581L33.0696 84.2957H32.8991V98.0002H30.7855V80.5457H32.831L42.3764 94.2843H42.5469V80.5457H44.6264ZM52.4354 98.3071C51.6058 98.3071 50.853 98.1508 50.1768 97.8383C49.5007 97.5201 48.9638 97.0627 48.5661 96.4662C48.1683 95.8639 47.9695 95.1366 47.9695 94.2843C47.9695 93.5343 48.1172 92.9264 48.4126 92.4605C48.7081 91.9889 49.103 91.6196 49.5973 91.3525C50.0916 91.0855 50.6371 90.8866 51.2337 90.7559C51.8359 90.6196 52.4411 90.5116 53.049 90.4321C53.8445 90.3298 54.4893 90.2531 54.9837 90.2019C55.4837 90.1451 55.8473 90.0514 56.0746 89.9207C56.3075 89.79 56.424 89.5627 56.424 89.2389V89.1707C56.424 88.3298 56.1939 87.6764 55.7337 87.2105C55.2791 86.7446 54.5888 86.5116 53.6626 86.5116C52.7024 86.5116 51.9496 86.7218 51.4041 87.1423C50.8587 87.5627 50.4751 88.0116 50.2536 88.4889L48.3445 87.8071C48.6854 87.0116 49.1399 86.3923 49.7081 85.9491C50.282 85.5002 50.907 85.1877 51.5831 85.0116C52.2649 84.8298 52.9354 84.7389 53.5945 84.7389C54.0149 84.7389 54.4979 84.79 55.0433 84.8923C55.5945 84.9889 56.1257 85.1906 56.6371 85.4974C57.1541 85.8042 57.5831 86.2673 57.924 86.8866C58.2649 87.5059 58.4354 88.3355 58.4354 89.3752V98.0002H56.424V96.2275H56.3217C56.1854 96.5116 55.9581 96.8156 55.6399 97.1394C55.3217 97.4633 54.8984 97.7389 54.37 97.9662C53.8416 98.1934 53.1967 98.3071 52.4354 98.3071ZM52.7422 96.5002C53.5376 96.5002 54.2081 96.344 54.7536 96.0315C55.3047 95.719 55.7195 95.3156 55.9979 94.8213C56.282 94.3269 56.424 93.8071 56.424 93.2616V91.4207C56.3388 91.523 56.1513 91.6167 55.8615 91.7019C55.5774 91.7815 55.2479 91.8525 54.8729 91.915C54.5036 91.9718 54.1428 92.023 53.7905 92.0684C53.4439 92.1082 53.1626 92.1423 52.9467 92.1707C52.424 92.2389 51.9354 92.3497 51.4808 92.5031C51.032 92.6508 50.6683 92.8752 50.3899 93.1764C50.1172 93.4718 49.9808 93.8752 49.9808 94.3866C49.9808 95.0855 50.2393 95.6139 50.7564 95.9718C51.2791 96.3241 51.9411 96.5002 52.7422 96.5002ZM67.7997 84.9093V86.6139H61.0156V84.9093H67.7997ZM62.9929 81.773H65.0043V94.2502C65.0043 94.8184 65.0866 95.2446 65.2514 95.5287C65.4219 95.8071 65.6378 95.9946 65.8991 96.0912C66.1662 96.1821 66.4474 96.2275 66.7429 96.2275C66.9645 96.2275 67.1463 96.2162 67.2884 96.1934C67.4304 96.165 67.544 96.1423 67.6293 96.1252L68.0384 97.9321C67.902 97.9832 67.7116 98.0343 67.4673 98.0855C67.223 98.1423 66.9134 98.1707 66.5384 98.1707C65.9702 98.1707 65.4134 98.0485 64.8679 97.8042C64.3281 97.5599 63.8793 97.1877 63.5213 96.6877C63.169 96.1877 62.9929 95.5571 62.9929 94.7957V81.773ZM70.8253 98.0002V84.9093H72.8366V98.0002H70.8253ZM71.848 82.7275C71.456 82.7275 71.1179 82.594 70.8338 82.3269C70.5554 82.0599 70.4162 81.7389 70.4162 81.3639C70.4162 80.9889 70.5554 80.6679 70.8338 80.4008C71.1179 80.1338 71.456 80.0002 71.848 80.0002C72.2401 80.0002 72.5753 80.1338 72.8537 80.4008C73.1378 80.6679 73.2798 80.9889 73.2798 81.3639C73.2798 81.7389 73.1378 82.0599 72.8537 82.3269C72.5753 82.594 72.2401 82.7275 71.848 82.7275ZM82.3501 84.9093V86.6139H75.2933V84.9093H82.3501ZM77.407 98.0002V83.1025C77.407 82.3525 77.5831 81.7275 77.9354 81.2275C78.2876 80.7275 78.745 80.3525 79.3075 80.1025C79.87 79.8525 80.4638 79.7275 81.0888 79.7275C81.5831 79.7275 81.9865 79.7673 82.299 79.8468C82.6115 79.9264 82.8445 80.0002 82.9979 80.0684L82.4183 81.8071C82.3161 81.773 82.174 81.7304 81.9922 81.6792C81.8161 81.6281 81.5831 81.6025 81.2933 81.6025C80.6286 81.6025 80.1484 81.7701 79.853 82.1054C79.5632 82.4406 79.4183 82.9321 79.4183 83.5798V98.0002H77.407Z" fill="black"/>
<path d="M152.133 98.0002V80.5457H158.235C159.451 80.5457 160.454 80.7559 161.244 81.1764C162.034 81.5912 162.622 82.1508 163.008 82.8554C163.395 83.5542 163.588 84.3298 163.588 85.1821C163.588 85.9321 163.454 86.5514 163.187 87.04C162.926 87.5287 162.579 87.915 162.147 88.1991C161.721 88.4832 161.258 88.6934 160.758 88.8298V89.0002C161.292 89.0343 161.829 89.2218 162.369 89.5627C162.909 89.9037 163.36 90.3923 163.724 91.0287C164.088 91.665 164.27 92.4434 164.27 93.3639C164.27 94.2389 164.071 95.0258 163.673 95.7247C163.275 96.4235 162.647 96.9775 161.789 97.3866C160.931 97.7957 159.815 98.0002 158.44 98.0002H152.133ZM154.247 96.1252H158.44C159.821 96.1252 160.801 95.8582 161.38 95.3241C161.966 94.7843 162.258 94.1309 162.258 93.3639C162.258 92.773 162.108 92.2275 161.806 91.7275C161.505 91.2218 161.076 90.8184 160.52 90.5173C159.963 90.2105 159.304 90.0571 158.542 90.0571H154.247V96.1252ZM154.247 88.2162H158.167C158.804 88.2162 159.377 88.0912 159.889 87.8412C160.406 87.5912 160.815 87.2389 161.116 86.7843C161.423 86.3298 161.576 85.7957 161.576 85.1821C161.576 84.415 161.309 83.7644 160.775 83.2304C160.241 82.6906 159.395 82.4207 158.235 82.4207H154.247V88.2162ZM167.436 98.0002V96.4662L173.197 90.1593C173.873 89.4207 174.43 88.7787 174.868 88.2332C175.305 87.6821 175.629 87.165 175.839 86.6821C176.055 86.1934 176.163 85.6821 176.163 85.148C176.163 84.5343 176.015 84.0031 175.72 83.5542C175.43 83.1054 175.032 82.7588 174.527 82.5144C174.021 82.2701 173.453 82.148 172.822 82.148C172.152 82.148 171.566 82.2872 171.066 82.5656C170.572 82.8383 170.189 83.2218 169.916 83.7162C169.649 84.2105 169.515 84.79 169.515 85.4548H167.504C167.504 84.4321 167.74 83.5343 168.211 82.7616C168.683 81.9889 169.325 81.3866 170.137 80.9548C170.956 80.523 171.873 80.3071 172.89 80.3071C173.913 80.3071 174.819 80.523 175.609 80.9548C176.399 81.3866 177.018 81.969 177.467 82.7019C177.916 83.4349 178.14 84.2502 178.14 85.148C178.14 85.79 178.024 86.4179 177.791 87.0315C177.564 87.6394 177.166 88.3184 176.598 89.0684C176.035 89.8127 175.254 90.7218 174.254 91.7957L170.333 95.9889V96.1252H178.447V98.0002H167.436ZM187.115 94.9321V83.6821H189.024V94.9321H187.115ZM182.444 90.2616V88.3525H193.694V90.2616H182.444Z" fill="black"/>
<path d="M277.455 98.0002H275.239L281.648 80.5457H283.83L290.239 98.0002H288.023L282.807 83.3071H282.67L277.455 98.0002ZM278.273 91.1821H287.205V93.0571H278.273V91.1821ZM292.651 98.0002V96.4662L298.412 90.1593C299.088 89.4207 299.645 88.7787 300.082 88.2332C300.52 87.6821 300.844 87.165 301.054 86.6821C301.27 86.1934 301.378 85.6821 301.378 85.148C301.378 84.5343 301.23 84.0031 300.935 83.5542C300.645 83.1054 300.247 82.7588 299.741 82.5144C299.236 82.2701 298.668 82.148 298.037 82.148C297.366 82.148 296.781 82.2872 296.281 82.5656C295.787 82.8383 295.403 83.2218 295.131 83.7162C294.864 84.2105 294.73 84.79 294.73 85.4548H292.719C292.719 84.4321 292.955 83.5343 293.426 82.7616C293.898 81.9889 294.54 81.3866 295.352 80.9548C296.17 80.523 297.088 80.3071 298.105 80.3071C299.128 80.3071 300.034 80.523 300.824 80.9548C301.614 81.3866 302.233 81.969 302.682 82.7019C303.131 83.4349 303.355 84.2502 303.355 85.148C303.355 85.79 303.239 86.4179 303.006 87.0315C302.778 87.6394 302.381 88.3184 301.812 89.0684C301.25 89.8127 300.469 90.7218 299.469 91.7957L295.548 95.9889V96.1252H303.662V98.0002H292.651Z" fill="black"/>
<defs>
<clipPath id="clip0_2138_59">
<rect width="75" height="75" fill="white" transform="translate(252 0.000244141)"/>
</clipPath>
</defs>
</svg>
