<svg width="89" height="89" viewBox="0 0 89 89" fill="none" xmlns="http://www.w3.org/2000/svg">
<circle cx="44.5" cy="44.5" r="43.285" fill="#FDFAF8" stroke="#FF66A2" stroke-width="2.43"/>
<path d="M30.9987 58.9084C28.2029 58.9084 25.785 58.3291 23.7449 57.1706C21.7048 55.9868 20.1306 54.3245 19.0224 52.1836C17.9142 50.0175 17.3601 47.4611 17.3601 44.5143C17.3601 41.5926 17.9394 39.0488 19.098 36.8827C20.2565 34.7166 21.8811 33.0417 23.9716 31.858C26.0621 30.649 28.4926 30.0445 31.2631 30.0445C33.6055 30.0445 35.6834 30.4727 37.4968 31.329C39.3354 32.1602 40.8341 33.344 41.9926 34.8804C43.1512 36.4167 43.869 38.2302 44.1461 40.3207H37.6857C37.2827 38.9102 36.5019 37.8272 35.3434 37.0716C34.21 36.316 32.7995 35.9382 31.112 35.9382C29.6008 35.9382 28.2911 36.2782 27.1829 36.9583C26.0999 37.6383 25.2687 38.6206 24.6894 39.9051C24.1101 41.1644 23.8205 42.6882 23.8205 44.4765C23.8205 46.2144 24.1101 47.7256 24.6894 49.0101C25.2939 50.2946 26.1376 51.2895 27.2207 51.9947C28.3289 52.6747 29.626 53.0148 31.112 53.0148C32.8247 53.0148 34.2729 52.6244 35.4567 51.8436C36.6657 51.0376 37.459 49.942 37.8368 48.5567H44.1839C43.8565 50.622 43.0883 52.4355 41.8793 53.997C40.6955 55.5586 39.1717 56.7676 37.3079 57.6239C35.4441 58.4803 33.341 58.9084 30.9987 58.9084ZM55.473 58.4551L45.008 30.4979H51.5439L56.8331 44.6276C57.1605 45.4839 57.4628 46.3781 57.7398 47.31C58.0169 48.2419 58.3065 49.3123 58.6088 50.5213C58.9614 49.1864 59.2762 48.0782 59.5533 47.1966C59.8555 46.3151 60.1577 45.4588 60.46 44.6276L65.6736 30.4979H72.0584L61.7823 58.4551H55.473Z" fill="#FF66A2"/>
</svg>
