<svg width="89" height="89" viewBox="0 0 89 89" fill="none" xmlns="http://www.w3.org/2000/svg">
<circle cx="44.5" cy="44.5002" r="44.5" fill="white"/>
<path d="M31.086 61.4562C28.274 61.4562 25.842 60.8736 23.79 59.7082C21.738 58.5176 20.1547 56.8456 19.04 54.6922C17.9253 52.5136 17.368 49.9422 17.368 46.9782C17.368 44.0396 17.9507 41.4809 19.116 39.3022C20.2813 37.1236 21.9153 35.4389 24.018 34.2482C26.1207 33.0322 28.5653 32.4242 31.352 32.4242C33.708 32.4242 35.798 32.8549 37.622 33.7162C39.4713 34.5522 40.9787 35.7429 42.144 37.2882C43.3093 38.8336 44.0313 40.6576 44.31 42.7602H37.812C37.4067 41.3416 36.6213 40.2522 35.456 39.4922C34.316 38.7322 32.8973 38.3522 31.2 38.3522C29.68 38.3522 28.3627 38.6942 27.248 39.3782C26.1587 40.0622 25.3227 41.0502 24.74 42.3422C24.1573 43.6089 23.866 45.1416 23.866 46.9402C23.866 48.6882 24.1573 50.2082 24.74 51.5002C25.348 52.7922 26.1967 53.7929 27.286 54.5022C28.4007 55.1862 29.7053 55.5282 31.2 55.5282C32.9227 55.5282 34.3793 55.1356 35.57 54.3502C36.786 53.5396 37.584 52.4376 37.964 51.0442H44.348C44.0187 53.1216 43.246 54.9456 42.03 56.5162C40.8393 58.0869 39.3067 59.3029 37.432 60.1642C35.5573 61.0256 33.442 61.4562 31.086 61.4562ZM55.7029 61.0002L45.1769 32.8802H51.7509L57.0709 47.0922C57.4002 47.9536 57.7042 48.8529 57.9829 49.7902C58.2615 50.7276 58.5529 51.8042 58.8569 53.0202C59.2115 51.6776 59.5282 50.5629 59.8069 49.6762C60.1109 48.7896 60.4149 47.9282 60.7189 47.0922L65.9629 32.8802H72.3849L62.0489 61.0002H55.7029Z" fill="#00DA7E"/>
</svg>
