<svg width="73" height="73" viewBox="0 0 73 73" fill="none" xmlns="http://www.w3.org/2000/svg">
<circle cx="36.045" cy="36.045" r="34.83" stroke="#FDFAF8" stroke-width="2.43"/>
<path d="M25.1767 50.3794C22.899 50.3794 20.9291 49.9074 19.2669 48.9635C17.6048 47.999 16.3223 46.6447 15.4194 44.9005C14.5166 43.1358 14.0651 41.053 14.0651 38.6522C14.0651 36.2719 14.5371 34.1993 15.481 32.4346C16.4249 30.6699 17.7485 29.3053 19.4516 28.3409C21.1548 27.3559 23.135 26.8634 25.3922 26.8634C27.3005 26.8634 28.9934 27.2123 30.4709 27.91C31.9688 28.5871 33.1898 29.5516 34.1337 30.8033C35.0776 32.055 35.6624 33.5324 35.8881 35.2356H30.6248C30.2964 34.0865 29.6603 33.2041 28.7164 32.5885C27.793 31.9729 26.6439 31.6651 25.269 31.6651C24.0378 31.6651 22.9708 31.9421 22.0679 32.4962C21.1856 33.0502 20.5084 33.8505 20.0364 34.897C19.5645 35.923 19.3285 37.1645 19.3285 38.6214C19.3285 40.0373 19.5645 41.2685 20.0364 42.315C20.5289 43.3615 21.2163 44.1721 22.0987 44.7466C23.0016 45.3007 24.0584 45.5777 25.269 45.5777C26.6644 45.5777 27.8443 45.2596 28.8087 44.6235C29.7937 43.9669 30.4401 43.0742 30.7479 41.9456H35.9189C35.6522 43.6283 35.0263 45.1057 34.0413 46.378C33.0769 47.6502 31.8354 48.6352 30.317 49.3328C28.7985 50.0305 27.0851 50.3794 25.1767 50.3794ZM45.1164 50.01L36.5903 27.2328H41.9152L46.2244 38.7445C46.4912 39.4422 46.7374 40.1707 46.9632 40.9299C47.1889 41.6891 47.4249 42.5612 47.6711 43.5462C47.9584 42.4586 48.2149 41.5558 48.4406 40.8376C48.6868 40.1194 48.9331 39.4217 49.1793 38.7445L53.427 27.2328H58.6288L50.2566 50.01H45.1164Z" fill="#FDFAF8"/>
</svg>
