<svg width="73" height="73" viewBox="0 0 73 73" fill="none" xmlns="http://www.w3.org/2000/svg">
<circle cx="36.045" cy="36.045" r="34.83" fill="#FDFAF8" fill-opacity="0.5" stroke="#FF66A2" stroke-width="2.43"/>
<path d="M25.1786 50.3791C22.9009 50.3791 20.931 49.9072 19.2689 48.9632C17.6068 47.9988 16.3243 46.6445 15.4214 44.9003C14.5185 43.1356 14.0671 41.0528 14.0671 38.6519C14.0671 36.2716 14.539 34.1991 15.4829 32.4344C16.4269 30.6697 17.7504 29.3051 19.4536 28.3406C21.1567 27.3557 23.1369 26.8632 25.3941 26.8632C27.3025 26.8632 28.9954 27.212 30.4728 27.9097C31.9708 28.5869 33.1917 29.5513 34.1356 30.803C35.0795 32.0548 35.6644 33.5322 35.8901 35.2354H30.6267C30.2984 34.0862 29.6623 33.2039 28.7183 32.5883C27.7949 31.9727 26.6458 31.6649 25.271 31.6649C24.0398 31.6649 22.9727 31.9419 22.0699 32.4959C21.1875 33.05 20.5103 33.8503 20.0384 34.8968C19.5664 35.9228 19.3304 37.1642 19.3304 38.6212C19.3304 40.037 19.5664 41.2682 20.0384 42.3148C20.5309 43.3613 21.2183 44.1718 22.1006 44.7464C23.0035 45.3004 24.0603 45.5774 25.271 45.5774C26.6663 45.5774 27.8462 45.2594 28.8107 44.6233C29.7956 43.9666 30.442 43.074 30.7498 41.9454H35.9209C35.6541 43.628 35.0282 45.1055 34.0433 46.3777C33.0788 47.65 31.8374 48.6349 30.3189 49.3326C28.8004 50.0303 27.087 50.3791 25.1786 50.3791ZM45.1183 50.0098L36.5923 27.2326H41.9172L46.2264 38.7443C46.4932 39.442 46.7394 40.1704 46.9651 40.9297C47.1908 41.6889 47.4268 42.561 47.6731 43.546C47.9603 42.4584 48.2168 41.5555 48.4426 40.8373C48.6888 40.1191 48.935 39.4214 49.1813 38.7443L53.4289 27.2326H58.6307L50.2586 50.0098H45.1183Z" fill="#FF66A2"/>
</svg>
