<svg width="31" height="31" viewBox="0 0 31 31" fill="none" xmlns="http://www.w3.org/2000/svg">
<g clip-path="url(#clip0_2140_315)">
<path d="M13.0781 0H17.9219C18.7271 0 19.375 0.647852 19.375 1.45312V11.625H24.685C25.7627 11.625 26.3016 12.9268 25.5387 13.6896L16.3295 22.9049C15.8754 23.359 15.1307 23.359 14.6766 22.9049L5.45527 13.6896C4.69238 12.9268 5.23125 11.625 6.30898 11.625H11.625V1.45312C11.625 0.647852 12.2729 0 13.0781 0ZM31 22.7656V29.5469C31 30.3521 30.3521 31 29.5469 31H1.45312C0.647852 31 0 30.3521 0 29.5469V22.7656C0 21.9604 0.647852 21.3125 1.45312 21.3125H10.3354L13.3021 24.2793C14.5191 25.4963 16.4809 25.4963 17.6979 24.2793L20.6646 21.3125H29.5469C30.3521 21.3125 31 21.9604 31 22.7656ZM23.4922 28.0938C23.4922 27.4277 22.9473 26.8828 22.2812 26.8828C21.6152 26.8828 21.0703 27.4277 21.0703 28.0938C21.0703 28.7598 21.6152 29.3047 22.2812 29.3047C22.9473 29.3047 23.4922 28.7598 23.4922 28.0938ZM27.3672 28.0938C27.3672 27.4277 26.8223 26.8828 26.1562 26.8828C25.4902 26.8828 24.9453 27.4277 24.9453 28.0938C24.9453 28.7598 25.4902 29.3047 26.1562 29.3047C26.8223 29.3047 27.3672 28.7598 27.3672 28.0938Z" fill="#FDFAF8"/>
</g>
<defs>
<clipPath id="clip0_2140_315">
<rect width="31" height="31" fill="white"/>
</clipPath>
</defs>
</svg>
