<svg width="128" height="128" viewBox="0 0 128 128" fill="none" xmlns="http://www.w3.org/2000/svg">
<path d="M83.7052 73.3407L94.5155 78.4572C96.0551 79.1854 97.2767 80.3697 98.0806 81.8328C104.514 75.3355 111.477 65.1235 117.319 52.8672C128.558 29.288 131.379 7.19474 123.618 3.52156C115.855 -0.153363 100.453 15.9842 89.212 39.5631C83.3745 51.8151 79.8291 63.6399 78.8398 72.7121C79.3113 72.6275 79.7886 72.5647 80.2751 72.5647C81.4698 72.5673 82.6231 72.8272 83.7052 73.3407Z" fill="#FF66A2"/>
<path d="M74.0872 93.5325L84.8975 98.6476C85.6904 99.024 86.5278 99.2014 87.3545 99.2014C89.2331 99.2014 91.0042 98.233 92.0935 96.6178C85.6553 92.1541 78.6346 88.7713 71.2153 86.314C70.1529 89.0848 71.3596 92.2433 74.0872 93.5325Z" fill="#FF66A2"/>
<path d="M75.5391 77.4212C76.5596 77.7593 77.5608 78.1262 78.5629 78.5035C83.7991 80.4742 88.7913 82.9825 93.65 85.7716C94.6068 86.3233 95.5625 86.8782 96.5112 87.4497C96.9441 86.1213 96.8722 84.7348 96.366 83.5061C95.8421 82.2381 94.8795 81.1445 93.5407 80.5113L82.7304 75.3948C81.935 75.0198 81.1001 74.8398 80.2734 74.8398C79.7069 74.8398 79.1517 74.9337 78.6139 75.0954C77.3701 75.4727 76.2971 76.2948 75.5391 77.4212Z" fill="#FF66A2"/>
<path d="M72.4062 83.7132C75.2315 84.6642 78.0001 85.7419 80.7036 86.9563C82.3942 87.7158 84.07 88.5113 85.7063 89.3797C88.3621 90.7906 90.9391 92.3583 93.4401 94.0677L95.3413 90.0775C93.9072 89.2114 92.4554 88.3728 90.9982 87.5518C87.0616 85.3339 83.0297 83.3063 78.8352 81.6445C77.3069 81.0383 75.752 80.4961 74.18 79.9922L72.4062 83.7132Z" fill="#FF66A2"/>
<path d="M15.7683 76.4505C32.1866 65.8031 13.1525 49.2923 6.56879 40.6875C3.9359 37.2432 -1.9981 40.6338 0.677679 44.1311C6.77656 52.1049 23.9758 64.3391 8.32975 72.9448C3.70089 75.4914 0.636531 80.1295 3.99878 85.0612C7.40653 90.0581 16.87 90.5037 22.1717 91.2821C25.8724 91.8254 29.7516 92.9173 33.2958 94.3314C31.8588 94.9761 30.3265 95.489 28.8577 96.0373C21.4528 98.7985 4.94924 105.382 10.7821 116.558C15.546 125.686 28.8351 125.513 39.2061 125.706C39.0806 125.495 38.9786 125.258 38.9088 124.983C38.3443 122.769 40.1635 121.514 44.5657 119.085C37.9125 118.501 31.2399 118.679 24.629 117.506C11.3309 115.146 19.866 106.943 27.352 103.883C31.2984 102.273 46.5064 98.8008 41.3493 91.5081C38.2411 87.1093 29.9295 86.0699 25.2862 84.898C22.0926 84.0922 18.6764 83.8783 15.4405 83.1921C7.79975 81.5691 10.9757 79.5604 15.7683 76.4505Z" fill="#FF66A2"/>
<path d="M47.6509 119.99C42.6847 122.701 38.5514 124.891 42.9925 124.891C44.1997 124.891 46.0496 124.727 48.6796 124.37C52.2551 123.883 57.2798 123.039 64.1637 121.745C102.182 114.601 73.3234 95.9047 73.3234 95.9047C71.3889 95.151 69.5425 94.8154 67.8192 94.8154C58.3998 94.8154 52.699 104.859 57.2468 111.876C58.5887 113.952 52.6918 117.238 47.6509 119.99Z" fill="#FF66A2"/>
</svg>
