<svg width="53" height="52" viewBox="0 0 53 52" fill="none" xmlns="http://www.w3.org/2000/svg">
<g clip-path="url(#clip0_141_409)">
<path d="M50.6414 8.90747H21.0598V46.2112H50.6414V8.90747Z" fill="#FFFDEF"/>
<path d="M19.9303 7.78784C18.7676 7.78784 17.8309 8.71849 17.8309 9.87684V45.1159C17.8309 46.272 18.7676 47.2049 19.9303 47.2049H49.9005C51.0632 47.2049 52 46.272 52 45.1159V9.87684C52 8.71849 51.0632 7.78784 49.9005 7.78784H19.9303ZM19.5095 9.51873H50.3036V45.4541H19.5095V9.51873Z" fill="#00DA7E"/>
<path d="M46.6045 12.9751H38.3126V17.4442H46.6045V12.9751Z" fill="#00DA7E"/>
<path d="M36.5536 12.9751H28.2617V17.4442H36.5536V12.9751Z" fill="#00DA7E"/>
<path d="M46.6045 19.0784H38.3126V23.5475H46.6045V19.0784Z" fill="#00DA7E"/>
<path d="M36.5536 19.0581H28.2617V23.5272H36.5536V19.0581Z" fill="#00DA7E"/>
<path d="M46.6045 25.2651H38.3126V29.7342H46.6045V25.2651Z" fill="#00DA7E"/>
<path d="M36.5536 25.2651H28.2617V29.7342H36.5536V25.2651Z" fill="#00DA7E"/>
<path d="M46.6045 31.5229H38.3126V35.9921H46.6045V31.5229Z" fill="#00DA7E"/>
<path d="M36.5536 31.4824H28.2617V35.9515H36.5536V31.4824Z" fill="#00DA7E"/>
<path d="M46.6045 37.6743H38.3126V42.1434H46.6045V37.6743Z" fill="#00DA7E"/>
<path d="M36.5536 37.6743H28.2617V42.1434H36.5536V37.6743Z" fill="#00DA7E"/>
<path d="M29.5827 52V3L0 7.89867V47.0991L29.5827 52Z" fill="#00DA7E"/>
<path d="M11.576 19.3122L13.6245 24.6264C13.7722 24.9402 13.8387 25.2773 13.8726 25.504C13.8569 25.2398 13.9126 25.0335 14.063 24.6264L16.4902 19.0204L20.2196 18.7993C18.7094 21.6703 17.2571 24.5711 15.8635 27.5002L20.4056 36.4509L16.3861 36.2122L13.9434 30.3718C13.7523 29.9313 13.7892 29.8713 13.7507 29.6555C13.7329 29.8091 13.7268 29.9351 13.6245 30.2126L11.1663 35.9027L7.71814 35.6971L11.7044 27.6196L8.11677 19.5178L11.576 19.3122Z" fill="#FFFDEF"/>
</g>
<defs>
<clipPath id="clip0_141_409">
<rect width="52" height="49" fill="white" transform="translate(0 3)"/>
</clipPath>
</defs>
</svg>
