<svg width="53" height="52" viewBox="0 0 53 52" fill="none" xmlns="http://www.w3.org/2000/svg">
<path d="M31.6972 13.7792L38.4442 15L44 13.7792L31.6972 2L30 7.58443L31.6972 13.7792Z" fill="#00DA7E"/>
<path d="M31.9688 14V2H12.2813C10.4684 2 9 3.46455 9 5.27273V46.7273C9 48.5355 10.4684 50 12.2813 50H40.7188C42.5316 50 44 48.5355 44 46.7273V14H31.9688Z" fill="#00DA7E"/>
<path d="M31.6972 13.7792L38.4442 15L44 13.7792L31.6972 2L30 7.58443L31.6972 13.7792Z" fill="#00BF6F"/>
<path d="M31.9688 14V2H12.2813C10.4684 2 9 3.46455 9 5.27273V46.7273C9 48.5355 10.4684 50 12.2813 50H40.7188C42.5316 50 44 48.5355 44 46.7273V14H31.9688Z" fill="#00DA7E"/>
<path d="M18.5833 36C17.7099 36 17 35.3275 17 34.5C17 33.6725 17.7099 33 18.5833 33C19.4568 33 20.1667 33.6725 20.1667 34.5C20.1667 35.3275 19.4568 36 18.5833 36ZM18.5833 30C17.7099 30 17 29.3275 17 28.5C17 27.6725 17.7099 27 18.5833 27C19.4568 27 20.1667 27.6725 20.1667 28.5C20.1667 29.3275 19.4568 30 18.5833 30ZM18.5833 24C17.7099 24 17 23.3275 17 22.5C17 21.6725 17.7099 21 18.5833 21C19.4568 21 20.1667 21.6725 20.1667 22.5C20.1667 23.3275 19.4568 24 18.5833 24ZM36 35.75H22.8056V33.25H36V35.75ZM36 29.75H22.8056V27.25H36V29.75ZM36 23.75H22.8056V21.25H36V23.75Z" fill="#FFFDEF"/>
</svg>
