<svg width="73" height="73" viewBox="0 0 73 73" fill="none" xmlns="http://www.w3.org/2000/svg">
<circle cx="36.1544" cy="36.045" r="34.83" fill="#FDFAF8" fill-opacity="0.5" stroke="#FF66A2" stroke-width="2.43"/>
<g clip-path="url(#clip0_321_253)">
<path d="M28.5131 49.243C28.5131 49.4297 28.299 49.579 28.029 49.579C27.7218 49.6071 27.5077 49.4577 27.5077 49.243C27.5077 49.0563 27.7218 48.907 27.9918 48.907C28.271 48.879 28.5131 49.0283 28.5131 49.243ZM25.6181 48.823C25.553 49.0097 25.7391 49.2244 26.0184 49.2804C26.2604 49.3737 26.5397 49.2804 26.5955 49.0937C26.6514 48.907 26.4745 48.6923 26.1953 48.6083C25.9532 48.543 25.6833 48.6363 25.6181 48.823ZM29.7325 48.6643C29.4625 48.7297 29.2764 48.907 29.3043 49.1217C29.3322 49.3084 29.5742 49.4297 29.8535 49.3644C30.1234 49.299 30.3096 49.1217 30.2817 48.935C30.2537 48.7577 30.0024 48.6363 29.7325 48.6643ZM35.8574 12.8965C22.9466 12.8965 13.0703 22.7252 13.0703 35.6714C13.0703 46.0228 19.5676 54.8808 28.8482 57.9983C30.0396 58.213 30.4585 57.4756 30.4585 56.8689C30.4585 56.2902 30.4306 53.098 30.4306 51.1378C30.4306 51.1378 23.9147 52.5379 22.5463 48.3563C22.5463 48.3563 21.4852 45.6401 19.9586 44.9401C19.9586 44.9401 17.8269 43.4746 20.1075 43.5026C20.1075 43.5026 22.4253 43.6893 23.7006 45.9108C25.7391 49.5137 29.1553 48.4776 30.4865 47.8616C30.7006 46.3682 31.3056 45.3321 31.9758 44.716C26.7724 44.1373 21.5224 43.3813 21.5224 34.402C21.5224 31.8351 22.2298 30.5471 23.7192 28.9043C23.4772 28.2976 22.686 25.7961 23.9612 22.5665C25.9067 21.9598 30.3841 25.0867 30.3841 25.0867C32.2458 24.564 34.2471 24.2933 36.2298 24.2933C38.2125 24.2933 40.2138 24.564 42.0755 25.0867C42.0755 25.0867 46.5529 21.9505 48.4983 22.5665C49.7736 25.8054 48.9824 28.2976 48.7404 28.9043C50.2297 30.5564 51.1419 31.8445 51.1419 34.402C51.1419 43.4093 45.6593 44.128 40.4558 44.716C41.3122 45.4534 42.0383 46.8535 42.0383 49.047C42.0383 52.1926 42.0103 56.0848 42.0103 56.8502C42.0103 57.4569 42.4385 58.1943 43.6207 57.9796C52.9292 54.8808 59.2403 46.0228 59.2403 35.6714C59.2403 22.7252 48.7683 12.8965 35.8574 12.8965ZM22.1181 45.0894C21.9971 45.1827 22.0251 45.3974 22.1833 45.5748C22.3322 45.7241 22.5463 45.7895 22.6673 45.6681C22.7884 45.5748 22.7604 45.3601 22.6022 45.1827C22.4532 45.0334 22.2392 44.9681 22.1181 45.0894ZM21.1128 44.3333C21.0477 44.4547 21.1408 44.604 21.3269 44.6974C21.4759 44.7907 21.662 44.7627 21.7272 44.632C21.7923 44.5107 21.6993 44.3614 21.5131 44.268C21.3269 44.212 21.178 44.24 21.1128 44.3333ZM24.1288 47.6562C23.9798 47.7776 24.0357 48.0576 24.2498 48.235C24.4639 48.4496 24.7338 48.4776 24.8548 48.3283C24.9758 48.207 24.92 47.9269 24.7338 47.7496C24.529 47.5349 24.2498 47.5069 24.1288 47.6562ZM23.0676 46.2842C22.9187 46.3775 22.9187 46.6202 23.0676 46.8349C23.2165 47.0495 23.4679 47.1429 23.5889 47.0495C23.7378 46.9282 23.7378 46.6855 23.5889 46.4708C23.4586 46.2562 23.2165 46.1628 23.0676 46.2842Z" fill="#FF66A2"/>
</g>
<defs>
<clipPath id="clip0_321_253">
<rect width="46.17" height="47.79" fill="white" transform="translate(13.0693 12.1504)"/>
</clipPath>
</defs>
</svg>
