<svg width="89" height="89" viewBox="0 0 89 89" fill="none" xmlns="http://www.w3.org/2000/svg">
<circle cx="44.5" cy="44.5002" r="44.5" fill="white"/>
<g clip-path="url(#clip0_2120_83)">
<path d="M35.0651 60.7944C35.0651 61.0249 34.8008 61.2092 34.4675 61.2092C34.0883 61.2438 33.824 61.0594 33.824 60.7944C33.824 60.5639 34.0883 60.3795 34.4216 60.3795C34.7663 60.345 35.0651 60.5293 35.0651 60.7944ZM31.4911 60.2758C31.4107 60.5063 31.6405 60.7713 31.9853 60.8405C32.2841 60.9557 32.6288 60.8405 32.6978 60.61C32.7667 60.3795 32.5484 60.1145 32.2036 60.0108C31.9048 59.9301 31.5716 60.0454 31.4911 60.2758ZM36.5706 60.0799C36.2373 60.1606 36.0075 60.3795 36.0419 60.6446C36.0764 60.8751 36.3752 61.0249 36.72 60.9442C37.0532 60.8635 37.2831 60.6446 37.2486 60.4141C37.2141 60.1952 36.9038 60.0454 36.5706 60.0799ZM44.1323 15.9221C28.1929 15.9221 16 28.0563 16 44.0393C16 56.8188 24.0214 67.7545 35.4788 71.6034C36.9498 71.8684 37.4669 70.9581 37.4669 70.209C37.4669 69.4946 37.4325 65.5536 37.4325 63.1336C37.4325 63.1336 29.3881 64.8622 27.6988 59.6997C27.6988 59.6997 26.3887 56.3463 24.504 55.4821C24.504 55.4821 21.8724 53.6729 24.6879 53.7075C24.6879 53.7075 27.5494 53.9379 29.1238 56.6805C31.6405 61.1286 35.8581 59.8495 37.5014 59.0889C37.7657 57.2452 38.5127 55.9661 39.3401 55.2055C32.9161 54.4911 26.4347 53.5577 26.4347 42.4721C26.4347 39.3032 27.3081 37.7129 29.1468 35.6848C28.848 34.9358 27.8712 31.8475 29.4456 27.8604C31.8474 27.1114 37.375 30.9717 37.375 30.9717C39.6734 30.3264 42.1442 29.9922 44.5919 29.9922C47.0397 29.9922 49.5105 30.3264 51.8089 30.9717C51.8089 30.9717 57.3365 27.0999 59.7383 27.8604C61.3127 31.859 60.3359 34.9358 60.0371 35.6848C61.8758 37.7245 63.002 39.3147 63.002 42.4721C63.002 53.5922 56.2333 54.4795 49.8093 55.2055C50.8665 56.1159 51.7629 57.8444 51.7629 60.5524C51.7629 64.4358 51.7284 69.2411 51.7284 70.186C51.7284 70.935 52.2571 71.8454 53.7165 71.5803C65.2085 67.7545 73 56.8188 73 44.0393C73 28.0563 60.0716 15.9221 44.1323 15.9221ZM27.1702 55.6665C27.0208 55.7817 27.0552 56.0467 27.2506 56.2657C27.4345 56.4501 27.6988 56.5307 27.8482 56.3809C27.9976 56.2657 27.9631 56.0006 27.7677 55.7817C27.5839 55.5973 27.3196 55.5167 27.1702 55.6665ZM25.929 54.7331C25.8486 54.8829 25.9635 55.0672 26.1933 55.1825C26.3772 55.2977 26.6071 55.2631 26.6875 55.1018C26.7679 54.952 26.653 54.7676 26.4232 54.6524C26.1933 54.5833 26.0095 54.6178 25.929 54.7331ZM29.6524 58.8354C29.4685 58.9852 29.5375 59.3309 29.8018 59.5499C30.0661 59.8149 30.3994 59.8495 30.5488 59.6651C30.6982 59.5153 30.6292 59.1696 30.3994 58.9506C30.1466 58.6856 29.8018 58.651 29.6524 58.8354ZM28.3423 57.1415C28.1585 57.2567 28.1585 57.5563 28.3423 57.8213C28.5262 58.0864 28.8365 58.2016 28.9859 58.0864C29.1698 57.9366 29.1698 57.637 28.9859 57.3719C28.825 57.1069 28.5262 56.9917 28.3423 57.1415Z" fill="#00DA7E"/>
</g>
<defs>
<clipPath id="clip0_2120_83">
<rect width="57" height="59" fill="white" transform="translate(16 15.0002)"/>
</clipPath>
</defs>
</svg>
