<svg width="89" height="89" viewBox="0 0 89 89" fill="none" xmlns="http://www.w3.org/2000/svg">
<circle cx="44.5" cy="44.5" r="43.5" fill="#FDFAF8" stroke="#FF66A2" stroke-width="2"/>
<path d="M35.0651 60.7941C35.0651 61.0246 34.8008 61.209 34.4675 61.209C34.0883 61.2436 33.824 61.0592 33.824 60.7941C33.824 60.5637 34.0883 60.3793 34.4216 60.3793C34.7663 60.3447 35.0651 60.5291 35.0651 60.7941ZM31.4911 60.2756C31.4107 60.5061 31.6405 60.7711 31.9853 60.8402C32.2841 60.9555 32.6288 60.8402 32.6978 60.6098C32.7667 60.3793 32.5484 60.1143 32.2036 60.0106C31.9048 59.9299 31.5716 60.0451 31.4911 60.2756ZM36.5706 60.0797C36.2373 60.1604 36.0075 60.3793 36.0419 60.6443C36.0764 60.8748 36.3752 61.0246 36.72 60.944C37.0532 60.8633 37.2831 60.6443 37.2486 60.4139C37.2141 60.1949 36.9038 60.0451 36.5706 60.0797ZM44.1323 15.9219C28.1929 15.9219 16 28.0561 16 44.0391C16 56.8186 24.0214 67.7543 35.4788 71.6031C36.9498 71.8682 37.4669 70.9578 37.4669 70.2088C37.4669 69.4943 37.4325 65.5533 37.4325 63.1334C37.4325 63.1334 29.3881 64.8619 27.6988 59.6994C27.6988 59.6994 26.3887 56.3461 24.504 55.4818C24.504 55.4818 21.8724 53.6727 24.6879 53.7072C24.6879 53.7072 27.5494 53.9377 29.1238 56.6803C31.6405 61.1283 35.8581 59.8492 37.5014 59.0887C37.7657 57.2449 38.5127 55.9658 39.3401 55.2053C32.9161 54.4908 26.4347 53.5574 26.4347 42.4719C26.4347 39.3029 27.3081 37.7127 29.1468 35.6846C28.848 34.9355 27.8712 31.8473 29.4456 27.8602C31.8474 27.1111 37.375 30.9715 37.375 30.9715C39.6734 30.3262 42.1442 29.992 44.5919 29.992C47.0397 29.992 49.5105 30.3262 51.8089 30.9715C51.8089 30.9715 57.3365 27.0996 59.7383 27.8602C61.3127 31.8588 60.3359 34.9355 60.0371 35.6846C61.8758 37.7242 63.002 39.3145 63.002 42.4719C63.002 53.592 56.2333 54.4793 49.8093 55.2053C50.8665 56.1156 51.7629 57.8441 51.7629 60.5522C51.7629 64.4355 51.7284 69.2408 51.7284 70.1857C51.7284 70.9348 52.2571 71.8451 53.7165 71.5801C65.2085 67.7543 73 56.8186 73 44.0391C73 28.0561 60.0716 15.9219 44.1323 15.9219ZM27.1702 55.6662C27.0208 55.7814 27.0552 56.0465 27.2506 56.2654C27.4345 56.4498 27.6988 56.5305 27.8482 56.3807C27.9976 56.2654 27.9631 56.0004 27.7677 55.7814C27.5839 55.5971 27.3196 55.5164 27.1702 55.6662ZM25.929 54.7328C25.8486 54.8826 25.9635 55.067 26.1933 55.1822C26.3772 55.2975 26.6071 55.2629 26.6875 55.1016C26.7679 54.9518 26.653 54.7674 26.4232 54.6522C26.1933 54.583 26.0095 54.6176 25.929 54.7328ZM29.6524 58.8352C29.4685 58.985 29.5375 59.3307 29.8018 59.5496C30.0661 59.8147 30.3994 59.8492 30.5488 59.6648C30.6982 59.515 30.6292 59.1693 30.3994 58.9504C30.1466 58.6854 29.8018 58.6508 29.6524 58.8352ZM28.3423 57.1412C28.1585 57.2565 28.1585 57.5561 28.3423 57.8211C28.5262 58.0861 28.8365 58.2014 28.9859 58.0861C29.1698 57.9363 29.1698 57.6367 28.9859 57.3717C28.825 57.1066 28.5262 56.9914 28.3423 57.1412Z" fill="#FF66A2"/>
</svg>
