<svg width="73" height="73" viewBox="0 0 73 73" fill="none" xmlns="http://www.w3.org/2000/svg">
<circle cx="36.1544" cy="36.045" r="34.83" stroke="#FDFAF8" stroke-width="2.43"/>
<g clip-path="url(#clip0_0_747)">
<path d="M28.5131 49.2433C28.5131 49.43 28.299 49.5793 28.029 49.5793C27.7218 49.6073 27.5077 49.458 27.5077 49.2433C27.5077 49.0566 27.7218 48.9072 27.9918 48.9072C28.271 48.8792 28.5131 49.0286 28.5131 49.2433ZM25.6181 48.8232C25.553 49.0099 25.7391 49.2246 26.0184 49.2806C26.2604 49.3739 26.5397 49.2806 26.5955 49.0939C26.6514 48.9072 26.4745 48.6926 26.1953 48.6086C25.9532 48.5432 25.6833 48.6366 25.6181 48.8232ZM29.7325 48.6646C29.4625 48.7299 29.2764 48.9072 29.3043 49.1219C29.3322 49.3086 29.5742 49.43 29.8535 49.3646C30.1234 49.2993 30.3096 49.1219 30.2817 48.9352C30.2537 48.7579 30.0024 48.6366 29.7325 48.6646ZM35.8574 12.8967C22.9466 12.8967 13.0703 22.7254 13.0703 35.6717C13.0703 46.023 19.5676 54.881 28.8482 57.9986C30.0396 58.2132 30.4585 57.4758 30.4585 56.8691C30.4585 56.2904 30.4306 53.0982 30.4306 51.1381C30.4306 51.1381 23.9147 52.5382 22.5463 48.3565C22.5463 48.3565 21.4852 45.6404 19.9586 44.9403C19.9586 44.9403 17.8269 43.4749 20.1075 43.5029C20.1075 43.5029 22.4253 43.6896 23.7006 45.911C25.7391 49.514 29.1553 48.4779 30.4865 47.8618C30.7006 46.3684 31.3056 45.3323 31.9758 44.7163C26.7724 44.1376 21.5224 43.3815 21.5224 34.4022C21.5224 31.8354 22.2298 30.5473 23.7192 28.9045C23.4772 28.2978 22.686 25.7963 23.9612 22.5667C25.9067 21.96 30.3841 25.0869 30.3841 25.0869C32.2458 24.5642 34.2471 24.2935 36.2298 24.2935C38.2125 24.2935 40.2138 24.5642 42.0755 25.0869C42.0755 25.0869 46.5529 21.9507 48.4983 22.5667C49.7736 25.8056 48.9824 28.2978 48.7404 28.9045C50.2297 30.5566 51.1419 31.8447 51.1419 34.4022C51.1419 43.4095 45.6593 44.1282 40.4558 44.7163C41.3122 45.4537 42.0383 46.8538 42.0383 49.0473C42.0383 52.1928 42.0103 56.0851 42.0103 56.8505C42.0103 57.4572 42.4385 58.1946 43.6207 57.9799C52.9292 54.881 59.2403 46.023 59.2403 35.6717C59.2403 22.7254 48.7683 12.8967 35.8574 12.8967ZM22.1181 45.0896C21.9971 45.183 22.0251 45.3977 22.1833 45.575C22.3322 45.7244 22.5463 45.7897 22.6673 45.6684C22.7884 45.575 22.7604 45.3603 22.6022 45.183C22.4532 45.0336 22.2392 44.9683 22.1181 45.0896ZM21.1128 44.3336C21.0477 44.4549 21.1408 44.6043 21.3269 44.6976C21.4759 44.791 21.662 44.763 21.7272 44.6323C21.7923 44.5109 21.6993 44.3616 21.5131 44.2683C21.3269 44.2123 21.178 44.2403 21.1128 44.3336ZM24.1288 47.6565C23.9798 47.7778 24.0357 48.0579 24.2498 48.2352C24.4639 48.4499 24.7338 48.4779 24.8548 48.3285C24.9758 48.2072 24.92 47.9272 24.7338 47.7498C24.529 47.5351 24.2498 47.5071 24.1288 47.6565ZM23.0676 46.2844C22.9187 46.3777 22.9187 46.6204 23.0676 46.8351C23.2165 47.0498 23.4679 47.1431 23.5889 47.0498C23.7378 46.9284 23.7378 46.6858 23.5889 46.4711C23.4586 46.2564 23.2165 46.1631 23.0676 46.2844Z" fill="#FDFAF8"/>
</g>
<defs>
<clipPath id="clip0_0_747">
<rect width="46.17" height="47.79" fill="white" transform="translate(13.0703 12.1499)"/>
</clipPath>
</defs>
</svg>
