<svg width="32" height="33" viewBox="0 0 32 33" fill="none" xmlns="http://www.w3.org/2000/svg">
<g clip-path="url(#clip0_1529_175)">
<path d="M15.998 0.199951C7.16401 0.199951 9.23295e-06 7.39195 9.23295e-06 16.2639C-0.00360001 19.631 1.05104 22.9141 3.01487 25.6492C4.97871 28.3843 7.75242 30.4331 10.944 31.5059C11.744 31.6539 12.036 31.1579 12.036 30.7319C12.036 30.3499 12.022 29.3399 12.014 27.9999C7.56401 28.9699 6.62401 25.8459 6.62401 25.8459C5.89801 23.9899 4.84801 23.4959 4.84801 23.4959C3.39401 22.4999 4.95601 22.5199 4.95601 22.5199C6.56201 22.6339 7.40601 24.1759 7.40601 24.1759C8.83401 26.6299 11.152 25.9219 12.064 25.5099C12.208 24.4719 12.622 23.7639 13.08 23.3619C9.52801 22.9559 5.79201 21.5779 5.79201 15.4239C5.79201 13.6699 6.41601 12.2359 7.44001 11.1119C7.27401 10.7059 6.72601 9.07195 7.59601 6.86195C7.59601 6.86195 8.94001 6.42995 11.996 8.50795C13.3015 8.15118 14.6486 7.96958 16.002 7.96795C17.3554 7.97064 18.7025 8.15289 20.008 8.50995C23.062 6.43195 24.404 6.86395 24.404 6.86395C25.276 9.07595 24.728 10.7079 24.564 11.1139C25.59 12.2379 26.208 13.6719 26.208 15.4259C26.208 21.5959 22.468 22.9539 18.904 23.3519C19.478 23.8479 19.99 24.8279 19.99 26.3259C19.99 28.4739 19.97 30.2059 19.97 30.7319C19.97 31.1619 20.258 31.6619 21.07 31.5039C24.2585 30.4285 27.0288 28.379 28.9899 25.6446C30.951 22.9101 32.0039 19.6289 32 16.2639C32 7.39195 24.836 0.199951 15.998 0.199951Z" fill="#FDFAF8"/>
</g>
<defs>
<clipPath id="clip0_1529_175">
<rect width="32" height="32" fill="white" transform="translate(0 0.199951)"/>
</clipPath>
</defs>
</svg>
