<svg width="52" height="51" viewBox="0 0 52 51" fill="none" xmlns="http://www.w3.org/2000/svg">
<path d="M9.20833 0H42.7917C47.8833 0 52 4.11396 52 9.20228V41.4644C52 46.5527 47.8833 50.6667 42.7917 50.6667H9.20833C4.11667 50.6667 0 46.5527 0 41.4644V9.20228C0 4.11396 4.11667 0 9.20833 0Z" fill="#00DA7E"/>
<path d="M18.8903 13.2511V35.5531C18.8903 35.7913 18.7819 35.8995 18.5869 35.8995H14.3403C14.1453 35.8995 14.0586 35.7913 14.0586 35.5531V13.2511C14.0586 13.0562 14.1669 12.9696 14.3619 12.9696H18.5869C18.7169 12.9479 18.8469 13.0346 18.8686 13.1861C18.8903 13.2078 18.8903 13.2294 18.8903 13.2511Z" fill="#FFFDEF"/>
<path d="M31.4115 36.1592C29.8082 36.1809 28.2049 35.8561 26.7532 35.1849C25.3882 34.5569 24.2615 33.5176 23.4815 32.2401C22.6799 30.9193 22.2899 29.2738 22.2899 27.3034C22.2682 25.7011 22.6799 24.1205 23.4815 22.7347C24.3049 21.3273 25.4965 20.1581 26.9265 19.3786C28.4432 18.5341 30.2632 18.1228 32.4082 18.1228C32.5165 18.1228 32.6682 18.1228 32.8632 18.1444C33.0582 18.1661 33.2749 18.1661 33.5349 18.1877V11.3455C33.5349 11.194 33.5999 11.1074 33.7515 11.1074H38.1499C38.2582 11.0857 38.3449 11.1723 38.3665 11.2589V11.3022V31.9153C38.3665 32.3051 38.3882 32.7381 38.4099 33.2145C38.4532 33.6692 38.4749 34.1022 38.4965 34.4703C38.4965 34.6219 38.4315 34.7518 38.2799 34.8168C37.1532 35.2931 35.9615 35.6396 34.7482 35.8561C33.6649 36.051 32.5382 36.1592 31.4115 36.1592ZM33.5349 31.8287V22.3017C33.3399 22.2584 33.1449 22.2151 32.9499 22.1934C32.7115 22.1718 32.4732 22.1501 32.2349 22.1501C31.3899 22.1501 30.5449 22.3233 29.7865 22.7131C29.0499 23.0812 28.4215 23.6225 27.9449 24.3153C27.4682 25.0082 27.2299 25.9393 27.2299 27.0652C27.2082 27.823 27.3382 28.5809 27.5982 29.2954C27.8149 29.88 28.1399 30.3997 28.5732 30.8327C28.9849 31.2225 29.4832 31.5256 30.0465 31.6988C30.6315 31.8937 31.2382 31.9803 31.8449 31.9803C32.1699 31.9803 32.4732 31.9587 32.7549 31.937C33.0365 31.9587 33.2965 31.9153 33.5349 31.8287Z" fill="#FFFDEF"/>
</svg>
