<svg width="38" height="38" viewBox="0 0 38 38" fill="none" xmlns="http://www.w3.org/2000/svg">
<path d="M0.03125 0.197998H37.9611V37.8118H0.03125V0.197998ZM34.8556 28.8433C34.5782 27.1224 33.4475 25.6837 30.1084 24.3379C28.948 23.7995 27.6513 23.4198 27.2684 22.55C27.1262 22.0352 27.1013 21.7542 27.1938 21.4475C27.4344 20.4307 28.6387 20.131 29.5893 20.4131C30.2068 20.6023 30.7746 21.0678 31.1325 21.8212C32.7683 20.7622 32.7683 20.7622 33.905 20.0581C33.4795 19.4034 33.2697 19.1154 32.9793 18.8404C31.9848 17.7319 30.6584 17.1689 28.5035 17.2183L27.3858 17.3593C26.3178 17.6167 25.2996 18.1798 24.6821 18.9332C22.8852 20.9538 23.4043 24.4801 25.5829 25.9435C27.7378 27.5409 30.8919 27.89 31.2997 29.3969C31.6766 31.2341 29.9235 31.8218 28.1882 31.6067C26.9105 31.3246 26.2005 30.6887 25.4158 29.5133L22.526 31.1601C22.8532 31.9135 23.236 32.2379 23.8038 32.8985C26.5513 35.6479 33.4285 35.5068 34.6624 31.3246C34.7051 31.1836 35.0393 30.2162 34.7797 28.741L34.8556 28.8433ZM20.6568 17.4863H17.1068C17.1068 20.5224 17.0878 23.5409 17.0878 26.5841C17.0878 28.513 17.1862 30.2879 16.8721 30.8333C16.347 31.9112 15.0076 31.776 14.396 31.5867C13.7725 31.2811 13.4513 30.858 13.0874 30.2456C12.9819 30.0798 12.9084 29.94 12.8835 29.94L10.0009 31.7031C10.4821 32.6893 11.1862 33.5403 12.0941 34.0787C13.4466 34.8803 15.2613 35.1377 17.1625 34.7157C18.3976 34.3608 19.4656 33.632 20.0203 32.5059C20.8287 31.0484 20.6556 29.2617 20.6497 27.2588C20.6686 24.0381 20.6497 20.8186 20.6497 17.5732L20.6568 17.4863Z" fill="#00DA7E"/>
</svg>
