<svg width="77" height="78" viewBox="0 0 77 78" fill="none" xmlns="http://www.w3.org/2000/svg">
<circle cx="38.4825" cy="39.045" r="37.26" fill="#FDFAF8" fill-opacity="0.5" stroke="#FF66A2" stroke-width="2.43"/>
<g clip-path="url(#clip0_321_248)">
<path d="M28.8381 56.9666H20.1428V29.0487H28.8381V56.9666ZM24.4858 25.2404C21.7059 25.2404 19.4502 22.9443 19.4502 20.1721C19.4502 18.8402 19.9807 17.563 20.9251 16.6212C21.8694 15.6795 23.1502 15.1504 24.4858 15.1504C25.8213 15.1504 27.1021 15.6795 28.0464 16.6212C28.9908 17.563 29.5213 18.8402 29.5213 20.1721C29.5213 22.9443 27.2656 25.2404 24.4858 25.2404ZM61.3727 56.9666H52.6962V43.3764C52.6962 40.1375 52.6307 35.9838 48.1754 35.9838C43.6546 35.9838 42.962 39.5028 42.962 43.143V56.9666H34.2761V29.0487H42.6157V32.857H42.7374C43.898 30.6635 46.734 28.3486 50.9646 28.3486C59.7628 28.3486 61.3821 34.1264 61.3821 41.6309V56.9666H61.3727Z" fill="#FF66A2"/>
</g>
<defs>
<clipPath id="clip0_321_248">
<rect width="41.9319" height="47.79" fill="white" transform="translate(19.4492 15.1504)"/>
</clipPath>
</defs>
</svg>
