<svg width="51" height="37" viewBox="0 0 51 37" fill="none" xmlns="http://www.w3.org/2000/svg">
<path d="M18.6884 31.901C18.1124 32.4318 17.6665 32.7871 17.2109 33.0468C14.9805 34.3177 12.2327 34.3177 10.0024 33.0468C9.18049 32.5784 8.39046 31.7986 6.81038 30.2392C5.2303 28.6796 4.44025 27.8998 3.96576 27.0885C2.67808 24.8871 2.67808 22.1749 3.96576 19.9735C4.44025 19.1624 5.2303 18.3826 6.81038 16.823L13.6066 10.115C15.1867 8.5554 15.9767 7.7756 16.7986 7.30727C19.0289 6.0363 21.7768 6.0363 24.0072 7.30724C24.8289 7.7756 25.619 8.5554 27.1991 10.115C28.7792 11.6745 29.5692 12.4543 30.0438 13.2655C31.3315 15.4669 31.3315 18.1791 30.0438 20.3805C29.7807 20.8301 29.4207 21.2703 28.8827 21.8388M22.1173 15.1612C21.5793 15.7297 21.2194 16.1699 20.9563 16.6195C19.6687 18.8209 19.6687 21.5331 20.9563 23.7345C21.4308 24.5458 22.2209 25.3256 23.801 26.885C25.3811 28.4446 26.1711 29.2244 26.9929 29.6928C29.2232 30.9638 31.9711 30.9638 34.2014 29.6928C35.0234 29.2244 35.8135 28.4446 37.3936 26.885L44.1898 20.177C45.7699 18.6174 46.5599 17.8376 47.0342 17.0265C48.3219 14.8251 48.3219 12.1129 47.0342 9.91151C46.5599 9.10031 45.7699 8.32051 44.1898 6.76093C42.6097 5.20136 41.8196 4.42158 40.9978 3.95323C38.7673 2.68226 36.0196 2.68226 33.7893 3.95323C33.3335 4.21288 32.8878 4.56822 32.3116 5.09909" stroke="#00DA7E" stroke-width="5" stroke-linecap="round"/>
</svg>
