<svg width="89" height="89" viewBox="0 0 89 89" fill="none" xmlns="http://www.w3.org/2000/svg">
<circle cx="44.5" cy="44.5" r="43.5" fill="#FDFAF8" stroke="#FF66A2" stroke-width="2"/>
<g clip-path="url(#clip0_321_109)">
<path d="M32.59 66.625H21.8551V32.1584H32.59V66.625ZM27.2168 27.4568C23.7848 27.4568 21 24.6221 21 21.1996C21 19.5554 21.655 17.9785 22.8208 16.8158C23.9867 15.6532 25.568 15 27.2168 15C28.8655 15 30.4468 15.6532 31.6127 16.8158C32.7785 17.9785 33.4335 19.5554 33.4335 21.1996C33.4335 24.6221 30.6487 27.4568 27.2168 27.4568ZM72.7562 66.625H62.0444V49.8469C62.0444 45.8482 61.9635 40.7203 56.4632 40.7203C50.882 40.7203 50.0269 45.0646 50.0269 49.5588V66.625H39.3036V32.1584H49.5994V36.86H49.7496C51.1824 34.152 54.6837 31.2941 59.9067 31.2941C70.7687 31.2941 72.7677 38.4271 72.7677 47.692V66.625H72.7562Z" fill="#FF66A2"/>
</g>
<defs>
<clipPath id="clip0_321_109">
<rect width="51.7677" height="59" fill="white" transform="translate(21 15)"/>
</clipPath>
</defs>
</svg>
