<svg width="67" height="67" viewBox="0 0 67 67" fill="none" xmlns="http://www.w3.org/2000/svg">
<circle cx="33.1875" cy="33.1875" r="33.1875" fill="#FF66A2"/>
<g clip-path="url(#clip0_2142_389)">
<path d="M24.3077 49.688H16.3018V23.9833H24.3077V49.688ZM20.3004 20.4769C17.7409 20.4769 15.6641 18.3628 15.6641 15.8104C15.6641 14.5841 16.1525 13.4081 17.022 12.541C17.8915 11.6739 19.0708 11.1868 20.3004 11.1868C21.5301 11.1868 22.7094 11.6739 23.5788 12.541C24.4483 13.4081 24.9368 14.5841 24.9368 15.8104C24.9368 18.3628 22.8599 20.4769 20.3004 20.4769ZM54.2631 49.688H46.2744V37.1751C46.2744 34.193 46.2141 30.3686 42.1121 30.3686C37.9497 30.3686 37.3119 33.6086 37.3119 36.9602V49.688H29.3146V23.9833H36.9931V27.4896H37.1051C38.1737 25.47 40.7849 23.3387 44.6802 23.3387C52.7809 23.3387 54.2717 28.6584 54.2717 35.568V49.688H54.2631Z" fill="#FDFAF8"/>
</g>
<defs>
<clipPath id="clip0_2142_389">
<rect width="38.6077" height="44.0014" fill="white" transform="translate(15.6641 11.1868)"/>
</clipPath>
</defs>
</svg>
