<svg width="77" height="78" viewBox="0 0 77 78" fill="none" xmlns="http://www.w3.org/2000/svg">
<circle cx="38.4825" cy="39.045" r="37.26" stroke="#FDFAF8" stroke-width="2.43"/>
<g clip-path="url(#clip0_0_742)">
<path d="M28.8371 56.9664H20.1418V29.0484H28.8371V56.9664ZM24.4848 25.2402C21.7049 25.2402 19.4492 22.944 19.4492 20.1718C19.4492 18.84 19.9798 17.5627 20.9241 16.621C21.8685 15.6792 23.1493 15.1501 24.4848 15.1501C25.8203 15.1501 27.1011 15.6792 28.0455 16.621C28.9898 17.5627 29.5204 18.84 29.5204 20.1718C29.5204 22.944 27.2646 25.2402 24.4848 25.2402ZM61.3717 56.9664H52.6952V43.3761C52.6952 40.1372 52.6297 35.9836 48.1744 35.9836C43.6536 35.9836 42.961 39.5025 42.961 43.1428V56.9664H34.2751V29.0484H42.6147V32.8567H42.7364C43.897 30.6632 46.733 28.3484 50.9636 28.3484C59.7618 28.3484 61.3811 34.1261 61.3811 41.6307V56.9664H61.3717Z" fill="#FDFAF8"/>
</g>
<defs>
<clipPath id="clip0_0_742">
<rect width="41.9319" height="47.79" fill="white" transform="translate(19.4492 15.1499)"/>
</clipPath>
</defs>
</svg>
