<svg width="31" height="31" viewBox="0 0 31 31" fill="none" xmlns="http://www.w3.org/2000/svg">
<path d="M28.4167 6.26385V21.6218C28.4167 22.8747 27.3962 24.0243 26.1433 24.1793L25.7429 24.231C23.6246 24.5151 20.6408 25.3934 18.2383 26.4009C17.3987 26.7497 16.4688 26.1168 16.4688 25.1997V7.2326C16.4688 6.75469 16.74 6.31552 17.1662 6.08302C19.53 4.80427 23.1079 3.6676 25.5363 3.46094H25.6137C27.1637 3.46094 28.4167 4.71385 28.4167 6.26385Z" fill="#FDFAF8"/>
<path d="M13.8316 6.08302C11.4678 4.80427 7.8899 3.6676 5.46157 3.46094H5.37115C3.82115 3.46094 2.56824 4.71385 2.56824 6.26385V21.6218C2.56824 22.8747 3.58865 24.0243 4.84157 24.1793L5.24199 24.231C7.36032 24.5151 10.3441 25.3934 12.7466 26.4009C13.5862 26.7497 14.5162 26.1168 14.5162 25.1997V7.2326C14.5162 6.74177 14.2578 6.31552 13.8316 6.08302ZM6.45615 9.99677H9.3624C9.89199 9.99677 10.3312 10.4359 10.3312 10.9655C10.3312 11.508 9.89199 11.9343 9.3624 11.9343H6.45615C5.92657 11.9343 5.4874 11.508 5.4874 10.9655C5.4874 10.4359 5.92657 9.99677 6.45615 9.99677ZM10.3312 15.8093H6.45615C5.92657 15.8093 5.4874 15.383 5.4874 14.8405C5.4874 14.311 5.92657 13.8718 6.45615 13.8718H10.3312C10.8607 13.8718 11.2999 14.311 11.2999 14.8405C11.2999 15.383 10.8607 15.8093 10.3312 15.8093Z" fill="#FDFAF8"/>
</svg>
