<svg width="89" height="89" viewBox="0 0 89 89" fill="none" xmlns="http://www.w3.org/2000/svg">
<circle cx="44.5" cy="44.5002" r="44.5" fill="white"/>
<path d="M15.931 31.5402V53.0002H11.233V31.5402H15.931ZM19.904 44.2712H14.423V40.3272H19.672C20.5227 40.3272 21.1703 40.1242 21.615 39.7182C22.0597 39.3122 22.282 38.7226 22.282 37.9492C22.282 37.1952 22.0597 36.6249 21.615 36.2382C21.1703 35.8516 20.5227 35.6582 19.672 35.6582H14.742V31.5402H20.165C22.3303 31.5402 24.022 32.0719 25.24 33.1352C26.4773 34.1986 27.096 35.6486 27.096 37.4852C27.096 38.7419 26.7867 39.8052 26.168 40.6752C25.5493 41.5452 24.6503 42.1639 23.471 42.5312V42.1252C24.7277 42.3959 25.6847 42.9566 26.342 43.8072C27.0187 44.6579 27.357 45.7502 27.357 47.0842C27.357 48.3409 27.0767 49.4139 26.516 50.3032C25.9747 51.1926 25.1627 51.8692 24.08 52.3332C23.0167 52.7779 21.7117 53.0002 20.165 53.0002H14.742V48.8822H19.904C20.774 48.8822 21.4313 48.6889 21.876 48.3022C22.3207 47.8962 22.543 47.2969 22.543 46.5042C22.543 45.7696 22.311 45.2186 21.847 44.8512C21.4023 44.4646 20.7547 44.2712 19.904 44.2712ZM29.1851 45.7212C29.1851 44.1939 29.5235 42.8599 30.2001 41.7192C30.8961 40.5592 31.8435 39.6602 33.0421 39.0222C34.2601 38.3842 35.6425 38.0652 37.1891 38.0652C38.7358 38.0652 40.1085 38.3842 41.3071 39.0222C42.5058 39.6602 43.4435 40.5592 44.1201 41.7192C44.8161 42.8599 45.1641 44.1939 45.1641 45.7212C45.1641 47.2486 44.8161 48.5826 44.1201 49.7232C43.4435 50.8639 42.5058 51.7532 41.3071 52.3912C40.1085 53.0292 38.7358 53.3482 37.1891 53.3482C35.6425 53.3482 34.2601 53.0292 33.0421 52.3912C31.8435 51.7532 30.8961 50.8639 30.2001 49.7232C29.5235 48.5826 29.1851 47.2486 29.1851 45.7212ZM33.6801 45.6922C33.6801 46.4269 33.8251 47.0746 34.1151 47.6352C34.4245 48.1766 34.8401 48.6019 35.3621 48.9112C35.8841 49.2012 36.4931 49.3462 37.1891 49.3462C37.8851 49.3462 38.4941 49.2012 39.0161 48.9112C39.5381 48.6019 39.9441 48.1766 40.2341 47.6352C40.5241 47.0746 40.6691 46.4269 40.6691 45.6922C40.6691 44.9576 40.5241 44.3196 40.2341 43.7782C39.9441 43.2369 39.5381 42.8212 39.0161 42.5312C38.4941 42.2219 37.8851 42.0672 37.1891 42.0672C36.4931 42.0672 35.8841 42.2219 35.3621 42.5312C34.8401 42.8212 34.4245 43.2369 34.1151 43.7782C33.8251 44.3196 33.6801 44.9576 33.6801 45.6922ZM46.9703 45.7212C46.9703 44.1939 47.3086 42.8599 47.9853 41.7192C48.6813 40.5592 49.6286 39.6602 50.8273 39.0222C52.0453 38.3842 53.4276 38.0652 54.9743 38.0652C56.521 38.0652 57.8936 38.3842 59.0923 39.0222C60.291 39.6602 61.2286 40.5592 61.9053 41.7192C62.6013 42.8599 62.9493 44.1939 62.9493 45.7212C62.9493 47.2486 62.6013 48.5826 61.9053 49.7232C61.2286 50.8639 60.291 51.7532 59.0923 52.3912C57.8936 53.0292 56.521 53.3482 54.9743 53.3482C53.4276 53.3482 52.0453 53.0292 50.8273 52.3912C49.6286 51.7532 48.6813 50.8639 47.9853 49.7232C47.3086 48.5826 46.9703 47.2486 46.9703 45.7212ZM51.4653 45.6922C51.4653 46.4269 51.6103 47.0746 51.9003 47.6352C52.2096 48.1766 52.6253 48.6019 53.1473 48.9112C53.6693 49.2012 54.2783 49.3462 54.9743 49.3462C55.6703 49.3462 56.2793 49.2012 56.8013 48.9112C57.3233 48.6019 57.7293 48.1766 58.0193 47.6352C58.3093 47.0746 58.4543 46.4269 58.4543 45.6922C58.4543 44.9576 58.3093 44.3196 58.0193 43.7782C57.7293 43.2369 57.3233 42.8212 56.8013 42.5312C56.2793 42.2219 55.6703 42.0672 54.9743 42.0672C54.2783 42.0672 53.6693 42.2219 53.1473 42.5312C52.6253 42.8212 52.2096 43.2369 51.9003 43.7782C51.6103 44.3196 51.4653 44.9576 51.4653 45.6922ZM70.0044 53.0002H65.5384V31.1342H70.0044V43.7202L74.7024 38.5002H80.2994L74.8474 44.2422L80.1254 53.0002H74.9634L71.7154 47.5772L70.0044 49.3752V53.0002Z" fill="#00DA7E"/>
</svg>
