<svg width="50" height="50" viewBox="0 0 50 50" fill="none" xmlns="http://www.w3.org/2000/svg">
<path d="M0 10.2941V23.5294V39.7059C0 47.9412 6.86275 50 10.2941 50H38.2353C47.6471 50 50 43.1373 50 39.7059V10.2941C50 2.05882 43.1373 0 39.7059 0H10.2941C2.05882 0 0 6.86275 0 10.2941Z" fill="#00DA7E"/>
<path d="M8.87533 44.1176C8.87533 44.1176 7.21209 26.7919 22.862 21.9533C35.5643 18.0239 40.4641 13.3581 40.5668 5.88232C40.5668 5.88232 43.5979 13.313 36.1101 23.9143C36.1101 23.9143 32.3662 28.5049 24.5509 31.4727C24.5509 31.4727 20.9804 32.5997 16.6328 33.6816C15.0338 34.0798 10.1854 36.3939 8.88175 44.1176H8.87533Z" fill="#FFFDEF"/>
</svg>
