<svg width="52" height="51" viewBox="0 0 52 51" fill="none" xmlns="http://www.w3.org/2000/svg">
<path d="M42.9 0H9.1C4.07421 0 0 4.07421 0 9.1V41.1667C0 46.1925 4.07421 50.2667 9.1 50.2667H42.9C47.9258 50.2667 52 46.1925 52 41.1667V9.1C52 4.07421 47.9258 0 42.9 0Z" fill="#00DA7E"/>
<path d="M10.8377 37.024V13.4333C10.8335 13.4005 10.8368 13.367 10.8475 13.3357C10.8582 13.3043 10.876 13.2758 10.8994 13.2523C10.9228 13.2289 10.9513 13.2111 10.9827 13.2005C11.0141 13.1898 11.0475 13.1864 11.0804 13.1907C12.8376 13.1452 14.9111 13 17.6151 13C20.8044 13 23.1444 13.6652 24.6351 15.0973C25.3592 15.7749 25.9326 16.5974 26.3179 17.5112C26.7031 18.4251 26.8916 19.4098 26.8711 20.4013C26.8711 23.0143 25.9466 24.9557 24.0977 26.2253C22.2488 27.495 19.9233 28.1306 17.1211 28.132L15.1711 28.1667V36.9893C15.1765 37.027 15.1731 37.0655 15.1611 37.1016C15.1491 37.1377 15.1288 37.1706 15.1019 37.1975C15.0749 37.2244 15.0421 37.2447 15.006 37.2567C14.9698 37.2687 14.9314 37.2721 14.8937 37.2667H11.1151C10.9309 37.2667 10.8377 37.1865 10.8377 37.024ZM15.1711 16.3843V24.9167C15.1711 24.9167 16.1591 24.8777 17.3377 24.8777C18.8876 24.8777 20.1414 24.5368 21.0991 23.855C22.0567 23.1732 22.5363 22.0567 22.5377 20.5053C22.5377 19.1418 22.116 18.0902 21.2724 17.3507C20.4288 16.6111 19.2097 16.2442 17.6151 16.25C17.2229 16.25 16.8351 16.25 16.4537 16.2673C16.0724 16.2847 15.7604 16.2847 15.5177 16.2847C15.2751 16.2847 15.1451 16.276 15.1711 16.3843ZM41.1711 31.6333C41.1711 34.2875 39.4377 35.5333 39.4377 35.5333V35.5203C39.3337 35.6222 39.2211 35.7175 39.1106 35.8107C37.9175 36.7813 36.3047 37.2667 34.2724 37.2667C32.2401 37.2667 30.579 36.8926 29.2891 36.1443C29.2177 36.1195 29.1572 36.0708 29.1177 36.0064C29.0782 35.942 29.0622 35.866 29.0724 35.7912V32.526C29.0692 32.4891 29.0754 32.4521 29.0906 32.4183C29.1058 32.3845 29.1293 32.3552 29.1591 32.3332C29.1826 32.3162 29.2116 32.3086 29.2404 32.3118C29.2692 32.315 29.2958 32.3288 29.3151 32.3505C30.6901 33.4309 32.3851 34.0239 34.1337 34.0362C34.9412 34.0362 35.5594 33.8917 35.9884 33.6028C36.1862 33.4849 36.35 33.3177 36.4639 33.1176C36.5778 32.9175 36.6379 32.6913 36.6384 32.461C36.643 32.2286 36.5992 31.9978 36.5097 31.7833C36.4201 31.5688 36.2869 31.3753 36.1184 31.2152C35.7717 30.8743 35.09 30.5052 34.0731 30.108C32.2227 29.3858 30.9343 28.6072 30.2077 27.7723C29.4387 26.9358 29.02 25.8361 29.0377 24.7C29.0382 23.9932 29.19 23.2947 29.483 22.6515C29.776 22.0083 30.2034 21.4353 30.7364 20.9712C31.8212 19.9875 33.3696 19.4957 35.3817 19.4957C37.2595 19.4957 38.704 19.7535 39.7151 20.2692C39.8299 20.3385 39.8884 20.4858 39.8884 20.7242V23.6383C39.8884 23.92 39.7844 23.9893 39.5764 23.855C38.3711 23.0631 36.9625 22.6365 35.5204 22.6265C34.7101 22.6265 34.1164 22.7803 33.7351 23.0837C33.5615 23.2068 33.4194 23.369 33.32 23.5572C33.2207 23.7454 33.1669 23.9542 33.1631 24.167C33.1624 24.3752 33.2053 24.5812 33.2888 24.7718C33.3724 24.9625 33.4949 25.1336 33.6484 25.2742C33.972 25.5905 34.6537 25.9588 35.6937 26.3792C37.508 27.0884 38.808 27.8337 39.5937 28.6152L39.6132 28.6347C40.4214 29.3778 41.1711 30.4005 41.1711 31.6333Z" fill="#FFFDEF"/>
</svg>
