<svg width="128" height="128" viewBox="0 0 128 128" fill="none" xmlns="http://www.w3.org/2000/svg">
<path d="M127.61 80.4808L120.17 48.8407C116.402 34.7778 103.658 25 89.0987 25H38.9009C24.3412 25 11.5979 34.7775 7.82967 48.8407L0.389673 80.4808C-1.51483 89.5565 3.72467 98.6117 12.5462 101.481L12.9812 101.62C21.1457 104.278 30.0532 100.853 34.3384 93.4128L40.8119 83.8405C42.4374 81.0185 45.4464 79.278 48.6994 79.278H79.3009C82.5539 79.278 85.5629 81.0185 87.1882 83.8405L93.6617 93.4128C97.9472 100.853 106.856 104.278 115.021 101.62L115.454 101.481C124.275 98.6117 129.515 89.5565 127.61 80.4808ZM47.7614 59.2775H37.3392V69.7015H28.2654V59.2775H17.8432V50.2078H28.2654V39.7877H37.3392V50.2078H47.7614V59.2775ZM93.6819 37.6163C96.8384 37.6163 99.3937 40.1715 99.3937 43.3282C99.3937 46.4807 96.8384 49.036 93.6819 49.036C90.5294 49.036 87.9742 46.4807 87.9742 43.3282C87.9742 40.1712 90.5294 37.6163 93.6819 37.6163ZM82.2622 60.4575C79.1097 60.4575 76.5524 57.9 76.5524 54.7435C76.5524 51.593 79.1097 49.0357 82.2622 49.0357C85.4167 49.0357 87.9719 51.593 87.9719 54.7435C87.9722 57.9003 85.4169 60.4575 82.2622 60.4575ZM93.6819 71.875C90.5294 71.875 87.9742 69.3198 87.9742 66.1673C87.9742 63.0105 90.5294 60.4553 93.6819 60.4553C96.8384 60.4553 99.3937 63.0105 99.3937 66.1673C99.3937 69.3198 96.8384 71.875 93.6819 71.875ZM105.101 60.4575C101.949 60.4575 99.3934 57.9 99.3934 54.7435C99.3934 51.593 101.949 49.0357 105.101 49.0357C108.256 49.0357 110.813 51.593 110.813 54.7435C110.813 57.9003 108.256 60.4575 105.101 60.4575Z" fill="#FF66A2"/>
</svg>
