<svg width="53" height="50" viewBox="0 0 53 50" fill="none" xmlns="http://www.w3.org/2000/svg">
<path d="M4.55905 25C4.55905 21.8573 5.227 18.9294 6.49158 16.285L17.1145 44.2837C9.68632 40.8553 4.56143 33.4979 4.56143 24.9977L4.55905 25ZM41.9213 23.928C41.9213 25.7862 41.1773 27.857 40.2122 30.8557L37.9825 37.9983L29.8864 14.9273C31.2246 14.8565 32.4868 14.7125 32.4868 14.7125C33.6753 14.5685 33.528 12.9274 32.3371 12.9983C32.3371 12.9983 28.6978 13.2131 26.3945 13.2131C24.1648 13.2131 20.5256 12.9983 20.5256 12.9983C19.3371 12.9274 19.1873 14.6416 20.3758 14.7125C20.3758 14.7125 21.4907 14.8565 22.6792 14.9273L26.171 24.0698L21.2672 38.14L13.171 14.9273C14.5093 14.8565 15.6978 14.7125 15.6978 14.7125C16.96 14.5685 16.8127 12.9274 15.5481 12.9983C15.5481 12.9983 11.9825 13.2131 9.6055 13.2131H8.19354C12.206 7.42823 19.0399 3.57012 26.839 3.57012C32.6342 3.57012 37.9065 5.71402 41.9189 9.21329C41.7691 9.14244 41.6955 9.14244 41.6218 9.14244C39.3921 9.14244 37.8328 11.0006 37.8328 13.0005C37.8328 14.7148 38.9476 16.2141 40.0624 18.0015C40.8801 19.43 41.9189 21.2882 41.9189 23.9303L41.9213 23.928ZM20.528 45.5705L27.2146 26.8559L34.1222 44.9259C34.1222 45.0699 34.1959 45.1408 34.272 45.2116C31.9686 45.9979 29.4442 46.4253 26.8438 46.4253C24.6902 46.4253 22.5342 46.1396 20.5303 45.5682L20.528 45.5705ZM46.3782 14.7148C48.161 17.7866 49.1261 21.2859 49.1261 25C49.1261 32.9288 44.6691 39.7856 38.0586 43.5706L44.8926 24.5703C46.1548 21.5693 46.528 19.0711 46.528 16.9272C46.528 16.141 46.528 15.4301 46.3782 14.7148ZM26.8438 0C41.1796 0 52.8438 11.2132 52.8438 25C52.8438 38.7868 41.182 50 26.8438 50C12.5055 50 0.84375 38.7868 0.84375 25C0.84375 11.2132 12.5055 0 26.8438 0ZM26.8438 48.8549C40.5117 48.8549 51.6552 38.14 51.6552 24.9977C51.6552 11.8555 40.5117 1.14052 26.8438 1.14052C13.1758 1.14052 2.03227 11.8555 2.03227 24.9977C2.03227 38.14 13.1758 48.8549 26.8438 48.8549Z" fill="#00DA7E"/>
</svg>
