<svg width="553" height="407" viewBox="0 0 553 407" fill="none" xmlns="http://www.w3.org/2000/svg">
<path d="M252.276 168.226L255.156 169.068C255.155 169.07 255.154 169.072 255.154 169.074L255.156 169.068L252.276 168.226ZM252.276 168.226L253.118 171.105C253.121 171.104 253.123 171.104 253.125 171.103L253.118 171.105L252.276 168.226ZM255.156 137.525L252.276 138.367L255.156 137.525L255.154 137.519C255.155 137.521 255.155 137.523 255.156 137.525ZM291.04 146.578L254.695 135.949L244.066 99.6038C242.102 92.8902 232.592 92.8903 230.629 99.6038L220 135.949L183.655 146.578L185.058 151.377L183.655 146.578C176.941 148.541 176.941 158.052 183.655 160.015L220 170.644L230.629 206.989C232.592 213.703 242.102 213.702 244.066 206.989L254.695 170.644L291.04 160.015C297.753 158.052 297.753 148.541 291.04 146.578ZM221.576 171.105C221.574 171.104 221.572 171.104 221.57 171.103L221.576 171.105L222.418 168.226L221.576 171.105Z" fill="white" stroke="white" stroke-width="10"/>
<path d="M311.16 169.055L312.494 173.615L311.16 169.055C304.447 171.018 304.447 180.529 311.16 182.492L329.648 187.899L335.055 206.386C337.018 213.1 346.529 213.1 348.492 206.386L353.899 187.899L372.386 182.492C379.1 180.529 379.1 171.018 372.386 169.055L353.899 163.648L348.492 145.16L343.693 146.564L348.492 145.16C346.529 138.447 337.018 138.447 335.055 145.16L329.648 163.648L311.16 169.055Z" fill="white" stroke="white" stroke-width="10"/>
<path d="M285.246 194.735C285.245 194.733 285.245 194.731 285.244 194.729L285.845 194.553L285.244 194.729L285.246 194.735ZM218.774 261.199C218.776 261.2 218.778 261.2 218.78 261.201L218.774 261.199L218.598 261.8L218.774 261.199ZM218.78 266.956C218.778 266.957 218.776 266.957 218.774 266.958L218.598 266.357L218.774 266.958L218.78 266.956ZM285.244 333.428C285.244 333.426 285.245 333.425 285.245 333.423L285.244 333.428ZM357.473 266.958C357.471 266.957 357.47 266.957 357.468 266.957L357.473 266.958ZM357.473 261.199L357.468 261.2C357.47 261.2 357.471 261.199 357.473 261.199ZM291.003 333.428L291.001 333.423C291.002 333.425 291.002 333.426 291.003 333.428ZM291.001 194.735L291.003 194.729L290.402 194.553L291.003 194.729C291.002 194.731 291.002 194.733 291.001 194.735ZM310.11 284.028L307.23 283.185L310.11 284.028C310.109 284.03 310.109 284.032 310.108 284.034L310.11 284.028ZM309.649 285.604L360.28 270.797C366.993 268.834 366.993 259.323 360.28 257.36L309.649 242.553L294.842 191.922C292.879 185.209 283.368 185.209 281.405 191.922L266.598 242.553L215.967 257.36C209.254 259.323 209.254 268.834 215.967 270.797L266.598 285.604L281.405 336.235C283.368 342.948 292.879 342.948 294.842 336.235L309.649 285.604ZM308.072 286.065L308.078 286.063C308.076 286.064 308.074 286.064 308.072 286.065ZM268.174 286.065C268.172 286.064 268.17 286.064 268.168 286.063L268.174 286.065L269.016 283.185L268.174 286.065Z" fill="white" stroke="white" stroke-width="10"/>
<path d="M235.582 104.5C236.146 102.588 238.854 102.588 239.418 104.5L249.748 139.505C249.941 140.159 250.455 140.67 251.11 140.86L286.372 151.079C288.296 151.637 288.296 154.363 286.372 154.921L251.11 165.14C250.455 165.33 249.941 165.841 249.748 166.495L239.418 201.5C238.854 203.412 236.146 203.412 235.582 201.5L225.252 166.495C225.059 165.841 224.545 165.33 223.89 165.14L188.628 154.921C186.704 154.363 186.704 151.637 188.628 151.079L223.89 140.86C224.545 140.67 225.059 140.159 225.252 139.505L235.582 104.5Z" fill="#FF66A2"/>
<path d="M339.996 148.115C340.557 146.197 343.275 146.197 343.836 148.115L349.189 166.42C349.38 167.074 349.892 167.586 350.547 167.778L368.852 173.131C370.77 173.692 370.77 176.409 368.852 176.97L350.547 182.324C349.892 182.515 349.38 183.027 349.189 183.682L343.836 201.987C343.275 203.905 340.557 203.905 339.996 201.987L334.643 183.682C334.452 183.027 333.94 182.515 333.285 182.324L314.98 176.97C313.062 176.409 313.062 173.692 314.98 173.131L333.285 167.778C333.94 167.586 334.452 167.074 334.643 166.42L339.996 148.115Z" fill="#FF66A2"/>
<path d="M286.08 198.564C286.641 196.646 289.359 196.646 289.92 198.564L303.984 246.657C304.176 247.312 304.688 247.824 305.343 248.016L353.436 262.08C355.354 262.641 355.354 265.359 353.436 265.92L305.343 279.984C304.688 280.176 304.176 280.688 303.984 281.343L289.92 329.436C289.359 331.354 286.641 331.354 286.08 329.436L272.016 281.343C271.824 280.688 271.312 280.176 270.657 279.984L222.564 265.92C220.646 265.359 220.646 262.641 222.564 262.08L270.657 248.016C271.312 247.824 271.824 247.312 272.016 246.657L286.08 198.564Z" fill="#FF66A2"/>
<rect x="159" y="1" width="140" height="44" rx="22" fill="#FDFAF8" stroke="#FF66A2" stroke-width="2"/>
<path d="M190.75 33.3C188.967 33.3 187.417 32.9167 186.1 32.15C184.8 31.3667 183.783 30.275 183.05 28.875C182.333 27.4583 181.975 25.7917 181.975 23.875C181.975 21.975 182.342 20.3167 183.075 18.9C183.825 17.4833 184.875 16.3833 186.225 15.6C187.575 14.8167 189.133 14.425 190.9 14.425C192.35 14.425 193.65 14.6917 194.8 15.225C195.95 15.7583 196.9 16.5083 197.65 17.475C198.4 18.425 198.875 19.5583 199.075 20.875H195.7C195.383 19.8083 194.792 18.9833 193.925 18.4C193.075 17.8 192.033 17.5 190.8 17.5C189.7 17.5 188.733 17.7583 187.9 18.275C187.083 18.7917 186.45 19.525 186 20.475C185.55 21.425 185.325 22.5583 185.325 23.875C185.325 25.1417 185.55 26.2583 186 27.225C186.45 28.175 187.083 28.9167 187.9 29.45C188.733 29.9667 189.7 30.225 190.8 30.225C192.05 30.225 193.117 29.925 194 29.325C194.9 28.725 195.5 27.9167 195.8 26.9H199.125C198.892 28.1667 198.383 29.2833 197.6 30.25C196.833 31.2167 195.858 31.9667 194.675 32.5C193.508 33.0333 192.2 33.3 190.75 33.3ZM209.295 20.6V23.425H208.17C207.053 23.425 206.178 23.725 205.545 24.325C204.911 24.9083 204.595 25.8 204.595 27V33H201.545V20.675H204.42L204.67 23.225H204.37C204.536 22.4083 204.928 21.7417 205.545 21.225C206.161 20.7083 206.961 20.45 207.945 20.45C208.161 20.45 208.378 20.4583 208.595 20.475C208.811 20.4917 209.045 20.5333 209.295 20.6ZM216.469 33.325C215.252 33.325 214.169 33.05 213.219 32.5C212.286 31.9333 211.552 31.1667 211.019 30.2C210.486 29.2167 210.219 28.0917 210.219 26.825C210.219 25.5417 210.477 24.4083 210.994 23.425C211.511 22.4417 212.236 21.675 213.169 21.125C214.102 20.5583 215.169 20.275 216.369 20.275C217.619 20.275 218.694 20.5417 219.594 21.075C220.494 21.5917 221.186 22.3167 221.669 23.25C222.169 24.1833 222.419 25.3 222.419 26.6V27.525L211.819 27.55L211.869 25.6H219.394C219.394 24.75 219.119 24.0667 218.569 23.55C218.036 23.0333 217.311 22.775 216.394 22.775C215.677 22.775 215.069 22.925 214.569 23.225C214.086 23.525 213.719 23.975 213.469 24.575C213.219 25.175 213.094 25.9083 213.094 26.775C213.094 28.1083 213.377 29.1167 213.944 29.8C214.527 30.4833 215.386 30.825 216.519 30.825C217.352 30.825 218.036 30.6667 218.569 30.35C219.119 30.0333 219.477 29.5833 219.644 29H222.469C222.202 30.35 221.536 31.4083 220.469 32.175C219.419 32.9417 218.086 33.325 216.469 33.325ZM220.019 15.475L217.569 19.175H215.319L217.194 15.475H220.019ZM228.413 33.325C227.113 33.325 226.08 32.975 225.313 32.275C224.563 31.5583 224.188 30.625 224.188 29.475C224.188 28.3417 224.58 27.4417 225.363 26.775C226.163 26.0917 227.296 25.6917 228.763 25.575L232.463 25.275V25C232.463 24.4333 232.355 23.9833 232.138 23.65C231.938 23.3 231.646 23.05 231.263 22.9C230.88 22.7333 230.43 22.65 229.913 22.65C229.013 22.65 228.321 22.8333 227.838 23.2C227.355 23.55 227.113 24.05 227.113 24.7H224.513C224.513 23.8 224.738 23.025 225.188 22.375C225.655 21.7083 226.305 21.1917 227.138 20.825C227.988 20.4583 228.963 20.275 230.063 20.275C231.18 20.275 232.138 20.475 232.938 20.875C233.738 21.2583 234.355 21.8417 234.788 22.625C235.221 23.3917 235.438 24.35 235.438 25.5V33H232.763L232.538 31.175C232.271 31.8083 231.755 32.325 230.988 32.725C230.238 33.125 229.38 33.325 228.413 33.325ZM229.388 31.025C230.338 31.025 231.088 30.7583 231.638 30.225C232.205 29.6917 232.488 28.95 232.488 28V27.35L229.913 27.55C228.963 27.6333 228.288 27.8333 227.888 28.15C227.488 28.45 227.288 28.85 227.288 29.35C227.288 29.9 227.471 30.3167 227.838 30.6C228.205 30.8833 228.721 31.025 229.388 31.025ZM237.038 20.65H244.838V23.2H237.038V20.65ZM242.463 33H239.413V16.8H242.463V33ZM246.76 33V20.65H249.81V33H246.76ZM248.26 18.175C247.743 18.175 247.301 18 246.935 17.65C246.585 17.2833 246.41 16.8417 246.41 16.325C246.41 15.8083 246.585 15.375 246.935 15.025C247.301 14.675 247.743 14.5 248.26 14.5C248.776 14.5 249.21 14.675 249.56 15.025C249.926 15.375 250.11 15.8083 250.11 16.325C250.11 16.8417 249.926 17.2833 249.56 17.65C249.21 18 248.776 18.175 248.26 18.175ZM256.461 33L251.561 20.65H254.811L256.961 26.325C257.227 27.0583 257.452 27.7333 257.636 28.35C257.836 28.95 257.977 29.4167 258.061 29.75C258.144 29.3667 258.286 28.875 258.486 28.275C258.702 27.6583 258.944 27.0083 259.211 26.325L261.461 20.65H264.611L259.461 33H256.461ZM271.303 33.325C270.086 33.325 269.003 33.05 268.053 32.5C267.12 31.9333 266.386 31.1667 265.853 30.2C265.32 29.2167 265.053 28.0917 265.053 26.825C265.053 25.5417 265.311 24.4083 265.828 23.425C266.345 22.4417 267.07 21.675 268.003 21.125C268.936 20.5583 270.003 20.275 271.203 20.275C272.453 20.275 273.528 20.5417 274.428 21.075C275.328 21.5917 276.02 22.3167 276.503 23.25C277.003 24.1833 277.253 25.3 277.253 26.6V27.525L266.653 27.55L266.703 25.6H274.228C274.228 24.75 273.953 24.0667 273.403 23.55C272.87 23.0333 272.145 22.775 271.228 22.775C270.511 22.775 269.903 22.925 269.403 23.225C268.92 23.525 268.553 23.975 268.303 24.575C268.053 25.175 267.928 25.9083 267.928 26.775C267.928 28.1083 268.211 29.1167 268.778 29.8C269.361 30.4833 270.22 30.825 271.353 30.825C272.186 30.825 272.87 30.6667 273.403 30.35C273.953 30.0333 274.311 29.5833 274.478 29H277.303C277.036 30.35 276.37 31.4083 275.303 32.175C274.253 32.9417 272.92 33.325 271.303 33.325Z" fill="#FF66A2"/>
<rect x="1" y="220" width="177" height="44" rx="22" fill="#FDFAF8" stroke="#FF66A2" stroke-width="2"/>
<path d="M36.375 252H25.025V233.725H36.375V236.675H27.1L28.225 235.65V241.375H35.525V244.2H28.225V250.075L27.1 249.05H36.375V252ZM42.4199 252H39.3699V239.65H42.1699L42.5449 241.85L42.1949 241.55C42.4449 240.95 42.9033 240.425 43.5699 239.975C44.2366 239.508 45.0699 239.275 46.0699 239.275C47.1533 239.275 48.0366 239.558 48.7199 240.125C49.4199 240.692 49.9033 241.442 50.1699 242.375H49.6699C49.8533 241.442 50.3199 240.692 51.0699 240.125C51.8366 239.558 52.7616 239.275 53.8449 239.275C55.3449 239.275 56.4949 239.7 57.2949 240.55C58.0949 241.383 58.4949 242.508 58.4949 243.925V252H55.4699V244.725C55.4699 243.842 55.2449 243.175 54.7949 242.725C54.3616 242.258 53.7783 242.025 53.0449 242.025C52.5783 242.025 52.1449 242.133 51.7449 242.35C51.3616 242.567 51.0533 242.892 50.8199 243.325C50.5866 243.758 50.4699 244.317 50.4699 245V252H47.4199V244.7C47.4199 243.833 47.2033 243.175 46.7699 242.725C46.3366 242.275 45.7616 242.05 45.0449 242.05C44.5616 242.05 44.1199 242.158 43.7199 242.375C43.3199 242.575 43.0033 242.9 42.7699 243.35C42.5366 243.783 42.4199 244.333 42.4199 245V252ZM61.4891 257.725V239.65H64.3141L64.5141 241.525C64.8807 240.808 65.4474 240.258 66.2141 239.875C66.9807 239.475 67.8224 239.275 68.7391 239.275C69.9224 239.275 70.9391 239.542 71.7891 240.075C72.6557 240.608 73.3307 241.35 73.8141 242.3C74.2974 243.25 74.5391 244.375 74.5391 245.675C74.5391 246.958 74.3141 248.1 73.8641 249.1C73.4141 250.1 72.7557 250.892 71.8891 251.475C71.0391 252.042 69.9974 252.325 68.7641 252.325C67.8474 252.325 67.0057 252.15 66.2391 251.8C65.4891 251.45 64.9224 250.967 64.5391 250.35V257.725H61.4891ZM64.5641 245.825C64.5641 246.558 64.7057 247.208 64.9891 247.775C65.2724 248.342 65.6724 248.792 66.1891 249.125C66.7224 249.442 67.3391 249.6 68.0391 249.6C68.7557 249.6 69.3724 249.442 69.8891 249.125C70.4057 248.792 70.7974 248.342 71.0641 247.775C71.3307 247.208 71.4641 246.558 71.4641 245.825C71.4641 245.092 71.3307 244.442 71.0641 243.875C70.7974 243.308 70.4057 242.867 69.8891 242.55C69.3724 242.217 68.7557 242.05 68.0391 242.05C67.3391 242.05 66.7224 242.208 66.1891 242.525C65.6724 242.842 65.2724 243.283 64.9891 243.85C64.7057 244.417 64.5641 245.075 64.5641 245.825ZM80.6426 252.325C79.3426 252.325 78.3092 251.975 77.5426 251.275C76.7926 250.558 76.4176 249.625 76.4176 248.475C76.4176 247.342 76.8092 246.442 77.5926 245.775C78.3926 245.092 79.5259 244.692 80.9926 244.575L84.6926 244.275V244C84.6926 243.433 84.5842 242.983 84.3676 242.65C84.1676 242.3 83.8759 242.05 83.4926 241.9C83.1092 241.733 82.6592 241.65 82.1426 241.65C81.2426 241.65 80.5509 241.833 80.0676 242.2C79.5842 242.55 79.3426 243.05 79.3426 243.7H76.7426C76.7426 242.8 76.9676 242.025 77.4176 241.375C77.8842 240.708 78.5342 240.192 79.3676 239.825C80.2176 239.458 81.1926 239.275 82.2926 239.275C83.4092 239.275 84.3676 239.475 85.1676 239.875C85.9676 240.258 86.5842 240.842 87.0176 241.625C87.4509 242.392 87.6676 243.35 87.6676 244.5V252H84.9926L84.7676 250.175C84.5009 250.808 83.9842 251.325 83.2176 251.725C82.4676 252.125 81.6092 252.325 80.6426 252.325ZM81.6176 250.025C82.5676 250.025 83.3176 249.758 83.8676 249.225C84.4342 248.692 84.7176 247.95 84.7176 247V246.35L82.1426 246.55C81.1926 246.633 80.5176 246.833 80.1176 247.15C79.7176 247.45 79.5176 247.85 79.5176 248.35C79.5176 248.9 79.7009 249.317 80.0676 249.6C80.4342 249.883 80.9509 250.025 81.6176 250.025ZM89.268 239.65H97.068V242.2H89.268V239.65ZM94.693 252H91.643V235.8H94.693V252ZM102.039 252H98.9891V233.4H102.064V241.25C102.447 240.65 102.981 240.175 103.664 239.825C104.364 239.458 105.164 239.275 106.064 239.275C107.581 239.275 108.731 239.733 109.514 240.65C110.314 241.567 110.714 242.817 110.714 244.4V252H107.664V245.125C107.664 244.425 107.556 243.85 107.339 243.4C107.122 242.95 106.822 242.617 106.439 242.4C106.056 242.167 105.606 242.05 105.089 242.05C104.456 242.05 103.906 242.192 103.439 242.475C102.989 242.742 102.639 243.117 102.389 243.6C102.156 244.083 102.039 244.633 102.039 245.25V252ZM113.711 252V239.65H116.761V252H113.711ZM115.211 237.175C114.694 237.175 114.252 237 113.886 236.65C113.536 236.283 113.361 235.842 113.361 235.325C113.361 234.808 113.536 234.375 113.886 234.025C114.252 233.675 114.694 233.5 115.211 233.5C115.727 233.5 116.161 233.675 116.511 234.025C116.877 234.375 117.061 234.808 117.061 235.325C117.061 235.842 116.877 236.283 116.511 236.65C116.161 237 115.727 237.175 115.211 237.175ZM119.187 245.675C119.187 244.375 119.42 243.25 119.887 242.3C120.37 241.35 121.045 240.608 121.912 240.075C122.795 239.542 123.812 239.275 124.962 239.275C125.895 239.275 126.737 239.475 127.487 239.875C128.254 240.258 128.829 240.808 129.212 241.525L129.412 239.65H132.212V257.725H129.187V250.35C128.804 250.967 128.229 251.45 127.462 251.8C126.712 252.15 125.87 252.325 124.937 252.325C123.737 252.325 122.704 252.042 121.837 251.475C120.97 250.892 120.312 250.1 119.862 249.1C119.412 248.1 119.187 246.958 119.187 245.675ZM122.237 245.825C122.237 246.558 122.37 247.208 122.637 247.775C122.92 248.342 123.32 248.792 123.837 249.125C124.354 249.442 124.962 249.6 125.662 249.6C126.379 249.6 126.995 249.442 127.512 249.125C128.029 248.792 128.429 248.342 128.712 247.775C129.012 247.208 129.162 246.558 129.162 245.825C129.162 245.075 129.012 244.417 128.712 243.85C128.429 243.283 128.029 242.842 127.512 242.525C126.995 242.208 126.379 242.05 125.662 242.05C124.962 242.05 124.354 242.217 123.837 242.55C123.32 242.867 122.92 243.308 122.637 243.875C122.37 244.442 122.237 245.092 122.237 245.825ZM143.765 239.65H146.815V252H143.99L143.765 250.35C143.399 250.933 142.849 251.408 142.115 251.775C141.382 252.142 140.599 252.325 139.765 252.325C138.349 252.325 137.24 251.875 136.44 250.975C135.64 250.075 135.24 248.875 135.24 247.375V239.65H138.29V246.3C138.29 247.467 138.515 248.308 138.965 248.825C139.415 249.342 140.065 249.6 140.915 249.6C141.882 249.6 142.599 249.317 143.065 248.75C143.532 248.167 143.765 247.292 143.765 246.125V239.65ZM155.246 252.325C154.03 252.325 152.946 252.05 151.996 251.5C151.063 250.933 150.33 250.167 149.796 249.2C149.263 248.217 148.996 247.092 148.996 245.825C148.996 244.542 149.255 243.408 149.771 242.425C150.288 241.442 151.013 240.675 151.946 240.125C152.88 239.558 153.946 239.275 155.146 239.275C156.396 239.275 157.471 239.542 158.371 240.075C159.271 240.592 159.963 241.317 160.446 242.25C160.946 243.183 161.196 244.3 161.196 245.6V246.525L150.596 246.55L150.646 244.6H158.171C158.171 243.75 157.896 243.067 157.346 242.55C156.813 242.033 156.088 241.775 155.171 241.775C154.455 241.775 153.846 241.925 153.346 242.225C152.863 242.525 152.496 242.975 152.246 243.575C151.996 244.175 151.871 244.908 151.871 245.775C151.871 247.108 152.155 248.117 152.721 248.8C153.305 249.483 154.163 249.825 155.296 249.825C156.13 249.825 156.813 249.667 157.346 249.35C157.896 249.033 158.255 248.583 158.421 248H161.246C160.98 249.35 160.313 250.408 159.246 251.175C158.196 251.942 156.863 252.325 155.246 252.325Z" fill="#FF66A2"/>
<rect x="19" y="90" width="146" height="44" rx="22" fill="#FDFAF8" stroke="#FF66A2" stroke-width="2"/>
<path d="M46.225 122H43.025V103.725H46.225V111.3H54.325V103.725H57.525V122H54.325V114.25H46.225V122ZM69.4803 109.65H72.5303V122H69.7053L69.4803 120.35C69.1136 120.933 68.5636 121.408 67.8303 121.775C67.0969 122.142 66.3136 122.325 65.4803 122.325C64.0636 122.325 62.9553 121.875 62.1553 120.975C61.3553 120.075 60.9553 118.875 60.9553 117.375V109.65H64.0053V116.3C64.0053 117.467 64.2303 118.308 64.6803 118.825C65.1303 119.342 65.7803 119.6 66.6303 119.6C67.5969 119.6 68.3136 119.317 68.7803 118.75C69.2469 118.167 69.4803 117.292 69.4803 116.125V109.65ZM78.7305 122H75.6805V109.65H78.4805L78.8555 111.85L78.5055 111.55C78.7555 110.95 79.2138 110.425 79.8805 109.975C80.5471 109.508 81.3805 109.275 82.3805 109.275C83.4638 109.275 84.3471 109.558 85.0305 110.125C85.7305 110.692 86.2138 111.442 86.4805 112.375H85.9805C86.1638 111.442 86.6305 110.692 87.3805 110.125C88.1471 109.558 89.0721 109.275 90.1555 109.275C91.6555 109.275 92.8055 109.7 93.6055 110.55C94.4055 111.383 94.8055 112.508 94.8055 113.925V122H91.7805V114.725C91.7805 113.842 91.5555 113.175 91.1055 112.725C90.6721 112.258 90.0888 112.025 89.3555 112.025C88.8888 112.025 88.4555 112.133 88.0555 112.35C87.6721 112.567 87.3638 112.892 87.1305 113.325C86.8971 113.758 86.7805 114.317 86.7805 115V122H83.7305V114.7C83.7305 113.833 83.5138 113.175 83.0805 112.725C82.6471 112.275 82.0721 112.05 81.3555 112.05C80.8721 112.05 80.4305 112.158 80.0305 112.375C79.6305 112.575 79.3138 112.9 79.0805 113.35C78.8471 113.783 78.7305 114.333 78.7305 115V122ZM101.475 122.325C100.175 122.325 99.1413 121.975 98.3746 121.275C97.6246 120.558 97.2496 119.625 97.2496 118.475C97.2496 117.342 97.6413 116.442 98.4246 115.775C99.2246 115.092 100.358 114.692 101.825 114.575L105.525 114.275V114C105.525 113.433 105.416 112.983 105.2 112.65C105 112.3 104.708 112.05 104.325 111.9C103.941 111.733 103.491 111.65 102.975 111.65C102.075 111.65 101.383 111.833 100.9 112.2C100.416 112.55 100.175 113.05 100.175 113.7H97.5746C97.5746 112.8 97.7996 112.025 98.2496 111.375C98.7163 110.708 99.3663 110.192 100.2 109.825C101.05 109.458 102.025 109.275 103.125 109.275C104.241 109.275 105.2 109.475 106 109.875C106.8 110.258 107.416 110.842 107.85 111.625C108.283 112.392 108.5 113.35 108.5 114.5V122H105.825L105.6 120.175C105.333 120.808 104.816 121.325 104.05 121.725C103.3 122.125 102.441 122.325 101.475 122.325ZM102.45 120.025C103.4 120.025 104.15 119.758 104.7 119.225C105.266 118.692 105.55 117.95 105.55 117V116.35L102.975 116.55C102.025 116.633 101.35 116.833 100.95 117.15C100.55 117.45 100.35 117.85 100.35 118.35C100.35 118.9 100.533 119.317 100.9 119.6C101.266 119.883 101.783 120.025 102.45 120.025ZM111.496 122V109.65H114.546V122H111.496ZM112.996 107.175C112.479 107.175 112.038 107 111.671 106.65C111.321 106.283 111.146 105.842 111.146 105.325C111.146 104.808 111.321 104.375 111.671 104.025C112.038 103.675 112.479 103.5 112.996 103.5C113.513 103.5 113.946 103.675 114.296 104.025C114.663 104.375 114.846 104.808 114.846 105.325C114.846 105.842 114.663 106.283 114.296 106.65C113.946 107 113.513 107.175 112.996 107.175ZM120.747 122H117.697V109.65H120.522L120.772 111.25C121.155 110.633 121.697 110.15 122.397 109.8C123.114 109.45 123.889 109.275 124.722 109.275C126.272 109.275 127.439 109.733 128.222 110.65C129.022 111.567 129.422 112.817 129.422 114.4V122H126.372V115.125C126.372 114.092 126.139 113.325 125.672 112.825C125.205 112.308 124.572 112.05 123.772 112.05C122.822 112.05 122.08 112.35 121.547 112.95C121.014 113.55 120.747 114.35 120.747 115.35V122ZM137.944 122.325C136.727 122.325 135.644 122.05 134.694 121.5C133.76 120.933 133.027 120.167 132.494 119.2C131.96 118.217 131.694 117.092 131.694 115.825C131.694 114.542 131.952 113.408 132.469 112.425C132.985 111.442 133.71 110.675 134.644 110.125C135.577 109.558 136.644 109.275 137.844 109.275C139.094 109.275 140.169 109.542 141.069 110.075C141.969 110.592 142.66 111.317 143.144 112.25C143.644 113.183 143.894 114.3 143.894 115.6V116.525L133.294 116.55L133.344 114.6H140.869C140.869 113.75 140.594 113.067 140.044 112.55C139.51 112.033 138.785 111.775 137.869 111.775C137.152 111.775 136.544 111.925 136.044 112.225C135.56 112.525 135.194 112.975 134.944 113.575C134.694 114.175 134.569 114.908 134.569 115.775C134.569 117.108 134.852 118.117 135.419 118.8C136.002 119.483 136.86 119.825 137.994 119.825C138.827 119.825 139.51 119.667 140.044 119.35C140.594 119.033 140.952 118.583 141.119 118H143.944C143.677 119.35 143.01 120.408 141.944 121.175C140.894 121.942 139.56 122.325 137.944 122.325Z" fill="#FF66A2"/>
<rect x="346" y="59" width="171" height="44" rx="22" fill="#FDFAF8" stroke="#FF66A2" stroke-width="2"/>
<path d="M371.575 91H368.275L374.875 72.725H378.15L384.75 91H381.375L379.9 86.775H373.075L371.575 91ZM376.1 78.175L374 84.075H378.975L376.875 78.175C376.808 77.925 376.733 77.675 376.65 77.425C376.567 77.175 376.517 76.9583 376.5 76.775C376.467 76.9417 376.408 77.1583 376.325 77.425C376.258 77.675 376.183 77.925 376.1 78.175ZM389.642 91H386.592V78.65H389.392L389.767 80.85L389.417 80.55C389.667 79.95 390.125 79.425 390.792 78.975C391.458 78.5083 392.292 78.275 393.292 78.275C394.375 78.275 395.258 78.5583 395.942 79.125C396.642 79.6917 397.125 80.4417 397.392 81.375H396.892C397.075 80.4417 397.542 79.6917 398.292 79.125C399.058 78.5583 399.983 78.275 401.067 78.275C402.567 78.275 403.717 78.7 404.517 79.55C405.317 80.3833 405.717 81.5083 405.717 82.925V91H402.692V83.725C402.692 82.8417 402.467 82.175 402.017 81.725C401.583 81.2583 401 81.025 400.267 81.025C399.8 81.025 399.367 81.1333 398.967 81.35C398.583 81.5667 398.275 81.8917 398.042 82.325C397.808 82.7583 397.692 83.3167 397.692 84V91H394.642V83.7C394.642 82.8333 394.425 82.175 393.992 81.725C393.558 81.275 392.983 81.05 392.267 81.05C391.783 81.05 391.342 81.1583 390.942 81.375C390.542 81.575 390.225 81.9 389.992 82.35C389.758 82.7833 389.642 83.3333 389.642 84V91ZM411.536 91H408.711V72.4H411.761V80.45C412.161 79.75 412.744 79.2167 413.511 78.85C414.277 78.4667 415.136 78.275 416.086 78.275C417.269 78.275 418.277 78.5583 419.111 79.125C419.961 79.675 420.611 80.45 421.061 81.45C421.527 82.45 421.761 83.6083 421.761 84.925C421.761 86.175 421.519 87.2833 421.036 88.25C420.552 89.2167 419.869 89.975 418.986 90.525C418.102 91.0583 417.069 91.325 415.886 91.325C414.969 91.325 414.136 91.125 413.386 90.725C412.652 90.325 412.102 89.775 411.736 89.075L411.536 91ZM411.786 84.775C411.786 85.5083 411.927 86.1667 412.211 86.75C412.494 87.3167 412.894 87.7583 413.411 88.075C413.944 88.375 414.561 88.525 415.261 88.525C415.977 88.525 416.594 88.3667 417.111 88.05C417.627 87.7333 418.019 87.2917 418.286 86.725C418.552 86.1583 418.686 85.5083 418.686 84.775C418.686 84.0417 418.552 83.3917 418.286 82.825C418.019 82.2583 417.627 81.8167 417.111 81.5C416.594 81.1667 415.977 81 415.261 81C414.561 81 413.944 81.1667 413.411 81.5C412.894 81.8167 412.494 82.2583 412.211 82.825C411.927 83.375 411.786 84.025 411.786 84.775ZM424.189 91V78.65H427.239V91H424.189ZM425.689 76.175C425.173 76.175 424.731 76 424.364 75.65C424.014 75.2833 423.839 74.8417 423.839 74.325C423.839 73.8083 424.014 73.375 424.364 73.025C424.731 72.675 425.173 72.5 425.689 72.5C426.206 72.5 426.639 72.675 426.989 73.025C427.356 73.375 427.539 73.8083 427.539 74.325C427.539 74.8417 427.356 75.2833 426.989 75.65C426.639 76 426.206 76.175 425.689 76.175ZM429.165 78.65H436.965V81.2H429.165V78.65ZM434.59 91H431.54V74.8H434.59V91ZM438.887 91V78.65H441.937V91H438.887ZM440.387 76.175C439.87 76.175 439.428 76 439.062 75.65C438.712 75.2833 438.537 74.8417 438.537 74.325C438.537 73.8083 438.712 73.375 439.062 73.025C439.428 72.675 439.87 72.5 440.387 72.5C440.903 72.5 441.337 72.675 441.687 73.025C442.053 73.375 442.237 73.8083 442.237 74.325C442.237 74.8417 442.053 75.2833 441.687 75.65C441.337 76 440.903 76.175 440.387 76.175ZM450.613 91.325C449.396 91.325 448.313 91.05 447.363 90.5C446.429 89.9333 445.696 89.1667 445.163 88.2C444.629 87.2167 444.363 86.0917 444.363 84.825C444.363 83.5417 444.621 82.4083 445.138 81.425C445.654 80.4417 446.379 79.675 447.313 79.125C448.246 78.5583 449.313 78.275 450.513 78.275C451.763 78.275 452.838 78.5417 453.738 79.075C454.638 79.5917 455.329 80.3167 455.813 81.25C456.313 82.1833 456.563 83.3 456.563 84.6V85.525L445.963 85.55L446.013 83.6H453.538C453.538 82.75 453.263 82.0667 452.713 81.55C452.179 81.0333 451.454 80.775 450.538 80.775C449.821 80.775 449.213 80.925 448.713 81.225C448.229 81.525 447.863 81.975 447.613 82.575C447.363 83.175 447.238 83.9083 447.238 84.775C447.238 86.1083 447.521 87.1167 448.088 87.8C448.671 88.4833 449.529 88.825 450.663 88.825C451.496 88.825 452.179 88.6667 452.713 88.35C453.263 88.0333 453.621 87.5833 453.788 87H456.613C456.346 88.35 455.679 89.4083 454.613 90.175C453.563 90.9417 452.229 91.325 450.613 91.325ZM467.379 78.65H470.429V91H467.604L467.379 89.35C467.012 89.9333 466.462 90.4083 465.729 90.775C464.995 91.1417 464.212 91.325 463.379 91.325C461.962 91.325 460.854 90.875 460.054 89.975C459.254 89.075 458.854 87.875 458.854 86.375V78.65H461.904V85.3C461.904 86.4667 462.129 87.3083 462.579 87.825C463.029 88.3417 463.679 88.6 464.529 88.6C465.495 88.6 466.212 88.3167 466.679 87.75C467.145 87.1667 467.379 86.2917 467.379 85.125V78.65ZM472.385 87.25H475.285C475.301 87.7833 475.501 88.2083 475.885 88.525C476.268 88.8417 476.801 89 477.485 89C478.218 89 478.768 88.8667 479.135 88.6C479.518 88.3333 479.71 87.975 479.71 87.525C479.71 87.225 479.61 86.9583 479.41 86.725C479.21 86.4917 478.835 86.3167 478.285 86.2L476.06 85.675C474.943 85.425 474.11 85.025 473.56 84.475C473.026 83.9083 472.76 83.1333 472.76 82.15C472.76 81.35 472.968 80.6583 473.385 80.075C473.818 79.4917 474.401 79.05 475.135 78.75C475.868 78.4333 476.71 78.275 477.66 78.275C478.576 78.275 479.385 78.4417 480.085 78.775C480.785 79.1083 481.326 79.575 481.71 80.175C482.11 80.775 482.318 81.475 482.335 82.275H479.435C479.435 81.7417 479.268 81.325 478.935 81.025C478.601 80.7083 478.135 80.55 477.535 80.55C476.935 80.55 476.468 80.6833 476.135 80.95C475.801 81.2167 475.635 81.575 475.635 82.025C475.635 82.7083 476.168 83.175 477.235 83.425L479.46 83.95C480.493 84.1833 481.268 84.5583 481.785 85.075C482.318 85.5917 482.585 86.325 482.585 87.275C482.585 88.1083 482.368 88.8333 481.935 89.45C481.501 90.05 480.893 90.5167 480.11 90.85C479.326 91.1667 478.426 91.325 477.41 91.325C475.876 91.325 474.651 90.95 473.735 90.2C472.835 89.45 472.385 88.4667 472.385 87.25ZM490.432 91.325C489.215 91.325 488.132 91.05 487.182 90.5C486.249 89.9333 485.515 89.1667 484.982 88.2C484.449 87.2167 484.182 86.0917 484.182 84.825C484.182 83.5417 484.44 82.4083 484.957 81.425C485.474 80.4417 486.199 79.675 487.132 79.125C488.065 78.5583 489.132 78.275 490.332 78.275C491.582 78.275 492.657 78.5417 493.557 79.075C494.457 79.5917 495.149 80.3167 495.632 81.25C496.132 82.1833 496.382 83.3 496.382 84.6V85.525L485.782 85.55L485.832 83.6H493.357C493.357 82.75 493.082 82.0667 492.532 81.55C491.999 81.0333 491.274 80.775 490.357 80.775C489.64 80.775 489.032 80.925 488.532 81.225C488.049 81.525 487.682 81.975 487.432 82.575C487.182 83.175 487.057 83.9083 487.057 84.775C487.057 86.1083 487.34 87.1167 487.907 87.8C488.49 88.4833 489.349 88.825 490.482 88.825C491.315 88.825 491.999 88.6667 492.532 88.35C493.082 88.0333 493.44 87.5833 493.607 87H496.432C496.165 88.35 495.499 89.4083 494.432 90.175C493.382 90.9417 492.049 91.325 490.432 91.325Z" fill="#FF66A2"/>
<rect x="394" y="199" width="158" height="44" rx="22" fill="#FDFAF8" stroke="#FF66A2" stroke-width="2"/>
<path d="M421.225 212.725V231H418.025V212.725H421.225ZM427.876 231H424.826V218.65H427.626L428.001 220.85L427.651 220.55C427.901 219.95 428.359 219.425 429.026 218.975C429.693 218.508 430.526 218.275 431.526 218.275C432.609 218.275 433.493 218.558 434.176 219.125C434.876 219.692 435.359 220.442 435.626 221.375H435.126C435.309 220.442 435.776 219.692 436.526 219.125C437.293 218.558 438.218 218.275 439.301 218.275C440.801 218.275 441.951 218.7 442.751 219.55C443.551 220.383 443.951 221.508 443.951 222.925V231H440.926V223.725C440.926 222.842 440.701 222.175 440.251 221.725C439.818 221.258 439.234 221.025 438.501 221.025C438.034 221.025 437.601 221.133 437.201 221.35C436.818 221.567 436.509 221.892 436.276 222.325C436.043 222.758 435.926 223.317 435.926 224V231H432.876V223.7C432.876 222.833 432.659 222.175 432.226 221.725C431.793 221.275 431.218 221.05 430.501 221.05C430.018 221.05 429.576 221.158 429.176 221.375C428.776 221.575 428.459 221.9 428.226 222.35C427.993 222.783 427.876 223.333 427.876 224V231ZM446.945 236.725V218.65H449.77L449.97 220.525C450.337 219.808 450.903 219.258 451.67 218.875C452.437 218.475 453.278 218.275 454.195 218.275C455.378 218.275 456.395 218.542 457.245 219.075C458.112 219.608 458.787 220.35 459.27 221.3C459.753 222.25 459.995 223.375 459.995 224.675C459.995 225.958 459.77 227.1 459.32 228.1C458.87 229.1 458.212 229.892 457.345 230.475C456.495 231.042 455.453 231.325 454.22 231.325C453.303 231.325 452.462 231.15 451.695 230.8C450.945 230.45 450.378 229.967 449.995 229.35V236.725H446.945ZM450.02 224.825C450.02 225.558 450.162 226.208 450.445 226.775C450.728 227.342 451.128 227.792 451.645 228.125C452.178 228.442 452.795 228.6 453.495 228.6C454.212 228.6 454.828 228.442 455.345 228.125C455.862 227.792 456.253 227.342 456.52 226.775C456.787 226.208 456.92 225.558 456.92 224.825C456.92 224.092 456.787 223.442 456.52 222.875C456.253 222.308 455.862 221.867 455.345 221.55C454.828 221.217 454.212 221.05 453.495 221.05C452.795 221.05 452.178 221.208 451.645 221.525C451.128 221.842 450.728 222.283 450.445 222.85C450.162 223.417 450.02 224.075 450.02 224.825ZM465.499 231H462.474V212.4H465.499V231ZM468.698 231V218.65H471.748V231H468.698ZM470.198 216.175C469.681 216.175 469.24 216 468.873 215.65C468.523 215.283 468.348 214.842 468.348 214.325C468.348 213.808 468.523 213.375 468.873 213.025C469.24 212.675 469.681 212.5 470.198 212.5C470.715 212.5 471.148 212.675 471.498 213.025C471.865 213.375 472.048 213.808 472.048 214.325C472.048 214.842 471.865 215.283 471.498 215.65C471.148 216 470.715 216.175 470.198 216.175ZM474.174 224.675C474.174 223.375 474.408 222.25 474.874 221.3C475.358 220.35 476.033 219.608 476.899 219.075C477.783 218.542 478.799 218.275 479.949 218.275C480.883 218.275 481.724 218.475 482.474 218.875C483.241 219.258 483.816 219.808 484.199 220.525L484.399 218.65H487.199V236.725H484.174V229.35C483.791 229.967 483.216 230.45 482.449 230.8C481.699 231.15 480.858 231.325 479.924 231.325C478.724 231.325 477.691 231.042 476.824 230.475C475.958 229.892 475.299 229.1 474.849 228.1C474.399 227.1 474.174 225.958 474.174 224.675ZM477.224 224.825C477.224 225.558 477.358 226.208 477.624 226.775C477.908 227.342 478.308 227.792 478.824 228.125C479.341 228.442 479.949 228.6 480.649 228.6C481.366 228.6 481.983 228.442 482.499 228.125C483.016 227.792 483.416 227.342 483.699 226.775C483.999 226.208 484.149 225.558 484.149 224.825C484.149 224.075 483.999 223.417 483.699 222.85C483.416 222.283 483.016 221.842 482.499 221.525C481.983 221.208 481.366 221.05 480.649 221.05C479.949 221.05 479.341 221.217 478.824 221.55C478.308 221.867 477.908 222.308 477.624 222.875C477.358 223.442 477.224 224.092 477.224 224.825ZM498.753 218.65H501.803V231H498.978L498.753 229.35C498.386 229.933 497.836 230.408 497.103 230.775C496.369 231.142 495.586 231.325 494.753 231.325C493.336 231.325 492.228 230.875 491.428 229.975C490.628 229.075 490.228 227.875 490.228 226.375V218.65H493.278V225.3C493.278 226.467 493.503 227.308 493.953 227.825C494.403 228.342 495.053 228.6 495.903 228.6C496.869 228.6 497.586 228.317 498.053 227.75C498.519 227.167 498.753 226.292 498.753 225.125V218.65ZM510.234 231.325C509.017 231.325 507.934 231.05 506.984 230.5C506.05 229.933 505.317 229.167 504.784 228.2C504.25 227.217 503.984 226.092 503.984 224.825C503.984 223.542 504.242 222.408 504.759 221.425C505.275 220.442 506 219.675 506.934 219.125C507.867 218.558 508.934 218.275 510.134 218.275C511.384 218.275 512.459 218.542 513.359 219.075C514.259 219.592 514.95 220.317 515.434 221.25C515.934 222.183 516.184 223.3 516.184 224.6V225.525L505.584 225.55L505.634 223.6H513.159C513.159 222.75 512.884 222.067 512.334 221.55C511.8 221.033 511.075 220.775 510.159 220.775C509.442 220.775 508.834 220.925 508.334 221.225C507.85 221.525 507.484 221.975 507.234 222.575C506.984 223.175 506.859 223.908 506.859 224.775C506.859 226.108 507.142 227.117 507.709 227.8C508.292 228.483 509.15 228.825 510.284 228.825C511.117 228.825 511.8 228.667 512.334 228.35C512.884 228.033 513.242 227.583 513.409 227H516.234C515.967 228.35 515.3 229.408 514.234 230.175C513.184 230.942 511.85 231.325 510.234 231.325ZM513.784 213.475L511.334 217.175H509.084L510.959 213.475H513.784ZM524.15 231.325C522.933 231.325 521.85 231.05 520.9 230.5C519.966 229.933 519.233 229.167 518.7 228.2C518.166 227.217 517.9 226.092 517.9 224.825C517.9 223.542 518.158 222.408 518.675 221.425C519.191 220.442 519.916 219.675 520.85 219.125C521.783 218.558 522.85 218.275 524.05 218.275C525.3 218.275 526.375 218.542 527.275 219.075C528.175 219.592 528.866 220.317 529.35 221.25C529.85 222.183 530.1 223.3 530.1 224.6V225.525L519.5 225.55L519.55 223.6H527.075C527.075 222.75 526.8 222.067 526.25 221.55C525.716 221.033 524.991 220.775 524.075 220.775C523.358 220.775 522.75 220.925 522.25 221.225C521.766 221.525 521.4 221.975 521.15 222.575C520.9 223.175 520.775 223.908 520.775 224.775C520.775 226.108 521.058 227.117 521.625 227.8C522.208 228.483 523.066 228.825 524.2 228.825C525.033 228.825 525.716 228.667 526.25 228.35C526.8 228.033 527.158 227.583 527.325 227H530.15C529.883 228.35 529.216 229.408 528.15 230.175C527.1 230.942 525.766 231.325 524.15 231.325Z" fill="#FF66A2"/>
<rect x="55" y="362" width="219" height="44" rx="22" fill="#FDFAF8" stroke="#FF66A2" stroke-width="2"/>
<path d="M83.975 377.25V394H80.775V377.25H83.975ZM75.425 378.675V375.725H89.325V378.675H75.425ZM97.5818 381.6V384.425H96.4568C95.3402 384.425 94.4652 384.725 93.8318 385.325C93.1985 385.908 92.8818 386.8 92.8818 388V394H89.8318V381.675H92.7068L92.9568 384.225H92.6568C92.8235 383.408 93.2152 382.742 93.8318 382.225C94.4485 381.708 95.2485 381.45 96.2318 381.45C96.4485 381.45 96.6652 381.458 96.8818 381.475C97.0985 381.492 97.3318 381.533 97.5818 381.6ZM102.833 394.325C101.533 394.325 100.5 393.975 99.733 393.275C98.983 392.558 98.608 391.625 98.608 390.475C98.608 389.342 98.9997 388.442 99.783 387.775C100.583 387.092 101.716 386.692 103.183 386.575L106.883 386.275V386C106.883 385.433 106.775 384.983 106.558 384.65C106.358 384.3 106.066 384.05 105.683 383.9C105.3 383.733 104.85 383.65 104.333 383.65C103.433 383.65 102.741 383.833 102.258 384.2C101.775 384.55 101.533 385.05 101.533 385.7H98.933C98.933 384.8 99.158 384.025 99.608 383.375C100.075 382.708 100.725 382.192 101.558 381.825C102.408 381.458 103.383 381.275 104.483 381.275C105.6 381.275 106.558 381.475 107.358 381.875C108.158 382.258 108.775 382.842 109.208 383.625C109.641 384.392 109.858 385.35 109.858 386.5V394H107.183L106.958 392.175C106.691 392.808 106.175 393.325 105.408 393.725C104.658 394.125 103.8 394.325 102.833 394.325ZM103.808 392.025C104.758 392.025 105.508 391.758 106.058 391.225C106.625 390.692 106.908 389.95 106.908 389V388.35L104.333 388.55C103.383 388.633 102.708 388.833 102.308 389.15C101.908 389.45 101.708 389.85 101.708 390.35C101.708 390.9 101.891 391.317 102.258 391.6C102.625 391.883 103.141 392.025 103.808 392.025ZM115.866 394L110.966 381.65H114.216L116.366 387.325C116.633 388.058 116.858 388.733 117.041 389.35C117.241 389.95 117.383 390.417 117.466 390.75C117.549 390.367 117.691 389.875 117.891 389.275C118.108 388.658 118.349 388.008 118.616 387.325L120.866 381.65H124.016L118.866 394H115.866ZM128.858 394.325C127.558 394.325 126.525 393.975 125.758 393.275C125.008 392.558 124.633 391.625 124.633 390.475C124.633 389.342 125.025 388.442 125.808 387.775C126.608 387.092 127.742 386.692 129.208 386.575L132.908 386.275V386C132.908 385.433 132.8 384.983 132.583 384.65C132.383 384.3 132.092 384.05 131.708 383.9C131.325 383.733 130.875 383.65 130.358 383.65C129.458 383.65 128.767 383.833 128.283 384.2C127.8 384.55 127.558 385.05 127.558 385.7H124.958C124.958 384.8 125.183 384.025 125.633 383.375C126.1 382.708 126.75 382.192 127.583 381.825C128.433 381.458 129.408 381.275 130.508 381.275C131.625 381.275 132.583 381.475 133.383 381.875C134.183 382.258 134.8 382.842 135.233 383.625C135.667 384.392 135.883 385.35 135.883 386.5V394H133.208L132.983 392.175C132.717 392.808 132.2 393.325 131.433 393.725C130.683 394.125 129.825 394.325 128.858 394.325ZM129.833 392.025C130.783 392.025 131.533 391.758 132.083 391.225C132.65 390.692 132.933 389.95 132.933 389V388.35L130.358 388.55C129.408 388.633 128.733 388.833 128.333 389.15C127.933 389.45 127.733 389.85 127.733 390.35C127.733 390.9 127.917 391.317 128.283 391.6C128.65 391.883 129.167 392.025 129.833 392.025ZM138.88 394V381.65H141.93V394H138.88ZM140.38 379.175C139.863 379.175 139.421 379 139.055 378.65C138.705 378.283 138.53 377.842 138.53 377.325C138.53 376.808 138.705 376.375 139.055 376.025C139.421 375.675 139.863 375.5 140.38 375.5C140.896 375.5 141.33 375.675 141.68 376.025C142.046 376.375 142.23 376.808 142.23 377.325C142.23 377.842 142.046 378.283 141.68 378.65C141.33 379 140.896 379.175 140.38 379.175ZM148.156 394H145.131V375.4H148.156V394ZM163.169 394.325C161.969 394.325 160.935 394.058 160.069 393.525C159.219 392.975 158.552 392.217 158.069 391.25C157.602 390.283 157.369 389.158 157.369 387.875C157.369 386.592 157.602 385.458 158.069 384.475C158.552 383.475 159.244 382.692 160.144 382.125C161.044 381.558 162.11 381.275 163.344 381.275C164.21 381.275 165.002 381.45 165.719 381.8C166.435 382.133 166.985 382.608 167.369 383.225V375.4H170.394V394H167.594L167.394 392.075C167.027 392.775 166.46 393.325 165.694 393.725C164.944 394.125 164.102 394.325 163.169 394.325ZM163.844 391.525C164.56 391.525 165.177 391.375 165.694 391.075C166.21 390.758 166.61 390.317 166.894 389.75C167.194 389.167 167.344 388.508 167.344 387.775C167.344 387.025 167.194 386.375 166.894 385.825C166.61 385.258 166.21 384.817 165.694 384.5C165.177 384.167 164.56 384 163.844 384C163.144 384 162.535 384.167 162.019 384.5C161.502 384.817 161.102 385.258 160.819 385.825C160.552 386.392 160.419 387.042 160.419 387.775C160.419 388.508 160.552 389.158 160.819 389.725C161.102 390.292 161.502 390.733 162.019 391.05C162.535 391.367 163.144 391.525 163.844 391.525ZM175.897 378.725L176.172 378.65C176.039 378.75 175.897 378.833 175.747 378.9C175.597 378.95 175.405 378.975 175.172 378.975C174.739 378.975 174.364 378.825 174.047 378.525C173.73 378.225 173.572 377.8 173.572 377.25C173.572 376.7 173.739 376.25 174.072 375.9C174.422 375.55 174.872 375.375 175.422 375.375C176.005 375.375 176.489 375.6 176.872 376.05C177.255 376.483 177.447 377.075 177.447 377.825C177.447 378.875 177.13 379.767 176.497 380.5C175.864 381.233 175.047 381.667 174.047 381.8V380.6C174.58 380.483 175.022 380.267 175.372 379.95C175.722 379.633 175.897 379.225 175.897 378.725ZM184.517 394.325C183.3 394.325 182.217 394.05 181.267 393.5C180.334 392.933 179.6 392.167 179.067 391.2C178.534 390.217 178.267 389.092 178.267 387.825C178.267 386.542 178.525 385.408 179.042 384.425C179.559 383.442 180.284 382.675 181.217 382.125C182.15 381.558 183.217 381.275 184.417 381.275C185.667 381.275 186.742 381.542 187.642 382.075C188.542 382.592 189.234 383.317 189.717 384.25C190.217 385.183 190.467 386.3 190.467 387.6V388.525L179.867 388.55L179.917 386.6H187.442C187.442 385.75 187.167 385.067 186.617 384.55C186.084 384.033 185.359 383.775 184.442 383.775C183.725 383.775 183.117 383.925 182.617 384.225C182.134 384.525 181.767 384.975 181.517 385.575C181.267 386.175 181.142 386.908 181.142 387.775C181.142 389.108 181.425 390.117 181.992 390.8C182.575 391.483 183.434 391.825 184.567 391.825C185.4 391.825 186.084 391.667 186.617 391.35C187.167 391.033 187.525 390.583 187.692 390H190.517C190.25 391.35 189.584 392.408 188.517 393.175C187.467 393.942 186.134 394.325 184.517 394.325ZM188.067 376.475L185.617 380.175H183.367L185.242 376.475H188.067ZM192.183 387.675C192.183 386.375 192.416 385.25 192.883 384.3C193.366 383.35 194.041 382.608 194.908 382.075C195.791 381.542 196.808 381.275 197.958 381.275C198.891 381.275 199.733 381.475 200.483 381.875C201.25 382.258 201.825 382.808 202.208 383.525L202.408 381.65H205.208V399.725H202.183V392.35C201.8 392.967 201.225 393.45 200.458 393.8C199.708 394.15 198.866 394.325 197.933 394.325C196.733 394.325 195.7 394.042 194.833 393.475C193.966 392.892 193.308 392.1 192.858 391.1C192.408 390.1 192.183 388.958 192.183 387.675ZM195.233 387.825C195.233 388.558 195.366 389.208 195.633 389.775C195.916 390.342 196.316 390.792 196.833 391.125C197.35 391.442 197.958 391.6 198.658 391.6C199.375 391.6 199.991 391.442 200.508 391.125C201.025 390.792 201.425 390.342 201.708 389.775C202.008 389.208 202.158 388.558 202.158 387.825C202.158 387.075 202.008 386.417 201.708 385.85C201.425 385.283 201.025 384.842 200.508 384.525C199.991 384.208 199.375 384.05 198.658 384.05C197.958 384.05 197.35 384.217 196.833 384.55C196.316 384.867 195.916 385.308 195.633 385.875C195.366 386.442 195.233 387.092 195.233 387.825ZM216.762 381.65H219.812V394H216.987L216.762 392.35C216.395 392.933 215.845 393.408 215.112 393.775C214.378 394.142 213.595 394.325 212.762 394.325C211.345 394.325 210.237 393.875 209.437 392.975C208.637 392.075 208.237 390.875 208.237 389.375V381.65H211.287V388.3C211.287 389.467 211.512 390.308 211.962 390.825C212.412 391.342 213.062 391.6 213.912 391.6C214.878 391.6 215.595 391.317 216.062 390.75C216.528 390.167 216.762 389.292 216.762 388.125V381.65ZM222.962 394V381.65H226.012V394H222.962ZM224.462 379.175C223.945 379.175 223.503 379 223.137 378.65C222.787 378.283 222.612 377.842 222.612 377.325C222.612 376.808 222.787 376.375 223.137 376.025C223.503 375.675 223.945 375.5 224.462 375.5C224.978 375.5 225.412 375.675 225.762 376.025C226.128 376.375 226.312 376.808 226.312 377.325C226.312 377.842 226.128 378.283 225.762 378.65C225.412 379 224.978 379.175 224.462 379.175ZM229.163 399.725V381.65H231.988L232.188 383.525C232.555 382.808 233.121 382.258 233.888 381.875C234.655 381.475 235.496 381.275 236.413 381.275C237.596 381.275 238.613 381.542 239.463 382.075C240.33 382.608 241.005 383.35 241.488 384.3C241.971 385.25 242.213 386.375 242.213 387.675C242.213 388.958 241.988 390.1 241.538 391.1C241.088 392.1 240.43 392.892 239.563 393.475C238.713 394.042 237.671 394.325 236.438 394.325C235.521 394.325 234.68 394.15 233.913 393.8C233.163 393.45 232.596 392.967 232.213 392.35V399.725H229.163ZM232.238 387.825C232.238 388.558 232.38 389.208 232.663 389.775C232.946 390.342 233.346 390.792 233.863 391.125C234.396 391.442 235.013 391.6 235.713 391.6C236.43 391.6 237.046 391.442 237.563 391.125C238.08 390.792 238.471 390.342 238.738 389.775C239.005 389.208 239.138 388.558 239.138 387.825C239.138 387.092 239.005 386.442 238.738 385.875C238.471 385.308 238.08 384.867 237.563 384.55C237.046 384.217 236.43 384.05 235.713 384.05C235.013 384.05 234.396 384.208 233.863 384.525C233.346 384.842 232.946 385.283 232.663 385.85C232.38 386.417 232.238 387.075 232.238 387.825ZM250.166 394.325C248.95 394.325 247.866 394.05 246.916 393.5C245.983 392.933 245.25 392.167 244.716 391.2C244.183 390.217 243.916 389.092 243.916 387.825C243.916 386.542 244.175 385.408 244.691 384.425C245.208 383.442 245.933 382.675 246.866 382.125C247.8 381.558 248.866 381.275 250.066 381.275C251.316 381.275 252.391 381.542 253.291 382.075C254.191 382.592 254.883 383.317 255.366 384.25C255.866 385.183 256.116 386.3 256.116 387.6V388.525L245.516 388.55L245.566 386.6H253.091C253.091 385.75 252.816 385.067 252.266 384.55C251.733 384.033 251.008 383.775 250.091 383.775C249.375 383.775 248.766 383.925 248.266 384.225C247.783 384.525 247.416 384.975 247.166 385.575C246.916 386.175 246.791 386.908 246.791 387.775C246.791 389.108 247.075 390.117 247.641 390.8C248.225 391.483 249.083 391.825 250.216 391.825C251.05 391.825 251.733 391.667 252.266 391.35C252.816 391.033 253.175 390.583 253.341 390H256.166C255.9 391.35 255.233 392.408 254.166 393.175C253.116 393.942 251.783 394.325 250.166 394.325Z" fill="#FF66A2"/>
<rect x="346" y="314" width="158" height="44" rx="22" fill="#FDFAF8" stroke="#FF66A2" stroke-width="2"/>
<path d="M384.675 336.85C384.675 338.7 384.3 340.342 383.55 341.775C382.8 343.192 381.758 344.3 380.425 345.1C379.092 345.9 377.55 346.3 375.8 346.3C374.067 346.3 372.533 345.9 371.2 345.1C369.867 344.3 368.825 343.192 368.075 341.775C367.342 340.358 366.975 338.725 366.975 336.875C366.975 335.008 367.35 333.367 368.1 331.95C368.85 330.517 369.883 329.4 371.2 328.6C372.533 327.8 374.075 327.4 375.825 327.4C377.575 327.4 379.108 327.8 380.425 328.6C381.758 329.4 382.8 330.508 383.55 331.925C384.3 333.342 384.675 334.983 384.675 336.85ZM381.325 336.85C381.325 335.55 381.1 334.425 380.65 333.475C380.2 332.525 379.567 331.792 378.75 331.275C377.933 330.742 376.958 330.475 375.825 330.475C374.708 330.475 373.733 330.742 372.9 331.275C372.083 331.792 371.45 332.525 371 333.475C370.55 334.425 370.325 335.55 370.325 336.85C370.325 338.15 370.55 339.283 371 340.25C371.45 341.2 372.083 341.933 372.9 342.45C373.733 342.967 374.708 343.225 375.825 343.225C376.958 343.225 377.933 342.967 378.75 342.45C379.567 341.917 380.2 341.175 380.65 340.225C381.1 339.258 381.325 338.133 381.325 336.85ZM394.978 333.6V336.425H393.853C392.737 336.425 391.862 336.725 391.228 337.325C390.595 337.908 390.278 338.8 390.278 340V346H387.228V333.675H390.103L390.353 336.225H390.053C390.22 335.408 390.612 334.742 391.228 334.225C391.845 333.708 392.645 333.45 393.628 333.45C393.845 333.45 394.062 333.458 394.278 333.475C394.495 333.492 394.728 333.533 394.978 333.6ZM396.025 339.55C396.025 338.35 396.267 337.283 396.75 336.35C397.25 335.4 397.942 334.65 398.825 334.1C399.709 333.55 400.734 333.275 401.9 333.275C402.95 333.275 403.85 333.508 404.6 333.975C405.35 334.425 405.875 335.058 406.175 335.875L405.85 336.15L406.1 333.65H408.925V345.375C408.925 346.742 408.659 347.925 408.125 348.925C407.609 349.942 406.867 350.717 405.9 351.25C404.95 351.8 403.8 352.075 402.45 352.075C400.684 352.075 399.234 351.6 398.1 350.65C396.967 349.7 396.3 348.4 396.1 346.75H399.15C399.25 347.55 399.584 348.175 400.15 348.625C400.734 349.075 401.5 349.3 402.45 349.3C403.5 349.3 404.334 348.992 404.95 348.375C405.584 347.775 405.9 346.958 405.9 345.925V342.85L406.25 343.175C405.95 343.958 405.4 344.583 404.6 345.05C403.8 345.517 402.875 345.75 401.825 345.75C400.659 345.75 399.642 345.483 398.775 344.95C397.909 344.417 397.234 343.683 396.75 342.75C396.267 341.817 396.025 340.75 396.025 339.55ZM399.1 339.475C399.1 340.175 399.234 340.8 399.5 341.35C399.784 341.883 400.175 342.308 400.675 342.625C401.175 342.942 401.759 343.1 402.425 343.1C403.125 343.1 403.725 342.95 404.225 342.65C404.742 342.333 405.134 341.908 405.4 341.375C405.684 340.825 405.825 340.192 405.825 339.475C405.825 338.758 405.692 338.142 405.425 337.625C405.159 337.092 404.767 336.675 404.25 336.375C403.75 336.075 403.142 335.925 402.425 335.925C401.742 335.925 401.15 336.083 400.65 336.4C400.15 336.7 399.767 337.117 399.5 337.65C399.234 338.183 399.1 338.792 399.1 339.475ZM415.757 346.325C414.457 346.325 413.424 345.975 412.657 345.275C411.907 344.558 411.532 343.625 411.532 342.475C411.532 341.342 411.924 340.442 412.707 339.775C413.507 339.092 414.64 338.692 416.107 338.575L419.807 338.275V338C419.807 337.433 419.699 336.983 419.482 336.65C419.282 336.3 418.99 336.05 418.607 335.9C418.224 335.733 417.774 335.65 417.257 335.65C416.357 335.65 415.665 335.833 415.182 336.2C414.699 336.55 414.457 337.05 414.457 337.7H411.857C411.857 336.8 412.082 336.025 412.532 335.375C412.999 334.708 413.649 334.192 414.482 333.825C415.332 333.458 416.307 333.275 417.407 333.275C418.524 333.275 419.482 333.475 420.282 333.875C421.082 334.258 421.699 334.842 422.132 335.625C422.565 336.392 422.782 337.35 422.782 338.5V346H420.107L419.882 344.175C419.615 344.808 419.099 345.325 418.332 345.725C417.582 346.125 416.724 346.325 415.757 346.325ZM416.732 344.025C417.682 344.025 418.432 343.758 418.982 343.225C419.549 342.692 419.832 341.95 419.832 341V340.35L417.257 340.55C416.307 340.633 415.632 340.833 415.232 341.15C414.832 341.45 414.632 341.85 414.632 342.35C414.632 342.9 414.815 343.317 415.182 343.6C415.549 343.883 416.065 344.025 416.732 344.025ZM428.828 346H425.778V333.65H428.603L428.853 335.25C429.236 334.633 429.778 334.15 430.478 333.8C431.195 333.45 431.97 333.275 432.803 333.275C434.353 333.275 435.52 333.733 436.303 334.65C437.103 335.567 437.503 336.817 437.503 338.4V346H434.453V339.125C434.453 338.092 434.22 337.325 433.753 336.825C433.286 336.308 432.653 336.05 431.853 336.05C430.903 336.05 430.161 336.35 429.628 336.95C429.095 337.55 428.828 338.35 428.828 339.35V346ZM440.5 346V333.65H443.55V346H440.5ZM442 331.175C441.483 331.175 441.041 331 440.675 330.65C440.325 330.283 440.15 329.842 440.15 329.325C440.15 328.808 440.325 328.375 440.675 328.025C441.041 327.675 441.483 327.5 442 327.5C442.516 327.5 442.95 327.675 443.3 328.025C443.666 328.375 443.85 328.808 443.85 329.325C443.85 329.842 443.666 330.283 443.3 330.65C442.95 331 442.516 331.175 442 331.175ZM445.751 342.25H448.651C448.668 342.783 448.868 343.208 449.251 343.525C449.634 343.842 450.168 344 450.851 344C451.584 344 452.134 343.867 452.501 343.6C452.884 343.333 453.076 342.975 453.076 342.525C453.076 342.225 452.976 341.958 452.776 341.725C452.576 341.492 452.201 341.317 451.651 341.2L449.426 340.675C448.309 340.425 447.476 340.025 446.926 339.475C446.393 338.908 446.126 338.133 446.126 337.15C446.126 336.35 446.334 335.658 446.751 335.075C447.184 334.492 447.768 334.05 448.501 333.75C449.234 333.433 450.076 333.275 451.026 333.275C451.943 333.275 452.751 333.442 453.451 333.775C454.151 334.108 454.693 334.575 455.076 335.175C455.476 335.775 455.684 336.475 455.701 337.275H452.801C452.801 336.742 452.634 336.325 452.301 336.025C451.968 335.708 451.501 335.55 450.901 335.55C450.301 335.55 449.834 335.683 449.501 335.95C449.168 336.217 449.001 336.575 449.001 337.025C449.001 337.708 449.534 338.175 450.601 338.425L452.826 338.95C453.859 339.183 454.634 339.558 455.151 340.075C455.684 340.592 455.951 341.325 455.951 342.275C455.951 343.108 455.734 343.833 455.301 344.45C454.868 345.05 454.259 345.517 453.476 345.85C452.693 346.167 451.793 346.325 450.776 346.325C449.243 346.325 448.018 345.95 447.101 345.2C446.201 344.45 445.751 343.467 445.751 342.25ZM463.798 346.325C462.582 346.325 461.498 346.05 460.548 345.5C459.615 344.933 458.882 344.167 458.348 343.2C457.815 342.217 457.548 341.092 457.548 339.825C457.548 338.542 457.807 337.408 458.323 336.425C458.84 335.442 459.565 334.675 460.498 334.125C461.432 333.558 462.498 333.275 463.698 333.275C464.948 333.275 466.023 333.542 466.923 334.075C467.823 334.592 468.515 335.317 468.998 336.25C469.498 337.183 469.748 338.3 469.748 339.6V340.525L459.148 340.55L459.198 338.6H466.723C466.723 337.75 466.448 337.067 465.898 336.55C465.365 336.033 464.64 335.775 463.723 335.775C463.007 335.775 462.398 335.925 461.898 336.225C461.415 336.525 461.048 336.975 460.798 337.575C460.548 338.175 460.423 338.908 460.423 339.775C460.423 341.108 460.707 342.117 461.273 342.8C461.857 343.483 462.715 343.825 463.848 343.825C464.682 343.825 465.365 343.667 465.898 343.35C466.448 343.033 466.807 342.583 466.973 342H469.798C469.532 343.35 468.865 344.408 467.798 345.175C466.748 345.942 465.415 346.325 463.798 346.325ZM467.348 328.475L464.898 332.175H462.648L464.523 328.475H467.348ZM477.714 346.325C476.498 346.325 475.414 346.05 474.464 345.5C473.531 344.933 472.798 344.167 472.264 343.2C471.731 342.217 471.464 341.092 471.464 339.825C471.464 338.542 471.723 337.408 472.239 336.425C472.756 335.442 473.481 334.675 474.414 334.125C475.348 333.558 476.414 333.275 477.614 333.275C478.864 333.275 479.939 333.542 480.839 334.075C481.739 334.592 482.431 335.317 482.914 336.25C483.414 337.183 483.664 338.3 483.664 339.6V340.525L473.064 340.55L473.114 338.6H480.639C480.639 337.75 480.364 337.067 479.814 336.55C479.281 336.033 478.556 335.775 477.639 335.775C476.923 335.775 476.314 335.925 475.814 336.225C475.331 336.525 474.964 336.975 474.714 337.575C474.464 338.175 474.339 338.908 474.339 339.775C474.339 341.108 474.623 342.117 475.189 342.8C475.773 343.483 476.631 343.825 477.764 343.825C478.598 343.825 479.281 343.667 479.814 343.35C480.364 343.033 480.723 342.583 480.889 342H483.714C483.448 343.35 482.781 344.408 481.714 345.175C480.664 345.942 479.331 346.325 477.714 346.325Z" fill="#FF66A2"/>
</svg>
