<svg width="491" height="491" viewBox="0 0 491 491" fill="none" xmlns="http://www.w3.org/2000/svg">
<g filter="url(#filter0_df_0_150)">
<circle cx="245.5" cy="245.5" r="221.5" fill="#FDFAF8"/>
</g>
<circle cx="245.5" cy="245.5" r="216.5" fill="#FDFAF8" stroke="#FDFAF8" stroke-width="10"/>
<path d="M205.326 127.013L218.643 172.549L264.179 185.866L218.643 199.183L205.326 244.719L192.009 199.183L146.473 185.866L192.009 172.549L205.326 127.013Z" fill="#00DA7E" fill-opacity="0.2"/>
<path d="M295.336 172.018L303.431 199.697L331.109 207.792L303.431 215.886L295.336 243.565L287.241 215.886L259.562 207.792L287.241 199.697L295.336 172.018Z" fill="#00DA7E" fill-opacity="0.2"/>
<path d="M256.102 219.331L273.597 279.153L333.419 296.648L273.597 314.143L256.102 373.965L238.607 314.143L178.785 296.648L238.607 279.153L256.102 219.331Z" fill="#00DA7E" fill-opacity="0.2"/>
<defs>
<filter id="filter0_df_0_150" x="0" y="0.000244141" width="491" height="491" filterUnits="userSpaceOnUse" color-interpolation-filters="sRGB">
<feFlood flood-opacity="0" result="BackgroundImageFix"/>
<feColorMatrix in="SourceAlpha" type="matrix" values="0 0 0 0 0 0 0 0 0 0 0 0 0 0 0 0 0 0 127 0" result="hardAlpha"/>
<feMorphology radius="2" operator="dilate" in="SourceAlpha" result="effect1_dropShadow_0_150"/>
<feOffset/>
<feComposite in2="hardAlpha" operator="out"/>
<feColorMatrix type="matrix" values="0 0 0 0 0 0 0 0 0 0.854902 0 0 0 0 0.494118 0 0 0 1 0"/>
<feBlend mode="normal" in2="BackgroundImageFix" result="effect1_dropShadow_0_150"/>
<feBlend mode="normal" in="SourceGraphic" in2="effect1_dropShadow_0_150" result="shape"/>
<feGaussianBlur stdDeviation="12" result="effect2_foregroundBlur_0_150"/>
</filter>
</defs>
</svg>
