<svg width="210" height="258" viewBox="0 0 210 258" fill="none" xmlns="http://www.w3.org/2000/svg">
<path d="M79.2763 79.2256L82.1558 80.0676C82.1551 80.0699 82.1544 80.0721 82.1538 80.0744L82.1557 80.0676L79.2763 79.2256ZM79.2763 79.2256L80.1184 82.105C80.1207 82.1043 80.1229 82.1037 80.1251 82.103L80.1184 82.105L79.2763 79.2256ZM82.1558 48.5252L79.2764 49.3672L82.1557 48.5251L82.1541 48.5194C82.1546 48.5213 82.1552 48.5232 82.1558 48.5252ZM118.04 57.5778L81.6948 46.9488L71.0658 10.6038C69.1024 3.89022 59.5919 3.8903 57.6286 10.6038L46.9996 46.9488L10.6546 57.5778L12.058 62.3768L10.6546 57.5778C3.941 59.5412 3.94108 69.0516 10.6546 71.015L46.9996 81.644L57.6286 117.989C59.592 124.703 69.1024 124.702 71.0658 117.989L81.6948 81.644L118.04 71.015C124.753 69.0516 124.753 59.5411 118.04 57.5778ZM48.5759 82.105C48.574 82.1044 48.5721 82.1039 48.5701 82.1033L48.5759 82.105L49.418 79.2256L48.5759 82.105Z" fill="white" stroke="white" stroke-width="10"/>
<path d="M138.16 80.0548L139.494 84.615L138.16 80.0548C131.447 82.0182 131.447 91.5286 138.16 93.492L156.648 98.8987L162.055 117.386C164.018 124.1 173.529 124.1 175.492 117.386L180.899 98.8987L199.386 93.492C206.1 91.5286 206.1 82.0182 199.386 80.0548L180.899 74.6481L175.492 56.1605L170.693 57.5639L175.492 56.1604C173.529 49.4469 164.018 49.4469 162.055 56.1605L156.648 74.6481L138.16 80.0548Z" fill="white" stroke="white" stroke-width="10"/>
<path d="M112.246 105.735C112.245 105.733 112.245 105.731 112.244 105.729L112.845 105.553L112.244 105.729L112.246 105.735ZM45.774 172.199C45.776 172.2 45.7781 172.2 45.7802 172.201L45.774 172.199L45.5983 172.8L45.774 172.199ZM45.7802 177.956C45.7781 177.957 45.7761 177.957 45.774 177.958L45.5983 177.357L45.774 177.958L45.7802 177.956ZM112.244 244.428C112.244 244.426 112.245 244.425 112.245 244.423L112.244 244.428ZM184.473 177.958C184.471 177.957 184.47 177.957 184.468 177.957L184.473 177.958ZM184.473 172.199L184.468 172.2C184.47 172.2 184.471 172.199 184.473 172.199ZM118.003 244.428L118.001 244.423C118.002 244.425 118.002 244.426 118.003 244.428ZM118.001 105.735L118.003 105.729L117.402 105.553L118.003 105.729C118.002 105.731 118.002 105.733 118.001 105.735ZM137.11 195.028L134.23 194.185L137.11 195.028C137.109 195.03 137.109 195.032 137.108 195.034L137.11 195.028ZM136.649 196.604L187.28 181.797C193.993 179.834 193.993 170.323 187.28 168.36L136.649 153.553L121.842 102.922C119.879 96.2086 110.368 96.2086 108.405 102.922L93.5979 153.553L42.9671 168.36C36.2536 170.323 36.2535 179.834 42.9671 181.797L93.5979 196.604L108.405 247.235C110.368 253.948 119.879 253.948 121.842 247.235L136.649 196.604ZM135.072 197.065L135.078 197.063C135.076 197.064 135.074 197.064 135.072 197.065ZM95.1743 197.065C95.1723 197.064 95.1704 197.064 95.1685 197.063L95.1742 197.065L96.0163 194.185L95.1743 197.065Z" fill="white" stroke="white" stroke-width="10"/>
<path d="M62.5818 15.5001C63.146 13.5882 65.854 13.5882 66.4182 15.5001L76.7483 50.5048C76.9414 51.1591 77.4546 51.6698 78.1098 51.8597L113.372 62.079C115.296 62.6368 115.296 65.3632 113.372 65.921L78.1098 76.1403C77.4546 76.3302 76.9414 76.8409 76.7483 77.4952L66.4182 112.5C65.854 114.412 63.146 114.412 62.5818 112.5L52.2517 77.4952C52.0586 76.8409 51.5454 76.3302 50.8902 76.1403L15.6283 65.921C13.7039 65.3632 13.7039 62.6368 15.6283 62.079L50.8902 51.8597C51.5454 51.6698 52.0586 51.1591 52.2517 50.5048L62.5818 15.5001Z" fill="#FF66A2"/>
<path d="M166.996 59.1147C167.557 57.1965 170.275 57.1965 170.836 59.1147L176.189 77.4197C176.38 78.0745 176.892 78.5864 177.547 78.7779L195.852 84.1312C197.77 84.6921 197.77 87.4094 195.852 87.9704L177.547 93.3236C176.892 93.5151 176.38 94.0271 176.189 94.6819L170.836 112.987C170.275 114.905 167.557 114.905 166.996 112.987L161.643 94.6819C161.452 94.0271 160.94 93.5151 160.285 93.3236L141.98 87.9704C140.062 87.4094 140.062 84.6921 141.98 84.1312L160.285 78.7779C160.94 78.5864 161.452 78.0745 161.643 77.4197L166.996 59.1147Z" fill="#FF66A2"/>
<path d="M113.08 109.564C113.641 107.646 116.359 107.646 116.92 109.564L130.984 157.657C131.176 158.312 131.688 158.824 132.343 159.016L180.436 173.08C182.354 173.641 182.354 176.359 180.436 176.92L132.343 190.984C131.688 191.176 131.176 191.688 130.984 192.343L116.92 240.436C116.359 242.354 113.641 242.354 113.08 240.436L99.0156 192.343C98.8241 191.688 98.3121 191.176 97.6574 190.984L49.5639 176.92C47.6457 176.359 47.6457 173.641 49.5639 173.08L97.6574 159.016C98.3121 158.824 98.8241 158.312 99.0156 157.657L113.08 109.564Z" fill="#FF66A2"/>
</svg>
